<?xml version="1.0" encoding="utf-8"?>
<!-- Generator: Adobe Illustrator 21.0.2, SVG Export Plug-In . SVG Version: 6.00 Build 0)  -->
<svg version="1.1" id="Слой_1" xmlns="http://www.w3.org/2000/svg" xmlns:xlink="http://www.w3.org/1999/xlink" x="0px" y="0px"
	 viewBox="0 0 500 500" style="enable-background:new 0 0 500 500;" xml:space="preserve">
<style type="text/css">
	.st0{fill:url(#SVGID_1_);}
	.st1{fill:#FFAB4C;}
	.st2{fill:#FFD635;}
	.st3{fill:#FFDEB7;}
	.st4{fill:#FFFFFF;}
	.st5{fill:#FF7175;}
</style>
<linearGradient id="SVGID_1_" gradientUnits="userSpaceOnUse" x1="225.1474" y1="-101.5136" x2="276.906" y2="214.0322" gradientTransform="matrix(1 0 0 1 0 200)">
	<stop  offset="0" style="stop-color:#00C5D4"/>
	<stop  offset="0.1106" style="stop-color:#00BCD4"/>
	<stop  offset="0.292" style="stop-color:#00A3D4"/>
	<stop  offset="0.5216" style="stop-color:#007BD4"/>
	<stop  offset="0.7876" style="stop-color:#0044D4"/>
	<stop  offset="1" style="stop-color:#0013D4"/>
</linearGradient>
<circle class="st0" cx="250" cy="250" r="175.7"/>
<path d="M386.7,285.1c-2.4,1.2-4.6,2.3-6.8,3.3c-11.4,5.3-23,10.4-35,14.4c-5.9,2-11.8,3.4-18.1,3.4c-2.4,0-4.8,0.4-7.1-0.6
	c-0.2-0.1-0.6,0.1-0.9,0.2c-0.1,0-0.2,0.2-0.3,0.3c-2.9,1.6-5.3,3.5-7.2,6.5c-1.4,2.2-4.1,2.4-6.4,1.5c-2.4-0.9-4.6-2.2-6.9-3.3
	c-0.5-0.2-0.8-0.6-1.3-0.9c-0.5,4.2-0.9,8.4-1.4,12.5c2.1-0.1,4.3-0.4,6.5-0.4c7.6,0.1,13.9,2.9,18.5,9.2c2,2.7,4.3,5.3,6.7,8.2
	c0.8-2.7,1.4-5.1,2.1-7.5c0.7-2.3,1.9-4.4,3.8-6c4.3-3.8,9.4-3.3,12.8,1.3c0.3,0.4,1,0.9,1.4,0.8c5.4-1.6,8.3,1.6,9.7,5.7
	c1.8,5.2,1.9,10.6,0.9,16c-1.2,6.6-3.9,12.4-8.2,17.6c-5.9,7-13.5,9.6-22.2,7.6c-6.8-1.5-13.4-3.8-20-5.9c-9.3-3-18.6-5.7-28.3-6.7
	c-8.4-0.8-16.7-0.3-25,0.8c-16.1,2.1-31.8,6-47.1,11.5c-5.4,2-11,3.9-16.7,5c-15.1,3-25.5-2-31.6-17c-3-7.5-3.3-15.2,0.5-22.6
	c1.6-3.1,3.8-5.8,7.2-7.1c1.8-0.7,3.6-0.9,5.5-0.2c0.4,0.1,1,0,1.3-0.3c2.3-2.1,4.9-2.4,7.8-2c2.7,0.4,4.6,2,5.5,4.6
	c0.7,1.9,1.2,3.9,1.7,5.9c2.6-2.9,5.3-5.8,8-8.8c-1.1-0.5-2.3-0.9-3.4-1.4c-6-2.8-10.9-7.1-15.5-11.8c-5.3-5.4-10.7-10.6-17.2-14.5
	c-3.2-1.9-6.5-3.4-10.2-3.8c-5.5-0.6-10.5,1.1-15.3,3.6c-0.5,0.3-1,0.6-1.6,0.7c-0.4,0.1-1.1,0.2-1.3-0.1c-0.3-0.3-0.4-1.1-0.2-1.4
	c0.6-1.1,1.2-2.2,2.1-3c3.1-3,7-4.7,11-6.1c11.9-4.1,22.4-1.1,32,6.4c3.7,2.9,7.2,6,10.9,8.9c4.6,3.6,9.5,7,15.5,7.9
	c2.7,0.4,5.5,0.2,8.2,0.2c0.5,0,1.2-0.4,1.4-0.8c2.2-4.8,5.7-8.7,9-12.8c2.9-3.6,5.2-7.5,6.3-12c0.2-0.9,0.2-2.1-0.2-3
	c-1.9-4.1-4-8-6-12.1c-2.8-5.7-5.3-11.6-6.1-18c-0.4-3.6-0.1-7,1.9-10c-2.8-1-5.6-1.7-8.2-2.8c-5.3-2.1-9.7-5.5-13.8-9.5
	c-0.7-0.7-1.2-0.9-2.3-0.4c-5.8,2.7-11.8,2.5-17.8,0.8c-12.3-3.3-22.6-10.1-30.9-19.7c-9.7-11.1-14.9-24.2-17.1-38.6
	c-1.1-7.2-1.2-14.5,0-21.7c0.8-4.5,2.4-8.7,5.2-12.3c6.2-8.2,15.2-10.6,24.8-6.8c6,2.3,11.1,6,16.5,9.3c4.8,2.9,9.7,5.5,14.7,8.3
	c3.1-7.3,9.3-11.2,14.4-16.3c3.2-3.1,6.3-6.4,8-10.5c0.9-2,1.4-4.1,2.1-6.3c1,1.7,1.6,3.5,1.5,5.5c0,1.9-0.1,3.9-0.5,5.7
	c-0.4,1.9-1.2,3.8-1.8,5.8c1.6-0.5,2.5-1.2,2.9-3c1.4-6.6,2.6-13.2,4.6-19.7c2-6.4,7.1-8.7,13.5-6.9c4,1.1,7.1,3.5,9.9,6.5
	c3.9,4.1,6.7,9,8.8,14.2c0.4,1,0.9,1.3,1.9,1.5c2.6,0.6,5.2,1.3,7.9,2c0,0.2,0,0.3-0.1,0.5c-2.6,0-5.3,0-8,0c0.7,3,1.3,5.8,2.1,8.6
	c0.1,0.4,0.9,0.7,1.5,0.9c8,2.9,14.7,7.6,19.2,14.9c3.5,5.7,5.1,12.1,5.8,18.7c0.6,6-0.2,12-0.7,18c0,0.6,0,1.2,0,1.7
	c0.1,2.2,1,3.1,3.3,3c2.1,0,4.3-0.1,6.4-0.3c0.5,0,1.1-0.4,1.5-0.7c5.8-3.5,12.1-6,18.6-7.8c0.4-0.1,0.8-0.1,1.5-0.3
	c-6.6,3.1-12.9,6-19.7,9.1c1,0.6,1.6,0.9,2.1,1.3c1.7,1.2,2.8,2.8,3.4,4.8c0.3,1.2,1,1.5,2.1,1.4c6-0.6,12-0.3,18,0.5
	c0.2,0,0.4,0.2,0.7,0.3c-6.7,0.4-13.3,0.7-20,1.1c-0.1,13.7-8.8,21.5-18.9,28.7c8.6,1.2,15.1,6.2,22,10.7c0.4-0.9,0.8-1.7,1-2.5
	c0.4-1.5,1.5-2.3,2.8-3.1c2.4-1.5,4.8-3.1,6.7-5c2.9-2.9,2.9-6.1,0.4-9.5c-0.4-0.5-0.8-1.1-1.5-1.9c2.5-1.3,4.8-2.8,7.3-3.7
	c5-1.9,10.1-3.4,15.1-5.1c2.3-0.8,4.4,0.2,6.6,0.5c3.1,0.3,5.9-0.3,8.6-1.8c0.9-0.5,2.1-0.9,3-0.7c4.5,1.3,9,2.6,13.4,4.3
	c1.3,0.5,2.5,1.9,3.1,3.1c4.3,9.2,8.8,18.3,12.6,27.7c2.3,5.7,3.4,11.8,4.9,17.8c0.4,1.7,0.2,3.3-1.1,4.8c-3.5,4.2-3.2,7.2,0,10.2
	C386.2,284.2,386.3,284.5,386.7,285.1z M243.4,214.7c-1.9-2.3-3.9-4.5-5.8-6.9c-5.5-7.2-9.4-15.1-10.6-24.1
	c-0.3-2.7,0.2-5.2,1.3-7.8c1-2.3,1.6-4.8,1.9-7.2c0.2-2.2-0.2-4.5-0.4-6.8c2,2.6,2.6,5.5,2.2,8.9c2.4-2,4-4.1,4.5-6.8
	c0.5-2.6,0.5-5.3,0.7-7.9c2.1,6,1.7,11.5-3.1,16.1c1.9,0.7,3.7,1.1,5.3,2c4.1,2.3,7,5.7,8.8,10c3.4,8.1,5,16.6,4.8,25.4
	c0,0.6,0,1.1,0,1.8c0.7-0.1,1.2-0.3,1.7-0.4c3.5-0.4,7-0.9,10.6-1.1c2.5-0.1,4.4-1.2,6.4-2.6c-1-2.1-1.9-4.1-2.8-6.1
	c-3.1-7.2-5.9-14.4-6.8-22.3c-0.3-2.5-0.4-5.1,1.3-7.2c2.6-3.4,3.7-7.2,3.3-11.5c0-0.2,0.1-0.5,0.2-1.1c1.4,3.4,1.2,6.4,0.2,9.8
	c3.4-1.3,5.2-3.6,6.6-6.4c0.5-1,0.5-1.8-0.3-2.7c-4.4-5.7-10.2-9.5-16.9-12.1c-12.3-4.8-24.9-5.1-37.7-2.7c-2.5,0.5-4.9,1.1-7.4,1.7
	c0-0.2-0.1-0.3-0.1-0.5c12.5-10.6,27.8-11.7,43.2-12.9c-8-0.8-16-0.4-23.8,1.4c-7.8,1.8-15.2,4.9-22.6,8.5c3.6-5,6.1-10.1,6-16.1
	c-0.6,1.2-0.9,2.4-1.3,3.7c-2,5.6-5.9,9.7-10.3,13.4c-3.1,2.6-6.1,5.3-9,8.1c-1.1,1-1.8,2.5-2.7,3.8c2.2,1.1,4.2,2.1,6.1,3.1
	c-1.2,0.1-2.2-0.1-3.3-0.3c-8.9-2.2-17.1-6.1-25.1-10.6c-5.3-3-10.7-6-16.6-7.7c-7.3-2.1-13.2-0.2-17.9,8
	c-2.9,5.1-3.6,10.9-3.7,16.7c-0.1,7.9,1.3,15.5,3.6,23c3.1,10.2,7.4,19.8,15,27.6c10.3,10.5,22.4,17.4,37.2,18.9
	c2.4,0.2,4.9-0.1,7.5-0.2c-0.2-0.6-0.2-0.7-0.3-0.7c-6.5-7.4-10.9-15.8-12.9-25.5c-0.2-0.9-0.7-1-1.4-1c-12.2-0.5-15.3-11-12.9-18.7
	c0.6-2.1,1.8-3.9,3.9-5.4c0,1,0,1.6,0,2.2c0.3,3.6,1,7.1,4.2,9.4c4.2,3,8.1,1.4,8.9-3.7c0-0.3,0.1-0.6,0.1-0.9
	c0.3-3.9-0.4-7.6-1.7-11.2c-2.7-7-7.1-12.6-12.6-17.5c-6.6-5.9-13.8-10.7-22.7-12.5c-0.2,0-0.4-0.3-0.7-0.4c0-0.1,0.1-0.3,0.1-0.4
	c2.5,0.4,5.1,0.6,7.5,1.3c12.2,3.4,21.2,11,28,21.5c3.5,5.5,5.8,11.4,5.4,18.1c-0.2,3.7-1.4,6.9-5.1,8.5c-4.5,1.9-8.9,0.4-11.2-4
	c-0.7-1.4-1.2-2.9-1.8-4.4c-0.3,0.7-0.4,1.3-0.3,2c0.1,4.5,0.9,8.7,4.7,11.6c2.4,1.9,5.3,2.5,8.2,2.7c1.1,0.1,1.5,0.5,1.9,1.5
	c1.2,3.1,2.3,6.2,3.8,9.1c7,13.9,17.5,24.1,31.7,30.6c0.9,0.4,1.7,0.4,2.6-0.2c2.4-1.5,5-2.3,7.9-2.2c4.6,0.1,8.5,2,12.3,4.4
	c2,1.3,3.9,0.8,6.1,0.8c-0.1-0.3-0.2-0.4-0.2-0.4c-0.3-0.2-0.7-0.3-1-0.5c-4.3-2-7.8-4.9-10.4-8.8c-0.8-1.3-1.7-1.9-3.2-1.6
	c-0.3,0.1-0.6,0.1-0.9,0c-3.3-0.8-6,0.4-8.4,2.7c-0.9,0.8-1.9,1.5-2.9,2.2c-0.1-0.1-0.2-0.2-0.3-0.4c1.5-1.4,3.1-2.9,4.9-4.6
	c-1.5,0.1-2.6,0.2-3.7,0.3c-0.1-0.2-0.1-0.4-0.2-0.6c5.5-0.2,9.3-3.7,13.5-6.4c-2.3-2.9-3.4-6.1-2.8-10.1c-8.2,1.3-16.1,2.5-24,3.8
	c0,0,0-0.2,0.1-0.2c0.7-0.3,1.4-0.6,2-0.8c6.9-2.3,14-3.5,21.2-4.2c0.8-0.1,1.7-0.4,2.4-0.8c1.9-1.1,3.8-1.4,5.7-0.2
	c1.9,1.1,3.8,0.4,6.1,0.7c-3-3.4-6.5-5.2-10.3-6.6c0.1-0.2,0.2-0.4,0.3-0.6C237.8,212.7,240.6,213.7,243.4,214.7z M309.4,300.4
	c2.5-0.4,4.6,0.1,6.5,1c1.9,0.8,3.6,1.9,5.5,2.7c1.3,0.5,2.8,1.4,4.1,0c1.2-1.4,0.6-3-0.2-4.4c-0.5-0.9-1-1.7-1.8-2.4
	c-1.5-1.3-2.9-2.7-4.6-3.8c-3.1-2-6.3-4-8.3-7.4c-0.4,0.8-0.8,1.5-1.1,2.2c-0.2-1-0.2-1.8,0-2.6c0.6-2.3,1.4-4.6,1.9-6.9
	c0.3-1.1,0.4-2.3,0.3-3.4c-0.2-1.7-1.6-2.4-3.1-1.7c-1.1,0.5-2,1.3-2.8,2.1c-1.5,1.4-2.7,3.1-4.2,4.4c-2.4,2-5,3.7-7.4,5.5
	c-0.2-0.1-0.5-0.7-1-0.8c-4.9-0.8-9.3-2.7-13.7-4.9c-13.4-7.1-26-15.4-37.3-25.6c-4.3-3.9-9.4-6.4-15.5-6.4c-4.7,0.1-7,2.3-7.2,7
	c0,0.7,0,1.4,0,2c0.5,6.7,2.7,12.9,5.2,19c2.2,5.3,4.7,10.4,5.7,16.1c0.4,2.1,0.7,4.3,1,6.5c-0.1,0-0.3,0-0.4,0.1
	c-0.5-1.7-1-3.3-1.5-5.2c-0.2,0.4-0.3,0.5-0.4,0.7c-1,7.7-4.6,14-9.6,19.7c-1.9,2.2-3.4,4.9-5,7.4c-0.4,0.7-0.6,1.5-1,2.4
	c3.7-0.3,7.1-0.9,10.5,0c-0.3,0.2-0.7,0.3-1,0.4c-5.3,0.8-10.3,2.3-15.1,4.8c-7.4,3.9-13.3,9.6-18.9,15.6c-0.3,0.3-0.5,1.1-0.4,1.5
	c0.5,2.7,1,5.3,1.7,8c0.6,2.2,1.5,4.2,2.3,6.3c-1-0.7-1.7-1.6-2.2-2.6c-2.5-4.3-3.5-9-4.5-13.8c-0.6-2.7-1.3-5.5-2.5-8
	c-1.6-3.4-5-4.1-8.2-2c-2.4,1.6-3.1,4.1-3.4,6.8c0,0.4-0.1,0.8-0.2,1.2c-1.2-2.5-0.8-5,0.2-7.9c-1.4,0.5-2.7,0.6-3.5,1.2
	c-1.9,1.5-3.9,3.1-5.3,5c-3.5,5-4,10.7-3.1,16.5c2.1,14.3,14.1,23.3,28,19.4c7.2-2,14.4-4.2,21.5-6.6c9.2-3,18.4-6.1,28.1-7.1
	c8.7-0.9,17.5-1.5,26.3-2c6-0.3,12.2-0.4,18.2,0c12.6,0.9,24.9,4,37,7.6c4.7,1.4,9.3,2.8,14.3,2.6c7.1-0.3,12.7-3.2,16.2-9.6
	c3.7-6.9,5.6-14.3,5.2-22.2c-0.1-2.1-0.5-4.3-1.1-6.3c-0.7-2.1-2.3-2.9-4.4-2.6c-1.2,0.2-1.8,0.6-1.5,2c0.5,2.3,0.4,4.6-0.5,6.8
	c-0.2-0.6-0.1-1.2-0.2-1.8c-0.4-2.2-0.5-4.5-1.3-6.6c-1.7-4.5-6.9-5.9-10.7-2.9c-2.2,1.7-3.1,4.1-4,6.6c-1.6,4.4-3.2,8.7-4.9,13.1
	c-0.2,0.6-0.7,1.2-1,1.8c0.3-2.1,0.9-4.1,1.4-6.1c0.1-0.4,0-1.2-0.3-1.4c-3.9-3.3-8-6.5-11.7-10c-5.2-4.9-11.3-7.3-18.2-7.7
	c-0.9-0.1-1.4,0.1-1.7,1.1c-1.7,5.3-4.3,10.2-7.7,14.7c-7.1,9.4-16.4,14-28.3,12.1c-6.5-1-12.1-3.9-15.5-9.8
	c-3-5.2-3.2-10.8-2.6-16.6c0.6-5.7,2.7-11,4.7-16.4c1.6-4,2.8-8.2,4.1-12.3c0.4-1.2,0.1-1.9-1.1-2.6c-4-2.5-7.8-5.3-11.6-8
	c-0.3-0.2-0.4-0.5-0.7-0.7c0.5,0,0.9,0.2,1.3,0.4c6.9,3.1,13.7,6.5,20.8,9.2c10,3.9,20.4,6.3,31.3,5.7c0.6,0,1.4,0.4,1.9,0.8
	c2.5,2.2,4.8,4.7,7.4,6.8c2.8,2.3,6,4,9.9,3.7c2-0.2,3.6-1.4,4.1-3c-5.4-0.4-6.5-0.6-7.6-1.6c4.5,0.1,8.9-0.1,13.3-2.7
	C315,303,312.3,301.8,309.4,300.4z M385.1,284.7c-2.4-1.7-3.8-3.8-3.3-6.5c0.3-1.7,1.1-3.5,2-5c0.8-1.3,1-2.4,0.6-3.8
	c-2.7-8-5.2-16-8.1-23.9c-2.6-7.2-5.4-14.4-8.2-21.5c-0.3-0.8-1-1.8-1.7-2c-4.5-1.6-9.1-3-13.8-4.3c-0.6-0.2-1.6,0-2,0.4
	c-3.5,3.2-7.4,3.4-11.7,2.4c-1.1-0.3-2.4-0.3-3.5,0.1c-6.7,2.2-13.3,4.5-19.9,6.8c-0.3,0.1-0.5,0.3-0.8,0.5c0.3,0.6,0.6,1.1,0.9,1.6
	c2.9,5.2,1.4,11.1-3.7,14.2c-1.3,0.8-2.8,1.5-4.3,2c-1.4,0.5-2.1,1.3-2.6,2.6c-3.1,9.2-6.2,18.4-9.3,27.7c-0.8,2.5-1.6,5-2.3,7.4
	c0.2,0.1,0.3,0.3,0.5,0.4c0.4-0.3,0.9-0.5,1.3-0.9c1-1.1,1.7-2.5,2.8-3.3c3.1-2,5.9-4.3,8.5-6.9c0.2-0.2,0.5-0.4,0.7-0.6
	c2.7-1.8,5.9-0.4,6.3,2.8c0.4,2.6-0.1,5-1.3,7.3c-0.2,0.4-0.4,0.8-0.8,1.7c2.1-0.4,3.8-0.5,5.5-1c1.7-0.5,3.2-1.7,3.3-3.6
	c0.2-1.8-1.2-2.8-2.5-3.7c-0.7-0.5-1.5-0.8-2.2-1.2c-0.3-0.2-0.6-0.4-1.1-0.7c2.1-0.4,4.6,0.4,6,1.9c2.5,2.6,2.1,6.2-1,8
	c-1.1,0.6-2.4,1.1-3.7,1.4c-1.6,0.3-3.2,0.4-4.7,0.6c-0.1,0.1-0.2,0.2-0.3,0.4c1.4,1.3,2.7,2.7,4.3,3.7c2.1,1.4,4.4,2.5,6.7,3.8
	c3.1,1.7,5.5,4,6.8,7.3c0.4,1,0.8,1.4,1.9,1.3c5.3-0.1,10.5-1,15.4-2.7c10.1-3.4,20.2-7.2,30.3-10.9
	C379.1,287.1,382,285.9,385.1,284.7z M250.4,295.8c0-0.1,0,0.1-0.1,0.3c-1.6,5.9-3.1,11.8-4.9,17.7c-1.8,5.7-3.1,11.4-2.9,17.4
	c0.3,7.1,2.9,13.1,9.7,16.2c9,4,20.8,3.5,28.9-5.9c7.7-9,11.3-19.7,13.2-31.2c0.3-1.9-0.2-3.1-1.6-4.2c-0.9-0.8-1.6-1.8-2.5-2.6
	c-0.5-0.4-1.3-0.8-1.8-0.7c-7.3,0.8-14.6,0.5-21.6-1.4C261.3,299.6,256,297.6,250.4,295.8z M292.9,274.7c0.3-0.4,0.4-0.6,0.5-0.9
	c2.6-6.6,5.2-13.3,7.7-19.9c0.1-0.4-0.1-1.2-0.5-1.5c-2.5-1.8-5-3.6-7.5-5.4c-4-2.7-8.1-5.4-12.9-6.7c-1.2-0.3-2.3-0.2-3.4,0.5
	c-7.4,4.6-15.4,8-24.2,9.1c-2.6,0.3-5.3,0.4-8.1,0.6c2.4,1.9,4.6,3.7,6.8,5.5c3.4-3,5.2-3.2,9-0.9c0.7,0.4,1.4,0.9,2,1.5
	c1.9,1.7,3.7,3.5,5.7,5.2c0.7,0.6,1.6,0.7,2.4,1.1c0.2-0.9,0.7-1.7,0.6-2.6c0-1.6-0.4-3.1-0.4-4.7c-0.1-3.7,1.6-5,5.2-4.4
	c0.1,0,0.3,0,0.6-0.1c-1.3-1.5-2.5-2.8-3.7-4.2c0.1-0.1,0.2-0.2,0.3-0.3C282.7,253.9,288.8,263.5,292.9,274.7z M235.2,237.9
	c0.3,0.4,0.4,0.7,0.7,0.9c2.9,3.1,6.1,5.8,10,7.8c2.9,1.5,5.8,2.1,8.9,1.2c4.2-1.3,8.3-2.8,12.4-4.4c1-0.4,2-1.1,2.9-1.8
	c5-4.3,8.3-9.7,10-16c0.4-1.3,0.5-2.7,0.9-4.4c-3.2,1.8-6.2,2.5-9.4,2.4c-0.4,0-0.9,0.4-1.2,0.8c-2.9,3.2-6.3,5.1-10.8,4.6
	c-0.9-0.1-1.6,0.1-2.3,1c-1.3,1.7-3.1,2.8-5.3,3c-1.6,0.1-3.1,0.6-4.6,1.2c-2.3,0.8-4.5,1.5-6.7,2.6
	C239.1,237.5,237.2,237.5,235.2,237.9z M246.6,213.8c1.3-0.5,2.7-1.2,4.2-1.7c0.9-0.3,1.2-0.8,1.1-1.7c-0.3-3.3-0.4-6.6-0.9-9.8
	c-1.2-8.1-4.1-15.5-9.2-21.9c-1.4-1.8-3.4-3.3-5.4-4.4c-3.4-1.9-6.4-0.2-7,3.6c-0.2,1.3-0.3,2.6-0.1,3.9c0.8,6.7,3.2,12.8,6.4,18.7
	c1,1.9,2.1,3.7,3.4,5.9c0.5-1.7,0.4-3.4,2-4.2c0.2,1.4,0.3,2.6,0.5,3.9c0.2,0,0.3,0,0.5,0c0.3-0.5,0.7-0.9,1.3-1.7
	C244.5,207.7,245.6,210.7,246.6,213.8z M248.2,130.9c-1.3-6.7-7.8-15.8-13.6-18.9c-1.6-0.8-3.6-1.4-5.4-1.3c-3.8,0.2-5.7,3-6.9,6.2
	c-2.3,6.1-2.7,12.5-3.6,19.2C228.3,131.9,238.1,130.7,248.2,130.9z M290.2,282c-0.1-0.7-0.1-1-0.2-1.3c-1.8-7.7-4.3-15.1-8.5-21.8
	c-1.3-2.1-3.7-3.8-5.9-5.2c-2.6-1.5-4-0.4-3.9,2.7c0.1,1.7,0.2,3.3,0.2,5c-0.1,2.3-1.6,3.3-3.8,2.4c-0.7-0.3-1.4-0.7-2-1.2
	c-1.7-1.4-3.3-2.8-4.9-4.2c-1.7-1.5-3.5-2.9-5.8-3.2c-1.4-0.2-2.6,0-3.3,1.5C263.4,267.1,275.8,275.8,290.2,282z M272.6,207.4
	c0,0.2,0.1,0.4,0.1,0.6c1,0.1,2,0.1,2.9,0.3c2.8,0.6,3.7,2.2,2.7,4.8c-1,2.6-2.6,4.9-4.8,6.7c-0.6,0.5-1.7,0.9-2.4,0.7
	c-1.7-0.5-3.4-1.4-5-2.2c-2.7-1.4-3.2-4.3-1.3-6.8c0.2-0.2,0.3-0.4,0.7-0.9c-7.2,0.8-13.8,2.4-20.2,5.9c2.9,1.9,3.9,4.6,4.6,7.5
	c0.6,0,1-0.1,1.9-0.1c-0.7,0.4-0.9,0.5-1.2,0.6c-0.3,0.1-0.6,0.2-0.9,0.3c4.1,2.4,8.2,3.6,12.3,2.2c2.9-1,5.5-2.7,8.2-4.2
	c0.4-0.2,0.7-0.5,1.1-0.6c1.2-0.1,2.4,0.2,3.6-0.1c5.3-1,9.2-5.2,9.4-9.9c-0.5,0-1,0-1.4,0c0.6-0.6,1.6-1.1,1.7-1.8
	c0.3-2.4-1.3-5.3-4.4-4.9C277.7,206,275.2,206.8,272.6,207.4z M211.3,321.4c-0.1,0-0.3-0.1-0.4-0.1c-8.2,1-15.6-1.1-22.2-5.9
	c-5.1-3.7-10-7.7-14.9-11.7c-6.5-5.3-13.7-8.5-22.3-7.8c-5.8,0.4-11.4,1.5-16.3,5c-0.9,0.7-1.7,1.5-2.6,2.3c0.1,0.2,0.2,0.3,0.3,0.5
	c1.5-0.7,2.9-1.4,4.4-2.2c4.6-2.6,9.5-3.7,14.8-3.3c6.7,0.6,12.2,3.8,17.2,8c6,5.1,11.8,10.5,17.8,15.6c3.5,3,7.1,5.6,11.6,7.1
	c1,0.3,1.7,0.1,2.6-0.3c2.8-1.5,5.6-2.9,8.5-4C211.6,323.6,211.7,323.8,211.3,321.4z M273.6,206.4c0.8-1,2.9-0.2,2.9-2.4
	c-0.2-5.6-0.2-11.2-0.5-16.8c-0.4-5-2-9.7-5-13.9c-1.1-1.5-2.6-2.8-4.7-2.1c-2,0.6-2.1,2.6-2.3,4.3c0,0.3-0.1,0.6,0,0.9
	c0.4,2.6,0.6,5.2,1.2,7.7c1,4,2.3,8,3.5,12.3c0.5-0.7,0.7-1.2,1.1-1.8c0.3,1.3,0.5,2.4,0.7,3.5c0.6-0.2,0.9-0.4,1.5-0.6
	C272.5,200.5,273,203.3,273.6,206.4z M275.3,239c0.1,0.1,0.1,0.1,0.2,0.2c0.7-0.5,1.4-0.9,2-1.4c4.7-3.6,8.9-7.6,12.6-12.2
	c2.7-3.4,5-7.1,6-11.4c0.3-1.2,0.3-2.5,0.5-4.1c-3.2,0.5-6,0.9-8.7,1.4c-0.4,0.1-0.9,0.7-1,1.1c-0.6,3-2,5.6-4.5,7.5
	c-0.4,0.3-0.7,0.8-0.7,1.3c0.4,5.6-1.9,10.4-4.8,15C276.4,237.3,275.8,238.1,275.3,239z M288.7,202c-1.4,0.1-2.4,0.1-3.3,0.1
	c-3.6,0.1-5-1.2-5.3-4.7c-0.1-2,0.2-4,0.2-5.9c0-9.3-1.4-18.3-4.4-27.1c-0.3-0.9-0.8-1.7-1.2-2.6c-1,3.4-2.6,6.2-5.4,8
	c1.2,1,2.4,1.9,3.4,3c2.4,2.6,3.5,5.9,4.2,9.3c1,5.6,0.9,11.3,0.6,17c-0.1,1.8-0.2,3.6-0.3,5c2.7,0.2,5.1,0.5,7.6,0.7
	c0.2,0,0.4,0,0.6-0.2C286.3,203.9,287.3,203.1,288.7,202z M257,228.8c-0.8-0.2-1.1-0.4-1.4-0.5c-0.2-0.1-0.4-0.1-0.6,0
	c-5.8,1.1-10.1-1.5-13.7-5.8c-0.8-1-1.7-1.9-2.7-2.6c-2.1-1.6-4.2-0.8-4.7,1.8c-0.7,3.5,0.2,6.7,2.8,9c3,2.6,6.6,3.4,10.6,2.5
	c0,0,0.1-0.2,0.1-0.3c-5-1.9-7.9-3.8-8.6-6C244.4,230.7,250,233.9,257,228.8z M250.7,142.1c-0.4-2.3-0.7-4.2-1-6
	c-0.2-1.3-0.8-1.6-2-1.4c-7.5,0.9-14.7,2.5-21.8,5.2c-2.7,1-5.4,2.3-8.1,3.5c0,0.1,0.1,0.3,0.1,0.4
	C228.7,140.3,239.4,139.1,250.7,142.1z M296.1,208.1c-0.4-2.1-1.3-3.8-2.9-5c-0.7-0.5-1.9-0.9-2.5-0.6c-1.8,0.8-3.3,2-4.8,2.9
	c0.6,1.8,1,3.3,1.5,4.8C290.2,209.5,293,208.8,296.1,208.1z M268.3,214.9c2.7-0.3,5-0.9,6.8-2.5c0.5-0.4,0.8-1.3,0.7-1.9
	c-0.1-0.4-1-1-1.5-1c-2.7-0.1-5.2,0.7-7,2.8c-0.4,0.4-0.6,1.4-0.4,1.8C267.1,214.5,268,214.7,268.3,214.9z M240.2,234.8
	c-1.6-0.8-3-1.6-4.5-2.4c-0.2-0.1-0.4-0.2-0.6-0.1c-1.8,1.1-3.6,2.2-5.5,3.3c0.1,0.1,0.1,0.3,0.2,0.4
	C233.3,236,236.8,236.1,240.2,234.8z M242,219.9c0,0.2-0.1,0.3-0.1,0.5c1.7,1.6,3.1,3.6,5.3,4.7c0.3-1.9-0.1-3.8-1.3-4.8
	C245,219.6,243.3,220,242,219.9z"/>
<path class="st1" d="M243.4,214.7c-2.8-1-5.6-1.9-8.3-2.9c-0.1,0.2-0.2,0.4-0.3,0.6c3.7,1.4,7.3,3.2,10.3,6.6
	c-2.3-0.3-4.2,0.4-6.1-0.7c-1.9-1.1-3.8-0.8-5.7,0.2c-0.7,0.4-1.6,0.7-2.4,0.8c-7.2,0.7-14.3,2-21.2,4.2c-0.7,0.2-1.4,0.5-2,0.8
	c-0.1,0-0.1,0.2-0.1,0.2c7.9-1.2,15.7-2.5,24-3.8c-0.7,4.1,0.5,7.2,2.8,10.1c-4.2,2.8-8,6.3-13.5,6.4c0.1,0.2,0.1,0.4,0.2,0.6
	c1.1-0.1,2.2-0.2,3.7-0.3c-1.8,1.7-3.4,3.2-4.9,4.6c0.1,0.1,0.2,0.2,0.3,0.4c1-0.7,2-1.4,2.9-2.2c2.4-2.3,5-3.4,8.4-2.7
	c0.3,0.1,0.6,0.1,0.9,0c1.5-0.3,2.3,0.4,3.2,1.6c2.6,3.9,6.1,6.8,10.4,8.8c0.3,0.2,0.7,0.3,1,0.5c0.1,0,0.1,0.2,0.2,0.4
	c-2.1,0.1-4.1,0.5-6.1-0.8c-3.7-2.4-7.7-4.3-12.3-4.4c-2.9,0-5.5,0.7-7.9,2.2c-0.9,0.6-1.7,0.6-2.6,0.2
	c-14.2-6.5-24.7-16.7-31.7-30.6c-1.5-2.9-2.6-6-3.8-9.1c-0.4-1-0.8-1.4-1.9-1.5c-2.9-0.2-5.8-0.9-8.2-2.7c-3.8-2.9-4.6-7.2-4.7-11.6
	c0-0.7,0.1-1.3,0.3-2c0.6,1.5,1.1,3,1.8,4.4c2.3,4.4,6.6,6,11.2,4c3.7-1.6,4.9-4.8,5.1-8.5c0.4-6.6-1.9-12.6-5.4-18.1
	c-6.7-10.5-15.8-18.1-28-21.5c-2.4-0.7-5-0.9-7.5-1.3c0,0.1-0.1,0.3-0.1,0.4c0.2,0.1,0.4,0.4,0.7,0.4c8.8,1.8,16.1,6.6,22.7,12.5
	c5.5,4.9,10,10.6,12.6,17.5c1.4,3.6,2.1,7.3,1.7,11.2c0,0.3-0.1,0.6-0.1,0.9c-0.8,5.1-4.7,6.7-8.9,3.7c-3.2-2.3-4-5.7-4.2-9.4
	c0-0.6,0-1.2,0-2.2c-2.1,1.5-3.3,3.3-3.9,5.4c-2.4,7.7,0.7,18.2,12.9,18.7c0.8,0,1.2,0.1,1.4,1c2,9.7,6.4,18.1,12.9,25.5
	c0.1,0.1,0.1,0.2,0.3,0.7c-2.6,0.1-5.1,0.4-7.5,0.2c-14.8-1.5-26.9-8.5-37.2-18.9c-7.6-7.8-11.9-17.4-15-27.6
	c-2.3-7.5-3.7-15.1-3.6-23c0.1-5.8,0.8-11.6,3.7-16.7c4.7-8.2,10.7-10,17.9-8c5.9,1.7,11.3,4.7,16.6,7.7c8,4.5,16.2,8.4,25.1,10.6
	c1,0.3,2.1,0.5,3.3,0.3c-1.9-1-3.8-2-6.1-3.1c0.9-1.3,1.6-2.8,2.7-3.8c2.9-2.8,5.9-5.5,9-8.1c4.4-3.8,8.3-7.9,10.3-13.4
	c0.4-1.2,0.8-2.5,1.3-3.7c0.2,6-2.4,11.1-6,16.1c7.4-3.6,14.8-6.7,22.6-8.5c7.9-1.8,15.8-2.2,23.8-1.4c-15.4,1.2-30.7,2.3-43.2,12.9
	c0,0.2,0.1,0.3,0.1,0.5c2.5-0.6,4.9-1.2,7.4-1.7c12.8-2.4,25.4-2.1,37.7,2.7c6.6,2.6,12.4,6.4,16.9,12.1c0.7,0.9,0.8,1.7,0.3,2.7
	c-1.4,2.8-3.2,5.1-6.6,6.4c1-3.3,1.2-6.4-0.2-9.8c-0.1,0.6-0.2,0.9-0.2,1.1c0.3,4.2-0.7,8-3.3,11.5c-1.6,2.1-1.6,4.7-1.3,7.2
	c0.9,7.8,3.7,15.1,6.8,22.3c0.9,2,1.8,4,2.8,6.1c-1.9,1.4-3.8,2.5-6.4,2.6c-3.5,0.2-7.1,0.7-10.6,1.1c-0.5,0.1-1,0.2-1.7,0.4
	c0-0.7,0-1.2,0-1.8c0.3-8.8-1.3-17.3-4.8-25.4c-1.8-4.2-4.7-7.7-8.8-10c-1.6-0.9-3.5-1.3-5.3-2c4.8-4.6,5.2-10.1,3.1-16.1
	c-0.2,2.6-0.2,5.3-0.7,7.9c-0.5,2.7-2.1,4.8-4.5,6.8c0.4-3.5-0.3-6.3-2.2-8.9c0.2,2.4,0.6,4.6,0.4,6.8c-0.3,2.5-0.9,5-1.9,7.2
	c-1.1,2.5-1.7,5.1-1.3,7.8c1.2,9.1,5.1,17,10.6,24.1C239.5,210.1,241.5,212.4,243.4,214.7z"/>
<path class="st1" d="M309.4,300.4c3,1.4,5.6,2.7,8.6,4.1c-4.4,2.7-8.8,2.8-13.3,2.7c1.2,1,2.3,1.2,7.6,1.6c-0.4,1.6-2,2.8-4.1,3
	c-3.9,0.3-7.1-1.4-9.9-3.7c-2.6-2.1-4.9-4.6-7.4-6.8c-0.5-0.4-1.2-0.9-1.9-0.8c-10.9,0.5-21.3-1.8-31.3-5.7
	c-7.1-2.7-13.9-6.1-20.8-9.2c-0.4-0.2-0.8-0.4-1.3-0.4c0.2,0.2,0.4,0.6,0.7,0.7c3.9,2.7,7.7,5.5,11.6,8c1.2,0.8,1.5,1.4,1.1,2.6
	c-1.4,4.1-2.6,8.3-4.1,12.3c-2.1,5.3-4.2,10.6-4.7,16.4c-0.6,5.8-0.3,11.4,2.6,16.6c3.4,5.9,9,8.8,15.5,9.8
	c11.9,1.9,21.2-2.7,28.3-12.1c3.4-4.5,6-9.3,7.7-14.7c0.3-1,0.8-1.1,1.7-1.1c7,0.4,13.1,2.8,18.2,7.7c3.7,3.5,7.8,6.6,11.7,10
	c0.3,0.3,0.4,1,0.3,1.4c-0.5,2-1.2,4-1.4,6.1c0.3-0.6,0.8-1.2,1-1.8c1.7-4.3,3.4-8.7,4.9-13.1c0.9-2.5,1.9-4.9,4-6.6
	c3.8-2.9,9.1-1.6,10.7,2.9c0.8,2.1,0.9,4.4,1.3,6.6c0.1,0.6,0,1.2,0.2,1.8c0.9-2.2,1-4.6,0.5-6.8c-0.3-1.5,0.3-1.9,1.5-2
	c2.1-0.3,3.8,0.4,4.4,2.6c0.6,2,1,4.2,1.1,6.3c0.4,7.9-1.5,15.3-5.2,22.2c-3.5,6.4-9.1,9.3-16.2,9.6c-5,0.2-9.6-1.2-14.3-2.6
	c-12.1-3.6-24.3-6.7-37-7.6c-6-0.4-12.1-0.3-18.2,0c-8.8,0.4-17.5,1.1-26.3,2c-9.7,0.9-18.9,4-28.1,7.1c-7.1,2.3-14.3,4.5-21.5,6.6
	c-13.9,3.9-25.9-5.1-28-19.4c-0.9-5.9-0.4-11.6,3.1-16.5c1.4-1.9,3.4-3.5,5.3-5c0.8-0.7,2.1-0.7,3.5-1.2c-1,2.9-1.4,5.3-0.2,7.9
	c0.1-0.4,0.1-0.8,0.2-1.2c0.3-2.7,1.1-5.2,3.4-6.8c3.2-2.1,6.6-1.5,8.2,2c1.2,2.5,1.9,5.3,2.5,8c1,4.8,2,9.5,4.5,13.8
	c0.6,1,1.3,1.9,2.2,2.6c-0.8-2.1-1.7-4.2-2.3-6.3c-0.7-2.6-1.2-5.3-1.7-8c-0.1-0.5,0.1-1.2,0.4-1.5c5.6-6.1,11.5-11.7,18.9-15.6
	c4.7-2.5,9.8-4,15.1-4.8c0.3-0.1,0.7-0.1,1-0.4c-3.4-0.9-6.8-0.3-10.5,0c0.4-0.9,0.6-1.7,1-2.4c1.6-2.5,3.1-5.2,5-7.4
	c5-5.8,8.6-12.1,9.6-19.7c0-0.1,0.1-0.2,0.4-0.7c0.6,1.9,1,3.6,1.5,5.2c0.1,0,0.3,0,0.4-0.1c-0.3-2.2-0.6-4.3-1-6.5
	c-1-5.7-3.5-10.8-5.7-16.1c-2.6-6.1-4.7-12.3-5.2-19c-0.1-0.7-0.1-1.4,0-2c0.3-4.7,2.5-7,7.2-7c6-0.1,11.1,2.4,15.5,6.4
	c11.3,10.2,23.8,18.6,37.3,25.6c4.3,2.3,8.8,4.2,13.7,4.9c0.4,0.1,0.8,0.6,1,0.8c2.4-1.8,5-3.5,7.4-5.5c1.6-1.3,2.8-3,4.2-4.4
	c0.8-0.8,1.8-1.6,2.8-2.1c1.5-0.7,2.9,0,3.1,1.7c0.2,1.1,0,2.3-0.3,3.4c-0.6,2.3-1.3,4.6-1.9,6.9c-0.2,0.8-0.2,1.6,0,2.6
	c0.4-0.7,0.7-1.3,1.1-2.2c2.1,3.4,5.2,5.4,8.3,7.4c1.7,1.1,3.1,2.4,4.6,3.8c0.7,0.7,1.3,1.5,1.8,2.4c0.8,1.4,1.4,3,0.2,4.4
	c-1.2,1.4-2.8,0.5-4.1,0c-1.9-0.8-3.7-1.8-5.5-2.7C314,300.4,311.9,299.9,309.4,300.4z M334.3,331c-0.1-0.1-0.2-0.1-0.3-0.2
	c-0.3,0.4-0.5,0.8-0.8,1.3c-2.2,4.4-2.2,9-1,13.6c0.7,2.6,0.4,4.9-0.6,7.3c-0.8,1.7-1.5,3.5-2,5.3c-0.5,1.7-0.8,3.5-0.8,5.2
	c0,2,0.9,3.8,2.9,5.3c-0.4-1.1-0.6-1.8-0.8-2.4c-0.8-3.4,0.1-6.5,1.6-9.4c2.3-4.3,2.3-8.6,1-13.1c-0.8-2.7-1-5.4-0.4-8.2
	C333.6,334.2,333.9,332.6,334.3,331z M182.9,375.6c0.1,0.1,0.3,0.3,0.4,0.4c0.8-1.2,1.9-2.3,2.5-3.6c1.5-3.1,1.3-6.4,0.3-9.6
	c-1.1-3.7-1.4-7.4-0.9-11.2c0.2-1.6,0.4-3.1,0.3-4.7c0-1.6-0.4-3.3-0.6-4.9c-0.2,0-0.4,0-0.5,0.1c0,0.3,0,0.7-0.1,1
	c-0.2,2.4-0.1,4.8-0.6,7.2c-0.8,3.9-0.7,7.7,0.4,11.5C185.7,366.5,185.3,371.1,182.9,375.6z"/>
<path class="st2" d="M385.1,284.7c-3.1,1.2-5.9,2.4-8.8,3.4c-10.1,3.7-20.1,7.4-30.3,10.9c-4.9,1.7-10.1,2.5-15.4,2.7
	c-1.1,0-1.5-0.3-1.9-1.3c-1.2-3.3-3.7-5.6-6.8-7.3c-2.2-1.2-4.6-2.4-6.7-3.8c-1.6-1-2.9-2.5-4.3-3.7c0.1-0.1,0.2-0.2,0.3-0.4
	c1.6-0.2,3.2-0.3,4.7-0.6c1.3-0.3,2.5-0.7,3.7-1.4c3.1-1.8,3.5-5.4,1-8c-1.4-1.5-3.9-2.3-6-1.9c0.4,0.3,0.7,0.5,1.1,0.7
	c0.7,0.4,1.5,0.8,2.2,1.2c1.3,0.9,2.6,1.9,2.5,3.7c-0.2,1.9-1.6,3.1-3.3,3.6c-1.6,0.5-3.3,0.6-5.5,1c0.4-0.9,0.6-1.3,0.8-1.7
	c1.1-2.3,1.6-4.7,1.3-7.3c-0.5-3.2-3.6-4.6-6.3-2.8c-0.3,0.2-0.5,0.3-0.7,0.6c-2.6,2.6-5.4,4.9-8.5,6.9c-1.2,0.8-1.9,2.2-2.8,3.3
	c-0.3,0.4-0.8,0.6-1.3,0.9c-0.2-0.1-0.3-0.3-0.5-0.4c0.8-2.5,1.5-5,2.3-7.4c3.1-9.2,6.3-18.4,9.3-27.7c0.5-1.4,1.2-2.2,2.6-2.6
	c1.5-0.5,2.9-1.2,4.3-2c5.1-3,6.6-9,3.7-14.2c-0.3-0.5-0.6-1-0.9-1.6c0.3-0.2,0.6-0.4,0.8-0.5c6.6-2.3,13.2-4.6,19.9-6.8
	c1.1-0.3,2.4-0.3,3.5-0.1c4.3,1,8.3,0.8,11.7-2.4c0.4-0.4,1.4-0.5,2-0.4c4.6,1.4,9.2,2.8,13.8,4.3c0.7,0.2,1.4,1.2,1.7,2
	c2.8,7.2,5.7,14.3,8.2,21.5c2.8,7.9,5.4,16,8.1,23.9c0.5,1.4,0.2,2.5-0.6,3.8c-0.9,1.5-1.7,3.3-2,5
	C381.3,280.9,382.7,283,385.1,284.7z M364.5,250.9c-0.1,0.1-0.3,0.1-0.4,0.2c0.3,0.6,0.6,1.2,0.9,1.8c1.9,4.1,0.1,7.8-4.2,8.6
	c-4.2,0.8-11.7-2.5-14-6.1c-1.3-2-1-4.1,0.7-5.7c2.4-2.2,5.4-2.5,8.5-2.4c0.5,0,0.9,0,1.4,0c-1.7-1.4-3.6-1.5-5.5-1.3
	c-3.3,0.3-6.1,1.5-7.2,4.8c-1.2,3.3-0.1,6.2,2.4,8.5c2.4,2.2,5.3,3.5,8.5,4.3c2.4,0.6,4.9,0.7,7.2-0.3c2.5-1.1,3.9-3,4.1-5.7
	C367.2,254.9,366.7,252.6,364.5,250.9z M331.7,242.9c0.6,17.4,0.1,34.7-2.1,52C334,277.7,333.7,260.3,331.7,242.9z M352.5,275.6
	c-0.2-0.1-0.3-0.3-0.5-0.4c-0.8,1-1.7,1.9-2.2,3c-0.6,1.2,0.1,2.4,1.5,2.7c3.5,0.9,8.9-2.8,9.2-6.4c0.1-1.4-0.5-2-1.9-1.7
	c1.5,1.5,1.6,2.4-0.2,3.6c-1.7,1.1-3.6,1.7-5.5,2.3c-0.4,0.2-1.1-0.2-1.6-0.3c0.2-0.6,0.3-1.1,0.5-1.7
	C351.9,276.4,352.2,276,352.5,275.6z M322.6,246.4c0.2-0.1,0.3-0.2,0.5-0.4c-0.5-0.6-0.8-1.6-1.5-1.8c-2-0.8-3.9-0.2-5.6,1
	c-1.6,1.2-2.7,2.8-2.3,4.8c0.2,0.8,1.1,1.6,1.9,1.9c0.9,0.4,2.1,0.1,2.7-1.3c-0.7,0.1-1.2,0.3-1.7,0.3c-1.1,0-1.9-0.6-1.7-1.7
	c0.3-1.9,1.7-3.1,3.4-3.8C319.9,244.9,321.5,244.8,322.6,246.4z M335.8,231c0.1,0.2,0.1,0.4,0.2,0.5c8-2.1,15.9-4.1,23.6-7.1
	c0-0.2-0.1-0.3-0.1-0.5C351.5,226.3,343.6,228.7,335.8,231z M327.2,232.2c0.1-0.2,0.2-0.5,0.2-0.7c-2.8-0.9-5.6-1.9-8.4-2.8
	c-0.1,0.2-0.1,0.4-0.2,0.6C321.6,230.3,324.4,231.2,327.2,232.2z"/>
<path class="st3" d="M250.4,295.8c5.6,1.8,10.9,3.8,16.4,5.3c7.1,1.9,14.3,2.2,21.6,1.4c0.6-0.1,1.4,0.3,1.8,0.7
	c0.9,0.8,1.6,1.8,2.5,2.6c1.3,1.1,1.9,2.3,1.6,4.2c-1.8,11.5-5.5,22.3-13.2,31.2c-8.1,9.4-19.9,9.9-28.9,5.9c-6.9-3-9.4-9-9.7-16.2
	c-0.3-6,1.1-11.7,2.9-17.4c1.8-5.8,3.3-11.8,4.9-17.7C250.3,295.9,250.4,295.7,250.4,295.8z"/>
<path class="st1" d="M292.9,274.7c-4.1-11.2-10.2-20.9-19.8-27.9c-0.1,0.1-0.2,0.2-0.3,0.3c1.2,1.4,2.4,2.7,3.7,4.2
	c-0.3,0.1-0.5,0.1-0.6,0.1c-3.6-0.7-5.3,0.7-5.2,4.4c0,1.6,0.4,3.1,0.4,4.7c0,0.9-0.4,1.7-0.6,2.6c-0.8-0.4-1.8-0.5-2.4-1.1
	c-1.9-1.7-3.8-3.5-5.7-5.2c-0.6-0.6-1.3-1-2-1.5c-3.8-2.3-5.6-2.2-9,0.9c-2.2-1.8-4.4-3.6-6.8-5.5c2.9-0.2,5.5-0.3,8.1-0.6
	c8.8-1.1,16.7-4.5,24.2-9.1c1.1-0.7,2.2-0.8,3.4-0.5c4.8,1.3,8.8,4,12.9,6.7c2.5,1.7,5.1,3.5,7.5,5.4c0.4,0.3,0.6,1.1,0.5,1.5
	c-2.5,6.7-5.1,13.3-7.7,19.9C293.3,274.1,293.2,274.3,292.9,274.7z"/>
<path class="st1" d="M235.2,237.9c2-0.4,3.9-0.5,5.5-1.2c2.2-1.1,4.4-1.8,6.7-2.6c1.5-0.5,3-1,4.6-1.2c2.2-0.2,4-1.2,5.3-3
	c0.6-0.8,1.3-1.1,2.3-1c4.4,0.5,7.9-1.4,10.8-4.6c0.3-0.4,0.8-0.8,1.2-0.8c3.2,0.1,6.2-0.7,9.4-2.4c-0.3,1.7-0.5,3.1-0.9,4.4
	c-1.8,6.3-5.1,11.7-10,16c-0.9,0.7-1.8,1.5-2.9,1.8c-4.1,1.5-8.2,3-12.4,4.4c-3.1,1-6.1,0.3-8.9-1.2c-3.8-1.9-7.1-4.7-10-7.8
	C235.6,238.6,235.5,238.3,235.2,237.9z"/>
<path class="st4" d="M246.6,213.8c-1.1-3.1-2.1-6.1-3.2-9.4c-0.6,0.8-1,1.3-1.3,1.7c-0.2,0-0.3,0-0.5,0c-0.2-1.3-0.3-2.5-0.5-3.9
	c-1.7,0.8-1.5,2.4-2,4.2c-1.2-2.1-2.4-4-3.4-5.9c-3.1-5.9-5.6-12-6.4-18.7c-0.1-1.3-0.1-2.6,0.1-3.9c0.6-3.8,3.6-5.5,7-3.6
	c2,1.1,3.9,2.7,5.4,4.4c5.1,6.4,8,13.8,9.2,21.9c0.5,3.2,0.6,6.5,0.9,9.8c0.1,0.9-0.2,1.4-1.1,1.7
	C249.3,212.6,247.9,213.3,246.6,213.8z"/>
<path class="st1" d="M248.2,130.9c-10.1-0.3-19.9,1-29.5,5.2c0.9-6.7,1.3-13.1,3.6-19.2c1.2-3.2,3.1-6,6.9-6.2
	c1.8-0.1,3.8,0.5,5.4,1.3C240.4,115.1,246.8,124.2,248.2,130.9z"/>
<path class="st3" d="M290.2,282c-14.4-6.2-26.8-14.9-38.2-25.2c0.7-1.5,1.9-1.7,3.3-1.5c2.4,0.3,4.1,1.7,5.8,3.2
	c1.6,1.4,3.2,2.8,4.9,4.2c0.6,0.5,1.3,0.9,2,1.2c2.2,0.8,3.7-0.1,3.8-2.4c0.1-1.7-0.1-3.3-0.2-5c-0.1-3.1,1.3-4.2,3.9-2.7
	c2.2,1.3,4.6,3,5.9,5.2c4.2,6.7,6.7,14.2,8.5,21.8C290.1,281,290.1,281.3,290.2,282z"/>
<path class="st3" d="M272.6,207.4c2.6-0.6,5.1-1.4,7.7-1.8c3.1-0.4,4.7,2.5,4.4,4.9c-0.1,0.7-1.1,1.2-1.7,1.8c0.3,0,0.8,0,1.4,0
	c-0.2,4.8-4.1,8.9-9.4,9.9c-1.2,0.2-2.4,0-3.6,0.1c-0.4,0-0.7,0.4-1.1,0.6c-2.7,1.4-5.3,3.2-8.2,4.2c-4.2,1.4-8.2,0.2-12.3-2.2
	c0.3-0.1,0.6-0.2,0.9-0.3c0.3-0.1,0.5-0.3,1.2-0.6c-0.9,0.1-1.3,0.1-1.9,0.1c-0.7-2.9-1.7-5.6-4.6-7.5c6.4-3.5,13-5.1,20.2-5.9
	c-0.4,0.5-0.5,0.7-0.7,0.9c-1.9,2.4-1.4,5.3,1.3,6.8c1.6,0.9,3.3,1.7,5,2.2c0.7,0.2,1.8-0.2,2.4-0.7c2.2-1.8,3.8-4,4.8-6.7
	c1-2.7,0.1-4.2-2.7-4.8c-1-0.2-2-0.2-2.9-0.3C272.7,207.8,272.7,207.6,272.6,207.4z"/>
<path class="st1" d="M211.3,321.4c0.5,2.4,0.4,2.3-1.7,3.1c-2.9,1.2-5.7,2.5-8.5,4c-0.9,0.5-1.7,0.7-2.6,0.3
	c-4.4-1.4-8.1-4.1-11.6-7.1c-6-5.1-11.8-10.4-17.8-15.6c-5-4.3-10.5-7.4-17.2-8c-5.3-0.5-10.2,0.7-14.8,3.3
	c-1.4,0.8-2.9,1.5-4.4,2.2c-0.1-0.2-0.2-0.3-0.3-0.5c0.9-0.8,1.7-1.6,2.6-2.3c4.8-3.5,10.4-4.5,16.3-5c8.6-0.6,15.8,2.5,22.3,7.8
	c4.9,4,9.8,8,14.9,11.7c6.6,4.7,14,6.8,22.2,5.9C211,321.3,211.1,321.3,211.3,321.4z"/>
<path class="st4" d="M273.6,206.4c-0.6-3.1-1.1-5.8-1.6-8.8c-0.6,0.2-0.9,0.4-1.5,0.6c-0.2-1.2-0.4-2.2-0.7-3.5
	c-0.4,0.6-0.6,1-1.1,1.8c-1.2-4.3-2.5-8.2-3.5-12.3c-0.6-2.5-0.8-5.1-1.2-7.7c0-0.3,0-0.6,0-0.9c0.2-1.7,0.3-3.7,2.3-4.3
	c2-0.6,3.6,0.6,4.7,2.1c3,4.1,4.6,8.8,5,13.9c0.4,5.6,0.4,11.2,0.5,16.8C276.5,206.1,274.4,205.4,273.6,206.4z"/>
<path class="st1" d="M275.3,239c0.6-0.8,1.1-1.7,1.7-2.5c2.9-4.6,5.1-9.3,4.8-15c0-0.4,0.4-1,0.7-1.3c2.4-2,3.8-4.5,4.5-7.5
	c0.1-0.4,0.6-1.1,1-1.1c2.8-0.5,5.5-0.9,8.7-1.4c-0.2,1.6-0.2,2.9-0.5,4.1c-1,4.3-3.3,8-6,11.4c-3.7,4.6-7.9,8.6-12.6,12.2
	c-0.7,0.5-1.4,0.9-2,1.4C275.4,239.1,275.4,239,275.3,239z"/>
<path class="st1" d="M288.7,202c-1.4,1.1-2.4,1.9-3.4,2.7c-0.1,0.1-0.4,0.2-0.6,0.2c-2.5-0.2-4.9-0.4-7.6-0.7c0.1-1.4,0.2-3.2,0.3-5
	c0.3-5.7,0.5-11.4-0.6-17c-0.6-3.4-1.8-6.7-4.2-9.3c-1-1.1-2.2-1.9-3.4-3c2.8-1.8,4.4-4.6,5.4-8c0.4,0.9,0.9,1.7,1.2,2.6
	c3,8.8,4.5,17.8,4.4,27.1c0,2-0.3,4-0.2,5.9c0.2,3.6,1.7,4.8,5.3,4.7C286.3,202.2,287.3,202.1,288.7,202z"/>
<path class="st5" d="M257,228.8c-6.9,5.1-12.6,1.9-18.3-2c0.7,2.2,3.6,4.1,8.6,6c0,0.1,0,0.2-0.1,0.3c-3.9,0.9-7.6,0.1-10.6-2.5
	c-2.7-2.3-3.5-5.5-2.8-9c0.5-2.6,2.6-3.3,4.7-1.8c1,0.7,1.9,1.7,2.7,2.6c3.6,4.3,7.8,6.9,13.7,5.8c0.2,0,0.4,0,0.6,0
	C255.9,228.4,256.2,228.6,257,228.8z"/>
<path class="st1" d="M250.7,142.1c-11.3-3.1-22-1.8-32.7,1.6c0-0.1-0.1-0.3-0.1-0.4c2.7-1.2,5.3-2.4,8.1-3.5
	c7-2.7,14.3-4.3,21.8-5.2c1.2-0.1,1.8,0.2,2,1.4C250,137.9,250.4,139.8,250.7,142.1z"/>
<path class="st1" d="M296.1,208.1c-3,0.7-5.9,1.4-8.8,2.1c-0.5-1.5-0.9-3-1.5-4.8c1.4-0.9,3-2.1,4.8-2.9c0.6-0.3,1.9,0.2,2.5,0.6
	C294.8,204.3,295.7,206,296.1,208.1z"/>
<path class="st4" d="M268.3,214.9c-0.3-0.2-1.2-0.4-1.4-0.8c-0.2-0.5,0-1.4,0.4-1.8c1.8-2.1,4.3-2.9,7-2.8c0.6,0,1.4,0.6,1.5,1
	c0.1,0.6-0.3,1.5-0.7,1.9C273.3,214,271,214.5,268.3,214.9z"/>
<path class="st1" d="M240.2,234.8c-3.4,1.3-6.8,1.2-10.3,1.2c-0.1-0.1-0.1-0.3-0.2-0.4c1.8-1.1,3.6-2.2,5.5-3.3
	c0.1-0.1,0.4,0,0.6,0.1C237.1,233.2,238.6,234,240.2,234.8z"/>
<path class="st1" d="M242,219.9c1.3,0.1,3-0.3,3.8,0.4c1.2,1,1.7,2.9,1.3,4.8c-2.2-1.1-3.5-3.1-5.3-4.7
	C241.9,220.2,241.9,220.1,242,219.9z"/>
<path d="M334.3,331c-0.4,1.6-0.7,3.1-1.1,4.7c-0.6,2.8-0.4,5.5,0.4,8.2c1.3,4.5,1.3,8.8-1,13.1c-1.5,2.9-2.5,6-1.6,9.4
	c0.2,0.7,0.4,1.4,0.8,2.4c-2-1.5-2.9-3.3-2.9-5.3c0-1.7,0.3-3.5,0.8-5.2c0.5-1.8,1.3-3.5,2-5.3c1-2.4,1.3-4.7,0.6-7.3
	c-1.2-4.6-1.2-9.2,1-13.6c0.2-0.4,0.5-0.9,0.8-1.3C334.1,330.9,334.2,331,334.3,331z"/>
<path d="M182.9,375.6c2.4-4.5,2.8-9.1,1.4-13.9c-1.1-3.8-1.2-7.6-0.4-11.5c0.5-2.3,0.4-4.8,0.6-7.2c0-0.3,0-0.7,0.1-1
	c0.2,0,0.4,0,0.5-0.1c0.2,1.6,0.5,3.3,0.6,4.9c0,1.6-0.2,3.1-0.3,4.7c-0.5,3.8-0.2,7.5,0.9,11.2c1,3.2,1.2,6.5-0.3,9.6
	c-0.6,1.3-1.7,2.4-2.5,3.6C183.2,375.9,183,375.7,182.9,375.6z"/>
<path d="M364.5,250.9c2.2,1.7,2.7,4.1,2.5,6.7c-0.2,2.7-1.6,4.6-4.1,5.7c-2.4,1-4.8,1-7.2,0.3c-3.1-0.8-6-2.1-8.5-4.3
	c-2.5-2.3-3.6-5.2-2.4-8.5c1.2-3.4,4-4.6,7.2-4.8c1.9-0.2,3.8-0.1,5.5,1.3c-0.5,0-0.9,0-1.4,0c-3.1-0.1-6.1,0.2-8.5,2.4
	c-1.8,1.6-2,3.7-0.7,5.7c2.3,3.6,9.7,6.9,14,6.1c4.3-0.8,6.1-4.5,4.2-8.6c-0.3-0.6-0.6-1.2-0.9-1.8
	C364.3,251,364.4,250.9,364.5,250.9z"/>
<path d="M331.7,242.9c2,17.4,2.3,34.8-2.1,52C331.8,277.6,332.3,260.3,331.7,242.9z"/>
<path d="M352.5,275.6c-0.3,0.4-0.6,0.7-0.8,1.1c-0.2,0.5-0.3,1.1-0.5,1.7c0.5,0.1,1.2,0.5,1.6,0.3c1.9-0.7,3.9-1.3,5.5-2.3
	c1.8-1.2,1.7-2,0.2-3.6c1.3-0.2,2,0.4,1.9,1.7c-0.3,3.5-5.7,7.3-9.2,6.4c-1.3-0.4-2.1-1.5-1.5-2.7c0.5-1.1,1.5-2,2.2-3
	C352.2,275.4,352.3,275.5,352.5,275.6z"/>
<path d="M322.6,246.4c-1.1-1.6-2.7-1.5-4.2-0.9c-1.8,0.7-3.1,1.8-3.4,3.8c-0.2,1.1,0.6,1.8,1.7,1.7c0.5,0,1-0.1,1.7-0.3
	c-0.6,1.4-1.8,1.6-2.7,1.3c-0.8-0.3-1.7-1.2-1.9-1.9c-0.4-2,0.6-3.6,2.3-4.8c1.7-1.2,3.6-1.8,5.6-1c0.6,0.3,1,1.2,1.5,1.8
	C322.9,246.2,322.8,246.3,322.6,246.4z"/>
<path d="M335.8,231c7.9-2.3,15.8-4.7,23.6-7c0,0.2,0.1,0.3,0.1,0.5c-7.7,3-15.6,5-23.6,7.1C335.9,231.4,335.8,231.2,335.8,231z"/>
<path d="M327.2,232.2c-2.8-1-5.6-1.9-8.4-2.9c0.1-0.2,0.1-0.4,0.2-0.6c2.8,0.9,5.6,1.9,8.4,2.8C327.3,231.7,327.3,232,327.2,232.2z"
	/>
</svg>
