<?xml version="1.0" encoding="utf-8"?>
<!-- Generator: Adobe Illustrator 21.0.2, SVG Export Plug-In . SVG Version: 6.00 Build 0)  -->
<svg version="1.1" id="Слой_1" xmlns="http://www.w3.org/2000/svg" xmlns:xlink="http://www.w3.org/1999/xlink" x="0px" y="0px"
	 viewBox="0 0 500 500" style="enable-background:new 0 0 500 500;" xml:space="preserve">
<style type="text/css">
	.st0{fill:url(#SVGID_1_);}
	.st1{fill:none;}
	.st2{enable-background:new    ;}
	.st3{fill:#FFFFFF;}
</style>
<linearGradient id="SVGID_1_" gradientUnits="userSpaceOnUse" x1="314.4109" y1="403.0438" x2="178.0637" y2="79.0755" gradientTransform="matrix(1 0 0 -1 0 500)">
	<stop  offset="0" style="stop-color:#FF2A89"/>
	<stop  offset="1" style="stop-color:#FF7D15"/>
</linearGradient>
<circle class="st0" cx="250" cy="250" r="175.7"/>
<rect x="86.4" y="208.9" class="st1" width="329.2" height="104.5"/>
<g class="st2">
	<path class="st3" d="M91.4,223.3h18.8v8.1c2.7-3.4,5.4-5.8,8.2-7.2c2.8-1.4,6.1-2.2,10-2.2c4.2,0,7.5,0.8,9.9,2.4
		c2.4,1.6,4.4,3.9,6,7c3.2-3.6,6-6.1,8.6-7.4c2.6-1.3,5.8-2,9.6-2c5.6,0,10,1.8,13.2,5.3c3.2,3.5,4.7,9.1,4.7,16.6v35h-20.1v-31.7
		c0-2.5-0.5-4.4-1.4-5.6c-1.3-1.9-3-2.9-5-2.9c-2.4,0-4.3,0.9-5.7,2.7c-1.4,1.8-2.2,4.7-2.2,8.8v28.7h-20.1v-30.7
		c0-2.4-0.1-4.1-0.4-5c-0.4-1.4-1.2-2.5-2.2-3.4c-1.1-0.9-2.3-1.3-3.7-1.3c-2.3,0-4.2,0.9-5.7,2.8c-1.5,1.9-2.2,4.9-2.2,9.1v28.4
		H91.4V223.3z"/>
	<path class="st3" d="M250.6,256.4h-40.3c0.4,3.4,1.2,6,2.6,7.7c1.9,2.4,4.5,3.6,7.6,3.6c2,0,3.9-0.5,5.6-1.6
		c1.1-0.7,2.3-1.8,3.5-3.5l19.8,1.9c-3,5.6-6.7,9.6-11,12c-4.3,2.4-10.4,3.6-18.4,3.6c-6.9,0-12.4-1-16.4-3.1
		c-4-2.1-7.3-5.4-9.9-9.9c-2.6-4.5-3.9-9.9-3.9-16c0-8.7,2.6-15.7,7.9-21.1c5.3-5.4,12.5-8.1,21.8-8.1c7.5,0,13.4,1.2,17.8,3.6
		c4.3,2.4,7.7,5.9,9.9,10.5c2.3,4.6,3.4,10.5,3.4,17.9V256.4z M230.2,246.2c-0.4-4.1-1.4-7.1-3.1-8.9c-1.7-1.8-3.9-2.7-6.7-2.7
		c-3.2,0-5.7,1.3-7.7,4c-1.2,1.7-2,4.2-2.3,7.5H230.2z"/>
	<path class="st3" d="M257.4,251.3c0-8.5,2.7-15.5,8.1-21c5.4-5.5,12.7-8.3,21.9-8.3c10.5,0,18.4,3.2,23.8,9.7
		c4.3,5.2,6.5,11.6,6.5,19.2c0,8.6-2.7,15.6-8,21.1c-5.3,5.5-12.7,8.2-22.2,8.2c-8.4,0-15.2-2.3-20.4-6.8
		C260.6,267.8,257.4,260.4,257.4,251.3z M277.5,251.2c0,5,0.9,8.6,2.8,11c1.9,2.4,4.3,3.6,7.1,3.6c2.9,0,5.3-1.2,7.1-3.5
		c1.9-2.3,2.8-6.1,2.8-11.3c0-4.8-0.9-8.4-2.8-10.8c-1.9-2.4-4.2-3.5-7-3.5c-2.9,0-5.4,1.2-7.3,3.6
		C278.5,242.7,277.5,246.3,277.5,251.2z"/>
	<path class="st3" d="M319.6,223.3H339l8.4,35.1l10.6-35.1h18.2l11.1,35.2l8.5-35.2h19.3l-19.3,55.7h-17.9l-10.6-33.5L357,278.9h-18
		L319.6,223.3z"/>
</g>
</svg>
