<?xml version="1.0" encoding="utf-8"?>
<!-- Generator: Adobe Illustrator 21.0.2, SVG Export Plug-In . SVG Version: 6.00 Build 0)  -->
<svg version="1.1" id="Слой_1" xmlns="http://www.w3.org/2000/svg" xmlns:xlink="http://www.w3.org/1999/xlink" x="0px" y="0px"
	 viewBox="0 0 500 500" style="enable-background:new 0 0 500 500;" xml:space="preserve">
<style type="text/css">
	.st0{fill:url(#SVGID_1_);}
	.st1{fill:none;}
	.st2{enable-background:new    ;}
	.st3{fill:#FFFFFF;}
</style>
<linearGradient id="SVGID_1_" gradientUnits="userSpaceOnUse" x1="314.4109" y1="403.0438" x2="178.0637" y2="79.0755" gradientTransform="matrix(1 0 0 -1 0 500)">
	<stop  offset="0" style="stop-color:#833FFF"/>
	<stop  offset="1" style="stop-color:#E91A00"/>
	<stop  offset="1" style="stop-color:#FF317F"/>
	<stop  offset="1" style="stop-color:#FF7D15"/>
</linearGradient>
<circle class="st0" cx="250" cy="250" r="175.7"/>
<rect x="84.4" y="170.5" class="st1" width="329.2" height="191.9"/>
<g class="st2">
	<path class="st3" d="M124.2,174.5h19.5v25.8c2.6-2.7,5.3-4.7,7.9-5.9c2.6-1.2,5.7-1.8,9.3-1.8c5.3,0,9.5,1.6,12.5,4.8
		c3,3.2,4.6,8.2,4.6,14.8v32.3h-19.6v-27.9c0-3.2-0.6-5.4-1.8-6.8c-1.2-1.3-2.8-2-5-2c-2.4,0-4.3,0.9-5.7,2.7
		c-1.5,1.8-2.2,5-2.2,9.6v24.4h-19.5V174.5z"/>
	<path class="st3" d="M246,224.1h-39c0.4,3.1,1.2,5.5,2.5,7c1.9,2.2,4.3,3.3,7.4,3.3c1.9,0,3.7-0.5,5.5-1.4c1.1-0.6,2.2-1.7,3.4-3.2
		l19.2,1.8c-2.9,5.1-6.5,8.8-10.6,11c-4.1,2.2-10.1,3.3-17.8,3.3c-6.7,0-12-0.9-15.9-2.8c-3.9-1.9-7.1-4.9-9.6-9
		c-2.5-4.1-3.8-9-3.8-14.6c0-7.9,2.5-14.4,7.6-19.3c5.1-4.9,12.1-7.4,21.1-7.4c7.3,0,13,1.1,17.2,3.3s7.4,5.4,9.6,9.6
		c2.2,4.2,3.3,9.6,3.3,16.3V224.1z M226.2,214.8c-0.4-3.8-1.4-6.5-3-8.1c-1.6-1.6-3.8-2.4-6.5-2.4c-3.1,0-5.6,1.2-7.4,3.7
		c-1.2,1.5-1.9,3.8-2.2,6.8H226.2z"/>
	<path class="st3" d="M255.6,174.5h19.5v70.2h-19.5V174.5z"/>
	<path class="st3" d="M288.2,174.5h19.5v70.2h-19.5V174.5z"/>
	<path class="st3" d="M317.8,219.4c0-7.8,2.6-14.1,7.8-19.2c5.2-5,12.3-7.5,21.2-7.5c10.2,0,17.9,3,23.1,8.9
		c4.2,4.8,6.3,10.6,6.3,17.6c0,7.8-2.6,14.2-7.8,19.2c-5.2,5-12.4,7.5-21.5,7.5c-8.2,0-14.8-2.1-19.8-6.2
		C320.9,234.5,317.8,227.7,317.8,219.4z M337.3,219.3c0,4.5,0.9,7.9,2.8,10c1.8,2.2,4.1,3.3,6.9,3.3c2.8,0,5.1-1.1,6.9-3.2
		c1.8-2.1,2.7-5.6,2.7-10.3c0-4.4-0.9-7.7-2.7-9.8c-1.8-2.2-4.1-3.2-6.7-3.2c-2.8,0-5.2,1.1-7,3.3
		C338.3,211.6,337.3,214.9,337.3,219.3z"/>
</g>
<g class="st2">
	<path class="st3" d="M99.5,270.8h18.8l8.1,32l10.3-32h17.6l10.7,32.1l8.2-32.1h18.7l-18.7,50.8H156l-10.3-30.6l-9.9,30.6h-17.4
		L99.5,270.8z"/>
	<path class="st3" d="M193.6,296.4c0-7.8,2.6-14.1,7.8-19.2c5.2-5,12.3-7.5,21.2-7.5c10.2,0,17.9,3,23.1,8.9
		c4.2,4.8,6.3,10.6,6.3,17.6c0,7.8-2.6,14.2-7.8,19.2c-5.2,5-12.4,7.5-21.5,7.5c-8.2,0-14.8-2.1-19.8-6.2
		C196.7,311.5,193.6,304.7,193.6,296.4z M213.2,296.3c0,4.5,0.9,7.9,2.8,10c1.8,2.2,4.1,3.3,6.9,3.3c2.8,0,5.1-1.1,6.9-3.2
		c1.8-2.1,2.7-5.6,2.7-10.3c0-4.4-0.9-7.7-2.7-9.8c-1.8-2.2-4.1-3.2-6.7-3.2c-2.8,0-5.2,1.1-7,3.3
		C214.1,288.6,213.2,291.9,213.2,296.3z"/>
	<path class="st3" d="M261.6,270.8h18.2v8.3c1.8-3.6,3.6-6.1,5.4-7.4c1.9-1.4,4.2-2,6.9-2c2.9,0,6,0.9,9.4,2.7l-6,13.9
		c-2.3-1-4.1-1.4-5.5-1.4c-2.6,0-4.5,1.1-5.9,3.2c-2,3-3,8.5-3,16.7v17h-19.6V270.8z"/>
	<path class="st3" d="M308.8,251.5h19.5v70.1h-19.5V251.5z"/>
	<path class="st3" d="M394.3,251.5v70.1H376v-7.5c-2.6,3.2-4.9,5.3-7,6.5c-2.8,1.5-5.9,2.2-9.4,2.2c-6.9,0-12.2-2.6-15.9-7.9
		c-3.7-5.3-5.5-11.7-5.5-19.2c0-8.4,2-14.9,6.1-19.3c4-4.5,9.2-6.7,15.4-6.7c3,0,5.8,0.5,8.3,1.5c2.5,1,4.7,2.6,6.6,4.6v-24.3H394.3
		z M374.8,296.1c0-4-0.8-7-2.5-8.9c-1.7-2-3.8-2.9-6.4-2.9c-2.3,0-4.2,0.9-5.7,2.8c-1.5,1.9-2.3,5-2.3,9.5c0,4.1,0.8,7.2,2.4,9.1
		c1.6,1.9,3.5,2.9,5.9,2.9c2.5,0,4.6-1,6.2-2.9C373.9,303.7,374.8,300.5,374.8,296.1z"/>
</g>
</svg>
