<?xml version="1.0" encoding="utf-8"?>
<!-- Generator: Adobe Illustrator 21.0.0, SVG Export Plug-In . SVG Version: 6.00 Build 0)  -->
<svg version="1.1" id="Слой_1" xmlns="http://www.w3.org/2000/svg" xmlns:xlink="http://www.w3.org/1999/xlink" x="0px" y="0px"
	 viewBox="0 0 500 500" style="enable-background:new 0 0 500 500;" xml:space="preserve">
<style type="text/css">
	.st0{fill:url(#SVGID_1_);}
	.st1{fill:#FFFFFF;}
</style>
<linearGradient id="SVGID_1_" gradientUnits="userSpaceOnUse" x1="390.1974" y1="144.9914" x2="108.9704" y2="355.632">
	<stop  offset="0" style="stop-color:#00D4A2"/>
	<stop  offset="0.1636" style="stop-color:#34A59C"/>
	<stop  offset="0.3865" style="stop-color:#736B95"/>
	<stop  offset="0.5898" style="stop-color:#A63D8F"/>
	<stop  offset="0.7662" style="stop-color:#CB1C8B"/>
	<stop  offset="0.9089" style="stop-color:#E10789"/>
	<stop  offset="1" style="stop-color:#E90088"/>
</linearGradient>
<circle class="st0" cx="250" cy="250" r="175.7"/>
<g>
	<path class="st1" d="M312,333.2c-2.9-5.7-6.1-10.5-9.9-15.1c-1.6,1.4-3.1,2.7-4.6,4c-10.7,9.5-22.9,16.6-36.1,22
		c-3.5,1.4-7.1,2.7-10.6,3.9c-3.3,1.1-5.2,0-6.3-3.2c-2.1-6.1-4-12.2-6.1-18.2c-0.8-2.2-1.9-4.2-3-6.2c-0.4-0.8-1.1-1.6-2.1-0.4
		c-0.1,0.1-0.5,0-0.8,0c0-0.3-0.1-0.7,0.1-0.9c0.7-1.1,2.1-1.1,3.1-0.1c0.7,0.8,1.4,1.7,1.9,2.7c1.4,3.3,2.6,6.6,3.8,10
		c1.5,4.3,2.9,8.6,4.3,12.9c0.8,2.4,2.1,3.3,4.5,2.4c6.2-2.3,12.4-4.5,18.4-7.2c11.1-5,21.1-11.9,30.2-20.1c0.3-0.3,0.7-0.6,1-0.9
		c3.2-3.1,3.4-3.9,1.7-8c-3-7.1-6-14.2-9-21.3c-1.1-2.6-4-4.9-7-5.1c0.4,0.4,0.6,1.1,1.1,1.3c4.7,1.7,3.8,5.3,0.9,7.4
		c-3.8,2.9-7.8,5.6-11.9,7.9c-11.9,6.8-24.6,11.2-38,14.1c-1.3,0.3-2.7,0.6-3.9,1c-1.9,0.6-3.4,1.9-4.4,3.7
		c-4.7,7.9-9.5,15.7-14.3,23.5c-0.7,1.2-1.4,2.7-3.2,2.6c-1.8-0.2-2.3-1.7-2.8-3.1c-2-5.6-3.8-11.2-5.7-16.7
		c-0.1-0.4-0.3-0.7-0.4-1.3c-0.3,0.2-0.6,0.4-0.7,0.6c-11,17.5-19,36.2-23.5,56.4c-0.4,1.9-0.4,1.9-1.6,2.2
		c3.1-14.9,8.1-28.9,14.8-42.5c-1-0.2-1.8-0.3-2.5-0.7c-0.7-0.4-1.4-1.1-1.7-1.8c-0.5-1.4-1.1-1.2-2.2-0.8
		c-6.7,2.6-11.6,7.5-15.8,13.2c-5.1,6.9-8.8,14.5-11.8,22.4c-1.2,3.1-2.2,6.2-3.4,9.2c-0.2,0.4-0.6,0.7-0.9,1.1
		c-0.2-0.1-0.3-0.2-0.5-0.3c0.7-2.1,1.4-4.2,2.2-6.3c3.5-9.4,7.6-18.4,13.5-26.6c4.5-6.2,9.9-11.4,17.4-14c0.8-0.3,1.2-0.8,1.2-1.7
		c0.1-8.4,2.1-16.5,5.1-24.3c0.8-2,2.1-3.5,4-4.4c3.2-1.5,6.4-2.9,9.6-4.3c0.4-0.2,0.7-0.6,1.1-0.8c-0.3-0.4-0.5-0.9-0.9-1.1
		c-7.7-3.6-12.9-9.5-15.9-17.3c-0.4-1-1.8-2-2.9-2.4c-3.4-1.1-4.7-2.8-4.4-6.3c0.2-2.8,0.2-2.8-2.5-3.6c-5.3-1.6-10.5-3.4-14.9-6.7
		c-1.3-1-2.6-2.1-3.6-3.4c-2.4-3-2.6-6.3-0.1-9.3c2.1-2.5,2.7-5.2,2.9-8.3c0.8-11,5.4-20,15.2-25.9c0.4-0.2,0.7-0.5,0.8-0.5
		c-1-2.1-2.2-3.8-2.8-5.8c-0.9-2.7-0.1-5.5,0.6-8.2c0.2-0.7,0.1-1.7-0.2-2.4c-1.2-2.7-2.8-5.3-3.6-8.1c-3.5-11.6,3.3-23,13.6-27.7
		c0.5-0.2,1.1-0.3,1.5-0.7c0.4-0.4,0.9-1,0.9-1.4c-0.3-3.9,1.6-6.7,4.7-8.5c2.6-1.5,4.2-3.6,5.4-6.3c3.5-8.2,7.4-16.1,12.5-23.4
		c5.2-7.4,11.1-14.1,18.9-18.9c4.2-2.6,8.7-4.5,13.5-5.6c0.8-0.2,1.7-0.7,2.2-1.3c3.7-4.4,8.2-7.8,13.8-9.3
		c7.3-1.9,14.4-1.3,21.1,2.4c1.1,0.6,2.4,0.9,3.7,1c12.8,0.7,24.4,12,25.6,24.8c0.4,4.9,0,9.7-2,14.2c-0.2,0.4-0.2,1.1,0,1.6
		c5.3,12.2,4.7,24.5,1,37c-2.7,8.9-6.9,17.1-10.6,25.5c-2.1,4.8-4.2,9.6-6.4,14.4c-0.1,0.3-0.2,0.5,0,1.1c3.3-2.3,6.6-4.5,10.2-7
		c0,1,0.1,1.5,0,2c-0.9,6.1-1.8,12.3-2.8,18.4c-0.1,0.4-0.5,0.8-0.8,1.2c-0.1-0.4-0.4-0.9-0.3-1.3c0.8-5.6,1.7-11.2,2.6-16.7
		c0-0.3,0-0.6,0-1.2c-0.8,0.5-1.3,0.9-1.9,1.3c-2.5,1.7-5,3.4-7.4,5.2c-0.7,0.5-1.3,1.2-1.6,1.9c-1,2.1-1.9,4.2-2.8,6.3
		c-0.4,0.8-0.4,1.3,0.5,1.8c8.6,4.3,9.9,16.9,2.9,23.5c-3,2.8-6.6,3.6-10.5,2.7c-0.4-0.1-0.8-0.2-1.4-0.4c0,0.6,0,0.9,0,1.3
		c1.5,10.4,2.9,20.9,4.4,31.3c0.1,1.1,0.6,1.6,1.7,2c3.5,1.2,5.9,3.6,7.4,7.1c3.1,7.5,6.2,15,9.4,22.4c0.5,1.2,0.6,2.4-0.1,3.4
		c-0.6,1-0.4,1.6,0.3,2.4c3.7,4.6,6.9,9.5,9.6,14.8c0.3,0.5,0.8,1,1.4,1.3c8,3.8,14,9.9,19.2,16.9c6.5,8.8,10.7,18.5,12.2,29.4
		c0.1,0.6,0.2,1.3,0.2,2c0,0.3-0.2,0.7-0.3,1c-0.2-0.3-0.6-0.6-0.7-0.9c-0.5-2.5-0.8-5.1-1.3-7.6c-1.5-7.2-4.5-13.8-8.5-19.9
		c-3.9-6-8.5-11.5-14.3-15.9c-10.8-8.2-22.4-8.7-34.5-3.3c-5.7,2.5-10.6,6.1-14.1,11.4c-2.3,3.5-3.9,7.2-4.4,11.3
		c-1,7.5-1.7,15.1-2.5,22.7c-0.1,0.6,0,1.1-0.1,1.7c0,0.2-0.4,0.3-0.6,0.5c-0.2-0.2-0.4-0.4-0.5-0.6c-0.1-0.2,0-0.5,0-0.7
		c0.8-7.9,1.3-15.9,2.6-23.7c1.7-10.1,7.5-17.5,16.6-22.3c7.4-3.8,15.1-5.6,23.4-4.4c0.8,0.1,1.7,0.3,2.5,0.5
		C310,332.7,310.8,332.9,312,333.2z M297,117.3c-0.9,2-1.7,4-2.7,5.8c-0.2,0.4-0.9,0.4-1.4,0.7c0.1-0.5,0.1-1,0.2-1.4
		c0.6-1.6,1.3-3.1,1.9-4.7c0.4-1.3,0-2.2-1.2-3.1c-7.1-5.2-14.7-9.3-23.1-12c-7.8-2.5-15.6-3.5-23.8-1.9c-6.2,1.3-11.8,3.7-16.9,7.4
		c-7.9,5.7-14,13.1-18.8,21.4c-3.5,6.1-6.5,12.6-9.6,19c-1.3,2.6-2.8,4.7-5.3,6.2c-1.1,0.6-2,1.5-2.8,2.4c-1.4,1.6-1.6,3.5-1.2,5.6
		c13-2.2,22.5,2.7,29,14.4c0.3-0.5,0.4-0.9,0.6-1.1c11.4-11.2,32.3-9.3,40.1,8c4.5,10,1.8,21.6-6.9,28.9c-7.9,6.7-16.8,7.8-26.2,3.7
		c-6.8-2.9-11.3-8.2-13.7-15.3c-0.2-0.6-0.9-1.5-1.5-1.5c-7.2-1-14.5-2-21.7-2.8c-2.8-0.3-5.6-0.1-8.3,1.2c-3.5,1.7-4.3,4.9-4.7,8.3
		c-0.7,5.5,1.6,9.1,6.9,10.6c3.8,1,7.7,1.7,11.5,2.6c8.7,1.9,17.5,3.6,26.1,5.7c7.4,1.8,14.2,5,19.9,10.1
		c12.2,10.7,17.3,24.3,15.5,40.3c-1,9.2-5.4,16.7-13.5,21.5c-11.1,6.7-23,8-35.5,4.5c-0.4-0.1-0.8-0.2-1.3-0.3
		c-0.1,0.3-0.2,0.5-0.1,0.6c0.8,8.7,0.1,17.2-2.6,25.5c-0.2,0.6-0.2,1.3,0,1.9c1.4,4.4,2.8,8.7,4.3,13.1c0.3,0.8,1.1,1.4,1.6,2
		c0.6-0.5,1.2-1,1.8-1.5c0.3-0.4,0.6-0.8,0.8-1.3c4.5-7.5,9.1-15,13.6-22.5c1.4-2.3,3.3-3.9,5.9-4.7c1.2-0.3,2.4-0.5,3.5-0.8
		c11.7-2.6,23.1-6.3,33.7-11.9c4.7-2.5,9.1-5.4,13.6-8.1c0.7-0.5,1.3-1,1.1-2.1c-1.1-5.4-2.3-10.8-3.1-16.2
		c-1.2-8.1-2.3-16.2-3.3-24.3c-0.3-2.1-0.4-4-2.5-5.3c-0.4-0.2-0.4-1-0.6-1.6c0.5,0.2,1.2,0.3,1.6,0.6c2.9,2.7,6.2,3.5,9.9,2.4
		c4.6-1.5,7.6-6,7.9-11.3c0.4-8.2-6-15.2-14.2-12.7c-0.3,0.1-0.7-0.3-1.1-0.4c0.2-0.3,0.5-0.9,0.8-1c1.7-0.3,3.4-0.4,5.1-0.6
		c0.5-0.1,1.2-0.1,1.3-0.4c0.9-1.8,1.7-3.6,2.6-5.6c-2.7,1.3-2.8,1.2-2.8-1.6c0-6,0-12.1,0-18.1c0-0.4-0.1-0.7-0.2-1.3
		c-0.3,0.4-0.5,0.5-0.6,0.7c-4.5,6.6-9,13.3-13.5,19.8c-0.3,0.4-0.9,0.6-1.4,0.8c0.1-0.5-0.1-1.2,0.2-1.5
		c3.4-5.1,6.9-10.1,10.3-15.1c1.6-2.4,3.2-4.8,4.9-7.1c0.3-0.4,0.8-0.6,1.2-0.9c0.2,0.5,0.5,1,0.6,1.5c0.1,0.2,0,0.4,0,0.6
		c0,6.5,0,12.9,0,19.4c0,0.4,0.1,0.9,0.1,1.4c1.5-0.5,2.5-1.3,3-2.7c3.4-7.7,6.9-15.4,10.2-23.1c3-6.9,6.3-13.7,8.2-21.1
		c2.2-8.6,3-17.3,0.9-26c-0.6-2.3-1.4-4.6-2-6.8c-1,0.9-1.5,1.8-2.2,2.6c-0.2,0.3-0.8,0.3-1.2,0.4c0-0.4-0.1-0.9,0.1-1.2
		c0.4-0.8,1-1.6,1.5-2.4c0.7-1,0.6-1.9,0.1-2.9c-2.5-4.5-5.6-8.6-9.3-12.2C297.8,118,297.3,117.6,297,117.3z M184.7,272.5
		c-1.3,3-0.2,5.6,3.1,6.6c2.1,0.6,3.4,2,4.1,4c3.2,8.7,9.6,14.3,18.4,17c10.1,3,20.1,2.3,29.9-1.8c7.7-3.2,13.3-8.7,15.9-16.8
		c1.9-6.1,2.2-12.5,1.1-18.8c-1.6-9.4-5.6-17.5-12.5-24.2c-6.6-6.4-14.7-10.2-23.6-12.3c-8.2-1.9-16.6-3.5-24.8-5.4
		c-4.5-1-9-2.3-13.5-3.4c-0.4-0.1-1,0-1.4,0.2c-4.4,2.4-8.1,5.7-10.7,10c-3.3,5.4-4.5,11.4-4.8,17.6c-0.1,2.1-0.7,3.9-2.2,5.5
		c-0.4,0.5-0.8,1-1.2,1.6c-1.5,2.4-1.4,5.1,0.3,7.3c2,2.7,4.8,4.4,7.8,5.8c8,3.8,16.6,6,25.4,7.1c11.8,1.5,23.3,0.5,34.6-3.2
		c0.4-0.1,0.7-0.4,0.9-0.4c-0.1-0.8-0.1-1.3-0.2-1.8c0.5,0.1,1.1,0,1.6,0.2c1.3,0.5,2.6,1.1,3.9,1.7c0.5,0.2,0.9,0.7,1.3,1.1
		c-0.6,0.1-1.2,0.4-1.8,0.4c-1,0-2-0.5-2.9-0.3c-2.3,0.5-4.4,1.4-6.7,2c-8.8,2.4-17.7,3.4-26.8,2.5
		C194.9,274.2,189.9,273.2,184.7,272.5z M239.1,170.4c-12.5-0.5-23.8,10.3-23.7,23.6c0,13.2,11.5,24,24.5,23.6
		c10.5-0.3,22.9-9.3,22.8-24C262.5,180.9,251.9,170,239.1,170.4z M179.3,199.8c0.4-0.2,0.5-0.2,0.6-0.3c3.2-3.9,7.6-4.3,12-3.9
		c7,0.6,14,1.7,21,2.7c1.3,0.2,1.7-0.1,1.5-1.5c-0.7-6.4,0.7-12.2,4.6-17.4c0.9-1.1,0.9-2,0.2-3.1c-3.8-6.8-9.2-11.3-17.1-12.6
		c-13.7-2.4-26.3,7.4-27.4,21.2C174.3,190.4,176.4,195.2,179.3,199.8z M207.3,303c-4.3,1.1-8,2.7-11.3,5.1c-0.9,0.7-1.8,1.7-2.2,2.8
		c-2.4,6-4.2,12.2-4.8,18.6c-0.2,2.6-0.3,5.1-0.4,7.7c0,1.3,0.5,2.4,1.9,2.7c1.4,0.3,2.3-0.1,3-1.5c2.6-4.8,5.4-9.4,8.1-14.2
		c0.4-0.7,0.6-1.7,0.4-2.4c-0.8-2.8-1.7-5.6-2.7-8.3c-0.7-2.1-1.4-2.3-3.3-1.3c-0.2,0.1-0.5,0-0.8,0c0-0.3-0.1-0.6,0-0.8
		c0.7-1.3,2.5-1.7,3.5-0.7c0.9,0.9,1.6,2.1,2,3.3c1.3,3.6,2.4,7.3,3.6,10.9c0.1,0.3,0.3,0.6,0.7,1.4
		C207.2,318.4,208,310.9,207.3,303z M308.8,130.4c4.1-6.5,2.2-19.7-3.7-26.9c-4.8-5.9-14.9-11.2-18.7-9.8c0,0,0,0.1,0,0.1
		c0.1,0.1,0.2,0.2,0.3,0.3c6.1,5.2,9.6,11.7,9.9,19.8c0,0.7,0.4,1.5,0.9,1.9c3.8,3.5,7.1,7.4,9.8,11.8
		C307.8,128.5,308.2,129.4,308.8,130.4z M295.2,113.9c0.1-0.6,0.1-0.8,0.1-1.1c-0.7-8-4.6-14.2-10.9-19c-0.4-0.3-1.1-0.5-1.7-0.5
		c-3.9,0.1-7.6,1-11,2.8c-1.8,1-3.5,2.2-5.2,3.3c0,0.2,0.1,0.3,0.1,0.5C277,102.7,286.4,107.4,295.2,113.9z M249,98.7
		c0.3,0.1,0.4,0.2,0.5,0.2c4.7-0.6,9.4-0.3,14,0.5c1,0.2,1.7,0,2.5-0.7c4.1-3.5,8.8-5.6,14.2-6.2c0.3,0,0.7-0.2,1.1-0.3
		C273.1,85.8,254.5,89.6,249,98.7z M287.1,291.3c0.2,0,0.5,0.1,0.7,0.1c0.3-0.9,0.9-1.9,0.8-2.7c-0.2-0.8-1.2-1.4-1.8-2
		c-0.2,0.1-0.3,0.2-0.5,0.3C286.5,288.4,286.8,289.9,287.1,291.3z"/>
	<path class="st1" d="M285.2,231.1c0.2,0.4,0.4,0.9,0.6,1.3c0.3,0.9,0.6,1.7,0.6,2.6c0,0.7-0.6,2-0.8,2c-1.3-0.1-0.6-1.2-0.7-1.9
		c-0.1-0.6-0.1-1.3-0.4-1.9c-0.8-2.1-1.1-2.2-3.1-1.2c-0.4,0.2-1-0.1-1.5-0.1c0.2-0.4,0.3-0.9,0.7-1.2c2.9-2,5.8-2.1,7.8-0.2
		c0.4,0.3,0.4,1,0.6,1.5c-0.5-0.1-1-0.2-1.5-0.4c-0.7-0.3-1.3-0.6-1.9-1C285.5,230.8,285.4,231,285.2,231.1z"/>
	<path class="st1" d="M229.7,195.6c1.2,0,2.2,0.9,2.3,2.1c0,1.3-1,2.4-2.2,2.4c-1.3,0-2.3-1-2.3-2.3
		C227.6,196.5,228.5,195.6,229.7,195.6z"/>
	<path class="st1" d="M183.5,195.4c-1.2,0-2.4-1.1-2.4-2.4c0-1.3,1.1-2.3,2.4-2.3c1.2,0,2.3,1,2.3,2.3
		C185.9,194.2,184.8,195.3,183.5,195.4z"/>
</g>
</svg>
