<?xml version="1.0" encoding="utf-8"?>
<!-- Generator: Adobe Illustrator 21.0.2, SVG Export Plug-In . SVG Version: 6.00 Build 0)  -->
<svg version="1.1" id="Слой_1" xmlns="http://www.w3.org/2000/svg" xmlns:xlink="http://www.w3.org/1999/xlink" x="0px" y="0px"
	 viewBox="0 0 500 500" style="enable-background:new 0 0 500 500;" xml:space="preserve">
<style type="text/css">
	.st0{fill:url(#SVGID_1_);}
	.st1{fill:none;}
	.st2{fill:#EDEDED;}
</style>
<linearGradient id="SVGID_1_" gradientUnits="userSpaceOnUse" x1="418.9209" y1="406.1292" x2="78.7215" y2="494.4831" gradientTransform="matrix(1 0 0 -1 0 700)">
	<stop  offset="0" style="stop-color:#FF653F"/>
	<stop  offset="1" style="stop-color:#FFD055"/>
</linearGradient>
<circle class="st0" cx="250" cy="250" r="175.7"/>
<rect x="98.1" y="214.7" class="st1" width="312.4" height="115.3"/>
<path d="M384.8,299.7c0,4.2,0,8.4,0,12.6c-2.8,10-7.3,19.2-13.7,27.5c-11.9,15.4-26.5,27.6-43.9,36.4c-4.4,2.2-9,4.5-12.8,7.6
	c-8,6.4-16.3,12.1-26,15.7c-3.5,0-7.1,0-10.6,0c-6.5-2-11.6-6.2-16.1-11.2c-2.6-3-6.1-4.1-9.9-4.8c-5.6-1.1-11.4-2.1-16.8-3.9
	c-12.6-4.3-22.3-12-27.2-24.9c-1.1-2.9-2.8-5.6-4.7-8c-12.5-16-18-34.3-17.9-54.5c0-1.6-0.3-3.1-0.6-5c-5.1,2.5-9.6,4.9-14.2,6.9
	c-13.9,6.2-28.1,8.1-42,1c-18.5-9.4-30.3-24.4-34.9-44.8c-0.5-2.1-0.9-4.3-1.3-6.4c0-4.2,0-8.4,0-12.6c0.2-1.1,0.4-2.2,0.7-3.2
	c2.1-7.3,3.3-15.1,6.6-21.8c9.2-19,23.1-31,46.2-28.3c8.1,1,14.8,4.1,21,9c16.4,12.9,25.1,30,28,50.4c0.5,3.6,0.9,7.3,1.4,11.8
	c9-13.2,18.9-24.4,31.5-32.8c12.7-8.4,26.4-14.3,42.7-14.5c-4.9-5.1-9.3-9.6-13.5-14.2c-7.7-8.3-13.4-17.8-14.8-29.2
	c-2.4-18.8,5.3-33.7,18.7-46.1c7.5-6.9,16.6-10.5,26.5-12.2c3.3,0,6.7,0,10,0c0.5,0.2,1,0.4,1.6,0.5c12.5,1.8,23.3,7.5,33,15.4
	c33.4,27,26.2,72.3-8.9,89.4c-1.7,0.8-3.2,1.8-5.2,2.9c1.6,0.9,2.8,1.6,4.1,2.3c19.7,10.4,33.4,26.3,42.4,46.5
	c3.5,7.9,6.1,16.1,6.5,24.9c0.1,1.5,1.5,3.5,2.9,4.2c5,2.5,8.2,6.3,10.3,11.3C384,298.2,384.4,298.9,384.8,299.7z M304.7,243.8
	c-1.6-2.5-3.3-5-5.1-7.5c-6-8.7-12.7-17.1-22-22.4c-14.4-8.3-29.5-7.4-37,11.7c-0.3,0.7-0.7,1.4-0.8,2.2c-1.5,8.3-3.7,16.5-4.2,24.8
	c-1.4,23.8,4.7,45,23.3,61.4c0.8,0.7,1.4,1.5,2,2.3c-4,0-7.6-0.2-11.2,0c-12.6,0.7-24.4,3.3-33.3,13.3c-8,9.1-8.8,18.7-2.2,28.9
	c5.2,8,12.5,13.5,21.2,17c5.9,2.4,12,4.5,18.8,4.7c-0.5-1.5-0.9-2.6-1.3-3.8c2.2,0.9,3.8,2.3,5.3,3.7c3.6,3.4,7.1,7.1,10.9,10.3
	c4.9,4.1,10.6,5.5,17.1,4.6c7.6-1,13.7-4.7,19.7-9c5.2-3.7,10.6-7.3,16.3-10.2c14.4-7.3,27.2-16.8,38.1-28.6
	c9.3-10,17.3-20.9,20.7-34.4c3.7-14.7-2.2-22.9-17.3-24.4c-3.6-0.4-7.2-0.6-10.7-0.9c0.6-3.2,1.6-6,1.6-8.8
	c0-18.2-4.3-35.2-15.8-49.7c-3.3-4.1-7.9-7.5-12.4-10.2s-8.7-1.6-12.3,2.3c-1.8,2-3.7,4.3-4.6,6.8
	C307.6,233,306.3,238.2,304.7,243.8z"/>
<path d="M342,312.4c11-0.2,17.6,10,12,19.4c-7.7,12.9-19.4,20.3-34.4,21.4c-10.8,0.8-16.9-7.8-13.2-18c0.9-2.6,2.4-5,4.1-7.2
	C317.6,318.9,330.5,312.6,342,312.4z"/>
<path d="M242.6,353.4c1.3-7.6,13-14,21.1-13.2c-3.4,1.6-6.7,3.2-10.5,5c1.3,2.2,2.3,4,3.5,5.7c12,15.9,28.9,21.5,47.8,20.5
	c26.1-1.4,45.2-15.4,58.6-37.2c3.1-5,3.9-10.8,3.9-16.6c0-3.5-0.2-7-4.7-7.9c2.6-2.5,6.6-2.5,9.1-0.7c-0.7,1.8-1.9,3.4-1.8,5
	c0.5,18-8.2,31.3-21.4,42.3c-7.3,6.1-15.7,10.3-24.3,14.2c-5.7,2.6-11.1,5.9-16.1,9.6c-6.9,5.1-14,9.4-22.6,10.6
	c-6.1,0.9-11.7-0.4-15.5-5.5c-3.3-4.4-6.1-9.2-8.6-14.1c-3.3-6.5-5.8-13.4-8.9-20c-1.8-3.8-2.7-3.9-5.7-0.9
	c-1.2,1.2-2.1,2.7-3.2,4.1C243.1,353.8,242.9,353.6,242.6,353.4z"/>
<g id="XMLID_1_">
	<g>
		<path class="st2" d="M295.5,262.8c7,14.3,9.4,29.4,8.1,45.8c-1.8-3.5-3.3-6.5-5-9.3c-0.6-1.1-1.7-2.1-2.7-2.9
			c-2.5-2-4.1-1.6-5.6,1.2c-0.5,0.9-0.7,1.9-1,2.8c-0.3,0.8-0.5,1.6-1,3.4c-0.9-2-1.6-3.1-2-4.4c-4.2-11.3-7.3-22.8-6-35
			c0.3-2.8,1.6-5.6,3-8c1.6-2.8,4.4-3.2,6.7-0.9C292.2,257.5,294.2,260.1,295.5,262.8z"/>
		<path d="M303.6,308.6c1.3-16.4-1.1-31.5-8.1-45.8c-1.3-2.7-3.3-5.2-5.5-7.4c-2.3-2.3-5.1-1.9-6.7,0.9c-1.4,2.4-2.7,5.2-3,8
			c-1.3,12.2,1.9,23.7,6,35c0.5,1.2,1.1,2.4,2,4.4c0.5-1.8,0.7-2.6,1-3.4c0.3-0.9,0.6-1.9,1-2.8c1.4-2.8,3.1-3.2,5.6-1.2
			c1,0.8,2,1.8,2.7,2.9C300.3,302.1,301.7,305.1,303.6,308.6z M306.6,313.3c8.9-6,17.8-10.6,28.5-9.8c-14,2.9-25.9,9.6-35.2,20
			c-1.9-2.7-3.3-5-5-7c-10.9-13.3-16.7-28.6-17.7-45.7c-0.3-5.2,0.4-10.4,3.1-15.1c2.9-5,7.4-6,11.5-2c2.9,2.8,5.4,6.2,7.1,9.8
			c6.2,12.7,8,26.4,7.6,40.4C306.6,306.9,306.6,309.7,306.6,313.3z"/>
	</g>
</g>
<path d="M321.1,298.5c2.5-5.9,4.8-11.8,11.5-14c1.8-0.6,3.8-0.9,5.9,1.8C329.6,286.6,325.5,292.7,321.1,298.5z"/>
<path d="M319.8,285.7c1-5.4,2.2-10.7,7.5-13.8c2-1.2,4.3-1.4,6.4,0.8c-4.2-0.7-6.5,1.8-8.3,4.7c-1.7,2.8-3.1,5.7-4.7,8.6
	C320.4,285.9,320.1,285.8,319.8,285.7z"/>
<path d="M330.7,301.6c2.9-3.5,5.5-6.6,8.4-10.1C338.8,295.8,335,300.5,330.7,301.6z"/>
</svg>
