<?xml version="1.0" encoding="utf-8"?>
<!-- Generator: Adobe Illustrator 21.0.2, SVG Export Plug-In . SVG Version: 6.00 Build 0)  -->
<svg version="1.1" id="Слой_1" xmlns="http://www.w3.org/2000/svg" xmlns:xlink="http://www.w3.org/1999/xlink" x="0px" y="0px"
	 viewBox="0 0 500 500" style="enable-background:new 0 0 500 500;" xml:space="preserve">
<style type="text/css">
	.st0{fill:url(#SVGID_1_);}
	.st1{fill:#FFFFFF;}
</style>
<linearGradient id="SVGID_1_" gradientUnits="userSpaceOnUse" x1="74.3274" y1="250" x2="425.6726" y2="250">
	<stop  offset="0" style="stop-color:#00C5D4"/>
	<stop  offset="1" style="stop-color:#ED1E79"/>
</linearGradient>
<circle class="st0" cx="250" cy="250" r="175.7"/>
<g>
	<path class="st1" d="M106.4,188.1h19.7l8.5,33.5l10.8-33.5H164l11.3,33.6l8.6-33.6h19.6l-19.6,53.3h-18.2l-10.8-32.1l-10.4,32.1
		h-18.3L106.4,188.1z"/>
	<path class="st1" d="M205.1,214.9c0-8.1,2.7-14.8,8.2-20.1c5.5-5.3,12.9-7.9,22.2-7.9c10.7,0,18.7,3.1,24.2,9.3
		c4.4,5,6.6,11.1,6.6,18.4c0,8.2-2.7,14.9-8.2,20.1c-5.4,5.2-13,7.9-22.5,7.9c-8.6,0-15.5-2.2-20.8-6.5
		C208.3,230.7,205.1,223.6,205.1,214.9z M225.6,214.8c0,4.7,1,8.3,2.9,10.5c1.9,2.3,4.3,3.4,7.2,3.4c2.9,0,5.4-1.1,7.2-3.4
		c1.9-2.2,2.8-5.8,2.8-10.8c0-4.6-1-8.1-2.9-10.3c-1.9-2.3-4.3-3.4-7.1-3.4c-3,0-5.4,1.1-7.4,3.4
		C226.5,206.6,225.6,210.1,225.6,214.8z"/>
	<path class="st1" d="M276.3,188.1h19.1v8.7c1.8-3.8,3.7-6.4,5.7-7.8c2-1.4,4.4-2.1,7.2-2.1c3,0,6.3,0.9,9.9,2.8l-6.3,14.5
		c-2.4-1-4.3-1.5-5.7-1.5c-2.7,0-4.7,1.1-6.2,3.3c-2.1,3.1-3.2,8.9-3.2,17.5v17.9h-20.5V188.1z"/>
	<path class="st1" d="M325.1,167.8H346v38l15.3-17.7h25.1l-19.1,18.7l20.2,34.6h-23L353.7,220l-7.7,7.5v13.8h-20.9V167.8z"/>
	<path class="st1" d="M126.2,262.2h20.4v27.1c2.8-2.9,5.5-4.9,8.3-6.2c2.7-1.2,6-1.9,9.7-1.9c5.6,0,9.9,1.7,13.1,5.1
		c3.2,3.4,4.8,8.6,4.8,15.6v33.9H162v-29.3c0-3.3-0.6-5.7-1.9-7.1c-1.2-1.4-3-2.1-5.2-2.1c-2.5,0-4.5,0.9-6,2.8
		c-1.5,1.9-2.3,5.2-2.3,10.1v25.6h-20.4V262.2z"/>
	<path class="st1" d="M213.3,299.7l-19.5-2.1c0.7-3.4,1.8-6.1,3.2-8.1c1.4-2,3.4-3.7,6-5.1c1.9-1,4.4-1.8,7.7-2.4
		c3.3-0.6,6.8-0.9,10.6-0.9c6.1,0,11,0.3,14.7,1c3.7,0.7,6.8,2.1,9.3,4.3c1.7,1.5,3.1,3.6,4.1,6.4c1,2.8,1.5,5.4,1.5,7.9v23.5
		c0,2.5,0.2,4.5,0.5,5.9c0.3,1.4,1,3.2,2.1,5.4h-19.2c-0.8-1.4-1.3-2.4-1.5-3.1c-0.2-0.7-0.5-1.8-0.7-3.4c-2.7,2.6-5.3,4.4-8,5.5
		c-3.6,1.5-7.8,2.2-12.6,2.2c-6.4,0-11.2-1.5-14.5-4.4c-3.3-2.9-4.9-6.6-4.9-10.9c0-4,1.2-7.4,3.6-10c2.4-2.6,6.8-4.5,13.1-5.8
		c7.7-1.5,12.6-2.6,14.9-3.2c2.3-0.6,4.7-1.4,7.2-2.4c0-2.5-0.5-4.3-1.6-5.3c-1-1-2.9-1.5-5.5-1.5c-3.3,0-5.9,0.5-7.5,1.6
		C215.1,295.8,214.1,297.4,213.3,299.7z M231,310.4c-2.8,1-5.7,1.9-8.8,2.7c-4.1,1.1-6.8,2.2-7.9,3.3c-1.1,1.1-1.7,2.4-1.7,3.8
		c0,1.6,0.6,2.9,1.7,3.9c1.1,1,2.8,1.5,4.9,1.5c2.3,0,4.4-0.6,6.3-1.7s3.3-2.4,4.2-4c0.8-1.6,1.2-3.7,1.2-6.2V310.4z"/>
	<path class="st1" d="M263.4,282.4h19.1v8.7c1.8-3.8,3.7-6.4,5.7-7.8c2-1.4,4.4-2.1,7.2-2.1c3,0,6.3,0.9,9.9,2.8l-6.3,14.5
		c-2.4-1-4.3-1.5-5.7-1.5c-2.7,0-4.7,1.1-6.2,3.3c-2.1,3.1-3.2,8.9-3.2,17.5v17.9h-20.5V282.4z"/>
	<path class="st1" d="M367.5,262.2v73.5h-19.1v-7.9c-2.7,3.3-5.1,5.6-7.3,6.8c-2.9,1.5-6.2,2.3-9.8,2.3c-7.3,0-12.8-2.8-16.6-8.3
		c-3.8-5.5-5.7-12.2-5.7-20.1c0-8.8,2.1-15.6,6.3-20.3c4.2-4.7,9.6-7,16.1-7c3.2,0,6.1,0.5,8.7,1.6c2.6,1.1,4.9,2.7,6.9,4.8v-25.5
		H367.5z M347,308.9c0-4.2-0.9-7.3-2.7-9.4c-1.8-2.1-4-3.1-6.7-3.1c-2.4,0-4.4,1-6,3c-1.6,2-2.4,5.3-2.4,9.9c0,4.3,0.8,7.5,2.5,9.6
		c1.7,2,3.7,3,6.1,3c2.6,0,4.8-1,6.5-3.1C346.1,316.9,347,313.5,347,308.9z"/>
</g>
</svg>
