<?xml version="1.0" encoding="utf-8"?>
<!-- Generator: Adobe Illustrator 21.0.2, SVG Export Plug-In . SVG Version: 6.00 Build 0)  -->
<svg version="1.1" id="Слой_1" xmlns="http://www.w3.org/2000/svg" xmlns:xlink="http://www.w3.org/1999/xlink" x="0px" y="0px"
	 viewBox="0 0 500 500" style="enable-background:new 0 0 500 500;" xml:space="preserve">
<style type="text/css">
	.st0{fill:url(#SVGID_1_);}
	.st1{fill:#F4F4EF;}
	.st2{fill:#D38802;}
	.st3{fill:#070707;}
	.st4{fill:#D3D32A;}
</style>
<linearGradient id="SVGID_1_" gradientUnits="userSpaceOnUse" x1="390.1974" y1="355.0086" x2="108.9265" y2="144.3351" gradientTransform="matrix(1 0 0 -1 0 500)">
	<stop  offset="0" style="stop-color:#00D4A2"/>
	<stop  offset="0.1636" style="stop-color:#34A59C"/>
	<stop  offset="0.3865" style="stop-color:#736B95"/>
	<stop  offset="0.5898" style="stop-color:#A63D8F"/>
	<stop  offset="0.7662" style="stop-color:#CB1C8B"/>
	<stop  offset="0.9089" style="stop-color:#E10789"/>
	<stop  offset="1" style="stop-color:#E90088"/>
</linearGradient>
<circle class="st0" cx="250" cy="250" r="175.7"/>
<g>
	<g id="XMLID_1_">
		<g>
			<path class="st1" d="M219.2,176.3c0.7,1.1,0.7,2-0.2,3.1c-3.9,5.2-5.3,11-4.6,17.4c0.2,1.4-0.2,1.7-1.5,1.5c-7-1-14-2.1-21-2.7
				c-4.4-0.4-8.8,0-12,3.9c-0.1,0.1-0.2,0.1-0.6,0.3c-2.9-4.6-5-9.4-4.6-14.9c1.1-13.8,13.7-23.6,27.4-21.2
				C210,165,215.4,169.5,219.2,176.3z M183.5,195.4c1.3-0.1,2.4-1.2,2.3-2.4c0-1.3-1.1-2.3-2.3-2.3c-1.3,0-2.4,1-2.4,2.3
				S182.3,195.4,183.5,195.4z"/>
			<path class="st1" d="M262.7,193.6c0.1,14.7-12.3,23.7-22.8,24c-13,0.4-24.5-10.4-24.5-23.6c-0.1-13.3,11.2-24.1,23.7-23.6
				C251.9,170,262.5,180.9,262.7,193.6z M229.8,200.1c1.2,0,2.2-1.1,2.2-2.4c-0.1-1.2-1.1-2.1-2.3-2.1s-2.1,0.9-2.2,2.2
				C227.5,199.1,228.5,200.1,229.8,200.1z"/>
			<path class="st2" d="M257.2,262.7c1.1,6.3,0.8,12.7-1.1,18.8c-2.6,8.1-8.2,13.6-15.9,16.8c-9.8,4.1-19.8,4.8-29.9,1.8
				c-8.8-2.7-15.2-8.3-18.4-17c-0.7-2-2-3.4-4.1-4c-3.3-1-4.4-3.6-3.1-6.6c5.2,0.7,10.2,1.7,15.2,2.2c9.1,0.9,18-0.1,26.8-2.5
				c2.3-0.6,4.4-1.5,6.7-2c0.9-0.2,1.9,0.3,2.9,0.3c0.6,0,1.2-0.3,1.8-0.4c-0.4-0.4-0.8-0.9-1.3-1.1c-1.3-0.6-2.6-1.2-3.9-1.7
				c-0.5-0.2-1.1-0.1-1.6-0.2c0.1,0.5,0.1,1,0.2,1.8c-0.2,0-0.5,0.3-0.9,0.4c-11.3,3.7-22.8,4.7-34.6,3.2
				c-8.8-1.1-17.4-3.3-25.4-7.1c-3-1.4-5.8-3.1-7.8-5.8c-1.7-2.2-1.8-4.9-0.3-7.3c0.4-0.6,0.8-1.1,1.2-1.6c1.5-1.6,2.1-3.4,2.2-5.5
				c0.3-6.2,1.5-12.2,4.8-17.6c2.6-4.3,6.3-7.6,10.7-10c0.4-0.2,1-0.3,1.4-0.2c4.5,1.1,9,2.4,13.5,3.4c8.2,1.9,16.6,3.5,24.8,5.4
				c8.9,2.1,17,5.9,23.6,12.3C251.6,245.2,255.6,253.3,257.2,262.7z"/>
			<path class="st3" d="M346.5,381c0.1,0.6,0.2,1.3,0.2,2c0,0.3-0.2,0.7-0.3,1c-0.2-0.3-0.6-0.6-0.7-0.9c-0.5-2.5-0.8-5.1-1.3-7.6
				c-1.5-7.2-4.5-13.8-8.5-19.9c-3.9-6-8.5-11.5-14.3-15.9c-10.8-8.2-22.4-8.7-34.5-3.3c-5.7,2.5-10.6,6.1-14.1,11.4
				c-2.3,3.5-3.9,7.2-4.4,11.3c-1,7.5-1.7,15.1-2.5,22.7c-0.1,0.6,0,1.1-0.1,1.7c0,0.2-0.4,0.3-0.6,0.5c-0.2-0.2-0.4-0.4-0.5-0.6
				c-0.1-0.2,0-0.5,0-0.7c0.8-7.9,1.3-15.9,2.6-23.7c1.7-10.1,7.5-17.5,16.6-22.3c7.4-3.8,15.1-5.6,23.4-4.4
				c0.8,0.1,1.7,0.3,2.5,0.5c0-0.1,0.8,0.1,2,0.4c-2.9-5.7-6.1-10.5-9.9-15.1c-1.6,1.4-3.1,2.7-4.6,4c-10.7,9.5-22.9,16.6-36.1,22
				c-3.5,1.4-7.1,2.7-10.6,3.9c-3.3,1.1-5.2,0-6.3-3.2c-2.1-6.1-4-12.2-6.1-18.2c-0.8-2.2-1.9-4.2-3-6.2c-0.4-0.8-1.1-1.6-2.1-0.4
				c-0.1,0.1-0.5,0-0.8,0c0-0.3-0.1-0.7,0.1-0.9c0.4-0.7,1.2-1,1.9-0.8c0.4,0.1,0.8,0.3,1.2,0.7c0.7,0.8,1.4,1.7,1.9,2.7
				c1.4,3.3,2.6,6.6,3.8,10c1.5,4.3,2.9,8.6,4.3,12.9c0.8,2.4,2.1,3.3,4.5,2.4c6.2-2.3,12.4-4.5,18.4-7.2
				c11.1-5,21.1-11.9,30.2-20.1c0.3-0.3,0.7-0.6,1-0.9c3.2-3.1,3.4-3.9,1.7-8c-3-7.1-6-14.2-9-21.3c-1.1-2.6-4-4.9-7-5.1
				c0.4,0.4,0.6,1.1,1.1,1.3c4.7,1.7,3.8,5.3,0.9,7.4c-3.8,2.9-7.8,5.6-11.9,7.9c-11.9,6.8-24.6,11.2-38,14.1
				c-1.3,0.3-2.6,0.6-3.8,1c0,0-0.1,0-0.1,0c-1.9,0.6-3.4,1.9-4.4,3.7c-4.7,7.9-9.5,15.7-14.3,23.5c-0.7,1.2-1.4,2.7-3.2,2.6
				c-1.8-0.2-2.3-1.7-2.8-3.1c-2-5.6-3.8-11.2-5.7-16.7c-0.1-0.4-0.3-0.7-0.4-1.3c-0.3,0.2-0.6,0.4-0.7,0.6
				c-11,17.5-19,36.2-23.5,56.4c-0.4,1.9-0.4,1.9-1.6,2.2c3.1-14.9,8.1-28.9,14.8-42.5c-1-0.2-1.8-0.3-2.5-0.7
				c-0.7-0.4-1.4-1.1-1.7-1.8c-0.5-1.4-1.1-1.2-2.2-0.8c-6.7,2.6-11.6,7.5-15.8,13.2c-5.1,6.9-8.8,14.5-11.8,22.4
				c-1.2,3.1-2.2,6.2-3.4,9.2c-0.2,0.4-0.6,0.7-0.9,1.1c-0.2-0.1-0.3-0.2-0.5-0.3c0.7-2.1,1.4-4.2,2.2-6.3
				c3.5-9.4,7.6-18.4,13.5-26.6c4.5-6.2,9.9-11.4,17.4-14c0.8-0.3,1.2-0.8,1.2-1.7c0.1-8.4,2.1-16.5,5.1-24.3c0.8-2,2.1-3.5,4-4.4
				c3.2-1.5,6.4-2.9,9.6-4.3c0.4-0.2,0.7-0.6,1.1-0.8c-0.3-0.4-0.5-0.9-0.9-1.1c-7.7-3.6-12.9-9.5-15.9-17.3c-0.4-1-1.8-2-2.9-2.4
				c-3.4-1.1-4.7-2.8-4.4-6.3c0.2-2.8,0.2-2.8-2.5-3.6c-5.3-1.6-10.5-3.4-14.9-6.7c-1.3-1-2.6-2.1-3.6-3.4c-2.4-3-2.6-6.3-0.1-9.3
				c2.1-2.5,2.7-5.2,2.9-8.3c0.8-11,5.4-20,15.2-25.9c0.4-0.2,0.7-0.5,0.8-0.5c-1-2.1-2.2-3.8-2.8-5.8c-0.9-2.7-0.1-5.5,0.6-8.2
				c0.2-0.7,0.1-1.7-0.2-2.4c-1.2-2.7-2.8-5.3-3.6-8.1c-3.5-11.6,3.3-23,13.6-27.7c0.5-0.2,1.1-0.3,1.5-0.7c0.4-0.4,0.9-1,0.9-1.4
				c-0.3-3.9,1.6-6.7,4.7-8.5c2.6-1.5,4.2-3.6,5.4-6.3c3.5-8.2,7.4-16.1,12.5-23.4c5.2-7.4,11.1-14.1,18.9-18.9
				c4.2-2.6,8.7-4.5,13.5-5.6c0.8-0.2,1.7-0.7,2.2-1.3c3.7-4.4,8.2-7.8,13.8-9.3c7.3-1.9,14.4-1.3,21.1,2.4c1.1,0.6,2.4,0.9,3.7,1
				c12.8,0.7,24.4,12,25.6,24.8c0.4,4.9,0,9.7-2,14.2c-0.2,0.4-0.2,1.1,0,1.6c5.3,12.2,4.7,24.5,1,37c-2.7,8.9-6.9,17.1-10.6,25.5
				c-2.1,4.8-4.2,9.6-6.4,14.4c-0.1,0.3-0.2,0.5,0,1.1c3.3-2.3,6.6-4.5,10.2-7c0,1,0.1,1.5,0,2c-0.9,6.1-1.8,12.3-2.8,18.4
				c-0.1,0.4-0.5,0.8-0.8,1.2c-0.1-0.4-0.4-0.9-0.3-1.3c0.8-5.6,1.7-11.2,2.6-16.7c0-0.3,0-0.6,0-1.2c-0.8,0.5-1.3,0.9-1.9,1.3
				c-2.5,1.7-5,3.4-7.4,5.2c-0.7,0.5-1.3,1.2-1.6,1.9c-1,2.1-1.9,4.2-2.8,6.3c-0.4,0.8-0.4,1.3,0.5,1.8c8.6,4.3,9.9,16.9,2.9,23.5
				c-3,2.8-6.6,3.6-10.5,2.7c-0.4-0.1-0.8-0.2-1.4-0.4c0,0.6,0,0.9,0,1.3c1.5,10.4,2.9,20.9,4.4,31.3c0.1,1.1,0.6,1.6,1.7,2
				c3.5,1.2,5.9,3.6,7.4,7.1c3.1,7.5,6.2,15,9.4,22.4c0.5,1.2,0.6,2.4-0.1,3.4c-0.6,1-0.4,1.6,0.3,2.4c3.7,4.6,6.9,9.5,9.6,14.8
				c0.3,0.5,0.8,1,1.4,1.3c8,3.8,14,9.9,19.2,16.9C340.8,360.4,345,370.1,346.5,381z M310.4,167c2.2-8.6,3-17.3,0.9-26
				c-0.6-2.3-1.4-4.6-2-6.8c-1,0.9-1.5,1.8-2.2,2.6c-0.2,0.3-0.8,0.3-1.2,0.4c0-0.4-0.1-0.9,0.1-1.2c0.4-0.8,1-1.6,1.5-2.4
				c0.7-1,0.6-1.9,0.1-2.9c-2.5-4.5-5.6-8.6-9.3-12.2c-0.5-0.5-1-0.9-1.3-1.2c-0.9,2-1.7,4-2.7,5.8c-0.2,0.4-0.9,0.4-1.4,0.7
				c0.1-0.5,0.1-1,0.2-1.4c0.6-1.6,1.3-3.1,1.9-4.7c0.4-1.3,0-2.2-1.2-3.1c-7.1-5.2-14.7-9.3-23.1-12c-7.8-2.5-15.6-3.5-23.8-1.9
				c-6.2,1.3-11.8,3.7-16.9,7.4c-7.9,5.7-14,13.1-18.8,21.4c-3.5,6.1-6.5,12.6-9.6,19c-1.3,2.6-2.8,4.7-5.3,6.2
				c-1.1,0.6-2,1.5-2.8,2.4c-1.4,1.6-1.6,3.5-1.2,5.6c13-2.2,22.5,2.7,29,14.4c0.3-0.5,0.4-0.9,0.6-1.1c11.4-11.2,32.3-9.3,40.1,8
				c4.5,10,1.8,21.6-6.9,28.9c-7.9,6.7-16.8,7.8-26.2,3.7c-6.8-2.9-11.3-8.2-13.7-15.3c-0.2-0.6-0.9-1.5-1.5-1.5
				c-7.2-1-14.5-2-21.7-2.8c-2.8-0.3-5.6-0.1-8.3,1.2c-3.5,1.7-4.3,4.9-4.7,8.3c-0.7,5.5,1.6,9.1,6.9,10.6c3.8,1,7.7,1.7,11.5,2.6
				c8.7,1.9,17.5,3.6,26.1,5.7c7.4,1.8,14.2,5,19.9,10.1c12.2,10.7,17.3,24.3,15.5,40.3c-1,9.2-5.4,16.7-13.5,21.5
				c-11.1,6.7-23,8-35.5,4.5c-0.4-0.1-0.8-0.2-1.3-0.3c-0.1,0.3-0.2,0.5-0.1,0.6c0.8,8.7,0.1,17.2-2.6,25.5c-0.2,0.6-0.2,1.3,0,1.9
				c1.4,4.4,2.8,8.7,4.3,13.1c0.3,0.8,1.1,1.4,1.6,2c0.6-0.5,1.2-1,1.8-1.5c0.3-0.4,0.6-0.8,0.8-1.3c4.5-7.5,9.1-15,13.6-22.5
				c1.4-2.3,3.3-3.9,5.9-4.7c1.2-0.3,2.4-0.5,3.5-0.8c11.7-2.6,23.1-6.3,33.7-11.9c4.7-2.5,9.1-5.4,13.6-8.1c0.7-0.5,1.3-1,1.1-2.1
				c-1.1-5.4-2.3-10.8-3.1-16.2c-1.2-8.1-2.3-16.2-3.3-24.3c-0.3-2.1-0.4-4-2.5-5.3c-0.4-0.2-0.4-1-0.6-1.6c0.5,0.2,1.2,0.3,1.6,0.6
				c2.9,2.7,6.2,3.5,9.9,2.4c4.6-1.5,7.6-6,7.9-11.3c0.4-8.2-6-15.2-14.2-12.7c-0.3,0.1-0.7-0.3-1.1-0.4c0.2-0.3,0.5-0.9,0.8-1
				c1.7-0.3,3.4-0.4,5.1-0.6c0.5-0.1,1.2-0.1,1.3-0.4c0.9-1.8,1.7-3.6,2.6-5.6c-2.7,1.3-2.8,1.2-2.8-1.6c0-6,0-12.1,0-18.1
				c0-0.4-0.1-0.7-0.2-1.3c-0.3,0.4-0.5,0.5-0.6,0.7c-4.5,6.6-9,13.3-13.5,19.8c-0.3,0.4-0.9,0.6-1.4,0.8c0.1-0.5-0.1-1.2,0.2-1.5
				c3.4-5.1,6.9-10.1,10.3-15.1c1.6-2.4,3.2-4.8,4.9-7.1c0.3-0.4,0.8-0.6,1.2-0.9c0.2,0.5,0.5,1,0.6,1.5c0.1,0.2,0,0.4,0,0.6
				c0,6.5,0,12.9,0,19.4c0,0.4,0.1,0.9,0.1,1.4c1.5-0.5,2.5-1.3,3-2.7c3.4-7.7,6.9-15.4,10.2-23.1
				C305.2,181.2,308.5,174.4,310.4,167z M308.8,130.4c4.1-6.5,2.2-19.7-3.7-26.9c-4.8-5.9-14.9-11.2-18.7-9.8v0.1
				c0.1,0.1,0.2,0.2,0.3,0.3c6.1,5.2,9.6,11.7,9.9,19.8c0,0.7,0.4,1.5,0.9,1.9c3.8,3.5,7.1,7.4,9.8,11.8
				C307.8,128.5,308.2,129.4,308.8,130.4z M295.2,113.9c0.1-0.6,0.1-0.8,0.1-1.1c-0.7-8-4.6-14.2-10.9-19c-0.4-0.3-1.1-0.5-1.7-0.5
				c-3.9,0.1-7.6,1-11,2.8c-1.8,1-3.5,2.2-5.2,3.3c0,0.2,0.1,0.3,0.1,0.5C277,102.7,286.4,107.4,295.2,113.9z M287.8,291.4
				c0.3-0.9,0.9-1.9,0.8-2.7c-0.2-0.8-1.2-1.4-1.8-2c-0.2,0.1-0.3,0.2-0.5,0.3c0.2,1.4,0.5,2.9,0.8,4.3
				C287.3,291.3,287.6,291.4,287.8,291.4z M280.2,92.5c0.3,0,0.7-0.2,1.1-0.3c-8.2-6.4-26.8-2.6-32.3,6.5c0.3,0.1,0.4,0.2,0.5,0.2
				c4.7-0.6,9.4-0.3,14,0.5c1,0.2,1.7,0,2.5-0.7C270.1,95.2,274.8,93.1,280.2,92.5z M239.9,217.6c10.5-0.3,22.9-9.3,22.8-24
				c-0.2-12.7-10.8-23.6-23.6-23.2c-12.5-0.5-23.8,10.3-23.7,23.6C215.4,207.2,226.9,218,239.9,217.6z M256.1,281.5
				c1.9-6.1,2.2-12.5,1.1-18.8c-1.6-9.4-5.6-17.5-12.5-24.2c-6.6-6.4-14.7-10.2-23.6-12.3c-8.2-1.9-16.6-3.5-24.8-5.4
				c-4.5-1-9-2.3-13.5-3.4c-0.4-0.1-1,0-1.4,0.2c-4.4,2.4-8.1,5.7-10.7,10c-3.3,5.4-4.5,11.4-4.8,17.6c-0.1,2.1-0.7,3.9-2.2,5.5
				c-0.4,0.5-0.8,1-1.2,1.6c-1.5,2.4-1.4,5.1,0.3,7.3c2,2.7,4.8,4.4,7.8,5.8c8,3.8,16.6,6,25.4,7.1c11.8,1.5,23.3,0.5,34.6-3.2
				c0.4-0.1,0.7-0.4,0.9-0.4c-0.1-0.8-0.1-1.3-0.2-1.8c0.5,0.1,1.1,0,1.6,0.2c1.3,0.5,2.6,1.1,3.9,1.7c0.5,0.2,0.9,0.7,1.3,1.1
				c-0.6,0.1-1.2,0.4-1.8,0.4c-1,0-2-0.5-2.9-0.3c-2.3,0.5-4.4,1.4-6.7,2c-8.8,2.4-17.7,3.4-26.8,2.5c-5-0.5-10-1.5-15.2-2.2
				c-1.3,3-0.2,5.6,3.1,6.6c2.1,0.6,3.4,2,4.1,4c3.2,8.7,9.6,14.3,18.4,17c10.1,3,20.1,2.3,29.9-1.8
				C247.9,295.1,253.5,289.6,256.1,281.5z M219,179.4c0.9-1.1,0.9-2,0.2-3.1c-3.8-6.8-9.2-11.3-17.1-12.6
				c-13.7-2.4-26.3,7.4-27.4,21.2c-0.4,5.5,1.7,10.3,4.6,14.9c0.4-0.2,0.5-0.2,0.6-0.3c3.2-3.9,7.6-4.3,12-3.9c7,0.6,14,1.7,21,2.7
				c1.3,0.2,1.7-0.1,1.5-1.5C213.7,190.4,215.1,184.6,219,179.4z M205,326.3c2.2-7.9,3-15.4,2.3-23.3c-4.3,1.1-8,2.7-11.3,5.1
				c-0.9,0.7-1.8,1.7-2.2,2.8c-2.4,6-4.2,12.2-4.8,18.6c-0.2,2.6-0.3,5.1-0.4,7.7c0,1.3,0.5,2.4,1.9,2.7c1.4,0.3,2.3-0.1,3-1.5
				c2.6-4.8,5.4-9.4,8.1-14.2c0.4-0.7,0.6-1.7,0.4-2.4c-0.8-2.8-1.7-5.6-2.7-8.3c-0.7-2.1-1.4-2.3-3.3-1.3c-0.2,0.1-0.5,0-0.8,0
				c0-0.3-0.1-0.6,0-0.8c0.7-1.3,2.5-1.7,3.5-0.7c0.9,0.9,1.6,2.1,2,3.3c1.3,3.6,2.4,7.3,3.6,10.9
				C204.4,325.2,204.6,325.5,205,326.3z"/>
			<path class="st4" d="M311.3,141c2.1,8.7,1.3,17.4-0.9,26c-1.9,7.4-5.2,14.2-8.2,21.1c-3.3,7.7-6.8,15.4-10.2,23.1
				c-0.5,1.4-1.5,2.2-3,2.7c0-0.5-0.1-1-0.1-1.4c0-6.5,0-12.9,0-19.4c0-0.2,0.1-0.4,0-0.6c-0.1-0.5-0.4-1-0.6-1.5
				c-0.4,0.3-0.9,0.5-1.2,0.9c-1.7,2.3-3.3,4.7-4.9,7.1c-3.4,5-6.9,10-10.3,15.1c-0.3,0.3-0.1,1-0.2,1.5c0.5-0.2,1.1-0.4,1.4-0.8
				c4.5-6.5,9-13.2,13.5-19.8c0.1-0.2,0.3-0.3,0.6-0.7c0.1,0.6,0.2,0.9,0.2,1.3c0,6,0,12.1,0,18.1c0,2.8,0.1,2.9,2.8,1.6
				c-0.9,2-1.7,3.8-2.6,5.6c-0.1,0.3-0.8,0.3-1.3,0.4c-1.7,0.2-3.4,0.3-5.1,0.6c-0.3,0.1-0.6,0.7-0.8,1c0.4,0.1,0.8,0.5,1.1,0.4
				c8.2-2.5,14.6,4.5,14.2,12.7c-0.3,5.3-3.3,9.8-7.9,11.3c-3.7,1.1-7,0.3-9.9-2.4c-0.4-0.3-1.1-0.4-1.6-0.6
				c0.2,0.6,0.2,1.4,0.6,1.6c2.1,1.3,2.2,3.2,2.5,5.3c1,8.1,2.1,16.2,3.3,24.3c0.8,5.4,2,10.8,3.1,16.2c0.2,1.1-0.4,1.6-1.1,2.1
				c-4.5,2.7-8.9,5.6-13.6,8.1c-10.6,5.6-22,9.3-33.7,11.9c-1.1,0.3-2.3,0.5-3.5,0.8c-2.6,0.8-4.5,2.4-5.9,4.7
				c-4.5,7.5-9.1,15-13.6,22.5c-0.2,0.5-0.5,0.9-0.8,1.3c-0.6,0.5-1.2,1-1.8,1.5c-0.5-0.6-1.3-1.2-1.6-2c-1.5-4.4-2.9-8.7-4.3-13.1
				c-0.2-0.6-0.2-1.3,0-1.9c2.7-8.3,3.4-16.8,2.6-25.5c-0.1-0.1,0-0.3,0.1-0.6c0.5,0.1,0.9,0.2,1.3,0.3c12.5,3.5,24.4,2.2,35.5-4.5
				c8.1-4.8,12.5-12.3,13.5-21.5c1.8-16-3.3-29.6-15.5-40.3c-5.7-5.1-12.5-8.3-19.9-10.1c-8.6-2.1-17.4-3.8-26.1-5.7
				c-3.8-0.9-7.7-1.6-11.5-2.6c-5.3-1.5-7.6-5.1-6.9-10.6c0.4-3.4,1.2-6.6,4.7-8.3c2.7-1.3,5.5-1.5,8.3-1.2
				c7.2,0.8,14.5,1.8,21.7,2.8c0.6,0,1.3,0.9,1.5,1.5c2.4,7.1,6.9,12.4,13.7,15.3c9.4,4.1,18.3,3,26.2-3.7
				c8.7-7.3,11.4-18.9,6.9-28.9c-7.8-17.3-28.7-19.2-40.1-8c-0.2,0.2-0.3,0.6-0.6,1.1c-6.5-11.7-16-16.6-29-14.4
				c-0.4-2.1-0.2-4,1.2-5.6c0.8-0.9,1.7-1.8,2.8-2.4c2.5-1.5,4-3.6,5.3-6.2c3.1-6.4,6.1-12.9,9.6-19c4.8-8.3,10.9-15.7,18.8-21.4
				c5.1-3.7,10.7-6.1,16.9-7.4c8.2-1.6,16-0.6,23.8,1.9c8.4,2.7,16,6.8,23.1,12c1.2,0.9,1.6,1.8,1.2,3.1c-0.6,1.6-1.3,3.1-1.9,4.7
				c-0.1,0.4-0.1,0.9-0.2,1.4c0.5-0.3,1.2-0.3,1.4-0.7c1-1.8,1.8-3.8,2.7-5.8c0.3,0.3,0.8,0.7,1.3,1.2c3.7,3.6,6.8,7.7,9.3,12.2
				c0.5,1,0.6,1.9-0.1,2.9c-0.5,0.8-1.1,1.6-1.5,2.4c-0.2,0.3-0.1,0.8-0.1,1.2c0.4-0.1,1-0.1,1.2-0.4c0.7-0.8,1.2-1.7,2.2-2.6
				C309.9,136.4,310.7,138.7,311.3,141z M289,232c-0.2-0.5-0.2-1.2-0.6-1.5c-2-1.9-4.9-1.8-7.8,0.2c-0.4,0.3-0.5,0.8-0.7,1.2
				c0.5,0,1.1,0.3,1.5,0.1c2-1,2.3-0.9,3.1,1.2c0.3,0.6,0.3,1.3,0.4,1.9c0.1,0.7-0.6,1.8,0.7,1.9c0.2,0,0.8-1.3,0.8-2
				c0-0.9-0.3-1.7-0.6-2.6c-0.2-0.4-0.4-0.9-0.6-1.3c0.2-0.1,0.3-0.3,0.4-0.5c0.6,0.4,1.2,0.7,1.9,1C288,231.8,288.5,231.9,289,232z
				"/>
			<path class="st3" d="M288.4,230.5c0.4,0.3,0.4,1,0.6,1.5c-0.5-0.1-1-0.2-1.5-0.4c-0.7-0.3-1.3-0.6-1.9-1
				c-0.1,0.2-0.2,0.4-0.4,0.5c0.2,0.4,0.4,0.9,0.6,1.3c0.3,0.9,0.6,1.7,0.6,2.6c0,0.7-0.6,2-0.8,2c-1.3-0.1-0.6-1.2-0.7-1.9
				c-0.1-0.6-0.1-1.3-0.4-1.9c-0.8-2.1-1.1-2.2-3.1-1.2c-0.4,0.2-1-0.1-1.5-0.1c0.2-0.4,0.3-0.9,0.7-1.2
				C283.5,228.7,286.4,228.6,288.4,230.5z"/>
			<path class="st3" d="M232,197.7c0,1.3-1,2.4-2.2,2.4c-1.3,0-2.3-1-2.3-2.3c0.1-1.3,1-2.2,2.2-2.2S231.9,196.5,232,197.7z"/>
			<path class="st3" d="M185.8,193c0.1,1.2-1,2.3-2.3,2.4c-1.2,0-2.4-1.1-2.4-2.4s1.1-2.3,2.4-2.3
				C184.7,190.7,185.8,191.7,185.8,193z"/>
		</g>
		<g>
		</g>
	</g>
</g>
</svg>
