<?xml version="1.0" encoding="utf-8"?>
<!-- Generator: Adobe Illustrator 21.0.2, SVG Export Plug-In . SVG Version: 6.00 Build 0)  -->
<svg version="1.1" id="Слой_1" xmlns="http://www.w3.org/2000/svg" xmlns:xlink="http://www.w3.org/1999/xlink" x="0px" y="0px"
	 viewBox="0 0 500 500" style="enable-background:new 0 0 500 500;" xml:space="preserve">
<style type="text/css">
	.st0{fill:url(#SVGID_1_);}
	.st1{fill:#FFFFFF;}
</style>
<linearGradient id="SVGID_1_" gradientUnits="userSpaceOnUse" x1="154.5591" y1="394.4048" x2="348.3355" y2="101.2157" gradientTransform="matrix(1 0 0 -1 0 500)">
	<stop  offset="0" style="stop-color:#FFF915"/>
	<stop  offset="1" style="stop-color:#FF0031"/>
</linearGradient>
<circle class="st0" cx="250" cy="250" r="175.7"/>
<path d="M362,241.7c0,5.5-0.1,10.9,0,16.4c0.1,3.3-1.4,5.1-4.2,6.4c-5.5,2.4-11.2,2.6-17,2.6c-6,0-11.9-1-17.4-3.7
	c-2-1-3.7-2.2-3.8-4.7c0-0.4-0.9-0.9-1.4-1c-1.4-0.2-3,0-4.3-0.5c-1.2-0.5-2.3-1.6-3-2.7c-1.1-1.7-2.7-2.3-4.3-1.1
	c-1.1,0.8-2,2-3.1,2.7c-3,2-6.1,3.8-9,5.8c-0.7,0.5-1.5,1.4-1.7,2.2c-1.4,7.6-4,14.8-8.6,21.1c-0.9,1.2-0.7,2.4-0.5,3.7
	c1.4,9.3,2.2,18.7,2,28.2c0,0.6,0,1.1-0.1,1.7c-0.3,1.8,0.4,2.7,2,3.6c2.5,1.3,5,2.7,7.2,4.4c4.9,3.8,5.6,11.1,1.5,15.2
	c-2.5,2.5-5.7,3.6-9.1,4.1c-8.2,1.3-16.3,0.3-24.4-1c-0.6-0.1-1.6,0-2,0.4c-3.1,3.5-7.2,4.7-11.6,5.3c-10,1.4-20.1,0.9-30.1-0.8
	c-4-0.7-7.9-1.4-11.5-3.5c-3.6-2.2-4.5-4.3-3.8-8.5c1.3-7.7,1.3-15.4,0.9-23.1c-0.3-4.7-0.7-9.4-1.2-14.1c-0.1-1-0.7-2-1.2-2.9
	c-0.8-1.2-1.7-1.4-3.2-0.6c-6.6,3.4-13.4,3.3-20.3,1c-1-0.3-1.9-0.9-2.7-1.6c-1.2-1.1-1.1-1.9,0.5-2.5c1.7-0.6,3.5-1,5.2-1.6
	c4.1-1.5,7.3-4.1,9.9-7.5c0.4-0.5,0.4-1.4,0.3-2.1c-0.4-2.2-0.9-4.3-1.3-6.5c-0.2-1.3-0.8-1.8-2.1-1.7c-6.1,0.5-12.2,0.9-18.2,1.4
	c-2.9,0.2-4.9-1-6.5-3.4c-7.3-11.2-6.7-22.6-1.3-34.3c1-2.2,2.9-3,5.1-2.8c4.6,0.5,9.2,1.1,13.8,1.7c1.2,0.2,2.5,0.3,3.7,0.5
	c1.4,0.3,2.1-0.4,2.5-1.6c3.7-11.1,10.2-20.2,19.4-27.5c0.9-0.8,1.5-1.4,0.9-2.7c-0.2-0.4-0.2-1-0.1-1.5c0.4-2.1,0.3-4.1-0.6-6.2
	c-0.8-1.8,0.6-3.5,2.9-4.3c0.6-0.2,1.2-0.7,1.7-1c-0.7-0.5-1.3-1.3-2.1-1.5c-5.8-1.3-11.6-2.2-17.3-3.6c-5.5-1.4-10.6-3.7-14.4-8.1
	c-1.9-2.2-3.3-4.9-4.9-7.3c-0.4-0.6-0.7-1.4-1.3-1.8c-3.6-2.2-5.5-5.6-6.4-9.6c-2.1-10,0.7-18.7,7.7-26c1.4-1.5,3.5-2.3,5.3-3.5
	c0.6-0.4,1.2-0.7,1.7-1.1c5.8-6.6,13.2-8.9,21.6-7.9c6.6,0.8,13.1,2.3,19.7,3.5c0.6,0.1,1.1,0.2,1.7,0.3c1.2,0.4,1.7-0.1,2.2-1.3
	c1.3-3,2.5-6,4.2-8.8c0.9-1.4,2.5-2.5,4-3.4c2.6-1.6,5.1-1.2,7.5,0.6c2.1,1.6,4.5,1.4,6.8,0.7c12-3.8,22.6-0.9,32.3,6.4
	c0.1,0.1,0.2,0.2,0.3,0.2c0.8,0.7,1.6,1.8,2.5,1.9c0.8,0.1,1.8-0.8,2.7-1.3c3.7-1.9,7.8-1.1,10.7,2.1c2.8,3,4.5,6.7,4.8,10.7
	c0.3,5.2,0.1,10.4-0.2,15.6c-0.2,3.5-2.5,5.7-5.8,6.7c-1.1,0.4-1.6,0.9-1.7,2.1c-0.9,11.3-3.1,22.4-6.8,33.2
	c-1.5,4.4-3.5,8.8-5.1,13.2c-0.2,0.6-0.2,1.4,0.1,1.9c1.5,2.7,1.6,5.5,1,8.4c-0.1,0.6-0.2,1.5,0.2,1.9c3.8,4.1,6.2,8.9,8.1,14.1
	c0.5,1.4,1,1.4,2.3,1c2.3-0.7,3.9-2,5.2-4c2.6-4.1,7.2-5.3,11.5-3.3c0.9,0.4,1.5,0.5,2.2-0.4c1.4-1.7,3.5-1.4,5.5-1.5
	c1.2,0,2.3,0.1,2.6-1.6c0.1-0.7,1.4-1.6,2.2-1.7c3.7-0.6,7.5-1.2,11.2-1.4c8.1-0.5,16.2,0.3,24.2,1.5c3.7,0.6,4.7,1.9,4.7,5.5
	c0,5.3,0,10.7,0,16C362.4,241.7,362.2,241.7,362,241.7z M192.4,278.2c0,0.6,0,1,0.1,1.5c1.3,6.5,4.4,12,9.5,16.3
	c2,1.7,3.2,3.6,3.3,6.3c0.4,6.7,1.1,13.4,1.1,20.1c0,5.4-0.6,10.9-1.1,16.3c-0.4,4,0.5,5.9,4.2,7.5c2,0.8,4,1.5,6.1,2
	c8.4,1.9,16.9,2.2,25.5,2.4c1.4,0,2.3-0.5,2.2-1.9c-0.1-1.9-0.4-3.8-0.6-5.7c-0.1-0.5-0.2-0.9-0.4-1.3c2.5,2.3,3.1,5.1,2.2,8.7
	c2.2-0.3,4.1-0.4,6-0.8c3.7-0.8,4.7-2.2,3.9-6c-0.2-1.1-0.8-2.1-1.2-3.1c-0.1-0.4-0.3-0.7-0.5-1c3,1.9,3.7,4.7,3,8.3
	c2.4-1.1,4-2.4,4.9-4.4c1.6-3.5,0.7-7.6-2.7-10.7c-1.7-1.5-3.7-3-5.7-3.9c-2.8-1.2-3.9-2.9-3.6-5.9c0.4-5.4,0.5-10.8,0.8-16.2
	c0.1-1.5-0.4-3.5,0.4-4.3c0.8-0.8,2.8-0.6,4.3-0.8c1.1-0.2,2.2-0.4,3.3-0.6c0.6-0.1,1.2-0.1,1.7-0.2c0,0.3,0.1,0.5,0.1,0.8
	c-2.3,0.5-4.5,1-6.8,1.4c-1.1,0.2-1.7,0.4-1.7,1.7c-0.2,6.5-0.3,13-0.6,19.4c-0.1,1.7,0.5,2.6,2,3.3c3.3,1.6,6.3,3.6,8.6,6.6
	c1.9,2.6,2.9,5.4,1.9,8.5c-0.4,1.4,0.1,1.6,1.2,1.8c6,1.1,12.1,1.7,18.2,1.5c2,0,2.8-0.8,2.7-2.6c-0.2-2.3-0.6-4.6-0.9-6.8
	c3.1,2.1,2.1,5.6,2.4,9.3c2.5-1,5.4-1.3,6.6-2.9c2.1-2.7,0.2-5.9-0.8-8.8c2.5,1.5,3,4.1,3.4,6.9c0.5-0.4,0.7-0.5,0.9-0.7
	c2.7-4.5,1.8-9.6-2.6-12.7c-2.3-1.6-4.9-2.8-7.3-4.2c-1.2-0.6-2.1-1.3-2-2.9c0.5-9.8-0.2-19.6-1.6-29.3c-0.1-0.8-0.2-1.6-0.4-2.7
	c-1.6,1.1-2.9,2.1-4.2,3c-0.1-0.1-0.2-0.3-0.3-0.4c0.2-0.2,0.3-0.5,0.5-0.7c4.9-4.4,8.1-9.9,10.4-16c4.7-12.5,4.8-25.4,2.1-38.3
	c-1.3-6.4-3.9-12.2-8.2-17.2c-0.6-0.7-1.1-1.1-2.2-0.6c-3.2,1.6-6.5,2.9-9.7,4.4c-0.4,0.2-1,0.4-1.2,0.7c-0.7,1.5,0.8,4.5,2.4,5.2
	c2.6,1,4.4,2.9,4.6,5.7c0.2,2.9-1.4,4.9-3.9,6.2c-3.2,1.7-8.2-0.2-9.8-3.7c-1.3-2.8,0.3-6.7,3.5-8.1c2.2-1,2.6-1.8,1.7-4.2
	c-0.2-0.4-1-1-1.5-0.9c-11.3,1.6-22.3,0.4-33.2-2.8c-8.3-2.4-16.1-5.8-23-11c-0.4-0.3-1.5-0.2-1.9,0.1c-2.4,2-4.8,4.1-6.9,6.4
	c-6.3,6.8-10.7,14.6-13.2,23.6c-3.1,11.2-1,21.9,2.3,32.6c0.3,1.1,0.9,2.1,1.6,3c1.5,2,3.5,3.3,6.3,3.4c-0.2-1-0.4-1.7-0.6-2.4
	c0.1-0.2,0.3-0.3,0.4-0.5c1.9,4,4.5,6.6,9.3,5.6c-0.7-1.2-1.2-2.2-1.8-3.3c4,3.4,4.6,3.9,7,4.1c3.4,0.4,6.2-1,6.8-3.1
	c-2-1.2-4.3-1.9-5.7-3.5c-1.4-1.6-1.8-4-2.6-6c0.2-0.1,0.4-0.2,0.6-0.3c0.4,0.5,0.8,1,1.2,1.6c1.3,1.8,3.1,2.8,5.3,2.9
	c1.6,0.1,3.3-0.2,4.1-1.8c0.8-1.7-1-2.3-1.8-3.4c-2-2.5-4-5.1-5.9-7.7c-0.3-0.4-0.4-1.2-0.3-1.8c0.8-4.6,1.4-9.3,2.7-13.8
	c0.8-2.7,2.7-5,4.2-7.5c0.2-0.3,0.7-0.5,1.1-0.7c0.1,0.1,0.2,0.2,0.3,0.3c-1.1,1.7-2.1,3.4-3.3,5.2c0.5,0.2,0.8,0.5,1.1,0.5
	c2.9,0.3,5.9,0.6,8.8,0.9c7,0.6,13.9,1.2,20.9,1.9c1.9,0.2,4.6,0.5,5.4,1.8c1.6,2.7,4,4.1,6.5,5.6c1,0.6,1.2,1.7,0.3,2.6
	c-3.1,2.9-3.7,6.7-4.1,10.6c-0.3,2.9-0.5,5.9-1,8.8c-0.7,3.9-2.1,7.4-6.1,9.2c-3,1.3-6.1,0.6-9.1-0.2c-6.3-1.6-12.5-3.2-18.8-4.9
	c-1-0.3-1.6-0.1-2.2,0.8c-2.5,3.4-6.3,4.4-10.2,3c-0.8-0.3-1.8-0.4-2.7-0.3c-2.2,0.3-4.3,0-6.2-1.2c-1.4-1-2.9-1.5-4.6-1.8
	C195.6,279.9,194.1,279,192.4,278.2z M239,210.6c0.6,0.2,0.9,0.4,1.2,0.5c3.3,0.6,6.5,1.3,9.8,1.7c8.4,1,16.6,0.7,24.4-3
	c2.6-1.2,4.9-2.8,6.1-5.6c6.3-14.4,10.2-29.3,11.5-44.9c0.1-1.3-0.3-1.5-1.5-1.3c-2.2,0.3-4.5,0.7-6.7,0.8c-5.9,0.1-8.7-2.7-8.8-8.6
	c-0.1-5.4,1.9-10.2,4.6-14.8c0.2-0.3,0.6-0.5,0.9-0.8c0.2,0.8-0.1,1.3-0.3,1.8c-1.9,4.3-3.7,8.7-3.8,13.5c-0.1,5.3,2.3,7.9,7.5,7.6
	c3.4-0.2,6.8-1.2,10.2-1.9c3.5-0.7,5-3,5.5-6.3c0.8-5.3,1.1-10.6,0-15.8c-0.6-2.8-1.8-5.5-3.3-7.9c-2.1-3.4-6.4-4.3-9.6-2.7
	c-1.2,0.6-2.5,1.9-3.6,1.7c-1.2-0.2-2.2-1.7-3.3-2.6c-7.9-6.3-17-8.8-27-7.5c-1.2,0.2-2.5,0.6-4,1c1.4,1.3,2.7,2.2,3.6,3.3
	c0.7,0.8,1.2,0.9,2.2,0.4c1.8-0.8,3.7-1.7,5.6-2c7.3-0.9,12.7,5.8,12.1,11.2c-0.6,4.9-3.7,7.9-8.4,9.1c-4.5,1.2-8.5,0.1-11.4-3.5
	c-1.4-1.7-2.1-4-3.2-6.2c0,0-0.3,0-0.5,0.2c-2.9,2.3-6.4,2.6-9.9,2.2c-5.8-0.8-11.6-1.7-17.3-2.8c-7.5-1.4-15-3.5-22.7-3.4
	c-3.9,0.1-7.7,0.5-11.1,2.5c-2,1.1-3.8,2.6-5.6,4c0.6,0.6,0.9,0.8,1.2,0.8c6,0.6,9.6,4.3,11.3,9.7c3.3,10.6-0.6,22.6-9.4,29.4
	c-2.4,1.9-5.2,2.5-8.2,2.1c-0.7-0.1-1.3-0.2-2.4-0.5c1.3,2.9,2.7,5.4,4.6,7.4c4.9,5.1,11.3,7.3,17.9,8.5c9.5,1.8,19.1,3.1,28.7,4.6
	c2.7,0.4,5.3,0.9,8,1.5c2.4,0.6,4.5,2,5.6,4.4c0.7,1.4,1.1,2.8,0.1,4.3c-1,1.5-2.5,1.9-4.2,1.6c-1.6-0.3-3.2-0.7-4.7-1.4
	c-3.9-1.9-7.6-4.3-11.6-5.9c-2.5-1-5.3-1.3-8.1-1.4c-1.9-0.1-2.9,1.5-2.1,3.3c0.6,1.5,1.6,2.9,2.7,4c5.6,5.3,12.4,7.6,20,7.3
	c3-0.1,6.1-0.9,9-1.4C240.3,209.3,239.8,209.8,239,210.6z M324.1,221.4c-2.2-0.1-2.7,0.4-2.7,2.8c-0.1,11-0.1,22-0.2,33
	c0,3,0.5,4.3,3.4,5.3c3.7,1.2,7.6,2.4,11.4,3c7.2,1,14.3,0.3,21.2-2.1c2.7-1,3.3-1.9,3.3-4.8c0.1-11.3,0.3-22.5,0.5-33.8
	c0-2.1-0.5-3-2.6-3.3c-1.4-0.2-2.8-0.1-4.1-0.4c-8.2-1.5-16.5-1.4-24.8-0.8c-1.6,0.1-3.1,1.4-4.7,2.2c0.1,0.3,0.2,0.5,0.3,0.8
	c0.5,0,1.1,0.1,1.5,0c6.9-2,14-1.4,21-1.2c2.6,0.1,5.2,1,7.9,1.5c0.6,0.1,1.3-0.1,2-0.2c0.4-0.1,0.8-0.5,1.1-0.4
	c0.4,0.1,0.9,0.6,0.9,1c0,0.3-0.4,1-0.8,1.1c-1.4,0.5-2.9,1.1-4.3,1.2c-6.3,0.2-12.6,0.4-18.8,0.2c-3.5-0.1-7-0.9-10.4-1.7
	C322.8,224.2,322.6,223.2,324.1,221.4z M233.8,281c-0.5-1.9-1-3.5-1.4-5.1c-1.7-8-1.1-15.9,2.4-23.4c0.7-1.6,1.9-2.3,3.6-2
	c1.8,0.4,3.6,0.7,5.4,1.1c1.3,0.3,1.6,1,1.1,2.2c-2.7,7.4-3.3,15-2.4,22.7c0.3,2.1,1.1,4.2,2.1,6.2c0.4,0.7,1.8,1.4,2.8,1.4
	c3.7,0,6.1-1.6,7.1-5.3c0.9-3.3,1.3-6.6,1.7-10c0.6-4.7,0.8-9.5,4.4-13.1c0.2-0.3,0.3-1.2,0.1-1.3c-0.9-0.6-1.8-1-2.8-1.4
	c-0.2-0.1-0.8,0.5-0.9,0.9c-0.9,2.7-1.7,5.5-2.7,8.2c-1.1,3.2-2.4,6.4-3.4,9.6c-0.4,1.3-0.4,2.8-0.6,4.4c1-0.2,1.5-0.3,2.1-0.4
	c0.1,0.1,0.2,0.2,0.3,0.4c-0.5,0.7-0.8,1.7-1.4,1.8c-0.5,0.1-1.4-0.7-1.9-1.2c-0.4-0.4-0.5-1.2-0.5-1.8c0.1-1.4,0.3-2.9,0.7-4.2
	c1.7-4.9,3.7-9.6,5.3-14.5c0.6-1.8,0.7-3.8,0.5-5.7c-0.2-2-2.1-2.5-3.6-1.1c-0.7,0.6-1.3,1.4-1.7,2.2c-2.5,4.7-3.7,9.8-4.2,15
	c-0.5,5.1-1.3,10.4,2.6,15.3c-2.2-0.6-3.3-1.7-3.6-3.4c-2-10-0.4-19.4,4.5-28.2c0.4-0.7,1-1.3,1.6-2c-0.3-0.2-0.5-0.4-0.6-0.4
	c-10.2-1-20.4-2.1-30.6-3c-1.6-0.2-1.5,1.3-1.7,2.2c-0.1,0.2,0.9,0.9,1.5,1c3.6,0.5,7.2,1,10.8,1.5c0.9,0.1,1.5,0.5,1,1.6
	c-1,2.8-1.8,5.6-2.6,8.4c-0.3,1.2-0.7,1.6-1.9,1.5c-3.1-0.4-6.2-0.7-9.4-1c-0.6-0.1-1.2,0-1.8,0c0.6,2.7,4.7,8,6.8,8.7
	c0.1-0.2,0.1-0.5,0.3-0.7c0.3-0.4,0.6-0.7,0.8-1c0.2,0.5,0.5,0.9,0.6,1.4c0.1,0.3-0.2,0.7-0.2,1.1c0.3,2.6,0.4,5.2,0.9,7.8
	c0.3,1.5,1.5,2.7,3.5,2.5c-0.1-0.5-0.2-0.8-0.3-1c-1.8-3.1-1.8-6.6-1.9-10.1c0-0.4,0.4-0.8,0.7-1.1c0.3,0.4,0.6,0.7,0.8,1.1
	c0.1,0.4-0.1,0.9,0,1.3c0.5,2.8,1,5.6,1.6,8.4C230.1,280.2,231.7,280.9,233.8,281z M303.9,232.6c1.3,1.2,2.4,2.4,3.7,3.3
	c1.5,1,3.2,0.7,4.6-0.4c1.3-1,1.4-2.4,1-3.9c-0.8-3.1-2.6-5.4-5.8-6c-3.2-0.6-5.9,0.7-7.6,3.4c-1.7,2.6-3.7,4.4-6.7,5
	c-1.2,0.2-1.3,0.9-1,2c1.9,7.8,2.3,15.8,1.4,23.8c0,0.3,0.1,0.7,0.4,1.6c3.8-2.7,7.4-5,10.8-7.7c1.5-1.2,2.7-2.6,4.9-2
	c0,0,0.1-0.2,0.1-0.2c-0.9-1.4-2.4-2.7-2.5-4.1c-0.2-2.6,0.5-5.3-0.2-7.9c0-0.2,0.1-0.4,0.2-0.5c0.8-1,0.3-1.6-0.6-2.2
	C305,235.7,303.8,234.5,303.9,232.6z M169.7,274.8c0-0.3,0-0.5,0-0.6c-0.1-0.2-0.2-0.4-0.4-0.6c-2.9-3.4-4.4-7.4-5.3-11.7
	c-0.5-2.9-0.5-2.9,2.4-2.7c3.3,0.2,6.5,0.6,9.8,0.6c2.8,0,2.8-0.2,3.1,2.6c0.5,3.7,1.3,7.3,3.4,10.5c1,1.5,1.8,1.6,2.9,0.8
	c-1.1-4.2-2.2-8.1-3.3-12.1c-0.4-1.5,0.2-2.1,1.7-2.1c1.7,0,2.3-1.2,1.3-2.4c-0.3-0.4-1.1-0.5-1.6-0.6c-5.8-0.4-11.7-0.8-17.5-1.2
	c-1.2-0.1-2.1-0.3-2.1-1.8c0-3.6,0.8-7,2.3-10.2c1.2-2.6,2.9-3.8,5.9-3.3c4.2,0.7,8.5,1,12.7,1.4c0.5,0,1.1-0.5,1.6-0.7
	c-0.5-0.4-0.9-0.9-1.4-1c-1.3-0.3-2.6-0.4-3.9-0.5c-4.6-0.5-9.1-1.1-13.7-1.5c-1.8-0.2-3.2,0.7-3.9,2.4c-0.8,2-1.9,4-2.4,6.1
	c-2.4,9.6-1.8,18.7,4.2,27C166.6,274.4,167.9,275.1,169.7,274.8z M178.7,254.7C178.7,254.7,178.7,254.7,178.7,254.7
	c1.7,0.1,3.4,0.1,5.1,0.3c1.1,0.1,1.4-0.2,1.4-1.3c0.1-3.1,0.4-6.3,0.7-9.4c0.1-1.2,0-1.7-1.3-1.8c-4.3-0.4-8.6-0.7-12.9-1.3
	c-2.1-0.3-3.2,0.6-3.7,2.3c-0.9,2.9-1.6,5.9-2.3,8.9c-0.3,1.2,0.4,1.5,1.4,1.6C171,254.1,174.8,254.4,178.7,254.7z M243.2,283.7
	c-0.7-2-1.4-3.6-1.8-5.3c-1.6-7.3-0.8-14.5,0.9-21.6c0.9-3.9,1-3.8-2.9-4.5c-2.5-0.4-3.1-0.1-3.9,2.2c-3,8.6-3.1,17.2-0.3,25.9
	c0.2,0.5,0.6,1.1,1,1.2C238.4,282.4,240.7,283,243.2,283.7z M181.3,274.3c-1.2-4.3-2.4-8.4-3.6-12.4c-0.1-0.4-0.8-0.7-1.3-0.7
	c-3.1-0.2-6.1-0.1-9.2-0.4c-1.4-0.1-1.8,0.2-1.6,1.6c0.9,4.5,2.8,8.4,5.7,11.9c0.3,0.3,0.7,0.6,1.1,0.6
	C175.5,274.7,178.6,274.5,181.3,274.3z M261.4,136.7c3.2-0.2,6.5-1.4,8.4-4.8c0.3-0.5,0-1.4,0-2.1c-0.7,0.1-1.4,0.1-2.1,0.2
	c-0.7,0-1.6,0.3-2.1,0.1c-0.5-0.3-0.6-1.2-1-1.8c-0.3-0.5-0.6-1.4-1.1-1.5c-3.1-0.8-6.2-1.5-9.4-2c-2.5-0.4-3.2,0.3-3.1,2.9
	C251.4,133,255.5,136.8,261.4,136.7z M199.4,295.6c-2.2-3.1-4.3-6.2-6.6-9.4c-3.9,5.4-9.4,8.1-16,9.3
	C181.4,299.6,194,299.8,199.4,295.6z M229.6,250.4c-3.5-0.3-7-0.6-10.5-1.1c-1.3-0.2-1.9,0.3-2.1,1.5c-0.3,2-0.7,4.1-1.1,6.1
	c-0.2,1.1,0.3,1.5,1.3,1.6c2.9,0.3,5.9,0.7,8.8,0.9c0.5,0,1.3-0.4,1.4-0.8C228.2,256.1,228.8,253.4,229.6,250.4z M240.2,129.2
	c3.3,0.1,6.3-0.9,8.9-3.2c0.5-0.4,0.9-1.7,0.8-1.9c-0.8-0.6-1.6-1.4-2.8-0.4c-1.2,1.1-2.2,0.8-3-0.5c-0.4-0.6-1.2-1.3-1.9-1.5
	c-2-0.4-4.1-0.5-6.2-0.7c-0.3,0-0.9,0.1-1,0.3c-1.2,1.8-1.2,3.8-0.7,5.8c0.4,1.7,1.7,1.6,2.9,1.7C238.4,129,239.4,129.1,240.2,129.2
	z M270.7,128.7c0.7-4.1-2-8.3-5.8-9.5c-4.6-1.5-10.1,0.2-11.9,3.8C259.3,123.6,265.2,125.4,270.7,128.7z M269.1,229.7
	c-3.2,0-5.3,1.9-5.2,4.9c0,2.9,2.1,4.8,5.4,4.7c3.2-0.1,5.5-2.2,5.5-5C274.7,231.4,272.6,229.7,269.1,229.7z M240.5,115
	c-2-1.7-4.9-1.7-7-0.2c-4.1,2.8-5.7,7-6.9,11.5c-0.1,0.3,0.1,0.9,0.3,0.9c2,0.4,4,0.8,6.3,1.2C231.9,121.5,234.4,117.3,240.5,115z
	 M319.8,242.6c-0.1-0.9,0.5-2.2-1.3-2.2c-2.4,0-4.5-0.9-6.4-2.3c-1.5-1.1-3.5-0.3-3.7,1.5c-0.1,1.1,0.3,2.5,1,3.4
	c1.8,2.4,4.4,3.3,7.3,3C318.9,245.9,319.8,245,319.8,242.6z M236.1,119.1c0.6,0.5,0.7,0.6,0.8,0.6c4.4,1,8.9,2,13.3,2.9
	c0.5,0.1,1.3-0.4,1.6-0.9c0.3-0.4,0.3-1.4,0-1.8c-2.2-3.1-7-4.8-10.5-3.7C239.5,116.9,238,118,236.1,119.1z M308.9,244.6
	c-1,1.8-0.7,3.1,0.3,4.4c1.5,2,3.7,3,6.1,3.2c2.9,0.2,5.4-0.8,4.1-5.3C315.5,248.4,312.2,247.1,308.9,244.6z M312.9,237
	c1.6,1.6,3.5,2.2,5.4,2.1c1.1-0.1,1.6-0.5,1.5-1.6c-0.1-1.4,0-2.9,0-4.3c0-2.8-0.1-2.9-3-2.8c-0.4,0-1,0-1.3,0.2
	c-0.4,0.3-1,0.9-0.9,1.3C315.1,233.9,314.4,235.5,312.9,237z M317.1,224.4c-1.3,0.5-2.7,0.9-4,1.6c-0.3,0.2-0.4,1.4-0.1,1.9
	c0.4,0.6,1.3,1.3,2,1.4c1.2,0.1,2.4-0.1,3.7-0.3c0.4-0.1,1.1-0.4,1.2-0.7C320.6,225.7,319.9,224.8,317.1,224.4z M188.5,273.4
	c0.1-0.1,0.2-0.2,0.3-0.2c-0.9-3.9-1.9-7.7-2.9-11.6c-0.1-0.3-0.8-0.4-1.2-0.6c-0.2,0.4-0.6,0.9-0.5,1.2c1,3.3,2.1,6.7,3.2,10
	C187.6,272.6,188.1,273,188.5,273.4z M312.2,252.7c-0.1,0.6-0.1,0.8-0.1,1c0,0.2,0.1,0.4,0.2,0.5c0.9,2.1,2.9,1.9,4.7,2
	c2.9,0.2,3.2-0.3,2.4-3.6C317,254.5,314.7,253.6,312.2,252.7z M238.4,201.3c-2.4-1.4-5.5-1.3-7.4,0.2
	C233.5,203.6,237,203.5,238.4,201.3z M213.9,192.4c0,0-0.7,0.2-0.7,0.5c-0.1,0.4,0.2,1.1,0.5,1.2c0.8,0.4,1.7,0.7,2.6,0.8
	c0.5,0.1,1.1-0.4,1.6-0.6c-0.4-0.5-0.7-1.3-1.2-1.6C216.1,192.4,215.2,192.5,213.9,192.4z M224.3,278.6c-0.4-1.1-0.7-2-1.1-2.8
	c-0.2-0.4-0.7-0.8-1.1-1.1c-0.4,0.5-1.2,1.1-1.2,1.6C221,278.1,222.3,278.5,224.3,278.6z M214.4,274.7c1,1.8,2.9,2.6,5,2.3
	C219.2,275.7,217.6,275,214.4,274.7z"/>
<path d="M270.8,380.3c-0.3,0.9-0.4,1.9-0.8,2.7c-0.6,1.2-1.4,2.2-2.1,3.4c-0.8-1-1.9-1.9-2.5-3c-0.7-1.6-1-3.3-1.8-4.9
	c-0.8,2.2-0.3,4.4-0.1,6.6c0.1,0.7,0,1.9-0.3,2c-1.3,0.3-1.6-0.7-1.6-1.7c0-2.8,0-5.7,0-8.5c0-0.8,0.1-1.7,0-2.4
	c-0.2-1.1,0-1.9,1.2-2c1.3-0.2,1.7,0.5,2,1.7c0.5,2.8,1.1,5.5,1.8,8.3c0.1,0.6,0.5,1.1,1,2.1c0.5-1,0.9-1.6,1-2.2
	c0.6-2.6,1.2-5.3,1.8-7.9c0.5-1.9,1.5-2.6,3.1-1.9c0.4,0.2,0.8,1,0.7,1.5c-1,4.2-1.7,8.4-0.3,12.7c0.1,0.3-0.1,0.8-0.3,0.9
	c-0.2,0.1-0.9,0-1-0.2c-0.5-1.2-1-2.5-1.3-3.8c-0.2-1,0-2,0-3.1C271.3,380.4,271,380.4,270.8,380.3z"/>
<path d="M288.4,384c0-2.2-0.1-4.3,0-6.5c0.1-1.4,0.5-2.8,1-4.2c0.1-0.4,0.9-0.6,1.4-0.9c0,0.5,0.2,1,0.1,1.5
	c-0.3,2.8-0.6,5.7-0.8,8.5c-0.1,1.6,0.2,3.6-1.5,4.1c-1.8,0.5-2.3-1.6-3-2.8c-0.6-1-0.8-2.2-1.2-3.4c-0.2-0.6-0.4-1.2-0.9-1.9
	c-0.8,2.1-0.6,4.3-0.5,6.5c0,0.7-0.3,1.3-0.4,2c-0.5-0.5-1.3-1-1.4-1.6c-0.2-1.9-0.1-3.7-0.1-5.6c0-1.6,0.2-3.3,0.2-4.9
	c0-1.1,0.2-2.2,1.5-2.1c0.7,0.1,1.5,1,1.7,1.7c0.8,2.6,1.4,5.2,2.1,7.8c0.2,0.7,0.7,1.2,1,1.9C287.9,384.1,288.2,384.1,288.4,384z"
	/>
<path d="M295.9,373.3c2.4-2.3,6.3-1.2,7.1,2.3c1,4,0.1,7.7-2.9,10.7c-1.8,1.8-4.1,0.9-6.2,1c-0.2,0-0.7-0.9-0.7-1.4
	c0-4.1-0.2-8.3,0.1-12.4C293.6,371.1,294.9,373.1,295.9,373.3z M295.1,381c0,1-0.1,2,0,3c0.1,1.6,1.3,2.4,2.8,1.7
	c0.7-0.3,1.4-0.7,1.8-1.3c1.8-2.6,2.3-5.6,1.5-8.6c-0.6-2.5-2.8-2.8-4.6-1C294.8,376.6,295.1,378.8,295.1,381z"/>
<path d="M204.4,378.2c-0.2,2.7-0.9,5.1-2.5,7.1c-1.5,2-5.4,3-7.3,1.9c-0.3-0.2-0.5-0.7-0.5-1.1c0-4.2,0-8.4,0.1-12.6
	c0-0.3,1.2-0.9,1.3-0.8c0.8,0.8,1.3,0.4,2.1,0c2-1.2,4.6-0.4,5.7,1.7C203.8,375.5,204,376.9,204.4,378.2z M195.3,380.9
	c0.2,0.1,0.3,0.1,0.5,0.2c0,0.9,0,1.9,0,2.8c0.1,1.8,1.4,2.6,3,1.8c0.7-0.4,1.5-1,1.9-1.7c1.6-2.3,1.7-5,1.3-7.6
	c-0.2-0.9-1.1-2.3-1.9-2.4c-0.9-0.2-2.5,0.5-2.9,1.3C196.3,376.9,195.9,379,195.3,380.9z"/>
<path d="M245.7,380c-0.8,1.8-1.3,3.7-2.3,5.4c-1.2,2-3.3,2.5-5.5,2c-2.3-0.5-3.7-1.9-4.2-4.3c-0.5-2.5-0.3-4.9,0.9-7.1
	c1.4-2.6,3.3-3.8,5.7-3.4c2.7,0.4,3.8,2.4,4.6,4.7c0.3,0.8,0.3,1.7,0.4,2.6C245.5,379.8,245.6,379.9,245.7,380z M243.6,380
	c-0.3-1.3-0.4-2.4-0.7-3.3c-1.1-2.8-3.7-3.3-5.8-1.2c-1.8,1.8-2.5,6.5-1,8.6c0.6,0.9,2,1.8,3,1.7c1.2-0.1,2.6-1,3.3-1.9
	C243.1,382.8,243.2,381.2,243.6,380z"/>
<path d="M217.9,379.8c-0.2,2.3-0.8,4.4-2.5,6c-1.5,1.5-3.3,1.9-5.4,1.4c-2.1-0.6-3.5-1.9-3.9-4.1c-0.6-2.7-0.2-5.4,1.3-7.8
	c1.2-1.8,2.7-3.1,5.1-2.9c2.3,0.2,3.6,1.7,4.4,3.6C217.4,377.2,217.6,378.6,217.9,379.8z M216,380c-0.3-1.3-0.4-2.4-0.8-3.4
	c-1.3-3-4.1-3.4-6-0.8c-1.7,2.4-2,5.1-1,7.9c0.5,1.3,1.4,2.2,2.9,2.3c1.6,0.1,2.9-0.5,3.6-1.9C215.3,382.7,215.6,381.2,216,380z"/>
<path d="M249.5,372.9c-0.2,3-0.4,6-0.5,9c0,0.7,0,1.5,0.2,2.2c0.6,1.9,2.5,2.3,3.8,0.7c0.5-0.6,0.9-1.3,1-2c0.1-3,0.1-6,0.2-8.9
	c0-0.5,0.5-1.1,0.7-1.6c0.4,0.4,1.2,0.8,1.2,1.1c-0.1,3.6-0.2,7.1-0.7,10.7c-0.3,2.4-2,3.5-3.8,3.5c-1.8,0-3.7-1.5-4.1-3.6
	c-0.4-2.3-0.2-4.7-0.2-7.1c0-0.7,0.1-1.5,0-2.2C247.1,373,247.9,372.5,249.5,372.9z"/>
<path d="M227.9,379.9c0.6-1.2,1.1-2.5,1.8-3.6c0.6-1.1,1.2-2.2,2-3.2c0.2-0.2,1-0.3,1.2-0.1c0.3,0.2,0.4,0.9,0.2,1.3
	c-1.6,3.5-3.2,7-4.8,10.5c-0.4,0.8-0.7,1.6-1.2,2.4c-0.2,0.3-0.9,0.4-1.3,0.6c-0.2-0.5-0.5-1-0.5-1.5c0-0.4,0.5-0.7,0.6-1.1
	c0.8-1.7,1.3-3.1-0.2-4.9c-1.3-1.6-1.9-3.8-2.5-5.8c-0.2-0.5,0.5-1.3,0.8-1.9c0.4,0.6,1.2,1.2,1.2,1.7c0,2.2,1.1,3.9,1.9,5.7
	C227.4,379.9,227.6,379.9,227.9,379.9z"/>
<path d="M309.3,384.2c-0.6-0.5-1.7-0.9-1.7-1.5c-0.1-0.7,0.5-1.6,1.1-2.1c1-0.8,2.3-1.3,3.4-2c0.9-0.7,2.2-1.4,1.4-2.9
	c-0.7-1.2-1.9-1.4-3.1-0.8c-1.1,0.5-3,0.5-2.3,2.6c0.1,0.2-0.6,0.8-0.8,0.8c-0.6-0.1-1.2-0.3-1.6-0.7c-0.3-0.3-0.4-1.1-0.2-1.5
	c1.5-3.4,7.5-4.1,9.8-1.3c1,1.2,1,2.4-0.1,3.3c-1.1,0.9-2.3,1.7-3.5,2.4c-1.2,0.7-2.4,1.4-1.7,3.3
	C309.7,384,309.5,384.1,309.3,384.2z"/>
<path d="M276.8,379.3c0-1.6-0.2-3.2,0.1-4.7c0.1-0.7,1-1.9,1.5-1.9c1.3,0,0.9,1.1,0.9,2.1c-0.1,3.7,0,7.3,0,11
	c0,0.4-0.1,1.1-0.3,1.1c-0.4,0-1.1,0-1.3-0.3c-0.4-0.5-0.6-1.2-0.7-1.9c-0.2-1.8-0.2-3.6-0.3-5.4
	C276.7,379.3,276.8,379.3,276.8,379.3z"/>
<path d="M310.8,386.1c-0.9,0.5-1.4,1-1.8,0.9c-0.5-0.1-1-0.6-1.4-0.9c0.4-0.3,0.8-0.8,1.1-0.9C309.2,385.3,309.7,385.7,310.8,386.1z
	"/>
<path class="st1" d="M192.4,278.2c1.7,0.7,3.2,1.7,4.8,2c1.7,0.3,3.2,0.9,4.6,1.8c1.8,1.2,3.9,1.5,6.2,1.2c0.9-0.1,1.9,0,2.7,0.3
	c3.9,1.5,7.7,0.5,10.2-3c0.6-0.9,1.2-1.1,2.2-0.8c6.3,1.7,12.5,3.3,18.8,4.9c3,0.8,6,1.5,9.1,0.2c4-1.7,5.4-5.3,6.1-9.2
	c0.5-2.9,0.7-5.9,1-8.8c0.4-3.9,1-7.7,4.1-10.6c0.9-0.9,0.7-2-0.3-2.6c-2.5-1.5-4.8-2.9-6.5-5.6c-0.8-1.2-3.5-1.6-5.4-1.8
	c-6.9-0.8-13.9-1.3-20.9-1.9c-2.9-0.3-5.9-0.6-8.8-0.9c-0.3,0-0.5-0.2-1.1-0.5c1.1-1.8,2.2-3.5,3.3-5.2c-0.1-0.1-0.2-0.2-0.3-0.3
	c-0.4,0.2-0.9,0.4-1.1,0.7c-1.5,2.5-3.4,4.8-4.2,7.5c-1.3,4.5-1.9,9.2-2.7,13.8c-0.1,0.6,0,1.4,0.3,1.8c1.9,2.6,3.9,5.2,5.9,7.7
	c0.8,1,2.6,1.7,1.8,3.4c-0.8,1.6-2.5,1.9-4.1,1.8c-2.2-0.1-4-1.1-5.3-2.9c-0.4-0.5-0.8-1-1.2-1.6c-0.2,0.1-0.4,0.2-0.6,0.3
	c0.8,2,1.3,4.4,2.6,6c1.4,1.6,3.7,2.3,5.7,3.5c-0.6,2.1-3.5,3.5-6.8,3.1c-2.4-0.3-3-0.7-7-4.1c0.6,1,1.1,2.1,1.8,3.3
	c-4.8,0.9-7.4-1.7-9.3-5.6c-0.1,0.2-0.3,0.3-0.4,0.5c0.2,0.7,0.4,1.5,0.6,2.4c-2.8-0.1-4.8-1.4-6.3-3.4c-0.7-0.9-1.2-1.9-1.6-3
	c-3.3-10.7-5.4-21.5-2.3-32.6c2.5-9,6.9-16.9,13.2-23.6c2.1-2.3,4.6-4.3,6.9-6.4c0.4-0.3,1.5-0.4,1.9-0.1c7,5.1,14.8,8.6,23,11
	c10.9,3.1,21.9,4.4,33.2,2.8c0.4-0.1,1.3,0.5,1.5,0.9c0.9,2.3,0.5,3.1-1.7,4.2c-3.2,1.5-4.9,5.3-3.5,8.1c1.6,3.5,6.6,5.4,9.8,3.7
	c2.5-1.3,4.1-3.3,3.9-6.2c-0.2-2.8-1.9-4.7-4.6-5.7c-1.6-0.6-3-3.6-2.4-5.2c0.2-0.4,0.7-0.6,1.2-0.7c3.2-1.5,6.5-2.8,9.7-4.4
	c1.1-0.5,1.6-0.2,2.2,0.6c4.3,5,6.9,10.8,8.2,17.2c2.7,12.9,2.6,25.8-2.1,38.3c-2.3,6.1-5.5,11.6-10.4,16c-0.2,0.2-0.3,0.5-0.5,0.7
	c0.1,0.1,0.2,0.3,0.3,0.4c1.3-0.9,2.6-1.9,4.2-3c0.2,1.1,0.3,1.9,0.4,2.7c1.4,9.7,2.1,19.5,1.6,29.3c-0.1,1.6,0.8,2.2,2,2.9
	c2.5,1.4,5,2.6,7.3,4.2c4.4,3.1,5.3,8.2,2.6,12.7c-0.1,0.2-0.4,0.3-0.9,0.7c-0.4-2.8-0.9-5.3-3.4-6.9c1.1,2.9,3,6.1,0.8,8.8
	c-1.3,1.6-4.2,1.9-6.6,2.9c-0.3-3.7,0.7-7.3-2.4-9.3c0.3,2.2,0.7,4.5,0.9,6.8c0.1,1.8-0.6,2.6-2.7,2.6c-6.1,0.1-12.2-0.4-18.2-1.5
	c-1.1-0.2-1.6-0.4-1.2-1.8c1-3.1,0-5.9-1.9-8.5c-2.2-3-5.3-5-8.6-6.6c-1.5-0.7-2.1-1.6-2-3.3c0.3-6.5,0.5-12.9,0.6-19.4
	c0-1.3,0.6-1.5,1.7-1.7c2.3-0.3,4.6-0.9,6.8-1.4c0-0.3-0.1-0.5-0.1-0.8c-0.6,0.1-1.2,0.1-1.7,0.2c-1.1,0.2-2.2,0.4-3.3,0.6
	c-1.5,0.2-3.5-0.1-4.3,0.8c-0.8,0.9-0.3,2.8-0.4,4.3c-0.2,5.4-0.3,10.8-0.8,16.2c-0.2,3.1,0.9,4.7,3.6,5.9c2.1,0.9,4,2.3,5.7,3.9
	c3.4,3.1,4.4,7.2,2.7,10.7c-0.9,2-2.5,3.3-4.9,4.4c0.7-3.6,0-6.4-3-8.3c0.2,0.3,0.3,0.7,0.5,1c0.4,1,1,2.1,1.2,3.1
	c0.7,3.8-0.2,5.2-3.9,6c-1.9,0.4-3.8,0.5-6,0.8c0.9-3.5,0.3-6.4-2.2-8.7c0.1,0.4,0.3,0.9,0.4,1.3c0.2,1.9,0.5,3.8,0.6,5.7
	c0.1,1.4-0.8,1.9-2.2,1.9c-8.6-0.1-17.1-0.5-25.5-2.4c-2.1-0.5-4.1-1.1-6.1-2c-3.7-1.6-4.5-3.5-4.2-7.5c0.5-5.4,1.1-10.9,1.1-16.3
	c0-6.7-0.7-13.4-1.1-20.1c-0.1-2.6-1.3-4.6-3.3-6.3c-5.1-4.3-8.2-9.8-9.5-16.3C192.4,279.3,192.4,278.8,192.4,278.2z"/>
<path class="st1" d="M239,210.6c0.7-0.8,1.2-1.4,1.5-1.7c-2.9,0.5-6,1.3-9,1.4c-7.6,0.2-14.4-2-20-7.3c-1.1-1.1-2.1-2.5-2.7-4
	c-0.8-1.7,0.2-3.4,2.1-3.3c2.7,0.2,5.6,0.4,8.1,1.4c4,1.6,7.7,4,11.6,5.9c1.4,0.7,3.1,1.1,4.7,1.4c1.6,0.3,3.1-0.1,4.2-1.6
	c1-1.5,0.6-2.9-0.1-4.3c-1.1-2.4-3.2-3.8-5.6-4.4c-2.6-0.7-5.3-1.1-8-1.5c-9.6-1.5-19.2-2.8-28.7-4.6c-6.7-1.2-13-3.5-17.9-8.5
	c-2-2-3.3-4.5-4.6-7.4c1.1,0.2,1.8,0.4,2.4,0.5c3,0.4,5.8-0.3,8.2-2.1c8.8-6.8,12.7-18.8,9.4-29.4c-1.7-5.4-5.2-9.1-11.3-9.7
	c-0.3,0-0.6-0.2-1.2-0.8c1.9-1.3,3.6-2.9,5.6-4c3.4-1.9,7.2-2.4,11.1-2.5c7.8-0.1,15.2,1.9,22.7,3.4c5.7,1.1,11.5,2,17.3,2.8
	c3.5,0.5,6.9,0.1,9.9-2.2c0.2-0.2,0.6-0.2,0.5-0.2c1.1,2.2,1.8,4.5,3.2,6.2c2.9,3.6,7,4.6,11.4,3.5c4.7-1.2,7.8-4.2,8.4-9.1
	c0.7-5.4-4.7-12-12.1-11.2c-1.9,0.2-3.8,1.1-5.6,2c-1,0.5-1.5,0.4-2.2-0.4c-1-1.1-2.2-2-3.6-3.3c1.5-0.4,2.7-0.8,4-1
	c10.1-1.3,19.1,1.2,27,7.5c1.1,0.9,2.1,2.4,3.3,2.6c1.1,0.2,2.4-1.1,3.6-1.7c3.3-1.7,7.5-0.7,9.6,2.7c1.5,2.4,2.7,5.2,3.3,7.9
	c1.1,5.2,0.8,10.5,0,15.8c-0.5,3.3-2,5.6-5.5,6.3c-3.4,0.6-6.7,1.7-10.2,1.9c-5.2,0.3-7.7-2.3-7.5-7.6c0.1-4.8,1.9-9.2,3.8-13.5
	c0.2-0.5,0.4-1.1,0.3-1.8c-0.3,0.3-0.7,0.5-0.9,0.8c-2.7,4.5-4.7,9.4-4.6,14.8c0.1,5.9,2.9,8.7,8.8,8.6c2.2,0,4.5-0.4,6.7-0.8
	c1.2-0.2,1.6,0.1,1.5,1.3c-1.3,15.6-5.2,30.6-11.5,44.9c-1.2,2.8-3.5,4.4-6.1,5.6c-7.8,3.7-16,4-24.4,3c-3.3-0.4-6.6-1.1-9.8-1.7
	C239.9,211,239.6,210.8,239,210.6z"/>
<path class="st1" d="M233.8,281c-2.1-0.2-3.7-0.9-4.1-2.8c-0.7-2.8-1.1-5.6-1.6-8.4c-0.1-0.4,0.1-0.9,0-1.3
	c-0.1-0.4-0.5-0.7-0.8-1.1c-0.2,0.4-0.7,0.8-0.7,1.1c0,3.5,0.1,6.9,1.9,10.1c0.1,0.3,0.2,0.6,0.3,1c-2.1,0.2-3.2-1-3.5-2.5
	c-0.5-2.5-0.7-5.2-0.9-7.8c0-0.4,0.2-0.8,0.2-1.1c-0.1-0.5-0.4-0.9-0.6-1.4c-0.3,0.3-0.6,0.7-0.8,1c-0.1,0.2-0.2,0.4-0.3,0.7
	c-2.1-0.7-6.3-6-6.8-8.7c0.6,0,1.2-0.1,1.8,0c3.1,0.3,6.3,0.7,9.4,1c1.2,0.1,1.6-0.3,1.9-1.5c0.7-2.8,1.6-5.6,2.6-8.4
	c0.4-1.2-0.1-1.5-1-1.6c-3.6-0.5-7.2-0.9-10.8-1.5c-0.6-0.1-1.5-0.8-1.5-1c0.2-0.9,0.1-2.4,1.7-2.2c10.2,1,20.4,2,30.6,3
	c0.2,0,0.3,0.2,0.6,0.4c-0.6,0.7-1.2,1.3-1.6,2c-4.9,8.8-6.5,18.2-4.5,28.2c0.3,1.7,1.4,2.8,3.6,3.4c-3.9-4.9-3.1-10.1-2.6-15.3
	c0.5-5.2,1.8-10.3,4.2-15c0.4-0.8,1-1.6,1.7-2.2c1.5-1.4,3.4-0.9,3.6,1.1c0.2,1.9,0.1,3.9-0.5,5.7c-1.6,4.9-3.6,9.7-5.3,14.5
	c-0.5,1.3-0.6,2.8-0.7,4.2c-0.1,0.6,0.1,1.3,0.5,1.8c0.5,0.6,1.4,1.4,1.9,1.2c0.6-0.2,1-1.2,1.4-1.8c-0.1-0.1-0.2-0.2-0.3-0.4
	c-0.5,0.1-1.1,0.2-2.1,0.4c0.2-1.6,0.1-3.1,0.6-4.4c1-3.2,2.3-6.4,3.4-9.6c0.9-2.7,1.8-5.5,2.7-8.2c0.1-0.4,0.7-1,0.9-0.9
	c1,0.3,2,0.8,2.8,1.4c0.2,0.1,0.1,1-0.1,1.3c-3.6,3.7-3.8,8.5-4.4,13.1c-0.5,3.4-0.9,6.7-1.7,10c-1,3.6-3.4,5.3-7.1,5.3
	c-0.9,0-2.4-0.6-2.8-1.4c-1-1.9-1.8-4-2.1-6.2c-1-7.7-0.3-15.3,2.4-22.7c0.5-1.2,0.2-1.9-1.1-2.2c-1.8-0.4-3.6-0.7-5.4-1.1
	c-1.7-0.3-2.9,0.4-3.6,2c-3.5,7.5-4.1,15.3-2.4,23.4C232.8,277.5,233.3,279.2,233.8,281z"/>
<path class="st1" d="M303.9,232.6c-0.1,1.9,1.1,3.1,2.4,4.1c0.9,0.7,1.4,1.2,0.6,2.2c-0.1,0.1-0.2,0.4-0.2,0.5
	c0.7,2.6,0.1,5.3,0.2,7.9c0.1,1.4,1.6,2.7,2.5,4.1c0,0-0.1,0.2-0.1,0.2c-2.1-0.6-3.3,0.8-4.9,2c-3.4,2.7-7,5-10.8,7.7
	c-0.2-1-0.4-1.3-0.4-1.6c0.9-8,0.5-15.9-1.4-23.8c-0.2-1-0.2-1.7,1-2c3-0.6,5.1-2.4,6.7-5c1.7-2.7,4.4-4,7.6-3.4
	c3.2,0.6,5,2.9,5.8,6c0.4,1.5,0.3,3-1,3.9c-1.4,1.1-3.1,1.4-4.6,0.4C306.3,235,305.3,233.8,303.9,232.6z"/>
<path class="st1" d="M169.7,274.8c-1.9,0.3-3.1-0.4-4.1-1.8c-6.1-8.3-6.7-17.4-4.2-27c0.5-2.1,1.5-4.1,2.4-6.1
	c0.7-1.7,2.1-2.6,3.9-2.4c4.6,0.5,9.1,1,13.7,1.5c1.3,0.2,2.6,0.2,3.9,0.5c0.5,0.1,0.9,0.7,1.4,1c-0.5,0.2-1.1,0.8-1.6,0.7
	c-4.3-0.4-8.5-0.7-12.7-1.4c-3-0.5-4.8,0.7-5.9,3.3c-1.5,3.3-2.3,6.7-2.3,10.2c0,1.5,1,1.7,2.1,1.8c5.8,0.4,11.7,0.7,17.5,1.2
	c0.6,0,1.3,0.2,1.6,0.6c1,1.2,0.4,2.4-1.3,2.4c-1.5,0-2.1,0.6-1.7,2.1c1.1,4,2.2,7.9,3.3,12.1c-1.1,0.8-1.9,0.7-2.9-0.8
	c-2.1-3.2-3-6.8-3.4-10.5c-0.4-2.8-0.4-2.6-3.1-2.6c-3.3,0-6.5-0.3-9.8-0.6c-2.8-0.2-2.9-0.2-2.4,2.7c0.8,4.3,2.4,8.3,5.3,11.7
	c0.2,0.2,0.3,0.4,0.4,0.6C169.8,274.3,169.7,274.4,169.7,274.8z"/>
<path class="st1" d="M261.4,136.7c-5.9,0.1-10-3.7-10.2-9.1c-0.1-2.6,0.6-3.4,3.1-2.9c3.1,0.5,6.3,1.2,9.4,2c0.5,0.1,0.8,1,1.1,1.5
	c0.3,0.6,0.5,1.5,1,1.8c0.5,0.3,1.4,0,2.1-0.1c0.7,0,1.4-0.1,2.1-0.2c0,0.7,0.3,1.6,0,2.1C267.8,135.3,264.6,136.5,261.4,136.7z"/>
<path class="st1" d="M199.4,295.6c-5.3,4.2-18,4-22.6-0.1c6.6-1.2,12.1-4,16-9.3C195,289.5,197.2,292.5,199.4,295.6z"/>
<path class="st1" d="M240.2,129.2c-0.7-0.1-1.8-0.2-2.9-0.2c-1.3-0.1-2.5-0.1-2.9-1.7c-0.5-2-0.5-4,0.7-5.8c0.2-0.2,0.7-0.4,1-0.3
	c2.1,0.2,4.1,0.3,6.2,0.7c0.7,0.1,1.4,0.8,1.9,1.5c0.9,1.3,1.8,1.7,3,0.5c1.2-1.1,2-0.3,2.8,0.4c0.2,0.1-0.3,1.4-0.8,1.9
	C246.5,128.3,243.5,129.3,240.2,129.2z"/>
<path class="st1" d="M270.7,128.7c-5.6-3.3-11.4-5.1-17.7-5.7c1.8-3.6,7.3-5.3,11.9-3.8C268.7,120.4,271.4,124.6,270.7,128.7z"/>
<path class="st1" d="M240.5,115c-6.1,2.3-8.7,6.5-7.3,13.4c-2.3-0.4-4.3-0.7-6.3-1.2c-0.2,0-0.4-0.7-0.3-0.9
	c1.2-4.5,2.8-8.7,6.9-11.5C235.7,113.3,238.5,113.3,240.5,115z"/>
<path class="st1" d="M319.8,242.6c0,2.3-0.9,3.3-3.1,3.5c-3,0.3-5.5-0.6-7.3-3c-0.7-0.9-1.1-2.3-1-3.4c0.1-1.9,2.1-2.6,3.7-1.5
	c1.9,1.4,4,2.3,6.4,2.3C320.3,240.4,319.8,241.7,319.8,242.6z"/>
<path class="st1" d="M236.1,119.1c1.9-1,3.4-2.2,5.1-2.7c3.6-1.2,8.4,0.6,10.5,3.7c0.3,0.4,0.2,1.3,0,1.8c-0.3,0.5-1.1,0.9-1.6,0.9
	c-4.5-0.9-8.9-1.9-13.3-2.9C236.8,119.6,236.7,119.5,236.1,119.1z"/>
<path class="st1" d="M308.9,244.6c3.2,2.6,6.6,3.8,10.5,2.3c1.3,4.5-1.2,5.6-4.1,5.3c-2.4-0.2-4.6-1.2-6.1-3.2
	C308.2,247.7,307.9,246.3,308.9,244.6z"/>
<path class="st1" d="M312.9,237c1.5-1.5,2.2-3.1,1.8-5.1c-0.1-0.4,0.5-1,0.9-1.3c0.3-0.2,0.8-0.2,1.3-0.2c2.9-0.1,3,0,3,2.8
	c0,1.4-0.1,2.9,0,4.3c0,1.1-0.5,1.5-1.5,1.6C316.4,239.2,314.5,238.5,312.9,237z"/>
<path class="st1" d="M317.1,224.4c2.8,0.4,3.5,1.3,2.8,3.8c-0.1,0.3-0.8,0.7-1.2,0.7c-1.2,0.2-2.5,0.5-3.7,0.3
	c-0.7-0.1-1.6-0.7-2-1.4c-0.3-0.4-0.2-1.7,0.1-1.9C314.4,225.3,315.8,224.9,317.1,224.4z"/>
<path class="st1" d="M188.5,273.4c-0.4-0.4-0.9-0.8-1-1.2c-1.1-3.3-2.2-6.6-3.2-10c-0.1-0.3,0.3-0.8,0.5-1.2
	c0.4,0.2,1.1,0.3,1.2,0.6c1,3.8,1.9,7.7,2.9,11.6C188.7,273.2,188.6,273.3,188.5,273.4z"/>
<path class="st1" d="M312.2,252.7c2.5,0.9,4.9,1.8,7.2-0.1c0.8,3.3,0.5,3.8-2.4,3.6c-1.8-0.1-3.7,0.1-4.7-2
	c-0.1-0.2-0.2-0.3-0.2-0.5C312,253.5,312.1,253.3,312.2,252.7z"/>
<path class="st1" d="M238.4,201.3c-1.4,2.2-4.9,2.2-7.4,0.2C232.9,200.1,236.1,199.9,238.4,201.3z"/>
<path class="st1" d="M213.9,192.4c1.3,0.1,2.2,0,2.9,0.3c0.5,0.2,0.8,1,1.2,1.6c-0.5,0.2-1.1,0.7-1.6,0.6c-0.9-0.1-1.8-0.4-2.6-0.8
	c-0.3-0.2-0.6-0.8-0.5-1.2C213.3,192.6,213.9,192.4,213.9,192.4z"/>
<path class="st1" d="M224.3,278.6c-1.9-0.1-3.3-0.5-3.4-2.3c0-0.5,0.8-1.1,1.2-1.6c0.4,0.4,0.9,0.7,1.1,1.1
	C223.6,276.6,223.8,277.4,224.3,278.6z"/>
<path class="st1" d="M214.4,274.7c3.3,0.3,4.8,1,5,2.3C217.3,277.4,215.4,276.5,214.4,274.7z"/>
</svg>
