<?xml version="1.0" encoding="utf-8"?>
<!-- Generator: Adobe Illustrator 21.0.2, SVG Export Plug-In . SVG Version: 6.00 Build 0)  -->
<svg version="1.1" id="Слой_1" xmlns="http://www.w3.org/2000/svg" xmlns:xlink="http://www.w3.org/1999/xlink" x="0px" y="0px"
	 viewBox="0 0 500 500" style="enable-background:new 0 0 500 500;" xml:space="preserve">
<style type="text/css">
	.st0{fill:url(#SVGID_1_);}
	.st1{fill:none;}
	.st2{enable-background:new    ;}
	.st3{fill:#FFFFFF;}
</style>
<linearGradient id="SVGID_1_" gradientUnits="userSpaceOnUse" x1="424.0321" y1="257.1566" x2="72.9232" y2="242.7181" gradientTransform="matrix(1 0 0 -1 0 500)">
	<stop  offset="0" style="stop-color:#FF3A2A"/>
	<stop  offset="0.1185" style="stop-color:#FE4128"/>
	<stop  offset="0.2942" style="stop-color:#FB5523"/>
	<stop  offset="0.5057" style="stop-color:#F7761A"/>
	<stop  offset="0.7447" style="stop-color:#F1A40F"/>
	<stop  offset="1" style="stop-color:#E9DD00"/>
</linearGradient>
<circle class="st0" cx="250" cy="250" r="175.7"/>
<rect x="87.4" y="184" class="st1" width="329.2" height="313.2"/>
<g class="st2">
	<path class="st3" d="M100.2,184H117v30.7l12.3-14.3h20.3l-15.4,15.1l16.3,28H132l-8.7-17.3l-6.2,6.1v11.2h-16.9V184z"/>
	<path class="st3" d="M200.5,226h-33.1c0.3,2.6,1,4.6,2.1,5.9c1.6,1.9,3.7,2.8,6.2,2.8c1.6,0,3.2-0.4,4.6-1.2
		c0.9-0.5,1.9-1.4,2.9-2.7l16.3,1.5c-2.5,4.3-5.5,7.4-9,9.3c-3.5,1.9-8.6,2.8-15.1,2.8c-5.7,0-10.2-0.8-13.5-2.4
		c-3.3-1.6-6-4.2-8.1-7.7c-2.1-3.5-3.2-7.6-3.2-12.3c0-6.7,2.2-12.2,6.5-16.3c4.3-4.2,10.3-6.2,17.9-6.2c6.2,0,11,0.9,14.6,2.8
		c3.6,1.9,6.3,4.6,8.1,8.1c1.9,3.5,2.8,8.1,2.8,13.8V226z M183.7,218.1c-0.3-3.2-1.2-5.5-2.6-6.8c-1.4-1.4-3.2-2.1-5.5-2.1
		c-2.6,0-4.7,1-6.3,3.1c-1,1.3-1.6,3.2-1.9,5.8H183.7z"/>
	<path class="st3" d="M255.9,226h-33.1c0.3,2.6,1,4.6,2.1,5.9c1.6,1.9,3.7,2.8,6.2,2.8c1.6,0,3.2-0.4,4.6-1.2
		c0.9-0.5,1.9-1.4,2.9-2.7l16.3,1.5c-2.5,4.3-5.5,7.4-9,9.3c-3.5,1.9-8.6,2.8-15.1,2.8c-5.7,0-10.2-0.8-13.5-2.4
		c-3.3-1.6-6-4.2-8.1-7.7c-2.1-3.5-3.2-7.6-3.2-12.3c0-6.7,2.2-12.2,6.5-16.3c4.3-4.2,10.3-6.2,17.9-6.2c6.2,0,11,0.9,14.6,2.8
		c3.6,1.9,6.3,4.6,8.1,8.1c1.9,3.5,2.8,8.1,2.8,13.8V226z M239.1,218.1c-0.3-3.2-1.2-5.5-2.6-6.8c-1.4-1.4-3.2-2.1-5.5-2.1
		c-2.6,0-4.7,1-6.3,3.1c-1,1.3-1.6,3.2-1.9,5.8H239.1z"/>
	<path class="st3" d="M263.5,259.8v-59.4H279v6.4c2.1-2.7,4.1-4.5,5.9-5.4c2.4-1.3,5.1-1.9,8-1.9c5.8,0,10.2,2.2,13.4,6.6
		c3.1,4.4,4.7,9.8,4.7,16.3c0,7.2-1.7,12.6-5.1,16.4c-3.4,3.8-7.8,5.7-13,5.7c-2.5,0-4.9-0.4-7-1.3c-2.1-0.9-4-2.1-5.6-3.8v20.5
		H263.5z M280,222.1c0,3.4,0.7,5.9,2.1,7.6c1.4,1.6,3.2,2.5,5.4,2.5c1.9,0,3.5-0.8,4.8-2.4c1.3-1.6,1.9-4.3,1.9-8c0-3.5-0.7-6-2-7.7
		c-1.4-1.6-3-2.5-4.9-2.5c-2.1,0-3.9,0.8-5.3,2.5C280.7,215.7,280,218.3,280,222.1z"/>
	<path class="st3" d="M347.1,184h16.5v11.2h-16.5V184z M347.1,200.4h16.5v43h-16.5V200.4z"/>
	<path class="st3" d="M394,184v16.4h9.1v12.1H394v15.2c0,1.8,0.2,3,0.5,3.6c0.5,0.9,1.5,1.4,2.8,1.4c1.2,0,2.9-0.4,5.1-1.1l1.2,11.4
		c-4.1,0.9-7.9,1.3-11.4,1.3c-4.1,0-7.1-0.5-9.1-1.6c-1.9-1.1-3.4-2.7-4.3-4.8c-0.9-2.1-1.4-5.6-1.4-10.4v-15.1h-6.1v-12.1h6.1v-7.9
		L394,184z"/>
</g>
<g class="st2">
	<path class="st3" d="M104.3,308.5l16.4-1.5c0.7,1.9,1.6,3.3,2.8,4.2c1.2,0.8,2.8,1.3,4.9,1.3c2.2,0,3.9-0.5,5.1-1.4
		c0.9-0.7,1.4-1.6,1.4-2.6c0-1.2-0.6-2.1-1.9-2.8c-0.9-0.5-3.3-1-7.1-1.7c-5.7-1-9.7-1.9-11.9-2.8c-2.2-0.8-4.1-2.3-5.6-4.3
		c-1.5-2-2.3-4.3-2.3-6.9c0-2.8,0.8-5.3,2.5-7.3c1.6-2.1,3.9-3.6,6.8-4.6c2.9-1,6.8-1.5,11.6-1.5c5.1,0,8.9,0.4,11.4,1.2
		c2.4,0.8,4.5,2,6.1,3.6c1.6,1.6,3,3.9,4.1,6.7l-15.6,1.5c-0.4-1.4-1.1-2.4-2-3c-1.3-0.9-2.9-1.3-4.7-1.3c-1.9,0-3.2,0.3-4.1,1
		c-0.9,0.7-1.3,1.5-1.3,2.4c0,1.1,0.5,1.8,1.6,2.4c1.1,0.5,3.4,1,7.1,1.5c5.5,0.6,9.6,1.5,12.2,2.6c2.7,1.1,4.7,2.7,6.1,4.7
		c1.4,2.1,2.1,4.3,2.1,6.8c0,2.5-0.8,4.9-2.2,7.2c-1.5,2.3-3.9,4.2-7.1,5.6s-7.6,2.1-13.2,2.1c-7.9,0-13.5-1.1-16.8-3.4
		C107.4,315.8,105.2,312.6,104.3,308.5z"/>
	<path class="st3" d="M158.5,261H175v11.2h-16.5V261z M158.5,277.4H175v43h-16.5V277.4z"/>
	<path class="st3" d="M185.6,277.4H201v6.3c2.2-2.6,4.5-4.5,6.7-5.6c2.3-1.1,5-1.7,8.2-1.7c3.4,0,6.2,0.6,8.2,1.8
		c2,1.2,3.6,3,4.9,5.4c2.6-2.8,5-4.7,7.1-5.7c2.1-1,4.8-1.5,7.9-1.5c4.6,0,8.2,1.4,10.8,4.1c2.6,2.7,3.9,7,3.9,12.9v27h-16.5v-24.5
		c0-1.9-0.4-3.4-1.1-4.3c-1.1-1.5-2.5-2.2-4.1-2.2c-1.9,0-3.5,0.7-4.7,2.1c-1.2,1.4-1.8,3.7-1.8,6.8v22.2h-16.5v-23.7
		c0-1.9-0.1-3.2-0.3-3.8c-0.4-1.1-1-2-1.8-2.6c-0.9-0.7-1.9-1-3-1c-1.9,0-3.5,0.7-4.7,2.1c-1.2,1.4-1.8,3.8-1.8,7.1v22h-16.5V277.4z
		"/>
	<path class="st3" d="M268.6,336.8v-59.4H284v6.4c2.1-2.7,4.1-4.5,5.9-5.4c2.4-1.3,5.1-1.9,8-1.9c5.8,0,10.2,2.2,13.4,6.6
		c3.1,4.4,4.7,9.8,4.7,16.3c0,7.2-1.7,12.6-5.1,16.4c-3.4,3.8-7.8,5.7-13,5.7c-2.5,0-4.9-0.4-7-1.3c-2.1-0.9-4-2.1-5.6-3.8v20.5
		H268.6z M285.1,299c0,3.4,0.7,5.9,2.1,7.6c1.4,1.6,3.2,2.5,5.4,2.5c1.9,0,3.5-0.8,4.8-2.4c1.3-1.6,1.9-4.3,1.9-8c0-3.5-0.7-6-2-7.7
		c-1.4-1.6-3-2.5-4.9-2.5c-2.1,0-3.9,0.8-5.3,2.5C285.8,292.7,285.1,295.3,285.1,299z"/>
	<path class="st3" d="M324.5,261H341v59.4h-16.5V261z"/>
	<path class="st3" d="M399.3,303h-33.1c0.3,2.6,1,4.6,2.1,5.9c1.6,1.9,3.7,2.8,6.2,2.8c1.6,0,3.2-0.4,4.6-1.2
		c0.9-0.5,1.9-1.4,2.9-2.7l16.3,1.5c-2.5,4.3-5.5,7.4-9,9.3c-3.5,1.9-8.6,2.8-15.1,2.8c-5.7,0-10.2-0.8-13.5-2.4
		c-3.3-1.6-6-4.2-8.1-7.7c-2.1-3.5-3.2-7.6-3.2-12.3c0-6.7,2.2-12.2,6.5-16.3c4.3-4.2,10.3-6.2,17.9-6.2c6.2,0,11,0.9,14.6,2.8
		c3.6,1.9,6.3,4.6,8.1,8.1c1.9,3.5,2.8,8.1,2.8,13.8V303z M382.5,295.1c-0.3-3.2-1.2-5.5-2.6-6.8c-1.4-1.4-3.2-2.1-5.5-2.1
		c-2.6,0-4.7,1-6.3,3.1c-1,1.3-1.6,3.2-1.9,5.8H382.5z"/>
</g>
</svg>
