<?xml version="1.0" encoding="utf-8"?>
<!-- Generator: Adobe Illustrator 21.0.0, SVG Export Plug-In . SVG Version: 6.00 Build 0)  -->
<svg version="1.1" id="Слой_1" xmlns="http://www.w3.org/2000/svg" xmlns:xlink="http://www.w3.org/1999/xlink" x="0px" y="0px"
	 viewBox="0 0 500 500" style="enable-background:new 0 0 500 500;" xml:space="preserve">
<style type="text/css">
	.st0{fill:url(#SVGID_1_);}
	.st1{fill:#FFFFFF;}
</style>
<linearGradient id="SVGID_1_" gradientUnits="userSpaceOnUse" x1="424.0321" y1="242.8433" x2="72.978" y2="257.2796">
	<stop  offset="0" style="stop-color:#0017FF"/>
	<stop  offset="0.16" style="stop-color:#2A11E7"/>
	<stop  offset="0.3368" style="stop-color:#500BD1"/>
	<stop  offset="0.5122" style="stop-color:#6F06C0"/>
	<stop  offset="0.6833" style="stop-color:#8503B4"/>
	<stop  offset="0.8482" style="stop-color:#9201AD"/>
	<stop  offset="1" style="stop-color:#9600AA"/>
</linearGradient>
<circle class="st0" cx="250" cy="250" r="175.7"/>
<g>
	<path class="st1" d="M196,159.6c-1.9-3.3-3.8-6.3-5.5-9.4c-1.5-2.6-0.8-4.1,2.3-4c11,0.3,22.1,0.6,33.1,1c3.7,0.1,7.4,0.6,11.1,0.8
		c0.8,0.1,1.6-0.1,2.5-0.2c1.4-0.2,2.8-0.7,4.2-0.8c11.9-1.5,20,4.3,22.8,16c0.4,1.7,1.2,3.4,2.1,4.9c2,3.4,4.2,6.7,6.2,10
		c2,3.3,3.9,6.6,5.9,10.1c0.3-0.1,0.7-0.3,1.1-0.5c19.2-9.3,38.5-18.6,57.7-28.1c3.8-1.9,7.5-4.4,10.6-7.2c7.8-7.1,17-9,27.1-8
		c2.8,0.3,4.3,2,5.1,4.5c0.8,2.7,0.9,5.3-1.3,7.4c-2.9,2.8-6.4,4.5-11,4.8c1.4,2.2,2.6,4.3,4,6.2c2.7,4,2.7,5.4-0.3,9.2
		c-0.4,0.5-0.5,1.4-0.4,2.1c0.9,5.5-6.2,11-11,9c-0.7-0.3-2,0.1-2.8,0.6c-9.7,6-19,12.7-29.1,18c-9.7,5.1-20.2,8.9-30.3,13.2
		c-1,0.4-2.1,0.8-3.2,1.2c4.4,11.7,9.2,23.1,12.9,34.8c3.7,11.7,6.1,23.8,9.3,36.1c1.6-1.3,2.8-2.2,3.8-3.3c4.8-5,15.2-3.6,18.7,2.8
		c2.8,5.2,5.4,10.5,5.4,16.4c0,7.5-2.2,14.2-10.1,18c3.6-0.5,6.8-1,10-1.3c4.4-0.3,8.6,2.8,9.1,6.8c0.2,1.3-0.3,3.2-1.1,4.1
		c-1,1.1-1.7,1.9-2.1,3.4c-0.8,3.5-3.1,4.9-7.6,5c-1.5,3.9-5.3,5.2-11.2,4.6c-7.7-0.8-15.4-2.3-23.2-2.6c-8.2-0.3-16.5,0.4-24.7,0.7
		c-0.5,0-1.3,0.7-1.5,1.2c-1,2.5-2.7,4.1-5.4,4.8c-0.5,0.1-1.2,0.8-1.2,1.2c-0.7,4.3-3.2,5-7,5.3c-1.8,0.1-3.4,0.1-4.4,2.1
		c-0.5,0.9-2.4,1.4-3.6,1.3c-3.7-0.3-7.4-0.7-11-1.4c-13.9-2.8-27.7-5.7-41.5-8.6c-0.5-0.1-1-0.3-1.5-0.4c-5.7-1.5-6.2-2.1-6.6-8.3
		c-1.5,0.1-3.1,0.1-4.6,0.3c-8.1,0.9-16.2,2.1-24.3,2.7c-10,0.7-20,0.7-29.8-1.8c-23.2-6.1-40.6-27.9-41.9-52
		c-0.7-12.1,1.3-23.6,7.2-34.4c3.5-6.3,8.3-11.2,14.8-14.2c7.8-3.6,15.6-3,22.4,2c6.8,5,8.9,12.5,7.3,20.7c-1.3,6.7-3.9,13.1-5,19.8
		c-0.8,5.2-0.6,10.7-0.1,16c0.5,5.5,3.9,9.6,8.7,12.3c8.7,4.9,18,7.7,27.9,8.8c3.3,0.3,6.6,0.5,10.4,0.9c0-4-0.1-7.8,0-11.5
		c0.5-19.3,0.5-38.6-0.6-57.8c-0.8-14.1-5.7-27-12-39.4c-5.1-10-12.2-18.3-20-26.2c-1.5-1.5-3-3-4.5-4.5c-2.3-2.3-2.2-3.3,0.4-5.2
		c11-8.3,22.9-15,36.1-19.1C194.9,160,195.3,159.8,196,159.6z M272.6,346.6c0.1-0.2,0.2-0.3,0.4-0.5c1.4,0.8,2.8,1.7,4.2,2.4
		c1.6,0.9,2.7-0.2,3.7-1.2c1.1-1.2,0.6-2.2-0.3-3.2c-2.2-2.7-5-4.8-8.5-5.2c-5.3-0.5-10.7-0.7-16-0.6c-4.7,0.1-9.4,0-13.9-1.2
		c-0.7-0.2-1.4-0.5-2-0.8c0.7-0.5,1.2-0.6,1.7-0.6c4.2-0.4,8.4-0.8,12.6-1.3c5.6-0.7,9.2-3.9,10.2-9.4c0.5-2.6,0.7-5.5,0.3-8.1
		c-0.9-5.8-3.9-10.8-7.5-15.3c-2.4-3-5.5-4.1-9.3-3.7c-5.1,0.5-9.7,2.1-13.8,5.2c-0.6,0.4-1.2,0.8-1.8,1.2c4-5,9.2-7.8,15.3-9.1
		c5.1-1.1,9.4,0.2,12.7,4.4c3.5,4.6,6.4,9.6,7.7,15.3c1.3,5.9,0.4,11.6-3.1,16.7c-0.9,1.3-2.3,2.4-3.7,3.8c9.5-0.7,18,0.4,23.2,9.4
		c0.6-0.1,1.2-0.1,1.8-0.2c13.9-2.4,27.9-3.4,41.9-0.7c3.6,0.7,7.3,0.8,11,0.5c2.8-0.2,3.1-1.5,1.5-3.8c-0.8-1.2-1.7-2.4-2.9-4.1
		c3,1.4,5.2,2.5,7.6,3.5c1.5,0.6,2.8-0.1,3.7-1.4c0.9-1.3,0.7-2.5-0.2-3.7c-1-1.2-1.9-2.4-2.8-3.6c0.2-0.2,0.4-0.5,0.6-0.7
		c1.1,0.7,2.1,1.6,3.3,2.1c0.7,0.3,1.8,0.4,2.4,0.1c0.4-0.3,0.5-1.5,0.3-2.2c-0.7-2.3-3.4-4-6.3-3.9c-2.9,0.1-5.7,0.4-8.6,0.6
		c-2.8,0.2-5.6,0.3-8.4,0.3c-0.5,0-0.9-0.5-1.4-0.8c0.3-0.5,0.6-1.1,1-1.3c1.5-0.7,3.1-1.3,4.6-1.9c5.6-1.9,8.5-6.1,9.5-11.7
		c1.3-6.6-0.5-12.8-3.3-18.7c-3-6.2-10-7.6-15.3-3.1c-1.1,0.9-2.1,2-3.3,2.7c-2.1,1.4-4,0.8-5-1.5c-0.7-1.6-1.2-3.3-1.6-4.9
		c-1.7-7.1-3.2-14.1-5-21.2c-3.8-15.1-10-29.3-15.9-43.6c-1.2-2.9-1-3.1,1.9-4.2c8.9-3.4,17.9-6.6,26.6-10.3
		c13-5.5,24.3-13.8,35.5-22.1c-1.6-2.9-1.1-5.9,1-7.2c0.4,1.6,0.4,3.8,1.5,4.8c1.2,1.1,3.4,1.8,5.1,1.7c2.7-0.1,4.8-3.4,4.4-6.1
		c-3.8,1-7.2,0.1-10-2.6c-0.6-0.6-0.4-2.2-0.6-3.3c0.2-0.1,0.5-0.2,0.7-0.3c0.8,2.8,3.1,3.5,5.5,3.7c2.7,0.3,5.1-0.7,6.8-2.9
		c1.5-2-0.3-3.7-1.1-5.4c-0.2-0.4-0.5-0.7-0.8-1c-2.4,3.1-4.6,6.6-9.1,5.6c-3.8-0.8-6.6-3.5-9.2-6.2c0.8,0,1.5,0.4,2.1,0.6
		c2.1,0.9,4.1,1.9,6.3,2.6c2.6,0.8,5.3-0.7,7-3.7c1.2-2.2,1-3.2-1.4-5.5c-1.3-1.3-2.8-2.4-4.1-3.7c1.5,0,2.8,0.4,4,0.8
		c4.5,1.5,8.5,0.3,12.1-2.5c1.7-1.3,2-2.9,1.4-4.9c-0.6-2-1.9-2.7-3.8-2.8c-9.1-0.5-17.4,1.3-24.2,7.9c-2.5,2.4-5.5,4.5-8.7,6
		c-19.8,9.7-39.7,19.2-59.6,28.8c-0.7,0.3-1.3,0.7-1.9,1c0.7,2.4,1.3,4.5,2,6.8c-5.3-9-10.5-17.7-15.7-26.4c-0.8,0.9-1,1.5-1.2,2.1
		c-2.4,7.6-9.4,13.3-16.6,13.2c-1.8,0-4.4,3.4-3.7,5.1c0.9,2.3,2.1,4.5,3.4,7.3c0.6-1.6,0.9-2.6,1.4-3.6c0.2-0.4,0.8-0.7,1.2-1.1
		c0.2,0.5,0.7,1,0.6,1.5c-0.1,1-0.4,2.1-0.7,3.1c-0.8,1.9-2.5,2.6-4.4,2.7c-2.2,0-4.1-0.8-5.4-2.8c0.9-0.2,1.7-0.1,2.5,0.1
		c0.8,0.1,1.7,0.3,2.9,0.5c-0.6-1.3-1.2-2.1-1.4-3.1c-0.9-3.7-3.2-5.3-7-4.6c-0.7,0.1-1.7,0.6-2,1.2c-6,11.4-13.9,15.7-26.7,14.4
		c-6.3-0.6-11.7-2.7-15.6-8c-5.6-7.6-5.4-15.6-1.6-23.8c3.7-8,10.3-11.5,18.8-12.1c5.2-0.4,10,0.7,14.5,3c0.8-2.9,1.2-5.7,2.2-8.2
		c1.1-2.6,2.8-4.9,4.3-7.4c-12.7-0.5-25.3-2.7-38.3-0.8c1.8,3.2,3.6,6.2,5.2,9.2c1.1,1.9,0.6,2.9-1.5,3.6c-1.7,0.6-3.4,1.1-5.2,1.6
		c-12,3.2-22.2,9.7-31.6,18c0.6,0.7,1.2,1.3,1.8,2c5.6,7,11.6,13.6,16.6,21c12.4,18.3,17.9,38.7,18.4,60.9
		c0.5,21.5-0.8,42.8-2.4,64.1c0,0.4-0.3,0.9-0.4,1.3c-0.2,0-0.4,0-0.6-0.1c0-1.5,0-3,0-4.8c-1.7,0-3.2,0-4.6,0
		c-12.2-0.3-23.7-3-34.3-9.1c-5.5-3.2-9.6-7.7-10.7-14c-0.9-5.2-1.4-10.6-0.7-15.7c1-6.8,3.5-13.3,5.1-19.9c0.6-2.7,1.1-5.7,0.6-8.5
		c-1.1-6.5-4.1-11.7-11.1-13.5c-7.7-1.9-14.7-0.5-20.7,4.8c-3.3,3-5.9,6.4-7.9,10.4c-4.5,9.3-6,19.1-5.7,29.3
		c0.8,24.1,17.8,45.2,41.4,50.7c9.6,2.2,19.5,2.5,29.3,1.5c8.2-0.8,16.4-1.9,24.6-2.8c4.1-0.4,5.1,0.6,4.9,4.7c-0.1,1.7,0.4,2.6,2,3
		c0.9,0.3,1.9,0.6,2.8,0.8c12,2.6,23.9,5.2,35.9,7.6c5.4,1.1,10.9,1.9,16.3,2.7c0.7,0.1,1.9-0.4,2.2-1c0.3-0.7,0-1.8-0.4-2.6
		c-0.5-1-1.3-1.8-2-2.7c0.7-0.2,1-0.2,1.3,0c1.6,0.9,3.2,2,4.9,2.8c2,0.9,5.4,0.3,6.2-0.8c1-1.4,0.6-4.4-0.8-6.2
		C273.3,347.7,273,347.1,272.6,346.6z M213.7,204.9c2-0.1,3.6-0.3,5.2-0.3c8.9-0.4,17.9-11.9,17-20.2c-0.9-8.6-5.5-15-14.8-17.6
		c-11.8-3.3-26,0-28.1,17.9c-1,8.9,5.3,17.6,14.1,19.4C209.4,204.6,211.8,204.7,213.7,204.9z M249.4,183.6c2.9,0.1,5.4-0.9,7.6-2.6
		c6.8-5,8.6-12.6,5.1-21.2c-3.2-7.7-9.6-11.2-18.2-9.9c-8.9,1.4-14.1,7.4-14,16.3c0,1.1,0.8,2.3,1.4,3.2c1.7,2.6,4.3,4.9,5.2,7.8
		c1.1,3.5,3.2,4.8,6.4,5.3C245.1,182.9,247.3,183.2,249.4,183.6z M244.9,186.1c-2-0.5-4.1-1.1-6.4-1.6c-0.1,1.6-0.2,3-0.3,4.4
		C243.8,191.1,245.2,190.5,244.9,186.1z"/>
	<path class="st1" d="M265.2,224.8c0.2-0.8,0.3-1.5,0.5-2.3c0.6-2.2,1.4-4.5,2-6.7c0.6-2.2-0.6-3.7-2.3-4.7c-1.7-1-3.3,0-4.2,1.2
		c-1.4,2.1-2.5,4.4-3.6,6.7c-0.4,0.8-0.6,1.6-0.9,2.4c-0.3,0-0.5,0-0.8,0c-0.2-1.4-0.2-2.8-0.6-4c-0.6-2.1-1.1-4.5-2.4-6.2
		c-2.2-2.8-5.7-2-6.5,1.5c-0.7,3.1-0.9,6.4-1.1,9.6c-0.3,4.5-0.2,4.4-4.2,2.5c-1.2-0.6-2.5-1.3-3.8-1.5c-1.2-0.1-3.2,0.1-3.6,0.8
		c-0.7,1.2-1,3.2-0.6,4.6c0.8,2.3,2.7,3.7,5.2,4.1c5.6,0.9,6.8,3.7,3.3,8.3c-2.3,3.2-4.8,6.2-7.3,9.3c-0.3,0.4-0.7,0.6-1.4,0.6
		c1.1-1.7,2.2-3.5,3.3-5.2c1.4-2.2,2.8-4.3,4-6.6c1.4-2.6,0.9-3.4-2-3.8c-3.3-0.5-5.7-2.3-7.3-5.2c-1.5-2.7-1-6.1,1-8.2
		c1.9-1.9,5-2.2,7.8-0.7c0.9,0.5,1.8,1,3.2,1.8c0-2.3-0.1-4.2,0-6.2c0.1-1.6,0.2-3.2,0.6-4.7c0.6-2.8,2.3-4.7,5.2-5.4
		c2.8-0.7,4.8,0.9,6.5,2.8c0.7,0.8,1.2,1.9,1.8,2.8c3.7-4.1,6.3-5.1,9.2-3.6c3.4,1.7,4.2,4.4,3.1,9.7c1.4-0.5,2.9-1.2,4.5-1.6
		c2.8-0.6,4.8,0.3,6.1,2.4c1.5,2.5,1.6,6,0,7.9c-1.8,2-3.8,3.9-5.8,5.7c-1,0.9-2.2,1.6-3.3,2.5c0.2,0.2,0.4,0.4,0.6,0.6
		c0,0.1,0,0.4,0.1,0.4c4,2.3,4.3,6.3,4.4,10.3c0.1,6.2,0.1,12.4-2.3,18.3c-3.9,9.6-10.6,15.2-21.3,16c-10,0.7-19.6,0-28.6-5.1
		c-0.6-0.4-1.3-0.7-1.9-1.1c0.1-0.2,0.1-0.3,0.2-0.5c0.7,0.2,1.4,0.4,2.1,0.7c10.2,4.5,20.8,4.9,31.6,2.9
		c9.2-1.6,16.4-9.6,17.4-19.7c0.5-5.1,0.3-10.3,0-15.4c-0.1-1.3-1.2-2.7-2.2-3.6c-2.6-2.3-2.9-3.6-0.4-6.2c2.2-2.3,4.6-4.4,6.7-6.7
		c0.7-0.8,1.3-2.1,1.3-3.2c0-3.4-1.9-4.8-5-3.5c-2.1,0.8-3.9,2.5-5.8,3.8c-0.7,0.5-1.3,1.1-2,1.6C265.7,225,265.5,224.9,265.2,224.8
		z"/>
	<path class="st1" d="M226.4,180.1c2-0.1,3.6,1.5,3.6,3.5c0,1.9-1.5,3.4-3.4,3.5c-1.9,0.1-3.5-1.4-3.6-3.3
		C222.9,181.8,224.4,180.2,226.4,180.1z"/>
	<path class="st1" d="M259.7,167.5c0,2-1.6,3.6-3.6,3.5c-2,0-3.5-1.6-3.5-3.6c0-1.9,1.6-3.4,3.5-3.4
		C258,164,259.7,165.6,259.7,167.5z"/>
</g>
</svg>
