<?xml version="1.0" encoding="utf-8"?>
<!-- Generator: Adobe Illustrator 21.0.2, SVG Export Plug-In . SVG Version: 6.00 Build 0)  -->
<svg version="1.1" id="Слой_1" xmlns="http://www.w3.org/2000/svg" xmlns:xlink="http://www.w3.org/1999/xlink" x="0px" y="0px"
	 viewBox="0 0 500 500" style="enable-background:new 0 0 500 500;" xml:space="preserve">
<style type="text/css">
	.st0{fill:url(#SVGID_1_);}
	.st1{fill:none;}
	.st2{enable-background:new    ;}
	.st3{fill:#FFFFFF;}
</style>
<linearGradient id="SVGID_1_" gradientUnits="userSpaceOnUse" x1="249.4772" y1="424.5602" x2="250.5296" y2="73.1617" gradientTransform="matrix(1 0 0 -1 0 500)">
	<stop  offset="0" style="stop-color:#00FF42"/>
	<stop  offset="1" style="stop-color:#0078D4"/>
</linearGradient>
<circle class="st0" cx="250" cy="250" r="175.7"/>
<rect x="99.8" y="134.9" class="st1" width="304.4" height="241.3"/>
<g class="st2">
	<path class="st3" d="M159.7,134.9h16.7v60.1h-16.7V134.9z"/>
	<path class="st3" d="M235.4,177.4h-33.5c0.3,2.7,1,4.7,2.2,6c1.6,1.9,3.7,2.8,6.3,2.8c1.6,0,3.2-0.4,4.7-1.2
		c0.9-0.5,1.9-1.4,2.9-2.7l16.4,1.5c-2.5,4.4-5.6,7.5-9.1,9.4c-3.6,1.9-8.7,2.9-15.3,2.9c-5.8,0-10.3-0.8-13.6-2.4
		c-3.3-1.6-6-4.2-8.2-7.8s-3.3-7.7-3.3-12.5c0-6.8,2.2-12.3,6.5-16.5c4.4-4.2,10.4-6.3,18.1-6.3c6.2,0,11.2,0.9,14.8,2.8
		s6.4,4.6,8.2,8.2s2.8,8.2,2.8,14V177.4z M218.4,169.4c-0.3-3.2-1.2-5.5-2.6-6.9c-1.4-1.4-3.3-2.1-5.6-2.1c-2.7,0-4.8,1.1-6.4,3.2
		c-1,1.3-1.7,3.3-1.9,5.9H218.4z"/>
	<path class="st3" d="M263.2,134.9v16.6h9.2v12.2h-9.2v15.4c0,1.9,0.2,3.1,0.5,3.7c0.5,0.9,1.5,1.4,2.9,1.4c1.2,0,3-0.4,5.2-1.1
		l1.2,11.5c-4.1,0.9-8,1.4-11.6,1.4c-4.2,0-7.2-0.5-9.2-1.6s-3.4-2.7-4.4-4.9c-0.9-2.2-1.4-5.7-1.4-10.5v-15.3h-6.2v-12.2h6.2v-8
		L263.2,134.9z"/>
	<path class="st3" d="M278.2,133.9H296v13.7c0,5.1-1.1,9.1-3.2,12c-2.1,2.9-5.7,5.5-10.8,7.7l-3.9-7.3c3.2-1.5,5.4-2.9,6.5-4.4
		s1.9-3.2,2-5.2h-8.5V133.9z"/>
	<path class="st3" d="M298.6,183l16.6-1.6c0.7,2,1.6,3.4,2.9,4.2s2.9,1.3,4.9,1.3c2.2,0,4-0.5,5.2-1.4c1-0.7,1.4-1.6,1.4-2.7
		c0-1.2-0.6-2.1-1.9-2.8c-0.9-0.5-3.3-1-7.2-1.7c-5.8-1-9.8-1.9-12.1-2.8c-2.3-0.9-4.2-2.3-5.7-4.4c-1.5-2-2.3-4.4-2.3-7
		c0-2.9,0.8-5.3,2.5-7.4c1.7-2.1,4-3.6,6.9-4.6c2.9-1,6.8-1.5,11.8-1.5c5.2,0,9,0.4,11.5,1.2s4.5,2,6.2,3.7s3,3.9,4.1,6.8l-15.8,1.6
		c-0.4-1.4-1.1-2.4-2.1-3.1c-1.3-0.9-2.9-1.3-4.8-1.3c-1.9,0-3.3,0.3-4.1,1s-1.3,1.5-1.3,2.4c0,1.1,0.5,1.9,1.6,2.4s3.5,1,7.1,1.5
		c5.6,0.6,9.7,1.5,12.4,2.6s4.8,2.7,6.2,4.8s2.2,4.4,2.2,6.8c0,2.5-0.8,5-2.3,7.3c-1.5,2.4-3.9,4.3-7.2,5.7
		c-3.3,1.4-7.7,2.1-13.4,2.1c-8,0-13.6-1.1-17-3.4C301.7,190.4,299.5,187.1,298.6,183z"/>
</g>
<g class="st2">
	<path class="st3" d="M156.1,260l16.6-1.6c0.7,2,1.6,3.4,2.9,4.2s2.9,1.3,4.9,1.3c2.2,0,4-0.5,5.2-1.4c1-0.7,1.4-1.6,1.4-2.7
		c0-1.2-0.6-2.1-1.9-2.8c-0.9-0.5-3.3-1-7.2-1.7c-5.8-1-9.8-1.9-12.1-2.8c-2.3-0.9-4.2-2.3-5.7-4.4c-1.5-2-2.3-4.4-2.3-7
		c0-2.9,0.8-5.3,2.5-7.4c1.7-2.1,4-3.6,6.9-4.6c2.9-1,6.8-1.5,11.8-1.5c5.2,0,9,0.4,11.5,1.2c2.5,0.8,4.5,2,6.2,3.7
		c1.7,1.7,3,3.9,4.1,6.8l-15.8,1.6c-0.4-1.4-1.1-2.4-2.1-3.1c-1.3-0.9-2.9-1.3-4.8-1.3c-1.9,0-3.3,0.3-4.1,1s-1.3,1.5-1.3,2.4
		c0,1.1,0.5,1.9,1.6,2.4c1.1,0.5,3.5,1,7.1,1.5c5.6,0.6,9.7,1.5,12.4,2.6s4.8,2.7,6.2,4.8c1.4,2.1,2.2,4.4,2.2,6.8
		c0,2.5-0.8,5-2.3,7.3c-1.5,2.4-3.9,4.3-7.2,5.7c-3.3,1.4-7.7,2.1-13.4,2.1c-8,0-13.6-1.1-17-3.4C159.2,267.4,157.1,264.1,156.1,260
		z"/>
	<path class="st3" d="M230.5,211.9v16.6h9.2v12.2h-9.2v15.4c0,1.9,0.2,3.1,0.5,3.7c0.5,0.9,1.5,1.4,2.9,1.4c1.2,0,3-0.4,5.2-1.1
		l1.2,11.5c-4.1,0.9-8,1.4-11.6,1.4c-4.2,0-7.2-0.5-9.2-1.6s-3.4-2.7-4.4-4.9c-0.9-2.2-1.4-5.7-1.4-10.5v-15.3h-6.2v-12.2h6.2v-8
		L230.5,211.9z"/>
	<path class="st3" d="M262.9,242.6l-16-1.7c0.6-2.8,1.5-5,2.6-6.6c1.1-1.6,2.8-3,4.9-4.2c1.5-0.8,3.6-1.5,6.3-2
		c2.7-0.5,5.6-0.7,8.7-0.7c5,0,9,0.3,12.1,0.8s5.6,1.7,7.6,3.5c1.4,1.2,2.5,3,3.4,5.2s1.2,4.4,1.2,6.5v19.2c0,2.1,0.1,3.7,0.4,4.8
		c0.3,1.2,0.8,2.6,1.7,4.5h-15.7c-0.6-1.1-1-2-1.2-2.6c-0.2-0.6-0.4-1.5-0.6-2.8c-2.2,2.1-4.4,3.6-6.5,4.5c-3,1.2-6.4,1.8-10.3,1.8
		c-5.2,0-9.1-1.2-11.8-3.6c-2.7-2.4-4-5.4-4-8.9c0-3.3,1-6,2.9-8.2c1.9-2.1,5.5-3.7,10.7-4.8c6.3-1.3,10.3-2.1,12.2-2.6
		c1.9-0.5,3.8-1.2,5.9-2c0-2.1-0.4-3.5-1.3-4.3c-0.8-0.8-2.3-1.2-4.5-1.2c-2.7,0-4.8,0.4-6.2,1.3
		C264.4,239.4,263.5,240.7,262.9,242.6z M277.4,251.4c-2.3,0.8-4.7,1.5-7.2,2.2c-3.4,0.9-5.5,1.8-6.4,2.7c-0.9,0.9-1.4,1.9-1.4,3.1
		c0,1.3,0.5,2.4,1.4,3.2c0.9,0.8,2.3,1.3,4,1.3c1.9,0,3.6-0.5,5.2-1.4s2.7-2,3.4-3.3c0.7-1.3,1-3,1-5.1V251.4z"/>
	<path class="st3" d="M298.9,228.5h17.6l9,29l8.3-29h16.5L333,275c-2,5.3-4,8.9-6,10.8c-2.9,2.6-7.3,3.9-13.2,3.9
		c-2.4,0-6.1-0.3-11.2-1l-1.3-11.6c2.4,0.8,5.1,1.1,8,1.1c2,0,3.6-0.5,4.8-1.4c1.2-0.9,2.2-2.5,3.1-4.8L298.9,228.5z"/>
</g>
<g class="st2">
	<path class="st3" d="M131,288.9h16.7v22.1c2.3-2.4,4.5-4,6.8-5c2.2-1,4.9-1.5,8-1.5c4.5,0,8.1,1.4,10.7,4.1c2.6,2.8,3.9,7,3.9,12.7
		v27.7h-16.8v-24c0-2.7-0.5-4.7-1.5-5.8c-1-1.1-2.4-1.7-4.3-1.7c-2,0-3.7,0.8-4.9,2.3c-1.3,1.5-1.9,4.3-1.9,8.2v20.9H131V288.9z"/>
	<path class="st3" d="M185,327.4c0-6.6,2.2-12.1,6.7-16.4c4.5-4.3,10.5-6.5,18.2-6.5c8.7,0,15.3,2.5,19.8,7.6
		c3.6,4.1,5.4,9.1,5.4,15.1c0,6.7-2.2,12.2-6.7,16.5c-4.4,4.3-10.6,6.4-18.4,6.4c-7,0-12.7-1.8-17-5.3
		C187.6,340.3,185,334.5,185,327.4z M201.7,327.4c0,3.9,0.8,6.8,2.4,8.6c1.6,1.9,3.5,2.8,5.9,2.8c2.4,0,4.4-0.9,5.9-2.7
		c1.5-1.8,2.3-4.8,2.3-8.8c0-3.8-0.8-6.6-2.3-8.4s-3.5-2.8-5.8-2.8c-2.4,0-4.4,0.9-6,2.8C202.5,320.7,201.7,323.5,201.7,327.4z"/>
	<path class="st3" d="M243.2,305.5h15.6v6.4c2.2-2.7,4.5-4.5,6.8-5.7c2.3-1.1,5-1.7,8.3-1.7c3.5,0,6.2,0.6,8.3,1.8s3.7,3.1,5,5.5
		c2.6-2.8,5-4.8,7.2-5.8s4.8-1.5,8-1.5c4.7,0,8.3,1.4,10.9,4.2s3.9,7.1,3.9,13v27.4h-16.7v-24.8c0-2-0.4-3.4-1.1-4.4
		c-1.1-1.5-2.5-2.3-4.2-2.3c-2,0-3.5,0.7-4.7,2.1c-1.2,1.4-1.8,3.7-1.8,6.8v22.5h-16.7v-24c0-1.9-0.1-3.2-0.3-3.9
		c-0.4-1.1-1-2-1.9-2.6s-1.9-1-3.1-1c-1.9,0-3.5,0.7-4.7,2.2s-1.9,3.8-1.9,7.1v22.2h-16.7V305.5z"/>
	<path class="st3" d="M375.4,331.4h-33.5c0.3,2.7,1,4.7,2.2,6c1.6,1.9,3.7,2.8,6.3,2.8c1.6,0,3.2-0.4,4.7-1.2
		c0.9-0.5,1.9-1.4,2.9-2.7l16.4,1.5c-2.5,4.4-5.6,7.5-9.1,9.4s-8.7,2.9-15.3,2.9c-5.8,0-10.3-0.8-13.6-2.4s-6-4.2-8.2-7.8
		s-3.3-7.7-3.3-12.5c0-6.8,2.2-12.3,6.5-16.5s10.4-6.3,18.1-6.3c6.2,0,11.2,0.9,14.8,2.8s6.4,4.6,8.2,8.2s2.8,8.2,2.8,14V331.4z
		 M358.4,323.4c-0.3-3.2-1.2-5.5-2.6-6.9s-3.3-2.1-5.6-2.1c-2.7,0-4.8,1.1-6.4,3.2c-1,1.3-1.7,3.3-1.9,5.9H358.4z"/>
</g>
</svg>
