<?xml version="1.0" encoding="utf-8"?>
<!-- Generator: Adobe Illustrator 21.0.2, SVG Export Plug-In . SVG Version: 6.00 Build 0)  -->
<svg version="1.1" id="Слой_1" xmlns="http://www.w3.org/2000/svg" xmlns:xlink="http://www.w3.org/1999/xlink" x="0px" y="0px"
	 viewBox="0 0 500 500" style="enable-background:new 0 0 500 500;" xml:space="preserve">
<style type="text/css">
	.st0{fill:url(#SVGID_1_);}
	.st1{fill:none;}
	.st2{fill:#925F2D;}
	.st3{fill:#E2023F;}
	.st4{fill:#C69C6D;}
	.st5{fill:#FBB03B;}
	.st6{fill:#FFFFFF;}
	.st7{fill:#42210B;}
	.st8{fill:#D4145A;}
</style>
<linearGradient id="SVGID_1_" gradientUnits="userSpaceOnUse" x1="424.0321" y1="257.1566" x2="72.9232" y2="242.7181" gradientTransform="matrix(1 0 0 -1 0 500)">
	<stop  offset="0" style="stop-color:#00E922"/>
	<stop  offset="1" style="stop-color:#6A73FF"/>
</linearGradient>
<circle class="st0" cx="250" cy="250" r="175.7"/>
<rect x="84.4" y="202.6" class="st1" width="329.2" height="191.9"/>
<g>
	<path d="M184.4,183.7c-0.9,2.7-0.5,5.5-0.1,8.2c0.3,2.3,0.9,4.5,1.1,6.7c0.1,0.9-0.5,1.8-0.8,2.7c-1-0.4-2.1-0.5-2.8-1.2
		c-2.1-2-3-4.6-3.5-7.4c-0.4-2.2-1-4.4-1.5-6.6c-0.1-0.4-0.4-0.7-0.7-1.1c-2.2,2.2-3.2,4.8-3.5,7.8c-0.1,1.6-0.1,3.2-0.3,4.7
		c-0.2,1.4-1.2,1.7-2.4,0.8c-2.5-1.8-3.3-4.5-3.3-7.3c0-2.2,0.4-4.5,1-6.7c0.8-2.7,0.9-5.3,0.4-8.1c-0.9-4.3,0.4-7.9,4.1-10.6
		c0.5-0.4,0.9-1,1.3-1.5c1.2-1.7,2.3-3.5,3.6-5.1c0.8-0.9,1.2-1.8,1.1-3.1c-0.3-2.8,0.6-5.2,2.9-7c1.5-1.1,4.6-0.9,5.8,0.4
		c1.1,1.2,1.2,3.8-0.1,5.2c-1.5,1.7-1.8,3.5-1.4,5.7c0.3,1.4,0.1,2.9,0.1,4.8c2.4,0.6,5,1.5,7.8,2c6.7,1.3,13.3,2.8,19,6.7
		c0.3,0.2,0.7,0.4,0.9,0.3c1.7-1.3,3,0.2,4.4,0.7c4,1.6,7.9,3.3,11.9,4.9c0.1,0.1,0.3,0,0.5,0c-0.2-1.3-0.3-2.7-0.5-4
		c0.2-0.1,0.4-0.1,0.6-0.2c1.5,1.3,3,2.5,4.8,4.1c0.1-2.1,0.2-3.8,0.2-5.5c0.1-6.2,0.2-12.5,2.4-18.4c1.6-4.3,4.1-8.1,7.4-11.3
		c0.4-0.4,0.7-1.3,0.6-1.8c-0.4-1.6-0.4-3.2,0-4.8c0.4-2,0-4.2,0.6-6.2c1.2-4,2.5-8,6.2-10.4c0.6-0.4,1.9-0.5,2.3-0.2
		c1.2,1.3,2.3,2.7,3.2,4.3c0.8,1.4,1.3,3.1,1.9,4.6c0.2,0,0.4,0,0.6,0.1c0.3-1.5,0.7-3,0.9-4.5c0.1-0.9-0.1-1.8,0-2.7
		c0.1-1.5,0.3-1.8,1.8-2.3c0-0.7,0-1.3,0-2c0.1-2,0.5-2.2,2.5-2.1c5.6,0.5,9.7,3.7,13.3,7.7c1.6,1.7,2.9,3.8,4.2,5.7
		c1,1.5,1.4,3.1,0.8,4.9c-0.3,1-0.1,1.6,1,2.1c7.9,4,14.3,9.6,18.6,17.4c1.5,2.8,2.9,5.6,4.6,9c1.9-2.2,3.8-4.3,5.7-6.4
		c0.2,0.1,0.4,0.2,0.7,0.3c-0.2,1.3-0.3,2.7-0.5,3.8c1.7-0.2,3.5-0.5,5.2-0.5c1.1,0,2.2,0.4,3.2,0.8c0.6,0.3,1.2,0.9,1.5,1.5
		c0.1,0.3-0.7,0.9-1,1.3c2,1.3,4,2.7,6.1,4.2c0.4,0.3,0.8,0.7,1.1,1c1.4,1.6,1.2,2.9-0.6,3.8c2.3,12.7-4.5,20-14.9,25.3
		c0,0.2,0.1,0.4,0.1,0.6c2,0.7,3.9,1.6,6,2c2.4,0.6,4.9,0.8,7.3,1.2c2.6,0.4,3.6,1.3,3.8,4c0.1,1.6,0.8,2,2.2,2.4
		c5.4,1.7,10.8,3.6,16.3,5.4c2.9,1,5.9,2,8.9,2.8c1.1,0.3,2.4-0.1,3.5-0.5c2-0.7,3.8-0.9,5.8,0.1c1.3,0.7,2.3,0,3.1-1
		c0.6-0.7,1.1-1.5,1.7-2.1c1.7-1.6,3.9-1.5,5.4,0.3c1.7,1.9,2.3,6.2,0.8,8c-1.1,1.2-2.7,2-4.3,2.6c-1.1,0.4-1.4,0.8-1.2,1.9
		c1.3,6.1,2.6,12.2,3.6,18.4c0.4,2.8,0.5,5.7,0.1,8.4c-0.2,1.5-1.4,3.1-2.5,4.2c-1.7,1.6-3.1,0.8-3.4-1.5c-0.4-2.9-0.8-5.9-1.3-8.8
		c-0.2-1.3-0.8-2.5-1.2-3.8c-0.2,0-0.4,0.1-0.6,0.1c0,1.4,0.1,2.8,0,4.2c-0.5,3.6-0.9,7.3-1.7,10.9c-0.3,1.2-1.4,2.4-2.5,3.3
		c-0.6,0.5-2,0.6-2.7,0.3c-0.6-0.2-1.1-1.4-1.1-2.2c0-1.8,0.4-3.6,0.3-5.4c-0.1-2.8-0.4-5.6-0.6-8.4c-0.2-0.1-0.5-0.1-0.7-0.2
		c-0.6,0.9-1.2,1.9-1.7,2.9c-0.2,0.3,0,0.9-0.2,1.2c-2.3,2.4-2.9,6.2-6,8c-1.2,0.7-2.4,1.1-3.6,0.2c-1.3-0.9-0.8-2.2-0.3-3.4
		c1.3-3.1,2.7-6.1,4-9.2c1-2.4,1.3-5,1.1-7.7c-0.2-2.4,0-4.9,0-7.2c-3.5-1.3-7-1-10.5-0.9c-3.5,0.1-7,0.4-10.5,0.7
		c-0.4,0-1,0.6-1.2,1.1c-2.6,4.8-5.2,9.7-7.9,14.5c-0.7,1.3-2.3,1.5-3.2,0.6c-2.4-2.5-5.5-3.9-8.7-5c-3.9-1.4-7.8-2.4-11.8-3.4
		c-1.6-0.4-3.2-0.5-4.9-0.5c-0.5,0-1.1,0.5-1.3,1c-1.1,2.5-2.2,4.9-3.1,7.5c-1.4,3.8-2.7,7.6-4.1,11.5c-0.5,1.3-1.1,2.5,1.1,3.2
		c1.8,0.6,2.1,3.3,0.9,4.8c-0.1,0.2-0.3,0.3-0.5,0.5c-0.1,0.2-0.3,0.3-0.6,0.7c3,1,5.8,2,8.6,3c2.8,1,3.8,3.1,2.6,5.9
		c-0.6,1.3-1.3,2.6-2.2,3.8c-0.6,0.8-0.7,1.2,0,2c2.6,3.2,5.1,6.5,7.7,9.8c1.8,2.3,2.5,5,2.6,7.7c0.1,5.7-2.9,10-6.6,13.9
		c-0.9,0.9-1.8,1.9-2.9,3.1c1.7,0.1,3.2,0.2,4.8,0.3c4.2,0.4,8.4,0.9,12,3.3c1.1,0.7,2.5,2.1,2.4,3.1c-0.1,1.5-1.5,2.9-3.3,3.3
		c-7.3,1.6-14.5,3.3-21.8,4.6c-6.2,1.1-12.4,2-18.7,2.6c-3.2,0.3-6.4-0.1-9.6-0.7c-4-0.7-5.2-4.8-2.4-7.8c0.6-0.7,1.4-1.2,1.9-1.9
		c0.6-0.7,1-1.6,1.8-2.9c-2.6-0.3-4.6-0.5-6.7-0.6c-7.2-0.3-14.3,0.3-21.3,1.9c-4.4,1-8.7,2.4-12.9,3.8c-3.7,1.2-7.3,2.4-10.8,4
		c-5,2.3-9.8,4.9-14.7,7.4c-1.5,0.8-3,1.8-4.5,2.7c1.3,2.1,0.9,4.2-1.4,6.6c-5.7,6-11.8,11.6-19,15.9c-5.8,3.5-11.8,6.7-18.2,9
		c-2.6,0.9-5.2,1.8-7.9,2.7c-0.4,0.1-0.8,0.1-1.2,0.2c-2.2,0.1-2.7-0.5-2.5-2.6c0.4-3.4,2.3-6,4-8.8c3.6-5.8,8.1-11,12.9-15.7
		c2.3-2.2,4.5-4.4,6.7-6.6c0.3-0.3,0.4-1,0.3-1.4c-0.7-3.4,0-6.8,0.8-10.1c1.1-4.4,2.2-8.9,3.9-13.2c1.6-4,3.8-7.7,6.1-11.3
		c2.5-3.9,5.1-7.8,8.1-11.3c5.2-6.2,10.7-12.1,16.1-18.2c0.6-0.7,1.3-1.2,2.1-1.8c-0.2-0.5-0.4-1.1-0.7-1.6c-1.6-3.1-1.4-3.3,1-5.7
		c2.1-2.2,4-4.6,6-7c2.2-2.7,4.5-5.3,6.5-8.1c2.4-3.4,4.7-7,6.7-10.7c2.1-3.9,3.9-7.9,5.7-12c1.1-2.4,0.5-3.4-1.6-5
		c-3.2-2.4-7.1-2.9-10.9-3.5c-1-0.2-2-0.2-3-0.2c-2.1,0.2-3-1.2-4-2.7c-2.9-4.5-4-9.6-5.3-14.6c-0.3-1.1-0.5-2.2-0.9-3.3
		c-0.3-0.8-0.8-1.7-1.5-2.2c-2.2-1.5-4.6-2.9-6.8-4.3c-0.4,0.7-0.9,1.9-1.4,2c-1,0.1-2.1-0.4-3.1-1c-2.5-1.5-2.9-4.4-4-6.8
		c-0.3-0.6-0.7-1.2-1-1.8C184.8,183.6,184.6,183.6,184.4,183.7z M278.2,262.2c1.9,1.9,4.3,2.4,6.9,2c0,0,0.1,0.1,0.2,0.2
		c-0.2,0.3-0.4,0.7-0.9,1.4c0.8-0.1,1.4-0.1,1.6-0.3c1.4-1.4,0.9-3.5-1.1-3.9c-2.7-0.6-5.4-1-8.1-1.5c-2.4-0.4-4.7-0.9-7.1-1.4
		c0.3-0.4,0.7-0.7,1-0.6c1.4,0.2,2.7,0.4,4.1,0.6c2.5,0.3,4.9,0.6,7.4,0.8c0.5,0,1.2-0.6,1.4-1.1c0.7-1.9,1.1-4,1.8-5.9
		c1.8-4.7,3.8-9.3,5.7-14c0.2-0.6,0.1-1.2,0.2-2.3c1.8-0.1,4.1-0.2,6.4-0.3c0-0.5,0-0.9,0-1.4c0.1-1.4,0.2-2.7,0.3-4.1
		c0.1-1,0.6-1.4,1.7-0.8c1.5,0.7,3,1.4,4.5,2.1c1.3,0.6,2.6,1.2,3.9,1.9c0.1-0.5,0-0.7-0.2-0.9c-1.7-2.5-3.6-5-5.2-7.6
		c-0.3-0.5-0.1-2.1,0.3-2.3c3.1-1.7,6.3-3.4,10.2-3c0.7,3.1,1.3,6.2,2,9.3c0.1,0,0.3,0,0.4,0c0.3-2.2,0.6-4.5,0.8-6.7
		c0.1-1.6,1-2,2.4-1.9c0.4,0,0.7,0.1,1.2,0.2c1-6.1,3.5-11.6,6.7-16.9c-2.1-0.4-3.9-0.7-5.8-1c-0.2,0.8-0.4,1.5-0.7,2.2
		c-0.7,1.5-1.3,3.2-2.2,4.5c-1.8,2.4-2.3,2.3-4.4,0.1c-1.8-2-3.8-3.9-5.8-5.8c-0.3-0.3-0.8-0.4-1.2-0.3c-0.3,0.1-0.7,0.7-0.6,0.9
		c0.4,1.4,0.8,2.9,1.5,4.2c0.4,0.8,1.2,1.3,1.8,2c1.5,2,1.2,3-1.1,4.1c-0.3,0.1-0.6,0.1-0.8,0.3c-0.5,0.6-1.3,1.1-1.5,1.8
		c-1,3.7-2.3,4.4-5.7,2.8c-1-0.4-1.9-1.1-2.8-1.5c-1.4-0.7-2.9-1.3-4.3-1.9c-1.1-0.4-1.8-0.1-2.6,0.9c-0.7,1-1,1.8-0.3,2.7
		c1.2,1.7,2.4,3.4,3.8,5c1.8,2.1,2,3.4,0.4,5.7c-2.4,3.2-5.8,5-9.4,6.5c-3,1.2-6,2.1-9,3.2c-0.4,0.2-0.9,0.5-1,0.9
		c-0.4,1.4-0.7,2.9-1,4.3c-0.5,2.3-1.7,2.7-3.5,1.2c-0.3-0.3-0.6-0.7-0.9-1c-2.9-2.7-4.4-3-7.6-1.3c0.2,0.3,0.4,0.6,0.7,0.9
		c1.5,1.8,3.1,3.6,4.6,5.5c1.1,1.4,1.1,2.7-0.1,3.9c-1.7,1.6-3.4,3.2-5.3,4.6c-1,0.8-2.3,1.7-3.6,0.3c-0.6-0.7-1.1-1.4-1.5-2.2
		c-1.3-2.4-2.6-4.9-3.9-7.3c-0.2-0.3-0.6-0.4-1.2-0.8c-0.1,1.9-0.3,3.4-0.4,5c-0.1,2.4,0,4.9-0.1,7.3c-0.1,1.8-1.1,2.7-2.8,3
		c-4,0.7-7.3-0.7-10.2-3.1c-2.6-2.1-2.5-2.8-0.7-5.7c1.1-1.8,2.1-3.6,3.2-5.5c-0.4,0-0.7-0.1-0.9,0c-2.2,0.9-4.4,1.7-6.7,2.6
		c-2.5,1-3.3,0.7-4-1.8c-0.6-2.1-0.7-4.2-0.9-6.4c-0.2-2.9,0.4-3.3,3.3-2.9c2.1,0.2,4.2,0,6.7,0c-0.6-0.7-1-1.1-1.3-1.5
		c-1.3-1.2-2.7-2.3-3.8-3.6c-2.8-3.3-2.9-3.2-0.3-6.4c1-1.2,1.2-2.3,0.8-3.9c-0.6-2.3-1.4-4.7-1.2-7c0.2-3.6-0.9-5.6-4.4-6.8
		c-2.7-0.9-2.6-1.3-3.7,1.7c2.4,1.5,4.9,3,7.4,4.5c-0.2,0.2-0.3,0.5-0.5,0.7c-2.4-1.5-4.9-2.9-7.3-4.5c-0.3-0.2-0.5-1-0.5-1.5
		c0.1-0.8,0.5-1.5,0.8-2.2c0.6-1.4-0.8-1.7-1.4-2.4c-0.1-0.2-1.1,0.2-1.5,0.5c-0.8,0.6-1.5,1.4-2.2,2.1c-1.2,1.4-2.5,0.8-3.4-0.2
		c-1.7-1.7-3.4-3.5-4.7-5.6c-2.7-4.2-1.9-5.3,1.9-7.1c2.9-1.3,3.4-3.9,4.2-6.3c-1.7-0.5-3.2-1-4.8-1.4c-1.2-0.3-1.5-1-1.5-2.1
		c-0.1-2.6,1-4.8,2.3-7c1.5-2.6,3.1-2.9,5.7-1.4c1.4,0.8,2.8,1.6,4.3,2.3c0.6,0.2,1.3,0,2,0c-0.3-2.5-1.7-3.4-3.6-4
		c-1.4-0.5-2.8-1.1-3.9-2c-2.3-1.8-4.5-1.3-6.6-0.1c-5.1,3-7.2,7.8-7.8,13.4c-0.6,4.9,0.6,9.6,2.1,14.2c1.3,3.9,2.3,7.9,4.8,11.4
		c0.9,1.2,2,1.4,3.2,1.5c4.9,0.1,9.5,1,13.6,4c0.8,0.6,1.6,1.2,2.4,1.9c0.5-1,1-1.9,1.4-2.7c0.2,0.1,0.3,0.1,0.5,0.2
		c-0.3,1-0.7,2-1,3c-1,3.2-1.8,6.5-2.9,9.6c-2.4,6.7-6.6,12.5-10.4,18.5c-0.7,1.2-0.6,1.6,0.7,1.9c1.1,0.3,2.2,0.7,3.5,1.1
		c-1.5,4-3,7.7-4.6,11.8c2.6-1.4,4.9-2.6,7.1-3.8c1.8-1,4-1.3,4.9-0.4c2.6,2.3,3.9,5.4,4.6,8.7c0.5,2.2,0,2.8-2.3,3.3
		c-1,0.2-2,0.3-3,0.2c-1.9,0-3.8-0.2-5.7-0.3c0,0.1-0.1,0.3-0.1,0.4c0.7,0.3,1.3,0.6,2,0.9c2.9,1.1,5.9,2,8.7,3.3
		c2,0.9,2.3,2.7,0.9,4.3c-1.6,1.8-3.4,3.5-5.2,5.2c-1.5,1.4-3.1,1.1-4.4-0.5c-1.9-2.3-3.7-4.7-5.6-7c-0.2-0.3-0.6-0.3-1-0.5
		c-0.1,0.3-0.4,0.7-0.4,1c0,0.9,0.2,1.8,0,2.7c-0.3,1.8,0.5,2.7,1.9,3.5c6.2,3.7,12.8,5.9,20,6.5c5.4,0.5,10.8,0.2,15.9-1.6
		c2.3-0.8,4.7-1.4,6.9-2.5c2.5-1.2,3.5-3.9,5.1-6.4c-3.1,0.7-5.6,1.4-8.2,1.8c-1.8,0.2-3.7,0.1-5.5-0.2c-0.5-0.1-1.3-0.9-1.3-1.4
		c-0.2-2-0.2-4.1,0-6.1c0.2-2.4,1.4-3.3,3.7-2.8c2,0.4,4,1,6,1.6c0.9,0.2,1.7,0.4,2.6,0.6c0.1-0.2,0.1-0.4,0.2-0.5
		c-0.9-0.6-1.8-1.2-2.8-1.7c-2.4-1.2-2.5-1.4-2.3-4c0.1-1.6,0.1-3.2,0-4.7c-0.1-2.1,0.7-2.8,2.9-2.6c1.9,0.1,3.8,0.1,5.7,0
		c1.4-0.1,2.7-0.5,4.2-0.8c0.1,1.9,0.2,3.5,0.3,5.2c0.8-0.4,1.4-0.8,2.1-1c1.2-0.3,1.8-0.9,1.8-2.3c0-1,0.5-2,0.9-3.4
		C277.8,261.5,278,261.8,278.2,262.2c-0.7,1.1-1.3,2.1-0.7,3.4c2.3-0.7,2.3-0.7,1.1-2.5C278.5,262.8,278.4,262.5,278.2,262.2z
		 M296.3,320.8c5.7-1.6,11-0.4,16.2,2c0.4,0.2,1.1,0,1.6-0.1c-0.2-0.5-0.3-1.1-0.6-1.4c-0.8-0.6-1.7-1.2-2.6-1.5
		c-4.6-1.9-9.4-2.5-14.2-2.8c-1-0.1-2.1,0.2-3,0.6c-1.9,1-3.7,2.3-5.6,3.4c-3,1.7-6.2,3-9.9,2.7c0.5-0.3,1-0.5,1.5-0.7
		c1.9-0.7,3.8-1.2,5.6-2c6.4-3.2,11.9-7.6,15.9-13.5c3.2-4.7,4.6-9.8,1.3-15c-3.7-5.8-8-11.1-13.5-15.4c-1.8-1.4-2-1.4-3.8,0.1
		c-4.6,3.9-9.6,7.3-14.9,10.1c-1.9,1-3.9,1.8-5.1,4.2c-3,6-7,11.4-12.2,15.7c-3.2,2.7-6.5,5.1-10.7,5.8c-3.2,0.5-6.4,1.1-9.7,1.4
		c-3.7,0.3-7.4,0.5-11.1,0.2c-3.7-0.3-7.3-1.4-10.2-3.7c-2.6-2-4.8-4.7-4.5-8.2c0.2-3.5,1.1-7,2-10.4c0.7-2.6,2-5,3.2-7.5
		c0.6-1.1,0.3-1.8-0.4-2.7c-2-2.6-4-5.2-6-7.8c-1.1-1.6-1.4-1.6-2.8-0.2c-4.1,4.5-8.2,8.9-12.1,13.6c-3.9,4.7-7.6,9.5-11.1,14.4
		c-2,2.8-3.7,5.9-5.2,8.9c-2.5,4.9-3.9,10.2-5.3,15.6c-1.7,6.4-1.8,12.5,1,18.6c0.2,0.4,0.2,0.9,0.3,1.4c-0.2,0.1-0.5,0.2-0.7,0.3
		c-0.9-2.1-1.9-4.2-2.9-6.5c-0.5,0.4-1.1,0.8-1.5,1.3c-1.2,1.2-2.3,2.5-3.5,3.7c-5.4,5.6-10.7,11.2-14.8,17.9
		c-1.5,2.5-2.8,5-3.3,7.9c1.4,0.3,2.3,0.1,3.1-1.2c3-5.5,7-10.1,12.1-13.8c1.3-0.9,2.8-1.6,4.2-2.4c0.1,0.2,0.2,0.3,0.3,0.5
		c-6.7,3.8-11.5,9.5-15.6,15.9c0.8,0,1.4-0.1,2-0.3c7.8-2.9,15.2-6.7,22.4-11c6.2-3.7,11.5-8.7,16.5-13.8c1.2-1.2,2.1-2.8,3.1-4.2
		c0.2-0.3-0.1-0.9-0.1-1.3c-0.4,0.1-0.9,0.1-1.2,0.3c-2.2,1.5-4.4,3.1-6.6,4.7c-0.4,0.3-0.8,0.4-1.2,0.6c-0.1-0.1-0.2-0.3-0.3-0.4
		c0.7-0.7,1.2-1.6,2-2.1c3.4-2.5,6.7-4.9,10.2-7.3c2.3-1.5,4.7-3,7.1-4.3c3-1.5,6.2-2.6,9.2-4.3c5.1-2.8,10.7-4.5,16.3-5.8
		c6-1.5,12.1-2.3,18.2-3.3c6.5-1.1,13-0.5,19.5,0.6c2.2,0.4,4.5,0.8,6.3,2.5c-0.4,0.1-0.9,0.1-1.3,0c-1.4-0.3-2.7-0.8-4.1-1
		c-0.4-0.1-1.2,0.1-1.2,0.4c-0.7,2.2-2.4,3.6-3.9,5.2c-1.6,1.7-1.1,3.6,1.1,4.5c1.1,0.4,2.3,0.8,3.4,0.9c5.3,0.7,10.6,0.2,15.9-0.8
		c3.9-0.7,7.7-1.5,11.5-2.3c5.8-1.1,11.6-2.2,17.4-3.4c0.4-0.1,0.8-0.3,1.6-0.7C306.3,321.4,301.3,321.1,296.3,320.8z M257.9,213
		c0.2-0.2,0.3-0.5,0.5-0.7c3.5,2.4,7,4.9,10.5,7.3c3.6,2.5,7.4,4.8,12.1,3.4c3.1-1,5.6-3.1,7.5-5.7c2.3-3,4.3-6.2,6.5-9.4
		c1.5-2.2,3.2-4.4,4.5-6.8c1-1.9,1.4-4.2,2.1-6.2c1.2-3.5,2.4-7,3.6-10.5c-2.3-1-2.3-1-3.2,1c-1.2,2.4-2.6,4.6-3.8,7
		c-0.2,0.5-0.2,1.3,0.1,1.8c0.8,1.5,1.8,3,0.5,4.6c-1.7,2.1-3.4,4.1-6.3,4.6c-0.6,0.1-1.3,0.7-1.5,1.2c-1.3,2.9-2.4,5.9-3.8,8.7
		c-1.3,2.7-3.5,4.9-6.4,5.7c-4.9,1.4-10.7-1.5-13.4-5.9c-1.1-1.8-2.3-3.5-4.9-3.6c-3.2-0.1-3.6-0.8-3.6-3.9c0-1.4-0.6-2.4-1.8-3.2
		c-1.5-1-3-1.9-4.1-3.2c-1.4-1.6-2.2-0.7-3.4,0.2c3.4,3.9,6.7,7.8,10,11.7c-0.2,0.1-0.3,0.3-0.5,0.4c-0.8-0.8-1.7-1.6-2.4-2.4
		c-2.3-2.7-4.6-5.4-6.9-8.1c-0.9-1.1-1.8-1.4-3-0.4c-1,0.9-2.2,1.6-3.3,2.4c-0.4,0.3-0.9,0.4-1.7,0.8c3.2-5.4,15.1-11,19-9.1
		c-2.6,0.8-5,1.7-7.7,2.6c0.7,0.8,1.1,1.2,1.5,1.6c0.2,0.2,0.3,0.3,0.5,0.4c5,4,10.9,5.4,17.2,5.7c6.2,0.2,11.6-2.4,16.5-5.6
		c3-1.9,5.4-4.8,7.8-7.5c2.1-2.3,3.8-5,4.9-8.3c-2.1,0.2-4,0.3-5.9,0.5c-2.5,0.2-5.1,0.6-7.2-1.5c-0.2-0.2-0.7-0.2-1.2-0.3
		c3.7,8.8-0.9,14.6-8,16.4c-3,0.8-6.1,0.8-8.9-0.7c-4-2.1-6.5-5.3-5.9-10.5c-1.4,1.4-2.3,2.4-3.4,3.3c-0.4,0.3-1.2,0.6-1.6,0.4
		c-3.3-1.3-6.8-1.7-10.3-1.8c-1.4-0.1-2.8,0-4.6,0c1.4-1.6,3.1-1.4,4.8-1.6c-0.9-1.3-1.8-2.5-2.6-3.7c-2.6-4.1-4-8.4-3.1-13.3
		c0.4-2.2,1.2-4.2,3.1-5.5c3-2.1,7.2-1.6,10.2,1.4c4.4,4.5,6.8,9.8,6.8,16.2c0,0.7-0.4,1.4-0.8,2c-0.9,1.3-1.9,2.5-2.8,3.8
		c-0.2,0.3-0.1,0.8-0.2,1.3c0.4-0.2,0.8-0.3,1.1-0.5c1.5-1.4,3-2.8,4.4-4.2c0.9-0.9,1.8-1.9,1.5-3.4c-0.8-3.5-1.5-7-2.3-10.4
		c-1.5-6.2-4.7-11.6-8.1-16.8c-0.7-1.1-2.1-2.1-3.4-2.5c-3.9-1.1-6.9,0.9-9.3,3.5c-3.8,4.1-4.8,9.1-4.2,14.7c0.5,5.1,2,9.9,4,14.5
		c0.3,0.7,0.4,1.5,0.6,2.5c-4.3-1-8-1.1-11.9,0.3c-4.4,1.5-8.4,5.1-8,7.6c1.4-1.1,2.7-2.3,4-3.4c0.1,0.1,0.3,0.3,0.4,0.4
		c-1.1,1.3-2.2,2.7-3.2,4c-1.1,1.4-1.7,3.7-1.3,4.9c0.4-0.5,0.9-1,1.3-1.6c0.3,0.7,0.3,1.2,0.2,1.7c-0.5,2.4,0.3,4.4,1.8,6.1
		c3.2,3.7,7.4,5.5,12,6.7c7.6,1.9,15.3,3.5,23,5.3c1.6,0.4,3.3,1.1,4.4,2.7c-0.4,0.1-0.6,0.3-0.8,0.2c-0.9-0.4-1.8-1-2.8-1.2
		c-5.5-1.3-11-2.5-16.5-3.7c-0.4-0.1-1,0.2-1.3,0.6c-2.2,2.2-3.5,4.9-3.8,8c-0.2,2.1-0.3,4.2,0.9,6.6c1-2.1,1.8-3.8,2.7-5.6
		c0.2,0.1,0.3,0.1,0.5,0.2c-1.2,4.9-0.7,9.5,1.7,14.5c0.3-2.8,0.5-5.1,0.8-7.3c0.2,0,0.3,0,0.5,0c0.3,3.4,0.6,6.8,2.1,9.9
		c5-0.8,23.8-14.9,25.4-19.2C268.8,222.7,264.2,216.7,257.9,213z M371.2,222.7c1.1-0.1,2.5,0,3.8-0.3c2.2-0.4,3.2-2,3.7-4
		c0.4-1.9-0.2-3.5-1.5-4.8c-0.7-0.7-1.6-0.9-2.4-0.1c-0.9,1-1.7,2.1-2.7,3.1c-1.2,1.2-2.4,2-4.2,1c-1.6-0.9-3.4-0.7-5.1-0.1
		c-1.7,0.6-3.3,0.8-5,0.1c-1.6-0.6-3.3-1.1-5-1.6c-7.5-2.4-14.9-4.9-22.4-7.2c-1.4-0.4-2.9-2.3-4.3-1.1c-1.1,0.9-1.5,2.7-2.2,4.2
		c-2.1,4.5-2.5,9.5-3.5,14.3c-0.2,0.9,0.2,1.5,1.3,1.5c4.9,0,9.8,0.1,14.7,0.1c3.4,0,6.8-0.1,10.2-0.1c1.6,0,3.3,0.1,4.9,0.2
		c1,0,1.6-0.3,2-1.4c0.3-1,1.1-1.8,1.6-2.7c0,1-0.5,1.8-0.5,2.6c-0.2,3.5-0.3,7-0.2,10.5c0.1,3-0.1,5.9-1.4,8.6
		c-1.3,2.8-2.5,5.6-3.7,8.4c-0.4,0.9-0.5,1.9-0.7,2.9c2.1,0.2,3.5-0.6,4.3-2c1-1.6,1.6-3.4,2.6-5c1.3-2,2.7-4,4.1-5.9
		c0.4-0.5,1.3-0.7,1.7-0.9c0,1,0,1.7,0,2.5c0.2,3.9,0.5,7.9,0.8,11.8c0.1,1.2,0,2.4,0,3.7c0.2,0.1,0.5,0.2,0.7,0.2
		c0.8-1,1.9-1.9,2.4-3.1c1.8-4,1.9-8.4,2.1-12.7c0.1-2,0-4.1,0-6.4c5.2,4.9,5.6,11,6.3,17.3c0.9-1.1,1.7-2.1,2-3.3
		c0.7-2.9,0.8-5.8,0.2-8.8c-1.3-5.9-2.4-11.9-3.7-17.9C372,225.2,371.6,224,371.2,222.7z M239.3,181.4c-0.2,0.2-0.3,0.4-0.5,0.6
		c-2.6-0.1-4.8-1.2-6.9-2.9c0.3,0.9,0.7,1.6,1.1,2.4c0.3,0.5,0.4,1.1,0.6,1.6c-0.6,0.1-1.2,0.3-1.8,0.2c-2.4-0.3-4.7-0.3-6.9,1
		c-0.6,0.4-1.3,0.7-2,1c0.1,0.2,0.2,0.4,0.2,0.6c1.2-0.1,2.4-0.3,3.7-0.4c-2,1.8-3.8,3.3-5.6,4.9c-2.4,2-3.5,4.7-3.8,7.7
		c0,0.5,0.4,1,0.6,1.6c0.7-1.5,1.2-2.6,1.7-3.8c0.2,0,0.3,0.1,0.5,0.1c-1.1,4.7,1.6,7.8,4.4,10.9c-0.2-0.9-0.6-1.6-1-2.4
		c-0.5-1-1.2-2.1-1.3-3.2c-0.1-1.6,0.3-3.2,0.6-5c-1.2-1-1.2-1.4-0.3-3.2c2.8-5.8,14.3-9.7,19.1-7.3c0.2,0.1,0.6-0.1,1-0.1
		c-0.3-0.6-0.6-1-0.8-1.5c-2.7-6.7-4.6-13.5-3.3-20.9c1-5.9,3.7-10.5,9.4-12.7c2.7-1.1,6.5-0.6,8.2,1.9c1.3,2,2.7,3.8,3.9,5.8
		c3,5.2,5.5,10.7,7,16.6c0.1,0.6,0.3,1.1,0.6,1.9c3.1-3.7,6.9-4.3,11-3.1c0.1-0.2,0.1-0.4,0.1-0.5c-2.5-8.2-3.3-16.6-2.1-25.2
		c0.6-4,3.7-7.2,7.7-7.6c0.8-0.1,1.5,0,2.4,0c-2-2.4-10-5.1-12.1-4.2c2.1,4.6,1.9,8.5-0.7,10.7c-0.4-0.3-0.7-0.6-0.8-0.7
		c-1.3,2-2.4,4-3.8,5.8c-0.7,1-2,2-3.1,0.1c-1.3,1.4-1.9,0.2-2.4-0.6c-2-3-4.1-6-7.3-8c-0.3-0.2-0.4-0.6-0.5-0.9
		c0.3-0.1,0.4-0.1,0.5-0.1c0.3,0.1,0.5,0.3,0.7,0.4c2.9,1.9,5.3,4.2,7,7.3c0.2,0.3,0.7,0.5,1,0.8c0.1-0.5,0.4-1,0.3-1.4
		c0-0.4-0.3-0.8-0.5-1.3c-0.4-1.3-0.8-2.5-1.3-3.8c0.2-0.1,0.4-0.2,0.6-0.2c1.2,2.5,2.3,5,3.6,7.7c4.3-4.1,4.1-8.8,2.2-13.8
		c0.2,0,0.4-0.1,0.6-0.1c1,2.4,2,4.8,3,7.5c2.6-4.3-0.8-10.9-5.8-11.9c1.8-1.7,3.8-2.1,6.4-1.7c-1.4-2.2-3.3-2.7-5.2-2.3
		c-1.8,0.4-3.5,1.3-5.2,1.9c0.5-3.2,0.6-6.5-1.5-9.3c-0.4,2.5-0.5,4.9-1.1,7.2c-0.7,2.9-2.8,4.8-4.3,4.9c0.6-0.5,1.1-1.3,1.4-2.1
		c0.2-0.5,0.4-1.1,0.2-1.5c-1.2-2.5-2.5-4.9-3.9-7.3c-0.9-1.6-1.7-1.6-2.9-0.1c-3.9,4.7-5.6,10.2-5.3,16.3c0.1,1.6,0,3.3,2.4,3.1
		c0,0,0.1,0.2,0.1,0.3c0,0.1,0,0.1-0.1,0.2c-0.2,0.2-0.4,0.3-0.7,0.5c-5.7,4-9.2,9.5-10.4,16.2c-1.1,5.9-1.3,12.1-1.9,18.1
		c-0.1,1.4,0.3,2.7,2,3C238.6,181,239,181.3,239.3,181.4z M304.6,170.9c-0.4-1.6-0.8-2.8-1-4c-1.1-5.8-2.8-11.4-5.5-16.6
		c-2.6-4.8-6-8.8-12.3-8.6c-4,0.1-7.9,2.9-8.4,6.6c-0.5,3.7-1.2,7.4,0,11.1c0.1,0.4,0.1,0.8,0.1,1.2c0.5,6,2,11.8,4.1,17.4
		c0.2,0.6,1.1,1.1,1.7,1.3c2.8,0.7,5.4,1.7,7.6,3.5c0.4,0.3,1.1,0.7,1.5,0.6c4-1.2,8.1-1.1,12.1-0.5c2,0.3,3.9,1,5.8,1.5
		c-0.1,0.3-0.2,0.6-0.2,0.9c-0.8-0.2-1.6-0.4-2.4-0.6c-0.8-0.2-1.5-0.4-1.9,0.7c-1.7,5-3.5,10.1-5.3,15.1c-0.4,1.1-1,2.1-1.6,3.1
		c-1.3,2.1-2.7,4.2-4.1,6.3c0.5,0.1,0.8,0,1-0.2c6.7-4.8,13.3-9.8,20.1-14.5c4.4-3,8.6-6.3,10.6-11.4c3.4-8.3,0.7-13.7-7.5-15.8
		C314.2,166.7,309,166.5,304.6,170.9z M264.4,290.9c0-0.2-0.1-0.3-0.1-0.5c-18.1,8-35.2,6.8-50.9-5.8c-0.2,0.3-0.6,0.7-0.8,1.2
		c-1.9,4.4-4,8.8-4.7,13.6c-0.4,3.2,0,6.2,2.1,8.8c2.6,3.2,6.3,4.6,10.1,5c5.2,0.5,10.5,0.7,15.7,0.3c4.4-0.3,8.7-1.6,12.4-4.3
		c5-3.6,9.1-8.2,12.8-13.1C262.3,294.5,263.3,292.7,264.4,290.9z M211.1,174.6c-1-0.5-1.5-0.9-2.1-1.1c-4.9-1.6-9.8-3-14.7-4.6
		c-3.4-1.1-6.7-2.4-10-3.6c-0.3-0.1-0.7-0.6-0.7-1c-0.1-1.3,0-2.7-0.1-4c-0.3-2.3,0.1-4.2,1.8-5.9c0.7-0.7,1.2-1.8,1.3-2.8
		c0.2-1.2-0.7-2.1-1.8-2c-1.3,0-2.9,0.1-3.9,0.8c-2.2,1.7-2.1,4.5-2.2,7c0,0.5-0.3,1-0.5,1.4c-1.2,1.7-2.4,3.4-3.6,5.1
		c0.6,0.3,0.9,0.5,1.4,0.8c-5.4,2.6-7.1,7-6.3,12.5c0.4,2.9,0.3,5.6-0.8,8.4c-1.2,3.1-1,6.3,0.3,9.3c0.3,0.8,1,1.4,1.6,2.2
		c0.4-0.5,0.5-0.5,0.5-0.6c0-0.5,0-1,0-1.5c0.2-3.6,0.5-7.1,2.8-10.1c0.8-1,1.7-1.7,3-1.5c0.1,0.7,0.1,1.3,0.3,1.8
		c0.6,1.8,1.3,3.6,1.9,5.4c0.8,2.3,1.3,4.6,2.3,6.8c0.4,1,1.4,1.8,2.1,2.7c0.2-0.1,0.3-0.2,0.5-0.3c-0.1-0.6-0.2-1.2-0.3-1.8
		c-0.4-4.2-1.4-8.4-0.9-12.5c0.3-2.9-0.7-4.2-2.5-5.7c-0.3-0.2-0.5-0.4-0.8-0.7c-0.8-0.9-1.6-1.7-2.4-2.6c0.1-0.1,0.3-0.3,0.4-0.4
		c7.8,6.4,15.7,12.7,24.4,18.6c-0.3-4.3,0.2-7.9,1.6-11.3C205.3,179.7,207.5,176.8,211.1,174.6z M216,267.7
		c-0.2-0.2-0.4-0.3-0.6-0.5c0.3-0.9,0.5-1.9,0.8-2.8c1.1-2.9,2.2-5.7,3.3-8.6c0.1-0.3,0.1-1-0.1-1.2c-1-0.9-3.9-0.6-4.8,0.5
		c-1.7,1.9-3.4,3.8-5,5.8c-0.3,0.3-0.4,0.8-0.4,1.2c0.2,1.7,0.4,3.4,0.6,5.1c0.2,1.9-0.6,2.8-2.5,2.5c-1.1-0.1-2.1-0.2-3.2-0.3
		c3.5,5.6,6.8,11.1,12.1,15c0.3-1.7,0.1-3.4,0.3-5c0.2-1.4,1-1.6,2-0.6c1.1,1.1,2,2.3,3,3.4c1.7,1.9,3.3,3.8,5.1,5.9
		c2.2-2.1,4.1-3.8,5.8-5.6c1.7-1.8,1.4-3.2-1-4.1c-2.8-1.1-5.7-2-8.6-3.1c-1.1-0.4-2.2-0.9-3.3-1.4c0-0.2,0-0.4,0.1-0.6
		c1-0.2,1.9-0.7,2.9-0.7c2.6-0.1,5.2,0,7.8,0c1.8,0,2.1-0.3,1.9-2.1c-0.3-2.8-1.3-5.3-3.2-7.3c-0.4-0.4-1.3-0.8-1.8-0.7
		c-1.9,0.6-3.7,1.3-5.5,2.2C219.8,265.6,217.9,266.7,216,267.7z M288.5,219.7c-0.2,0.4-0.3,0.8-0.6,1c-2.4,1.9-4.9,3.9-8,4.2
		c-1.8,0.2-2.9,1-3.9,2.2c-0.6,0.7-1.2,1.4-1.8,2.1c-4.7,5.1-10.6,8.6-16.2,12.7c-1.6,1.1-3.4,1.9-5.2,2.8c-1.7,0.8-1.9,1.5-0.6,2.9
		c1,1.1,2.2,2.1,2.9,3.3c1.4,2.3,2.7,4.7,3.9,7.1c0.5,0.9,0.9,1,1.7,0.4c1.7-1.4,3.4-2.8,5.1-4.3c1.7-1.5,1.6-2.3,0.1-4
		c-1.3-1.4-2.5-2.9-3.8-4.4c-0.8-1-1.7-1.7-3.2-1.2c-1.4,0.5-3,0.6-4.5,0.9c0-0.2-0.1-0.3-0.1-0.5c0.6-0.2,1.1-0.4,1.7-0.6
		c3.3-0.9,6.6-1.6,9.9-2.6c3.8-1.1,7.6-2.4,11.3-3.7c3.3-1.1,6.6-2.1,9.7-3.5c2.1-0.9,3.9-2.5,5.7-3.9c0.9-0.7,2-1.7,1-3.2
		C292.1,224.8,290.5,222.5,288.5,219.7z M267.1,270.7c0-0.2-0.1-0.3-0.1-0.5c1.4-0.7,3.2-1.1,4-2.2c0.7-1.2,0.4-3,0.5-4.6
		c-2.1,0.3-3.7,0.7-5.4,0.8c-1.7,0.1-3.4,0-5.1,0c-0.2,2.6-0.4,5.2-0.5,7.8c0,0.3,0.4,0.8,0.7,1c0.8,0.5,1.7,0.9,2.5,1.4
		c1.8,1.1,3.6,2.2,5.4,3.3c-0.1,0.2-0.1,0.4-0.2,0.6c-1.1-0.1-2.2-0.2-3.3-0.4c-3.4-0.7-6.8-1.5-10.2-2.4c-1-0.3-1.7-0.3-1.8,1
		c-0.1,2-0.2,4-0.3,6c-0.1,1.3,0.6,2,1.7,1.8c3.8-0.6,7.5-1.3,11.2-2c0.9-0.2,1.7-0.2,2.6-0.4c-0.2,0.9-0.4,1.8-0.7,2.6
		c-0.3,0.7-0.8,1.2-1.2,1.9c-0.2,0.3-0.3,0.6-0.6,1.4c3-1.6,5.6-3,8.2-4.3c1.1-0.6,1.4-1.4,1.3-2.6c-0.2-4,0.7-4.6,4.4-3.3
		c0.1,0,0.2,0,0.3,0.1c1.2,0.7,2,0.2,3-0.6c3.3-2.5,6.6-5.2,11-5.6c0.2,0,0.4-0.2,0.8-0.5c-1.4-0.4-2.7-0.8-3.9-1.1
		c-0.4-0.1-0.9-0.2-1.3-0.1c-1.7,0.6-3.4,1.4-5.2,2c-1.6,0.5-3.3,0.8-5.3,1.3c1-3.1,3.9-3.9,5.3-5.9c-1-1.7-2.4-2.2-4-1.7
		c-1.4,0.4-2.7,1-4,1.3c-1.7,0.4-2.5,1.3-2.4,3.2c0.1,1.2-0.1,2.4-0.3,3.6c0,0.3-0.3,0.7-0.6,0.9c-0.1,0.1-0.6-0.2-0.8-0.4
		c-0.9-1.3-1.7-2.7-2.6-4c0.1-0.1,0.2-0.2,0.4-0.3c0.7,0.8,1.5,1.6,2.5,2.6c0-1.4,0-2.5,0-3.8C271.1,269.3,269.1,270,267.1,270.7z
		 M248.8,243.2c-0.9,2.4-1.3,2.6-3.3,0.9c-1.9-1.6-3.7-3.4-5.2-5.4c-2.1-2.8-3.8-5.9-5.8-9c-0.3,0.4-0.7,0.9-1.2,1.5
		c-1.4,1.7-1.3,2.4,0.3,3.9c1.7,1.6,3.3,3.1,4.9,4.8c0.5,0.5,0.8,1.3,1.1,2c-0.8,0.3-1.6,1-2.4,1c-2.1,0-4.2-0.2-6.3-0.4
		c-1.2-0.1-1.8,0.2-1.7,1.4c0.1,1.7,0.2,3.4,0.5,5.1c0.6,2.9,0.9,3,3.8,2.2c0.6-0.2,1.2-0.5,1.7-0.7c2.6-1,5.1-2.1,8.2-3.3
		c-0.4,1-0.6,1.6-0.9,2.1c-1.6,2.7-3.2,5.3-4.8,8c-0.4,0.8-0.5,1.5,0.3,2.2c2.8,2.3,5.9,3.6,9.5,3.7c1.4,0,2.5-0.5,2.5-2.1
		c0.1-1.4,0.2-2.7,0.2-4.1c0.1-2.5-0.5-5.1,0.2-7.4C251.4,246.8,249.5,245.3,248.8,243.2z M315.6,234.4c-0.2-0.1-0.4-0.1-0.6-0.2
		c-0.8-4.5-1.6-9.1-2.5-14.1c-2.7,0.9-5.2,1.7-7.6,2.5c-1.2,0.4-1.3,1.1-0.7,2.1c1.1,1.7,2.2,3.4,3.4,5.1c0.9,1.3,1.9,2.6,2.7,3.9
		c0.2,0.4,0.2,1.1,0,1.4c-0.2,0.2-0.9,0.2-1.3,0.1c-0.6-0.2-1.2-0.6-1.8-0.9c-2.6-1.3-5.2-2.6-8.3-4.2c0.2,1.9,0.4,3.3,0.5,4.7
		c0,0.9,0.3,1.2,1.2,1.4c5.3,1.1,10.6,2.4,15.4,5.1c1.4,0.8,2.7,1.7,4.4,2.8c-2.5-7.8-1.2-15.1,0-22.6c-0.8-0.1-1.5-0.1-2.2-0.2
		c-0.1,0.3-0.2,0.5-0.2,0.7c-0.4,3.5-0.9,7-1.4,10.4C316.3,233.3,315.9,233.8,315.6,234.4z M261.6,177.4c0.1-0.2,0.2-0.3,0.2-0.5
		c-1-4.3-3.1-8.1-6.8-10.6c-3.3-2.2-7.8-2.7-9.9,2.5c-0.6,1.6-0.7,3.4-0.7,5.1c-0.1,3.1,1.2,6,2.6,8.7c1.7,3.3,4,5.8,8.3,5.4
		c-0.2-0.4-0.4-0.7-0.6-1c-2.5-3.6-2.5-7.9,0-10.5c1.1-1.2,2.5-1.6,4-0.9C259.7,176.2,260.6,176.9,261.6,177.4z M265.8,187.8
		c-0.1,4.7,1.7,7.2,4.7,8.2c5.2,1.7,9.9,0.9,14-2.9c2.3-2.1,3.3-5.6,2.2-8.2c-1.3-2.9-4.4-4.4-7.5-4.7c-2.8-0.2-5.5,0.3-8,1.7
		C268.3,183.5,265.9,185.6,265.8,187.8z M272,132.8c0,0.2-0.1,0.3-0.1,0.5c1.4,1.3,3.1,1.7,5.1,1.5c1.4-0.2,2-1,1.5-2.1
		c-0.5-1.3-1.3-2.5-2.3-3.4c-2.5-2.2-5.2-4.2-7.7-6.3c-0.4-0.3-0.7-0.8-1-1.3c3.9,2.8,7.6,5.6,11.1,8.6c0.8,0.7,1.3,2.2,1.2,3.2
		c-0.2,1.7,1,1.8,1.9,1.9c0.4,0,1.3-1.1,1.2-1.8c0-1.1-0.4-2.4-1-3.3c-1.1-1.8-2.5-3.3-3.7-5c-2.6-3.7-6.4-5.7-10.4-7.3
		c-1-0.4-2.4-0.5-3.2,0c-0.5,0.3-0.3,1.9-0.3,3c0,0.4,0.1,1,0.3,1.3c1.4,2.2,1.5,4.6,0.9,7.5c2.2-1.6,4.3-1.9,6.5-1.4
		c2.6,0.6,4,2.6,3.4,4.7C274.3,133.1,273.1,133,272,132.8z M233.6,214.5c-0.2,11.1,4.4,19.7,12,27.1c-0.7-2.6-1.4-5.2-2.2-7.9
		c-0.4,0.5-0.8,0.9-1.1,1.3c-2.6-2.5-3.1-11.1,1.9-18.2C240.6,216.1,237.2,215.3,233.6,214.5z M305.3,205.1
		c-0.2-0.1-0.4-0.1-0.6-0.2c-3.9,3.2-8.4,5.7-12,9.5c2.4,1,4.4,1.9,6.5,2.8c1.2,0.5,2.4,1.1,3.6,1.5c1.1,0.4,1.9,0,2.1-1.3
		c0.2-1.2,0.4-2.4,0.5-3.5C305.4,210.9,305.3,208,305.3,205.1z M329.9,230.2c-0.6-0.2-0.8-0.3-1-0.3c-2.6,0-5.2,0-7.8,0.1
		c-0.4,0-1,0.7-1.1,1.1c-0.2,1.3-0.3,2.6-0.4,3.9c-0.1,3.3,0.7,6.4,1.5,9.6c0.2,0.1,0.4,0.1,0.6,0.2
		C324.4,239.9,327.1,235.1,329.9,230.2z M305.5,168.6c0.6-0.2,1.1-0.5,1.6-0.7c0.5-0.2,1-0.6,1.5-0.7c6.9-1.6,13.5-1.8,18.9,3.9
		c0.3,0.3,1.1,0.1,1.7,0.1c0-0.5,0.1-1.1-0.1-1.4c-2.2-2.3-4.6-4.1-7.9-4.7c-1.8-0.3-3.5-0.6-5.3-0.9c0-0.2,0-0.3-0.1-0.5
		c2-0.3,4-0.6,6-0.9c0-0.2-0.1-0.5-0.1-0.7c-3.5-1-6.8,0.3-10.3,1.4c0.4-1.2,0.7-2,1.1-2.8c-0.2-0.2-0.5-0.4-0.7-0.6
		c-0.2,0.5-0.3,1.1-0.6,1.4c-1.6,1.5-3,3.1-4.8,4.2C304.9,166.5,304.5,167.1,305.5,168.6z M215.9,197.9c-1.6,0.9-2.9,1.7-4.2,2.4
		c-0.9,0.5-1,1.2-0.7,2.1c1.1,3.2,3.2,5.7,5.7,7.8c0.3,0.3,1.2,0.3,1.5,0.1c1.1-0.8,2.1-1.7,3.1-2.6c0.2-0.2,0.4-0.6,0.3-0.7
		c-1-1.7-1.6-3.7-3-4.8C217.2,201.1,216.3,200,215.9,197.9z M222.9,183.3c-1.9-1.1-3.6-2-5.3-3c-1-0.5-1.9-0.6-2.6,0.6
		c-0.7,1.3-1.9,2.4-2.3,3.7c-1.1,3.9-1.8,4.5,2.5,5.4c0.3,0.1,0.6,0.1,0.8,0.2c2.5,0.5,4-0.3,5-2.7c-1.8-0.6-1.9-1.2-0.6-2.5
		C221.2,184.5,222,184,222.9,183.3z M308.6,202.1c2.5,2.6,4.9,5.2,7.4,7.6c0.2,0.2,1.1,0.1,1.2-0.2c1-1.8,1.9-3.7,2.7-5.7
		c0.3-0.9,0-1.8-1.3-2.2c-1.6-0.5-3.1-1.4-4.7-1.9c-0.6-0.2-1.4-0.2-1.9,0.1C310.7,200.5,309.7,201.4,308.6,202.1z M280.3,215.9
		c-0.1-0.1-0.3-0.1-0.4-0.2c-0.3-0.9-0.4-2-1-2.6c-1.2-1.2-2.9-0.8-3.9,0c-0.9,0.8-1.4,2.3-1.5,3.5c0,0.4,1.6,1.3,2.5,1.4
		c4.4,0.8,7.7-0.8,10.1-5.6c0.3-0.5,0.4-1.7,0.2-1.8c-0.7-0.4-1.6-0.7-2.3-0.5c-1.6,0.4-2.5,1.6-3,3.2
		C280.8,214.3,280.5,215.1,280.3,215.9z M297,272.1c-3,0-5.6,0.7-7.7,2.8c1.6,1.4,3.1,2.8,4.7,4.3
		C295.4,276.9,297.1,274.9,297,272.1z M289.8,200.3c1.2,0.8,2.4,2.2,3.8,1.4c1.6-1,3.1-2.4,4.3-3.9c0.3-0.4-0.6-1.8-1-2.8
		c-0.6,0.2-1.3,0.3-1.8,0.7C293.4,197.2,291.8,198.7,289.8,200.3z M259.8,204.2c-0.2,3.3,0.5,4.2,3.4,4.5c0.5,0.1,1,0.1,1.5,0.2
		c3.3,0.7,3.6,0.6,4.1-2.4C265.8,205.8,262.9,205,259.8,204.2z M202.4,267.8c2.1,0.3,3.8,0.6,5.5,0.7c0.3,0,0.9-0.7,0.8-1.1
		c-0.1-1.5-0.3-3.1-0.6-5C206.3,264.2,204.6,265.8,202.4,267.8z M279.1,174.5c-1.3,0-2.2,0-3.2,0c-3.1-0.2-5.8,0.6-7.7,3.4
		c-0.2,0.3-0.2,0.8-0.3,1.7c3.7-2.8,7.3-4.2,11.8-3.3C279.4,175.4,279.2,174.9,279.1,174.5z M267.5,242.6c2,1.4,3.6,2.5,5.3,3.7
		c0.5-2,0.9-3.7,1.5-5.8C271.8,241.2,269.8,241.8,267.5,242.6z M301.9,155.8c0.9,3.2,1.7,6.3,2.7,10c0.7-0.9,1.6-1.5,1.5-1.9
		C305.6,160.9,304.2,158.1,301.9,155.8z M268.5,181c3.8-2.1,7.8-2.9,12.1-2.8c-1.7-1.3-3.7-0.9-5.5-0.8
		C272.5,177.5,270.2,178.8,268.5,181z M192.9,191.7c-0.1-1.9-3.3-4.9-5.5-5.1C189,188.7,189.6,191.4,192.9,191.7z M282.4,271
		c0.1,0.2,0.1,0.3,0.2,0.5c2.1-0.7,4.1-1.3,6.2-2c0-0.2,0-0.5-0.1-0.7c-1-0.2-2.2-0.8-3-0.4C284.5,268.9,283.5,270.1,282.4,271z
		 M307.5,209.5c-0.2,0-0.4,0.1-0.6,0.1c-0.1,1.4-0.2,2.9-0.3,4.8c1.4-0.7,2.3-1.2,3.4-1.7C309.1,211.4,308.3,210.5,307.5,209.5z
		 M330.3,207.1c0.2-0.2,0.4-0.3,0.6-0.5c-0.5-1-1-2-1.5-3c-0.8,0.7-1.6,1.4-2.4,2.1c0.1,0.2,0.2,0.3,0.3,0.5
		C328.2,206.5,329.3,206.8,330.3,207.1z M277.4,277.6c-0.1,1.4-0.3,2.6-0.4,3.8c0.1,0.1,0.3,0.2,0.4,0.3c1-0.8,2.1-1.6,3.3-2.6
		C279.5,278.5,278.7,278.2,277.4,277.6z M228.9,181.5c0-0.2,0.1-0.3,0.1-0.5c-1.1-0.3-2.2-0.6-3.3-1c-0.1,0.1-0.1,0.2-0.2,0.4
		c0.3,0.5,0.7,1.1,1,1.6C227.4,181.8,228.2,181.7,228.9,181.5z"/>
	<path class="st2" d="M296.3,320.8c5,0.3,10,0.6,15.1,3c-0.8,0.4-1.2,0.6-1.6,0.7c-5.8,1.1-11.6,2.2-17.4,3.4
		c-3.8,0.7-7.7,1.6-11.5,2.3c-5.3,0.9-10.5,1.5-15.9,0.8c-1.2-0.1-2.3-0.5-3.4-0.9c-2.1-0.8-2.6-2.8-1.1-4.5c1.5-1.6,3.2-3,3.9-5.2
		c0.1-0.2,0.9-0.4,1.2-0.4c1.4,0.3,2.7,0.7,4.1,1c0.4,0.1,0.8,0.1,1.3,0c-1.8-1.7-4.1-2.1-6.3-2.5c-6.5-1.1-13-1.7-19.5-0.6
		c-6.1,1-12.3,1.8-18.2,3.3c-5.6,1.4-11.1,3-16.3,5.8c-3,1.6-6.2,2.7-9.2,4.3c-2.5,1.3-4.8,2.7-7.1,4.3c-3.5,2.3-6.8,4.8-10.2,7.3
		c-0.8,0.6-1.3,1.4-2,2.1c0.1,0.1,0.2,0.3,0.3,0.4c0.4-0.2,0.9-0.4,1.2-0.6c2.2-1.6,4.4-3.2,6.6-4.7c0.3-0.2,0.8-0.2,1.2-0.3
		c0,0.5,0.3,1,0.1,1.3c-1,1.5-1.9,3-3.1,4.2c-5,5.2-10.3,10.1-16.5,13.8c-7.1,4.3-14.5,8.1-22.4,11c-0.6,0.2-1.3,0.3-2,0.3
		c4-6.4,8.8-12.1,15.6-15.9c-0.1-0.2-0.2-0.3-0.3-0.5c-1.4,0.8-2.9,1.5-4.2,2.4c-5.1,3.7-9.1,8.3-12.1,13.8
		c-0.7,1.3-1.6,1.5-3.1,1.2c0.5-3,1.8-5.5,3.3-7.9c4-6.7,9.3-12.4,14.8-17.9c1.2-1.2,2.3-2.5,3.5-3.7c0.5-0.5,1-0.8,1.5-1.3
		c1,2.3,2,4.4,2.9,6.5c0.2-0.1,0.5-0.2,0.7-0.3c-0.1-0.5-0.1-1-0.3-1.4c-2.8-6.1-2.6-12.2-1-18.6c1.4-5.3,2.7-10.7,5.3-15.6
		c1.6-3.1,3.2-6.1,5.2-8.9c3.5-4.9,7.2-9.7,11.1-14.4c3.9-4.7,8-9.1,12.1-13.6c1.3-1.5,1.6-1.4,2.8,0.2c1.9,2.6,3.9,5.2,6,7.8
		c0.7,0.9,0.9,1.6,0.4,2.7c-1.2,2.4-2.5,4.9-3.2,7.5c-1,3.4-1.8,6.9-2,10.4c-0.2,3.5,2,6.1,4.5,8.2c3,2.3,6.6,3.4,10.2,3.7
		c3.7,0.3,7.4,0.1,11.1-0.2c3.2-0.2,6.5-0.8,9.7-1.4c4.2-0.7,7.6-3.2,10.7-5.8c5.2-4.4,9.2-9.8,12.2-15.7c1.2-2.4,3.2-3.2,5.1-4.2
		c5.3-2.9,10.3-6.2,14.9-10.1c1.8-1.5,2-1.5,3.8-0.1c5.5,4.3,9.8,9.6,13.5,15.4c3.3,5.1,1.9,10.3-1.3,15
		c-4.1,5.9-9.5,10.3-15.9,13.5c-1.8,0.9-3.7,1.4-5.6,2c-0.5,0.2-1,0.4-1.5,0.7c3.6,0.3,6.8-1,9.9-2.7c1.9-1.1,3.7-2.4,5.6-3.4
		c0.9-0.5,2-0.7,3-0.6c4.9,0.4,9.7,1,14.2,2.8c0.9,0.4,1.8,0.9,2.6,1.5c0.4,0.3,0.4,0.9,0.6,1.4c-0.5,0-1.2,0.3-1.6,0.1
		C307.3,320.4,302,319.3,296.3,320.8z"/>
	<path class="st3" d="M278.2,262.2c-0.2-0.4-0.5-0.7-1-1.4c-0.4,1.4-0.9,2.4-0.9,3.4c0,1.3-0.6,2-1.8,2.3c-0.7,0.2-1.3,0.6-2.1,1
		c-0.1-1.7-0.2-3.3-0.3-5.2c-1.4,0.3-2.8,0.7-4.2,0.8c-1.9,0.1-3.8,0.2-5.7,0c-2.1-0.2-3,0.6-2.9,2.6c0.1,1.6,0.1,3.2,0,4.7
		c-0.2,2.7-0.1,2.9,2.3,4c1,0.5,1.9,1.1,2.8,1.7c-0.1,0.2-0.1,0.4-0.2,0.5c-0.9-0.2-1.7-0.4-2.6-0.6c-2-0.5-4-1.1-6-1.6
		c-2.3-0.5-3.5,0.4-3.7,2.8c-0.1,2-0.1,4.1,0,6.1c0,0.5,0.8,1.4,1.3,1.4c1.8,0.2,3.7,0.4,5.5,0.2c2.6-0.4,5.2-1.1,8.2-1.8
		c-1.6,2.6-2.6,5.2-5.1,6.4c-2.2,1.1-4.6,1.7-6.9,2.5c-5.2,1.8-10.5,2.1-15.9,1.6c-7.2-0.6-13.8-2.8-20-6.5
		c-1.4-0.8-2.2-1.8-1.9-3.5c0.2-0.9-0.1-1.8,0-2.7c0-0.3,0.3-0.7,0.4-1c0.3,0.2,0.8,0.2,1,0.5c1.9,2.3,3.8,4.6,5.6,7
		c1.3,1.6,2.9,1.9,4.4,0.5c1.8-1.6,3.5-3.3,5.2-5.2c1.5-1.6,1.1-3.4-0.9-4.3c-2.8-1.3-5.8-2.2-8.7-3.3c-0.7-0.3-1.3-0.6-2-0.9
		c0-0.1,0.1-0.3,0.1-0.4c1.9,0.1,3.8,0.2,5.7,0.3c1,0,2,0,3-0.2c2.2-0.4,2.8-1,2.3-3.3c-0.7-3.3-2-6.4-4.6-8.7
		c-0.9-0.9-3.1-0.6-4.9,0.4c-2.2,1.3-4.5,2.4-7.1,3.8c1.6-4.1,3-7.8,4.6-11.8c-1.3-0.4-2.4-0.8-3.5-1.1c-1.3-0.3-1.4-0.7-0.7-1.9
		c3.8-6,8-11.8,10.4-18.5c1.1-3.1,1.9-6.4,2.9-9.6c0.3-1,0.7-2,1-3c-0.2-0.1-0.3-0.1-0.5-0.2c-0.4,0.9-0.9,1.7-1.4,2.7
		c-0.9-0.7-1.6-1.3-2.4-1.9c-4-3-8.7-3.9-13.6-4c-1.2,0-2.3-0.2-3.2-1.5c-2.5-3.4-3.6-7.4-4.8-11.4c-1.5-4.6-2.7-9.3-2.1-14.2
		c0.6-5.6,2.7-10.4,7.8-13.4c2.1-1.3,4.4-1.7,6.6,0.1c1.1,0.9,2.5,1.6,3.9,2c1.9,0.6,3.3,1.5,3.6,4c-0.6,0-1.4,0.2-2,0
		c-1.5-0.6-2.9-1.4-4.3-2.3c-2.6-1.6-4.2-1.2-5.7,1.4c-1.3,2.2-2.3,4.4-2.3,7c0,1.1,0.4,1.8,1.5,2.1c1.6,0.4,3.1,0.9,4.8,1.4
		c-0.8,2.4-1.4,4.9-4.2,6.3c-3.8,1.8-4.6,2.9-1.9,7.1c1.3,2,3,3.9,4.7,5.6c0.9,0.9,2.2,1.5,3.4,0.2c0.7-0.8,1.4-1.5,2.2-2.1
		c0.4-0.3,1.4-0.6,1.5-0.5c0.6,0.7,2,1,1.4,2.4c-0.3,0.7-0.7,1.4-0.8,2.2c-0.1,0.5,0.1,1.3,0.5,1.5c2.4,1.5,4.8,3,7.3,4.5
		c0.2-0.2,0.3-0.5,0.5-0.7c-2.5-1.5-5-3-7.4-4.5c1.2-3,1-2.7,3.7-1.7c3.5,1.2,4.6,3.2,4.4,6.8c-0.1,2.3,0.6,4.7,1.2,7
		c0.4,1.5,0.2,2.7-0.8,3.9c-2.5,3.2-2.5,3.1,0.3,6.4c1.1,1.3,2.5,2.4,3.8,3.6c0.4,0.4,0.7,0.8,1.3,1.5c-2.5,0-4.7,0.2-6.7,0
		c-2.9-0.3-3.5,0.1-3.3,2.9c0.2,2.1,0.3,4.3,0.9,6.4c0.7,2.6,1.6,2.8,4,1.8c2.2-0.9,4.4-1.7,6.7-2.6c0.2-0.1,0.4,0,0.9,0
		c-1.1,1.9-2.2,3.8-3.2,5.5c-1.8,2.9-1.9,3.6,0.7,5.7c2.9,2.4,6.2,3.8,10.2,3.1c1.8-0.3,2.8-1.2,2.8-3c0.1-2.4,0-4.9,0.1-7.3
		c0-1.6,0.2-3.1,0.4-5c0.6,0.4,1,0.6,1.2,0.8c1.3,2.4,2.6,4.9,3.9,7.3c0.4,0.8,0.9,1.6,1.5,2.2c1.3,1.4,2.6,0.4,3.6-0.3
		c1.9-1.4,3.6-3,5.3-4.6c1.3-1.2,1.3-2.5,0.1-3.9c-1.5-1.8-3.1-3.6-4.6-5.5c-0.2-0.3-0.4-0.6-0.7-0.9c3.2-1.6,4.8-1.3,7.6,1.3
		c0.3,0.3,0.6,0.7,0.9,1c1.8,1.5,3,1.1,3.5-1.2c0.3-1.4,0.6-2.9,1-4.3c0.1-0.4,0.6-0.7,1-0.9c3-1.1,6-2,9-3.2c3.6-1.4,7-3.2,9.4-6.5
		c1.7-2.3,1.5-3.6-0.4-5.7c-1.4-1.6-2.6-3.3-3.8-5c-0.7-1-0.4-1.8,0.3-2.7c0.7-1,1.5-1.3,2.6-0.9c1.5,0.6,2.9,1.3,4.3,1.9
		c1,0.5,1.9,1.1,2.8,1.5c3.5,1.6,4.8,0.9,5.7-2.8c0.2-0.7,0.9-1.3,1.5-1.8c0.2-0.2,0.5-0.2,0.8-0.3c2.3-1.1,2.6-2.1,1.1-4.1
		c-0.6-0.7-1.4-1.2-1.8-2c-0.6-1.3-1.1-2.8-1.5-4.2c-0.1-0.2,0.3-0.8,0.6-0.9c0.3-0.1,0.9,0.1,1.2,0.3c2,1.9,3.9,3.8,5.8,5.8
		c2.1,2.2,2.6,2.4,4.4-0.1c1-1.3,1.5-3,2.2-4.5c0.3-0.7,0.4-1.4,0.7-2.2c1.9,0.3,3.7,0.7,5.8,1c-3.2,5.3-5.7,10.7-6.7,16.9
		c-0.5-0.1-0.8-0.2-1.2-0.2c-1.4-0.2-2.3,0.3-2.4,1.9c-0.2,2.2-0.5,4.5-0.8,6.7c-0.1,0-0.3,0-0.4,0c-0.7-3.1-1.3-6.2-2-9.3
		c-3.9-0.4-7.1,1.2-10.2,3c-0.4,0.2-0.6,1.8-0.3,2.3c1.6,2.6,3.4,5.1,5.2,7.6c0.1,0.2,0.3,0.4,0.2,0.9c-1.3-0.6-2.6-1.3-3.9-1.9
		c-1.5-0.7-3-1.3-4.5-2.1c-1-0.5-1.5-0.2-1.7,0.8c-0.2,1.3-0.2,2.7-0.3,4.1c0,0.4,0,0.9,0,1.4c-2.3,0.1-4.6,0.2-6.4,0.3
		c-0.1,1,0.1,1.7-0.2,2.3c-1.9,4.7-3.9,9.3-5.7,14c-0.7,1.9-1.1,3.9-1.8,5.9c-0.2,0.5-0.9,1.1-1.4,1.1c-2.5-0.2-4.9-0.5-7.4-0.8
		c-1.4-0.2-2.7-0.4-4.1-0.6c-0.3,0-0.7,0.2-1,0.6c2.4,0.5,4.7,1,7.1,1.4c2.7,0.5,5.5,0.8,8.1,1.5c2,0.5,2.5,2.5,1.1,3.9
		c-0.2,0.3-0.8,0.2-1.6,0.3c0.5-0.7,0.7-1,0.9-1.4c-0.1-0.1-0.2-0.2-0.2-0.2C282.5,264.6,280.1,264.1,278.2,262.2L278.2,262.2z"/>
	<path class="st4" d="M257.9,213c6.3,3.6,11,9.7,18.2,11.8c-1.6,4.3-20.4,18.4-25.4,19.2c-1.5-3.1-1.8-6.5-2.1-9.9
		c-0.2,0-0.3,0-0.5,0c-0.2,2.3-0.5,4.6-0.8,7.3c-2.5-4.9-3-9.6-1.7-14.5c-0.2-0.1-0.3-0.1-0.5-0.2c-0.8,1.7-1.7,3.5-2.7,5.6
		c-1.2-2.4-1.1-4.5-0.9-6.6c0.3-3.1,1.6-5.8,3.8-8c0.3-0.3,0.9-0.6,1.3-0.6c5.5,1.2,11,2.4,16.5,3.7c1,0.2,1.8,0.8,2.8,1.2
		c0.1,0.1,0.4-0.1,0.8-0.2c-1.2-1.6-2.8-2.3-4.4-2.7c-7.6-1.8-15.3-3.4-23-5.3c-4.5-1.1-8.8-3-12-6.7c-1.5-1.8-2.3-3.8-1.8-6.1
		c0.1-0.5,0.1-1-0.2-1.7c-0.4,0.5-0.9,1-1.3,1.6c-0.4-1.3,0.2-3.5,1.3-4.9c1.1-1.4,2.1-2.7,3.2-4c-0.1-0.1-0.3-0.3-0.4-0.4
		c-1.3,1.1-2.6,2.2-4,3.4c-0.3-2.5,3.7-6.1,8-7.6c3.9-1.3,7.7-1.2,11.9-0.3c-0.3-1-0.3-1.8-0.6-2.5c-2-4.7-3.5-9.4-4-14.5
		c-0.5-5.5,0.4-10.6,4.2-14.7c2.4-2.6,5.5-4.6,9.3-3.5c1.3,0.4,2.7,1.4,3.4,2.5c3.4,5.2,6.6,10.6,8.1,16.8c0.8,3.5,1.5,7,2.3,10.4
		c0.3,1.5-0.6,2.5-1.5,3.4c-1.4,1.4-2.9,2.8-4.4,4.2c-0.3,0.3-0.7,0.4-1.1,0.5c0-0.4-0.1-1,0.2-1.3c0.9-1.3,1.9-2.5,2.8-3.8
		c0.4-0.6,0.8-1.3,0.8-2c0.1-6.3-2.3-11.7-6.8-16.2c-3-3-7.2-3.5-10.2-1.4c-1.9,1.3-2.7,3.3-3.1,5.5c-0.9,4.9,0.5,9.2,3.1,13.3
		c0.8,1.2,1.7,2.4,2.6,3.7c-1.7,0.2-3.4,0-4.8,1.6c1.8,0,3.2,0,4.6,0c3.5,0.1,7,0.5,10.3,1.8c0.4,0.2,1.2-0.1,1.6-0.4
		c1.1-0.9,2-1.9,3.4-3.3c-0.6,5.2,2,8.4,5.9,10.5c2.8,1.5,5.9,1.5,8.9,0.7c7.1-1.8,11.7-7.6,8-16.4c0.5,0.1,0.9,0.1,1.2,0.3
		c2.1,2.1,4.6,1.7,7.2,1.5c1.9-0.2,3.8-0.3,5.9-0.5c-1.1,3.3-2.8,6-4.9,8.3c-2.4,2.7-4.9,5.5-7.8,7.5c-4.9,3.2-10.3,5.8-16.5,5.6
		c-6.3-0.2-12.2-1.6-17.2-5.7c-0.2-0.1-0.3-0.3-0.5-0.4c-0.4-0.4-0.8-0.8-1.5-1.6c2.7-0.9,5.2-1.7,7.7-2.6c-3.9-1.9-15.8,3.6-19,9.1
		c0.8-0.4,1.3-0.6,1.7-0.8c1.1-0.8,2.3-1.5,3.3-2.4c1.2-1,2-0.7,3,0.4c2.3,2.7,4.6,5.4,6.9,8.1c0.7,0.9,1.6,1.6,2.4,2.4
		c0.2-0.1,0.3-0.3,0.5-0.4c-3.3-3.9-6.7-7.7-10-11.7c1.2-0.9,2-1.8,3.4-0.2c1.1,1.3,2.7,2.3,4.1,3.2c1.2,0.8,1.8,1.8,1.8,3.2
		c0,3.1,0.3,3.8,3.6,3.9c2.7,0.1,3.9,1.8,4.9,3.6c2.6,4.4,8.5,7.2,13.4,5.9c2.9-0.8,5.1-3,6.4-5.7c1.4-2.8,2.5-5.8,3.8-8.7
		c0.3-0.5,1-1.1,1.5-1.2c2.8-0.6,4.6-2.5,6.3-4.6c1.3-1.6,0.3-3.1-0.5-4.6c-0.2-0.5-0.3-1.3-0.1-1.8c1.2-2.4,2.6-4.6,3.8-7
		c1-2,0.9-2,3.2-1c-1.2,3.5-2.4,7-3.6,10.5c-0.7,2.1-1.1,4.3-2.1,6.2c-1.2,2.4-2.9,4.5-4.5,6.8c-2.1,3.1-4.2,6.3-6.5,9.4
		c-1.9,2.6-4.4,4.7-7.5,5.7c-4.7,1.5-8.5-0.8-12.1-3.4c-3.5-2.4-7-4.9-10.5-7.3C258.2,212.6,258,212.8,257.9,213z M243.7,166.2
		c0.9-1.2,1.5-2.6,2.5-3.3c1.1-0.7,2.6-0.6,4.1-0.9c-0.5-1.9-2-1.1-3-1C244.8,161.4,243.2,163.6,243.7,166.2z"/>
	<path class="st2" d="M371.2,222.7c0.4,1.3,0.8,2.5,1.1,3.7c1.2,6,2.4,11.9,3.7,17.9c0.7,3,0.6,5.9-0.2,8.8c-0.3,1.2-1.1,2.2-2,3.3
		c-0.7-6.2-1-12.4-6.3-17.3c0,2.3,0.1,4.4,0,6.4c-0.2,4.3-0.3,8.7-2.1,12.7c-0.5,1.2-1.6,2.1-2.4,3.1c-0.2-0.1-0.5-0.2-0.7-0.2
		c0-1.2,0.1-2.4,0-3.7c-0.2-3.9-0.5-7.9-0.8-11.8c0-0.8,0-1.5,0-2.5c-0.4,0.2-1.3,0.4-1.7,0.9c-1.5,1.9-2.9,3.9-4.1,5.9
		c-1,1.6-1.6,3.4-2.6,5c-0.9,1.4-2.2,2.2-4.3,2c0.2-1,0.3-2,0.7-2.9c1.2-2.8,2.4-5.6,3.7-8.4c1.3-2.8,1.5-5.6,1.4-8.6
		c-0.1-3.5,0-7,0.2-10.5c0-0.8,0.5-1.6,0.5-2.6c-0.6,0.9-1.3,1.7-1.6,2.7c-0.3,1.1-1,1.4-2,1.4c-1.6-0.1-3.3-0.2-4.9-0.2
		c-3.4,0-6.8,0.1-10.2,0.1c-4.9,0-9.8-0.1-14.7-0.1c-1.1,0-1.5-0.5-1.3-1.5c0.9-4.8,1.4-9.8,3.5-14.3c0.7-1.4,1.1-3.2,2.2-4.2
		c1.4-1.2,2.9,0.6,4.3,1.1c7.5,2.3,15,4.8,22.4,7.2c1.7,0.5,3.4,1,5,1.6c1.7,0.6,3.3,0.5,5-0.1c1.7-0.6,3.5-0.8,5.1,0.1
		c1.8,1,3,0.2,4.2-1c0.9-1,1.7-2.1,2.7-3.1c0.8-0.8,1.7-0.6,2.4,0.1c1.3,1.3,2,2.9,1.5,4.8c-0.5,2-1.5,3.6-3.7,4
		C373.7,222.7,372.3,222.6,371.2,222.7z M364.1,220.9c0.5,1.5,1.3,3.1,1.6,4.7c0.3,1.7,0.1,3.5,0.1,5.3
		C367.7,228.3,366.3,221.6,364.1,220.9z"/>
	<path class="st2" d="M239.3,181.4c-0.3-0.2-0.7-0.4-1.1-0.4c-1.8-0.3-2.2-1.6-2-3c0.5-6,0.8-12.1,1.9-18.1
		c1.2-6.7,4.8-12.2,10.4-16.2c0.2-0.2,0.5-0.3,0.7-0.5c0,0,0-0.1,0.1-0.2c0-0.1-0.1-0.3-0.1-0.3c-2.4,0.2-2.3-1.5-2.4-3.1
		c-0.3-6.1,1.4-11.5,5.3-16.3c1.2-1.5,2-1.5,2.9,0.1c1.4,2.4,2.7,4.8,3.9,7.3c0.2,0.4,0,1-0.2,1.5c-0.3,0.8-0.8,1.5-1.4,2.1
		c1.5-0.1,3.6-2,4.3-4.9c0.6-2.3,0.7-4.7,1.1-7.2c2.2,2.8,2,6.1,1.5,9.3c1.7-0.7,3.4-1.6,5.2-1.9c1.9-0.4,3.8,0.2,5.2,2.3
		c-2.6-0.4-4.7,0-6.4,1.7c5.1,1,8.5,7.5,5.8,11.9c-1.1-2.7-2.1-5.1-3-7.5c-0.2,0-0.4,0.1-0.6,0.1c1.9,5,2,9.8-2.2,13.8
		c-1.2-2.7-2.4-5.2-3.6-7.7c-0.2,0.1-0.4,0.2-0.6,0.2c0.4,1.3,0.8,2.5,1.3,3.8c0.1,0.4,0.4,0.8,0.5,1.3c0,0.5-0.2,1-0.3,1.4
		c-0.4-0.3-0.8-0.4-1-0.8c-1.7-3.1-4.1-5.4-7-7.3c-0.2-0.2-0.5-0.3-0.7-0.4c-0.1,0-0.2,0-0.5,0.1c0.2,0.3,0.3,0.8,0.5,0.9
		c3.1,2,5.2,5,7.3,8c0.5,0.8,1.1,2,2.4,0.6c1.1,1.9,2.3,0.8,3.1-0.1c1.4-1.8,2.5-3.8,3.8-5.8c0.1,0.1,0.5,0.4,0.8,0.7
		c2.6-2.2,2.8-6.1,0.7-10.7c2.1-0.9,10.1,1.8,12.1,4.2c-0.9,0-1.7-0.1-2.4,0c-4,0.5-7.1,3.6-7.7,7.6c-1.2,8.5-0.4,16.9,2.1,25.2
		c0,0.1,0,0.2-0.1,0.5c-4.1-1.1-7.9-0.6-11,3.1c-0.2-0.8-0.4-1.3-0.6-1.9c-1.5-5.9-4-11.3-7-16.6c-1.1-2-2.6-3.8-3.9-5.8
		c-1.6-2.5-5.5-3-8.2-1.9c-5.7,2.3-8.4,6.9-9.4,12.7c-1.2,7.4,0.7,14.2,3.3,20.9c0.2,0.5,0.5,0.9,0.8,1.5c-0.4,0.1-0.8,0.2-1,0.1
		c-4.8-2.4-16.3,1.4-19.1,7.3c-0.9,1.8-0.9,2.2,0.3,3.2c-0.2,1.8-0.7,3.4-0.6,5c0.1,1.1,0.8,2.1,1.3,3.2c0.4,0.8,0.8,1.5,1,2.4
		c-2.8-3.1-5.5-6.2-4.4-10.9c-0.2,0-0.3-0.1-0.5-0.1c-0.5,1.2-1.1,2.3-1.7,3.8c-0.3-0.6-0.7-1.1-0.6-1.6c0.3-3,1.4-5.7,3.8-7.7
		c1.8-1.5,3.6-3.1,5.6-4.9c-1.3,0.1-2.5,0.3-3.7,0.4c-0.1-0.2-0.2-0.4-0.2-0.6c0.7-0.3,1.3-0.7,2-1c2.2-1.2,4.5-1.3,6.9-1
		c0.6,0.1,1.2-0.1,1.8-0.2c-0.2-0.5-0.3-1.1-0.6-1.6c-0.4-0.8-0.9-1.5-1.1-2.4c2.1,1.7,4.3,2.8,6.9,2.9
		C239,181.8,239.1,181.6,239.3,181.4z M251.7,142.6c-0.4-1.2-1.1-2.4-1-3.6c0.1-2.1,0.5-4.2,1.1-6.3c0.5-2.1,1.4-4,2.1-6.1
		c0.2-0.8,0.4-1.7,0.3-2.5c0-0.3-0.7-0.5-1.1-0.8c-0.1,0.3-0.4,0.6-0.4,0.8c0.8,1.6-0.2,3-0.6,4.4c-0.9,3.2-1.9,6.4-2.5,9.6
		C249.2,139.8,249.7,141.7,251.7,142.6z"/>
	<path class="st4" d="M304.6,170.9c4.4-4.4,9.6-4.2,14.5-2.9c8.1,2.1,10.9,7.5,7.5,15.8c-2.1,5-6.2,8.3-10.6,11.4
		c-6.8,4.7-13.4,9.6-20.1,14.5c-0.2,0.2-0.4,0.3-1,0.2c1.4-2.1,2.7-4.2,4.1-6.3c0.6-1,1.2-2,1.6-3.1c1.8-5,3.5-10,5.3-15.1
		c0.4-1.1,1.1-0.9,1.9-0.7c0.8,0.2,1.6,0.4,2.4,0.6c0.1-0.3,0.2-0.6,0.2-0.9c-1.9-0.5-3.8-1.2-5.8-1.5c-4-0.6-8.1-0.7-12.1,0.5
		c-0.4,0.1-1.1-0.2-1.5-0.6c-2.3-1.8-4.9-2.8-7.6-3.5c-0.7-0.2-1.5-0.7-1.7-1.3c-2.1-5.6-3.6-11.4-4.1-17.4c0-0.4,0-0.8-0.1-1.2
		c-1.1-3.7-0.5-7.4,0-11.1c0.5-3.7,4.4-6.5,8.4-6.6c6.3-0.1,9.8,3.8,12.3,8.6c2.8,5.2,4.4,10.8,5.5,16.6
		C303.8,168.1,304.2,169.3,304.6,170.9z M291.6,180.1c2.9-3.8,7.7-5,11.8-7.2c-0.1-0.2-0.1-0.3-0.2-0.5c-1.5,0.2-3.1,0.5-4.9,0.8
		c1-3.4,1-6.5,0.3-9.6c-0.7-3.3-1.6-6.4-4.1-8.9c-2.4-2.3-4.9-3.7-8.2-2.7c-3.1,0.9-4.4,3.5-5.3,6.3c-1.6,5.1-0.4,10,1.6,14.6
		c1.1,2.7,2.8,5.3,6.3,5.9C289.6,178.9,290.4,179.5,291.6,180.1z M293.3,151.9c-0.6-2.3-2.2-3.4-4.3-3.3c-1,0.1-2.2,0-2.3,1.8
		C289.1,149.9,291.3,150.4,293.3,151.9z"/>
	<path class="st4" d="M264.4,290.9c-1.1,1.7-2.1,3.6-3.3,5.2c-3.7,4.9-7.8,9.5-12.8,13.1c-3.7,2.7-8,4-12.4,4.3
		c-5.2,0.3-10.5,0.1-15.7-0.3c-3.9-0.3-7.5-1.8-10.1-5c-2.1-2.6-2.6-5.5-2.1-8.8c0.7-4.9,2.8-9.2,4.7-13.6c0.2-0.5,0.6-0.8,0.8-1.2
		c15.7,12.6,32.8,13.8,50.9,5.8C264.3,290.6,264.3,290.8,264.4,290.9z"/>
	<path class="st2" d="M211.1,174.6c-3.6,2.2-5.9,5.1-7.3,8.5c-1.5,3.4-2,7-1.6,11.3c-8.8-5.8-16.6-12.2-24.4-18.6
		c-0.1,0.1-0.3,0.3-0.4,0.4c0.8,0.9,1.6,1.7,2.4,2.6c0.2,0.2,0.5,0.5,0.8,0.7c1.8,1.4,2.9,2.8,2.5,5.7c-0.5,4.1,0.5,8.3,0.9,12.5
		c0.1,0.6,0.2,1.2,0.3,1.8c-0.2,0.1-0.3,0.2-0.5,0.3c-0.7-0.9-1.7-1.6-2.1-2.7c-0.9-2.2-1.5-4.5-2.3-6.8c-0.6-1.8-1.3-3.6-1.9-5.4
		c-0.2-0.5-0.2-1.1-0.3-1.8c-1.2-0.2-2.2,0.5-3,1.5c-2.3,3-2.7,6.5-2.8,10.1c0,0.5,0,1,0,1.5c0,0.1-0.1,0.2-0.5,0.6
		c-0.6-0.8-1.3-1.4-1.6-2.2c-1.3-3-1.5-6.2-0.3-9.3c1.1-2.7,1.2-5.5,0.8-8.4c-0.7-5.5,0.9-9.8,6.3-12.5c-0.5-0.3-0.8-0.5-1.4-0.8
		c1.2-1.7,2.4-3.4,3.6-5.1c0.3-0.4,0.5-0.9,0.5-1.4c0.2-2.5,0-5.3,2.2-7c0.9-0.7,2.6-0.8,3.9-0.8c1.1,0,2,0.9,1.8,2
		c-0.2,1-0.7,2.1-1.3,2.8c-1.7,1.7-2.1,3.7-1.8,5.9c0.2,1.3,0,2.7,0.1,4c0,0.3,0.4,0.8,0.7,1c3.3,1.3,6.6,2.5,10,3.6
		c4.9,1.6,9.8,3.1,14.7,4.6C209.6,173.7,210.2,174.1,211.1,174.6z"/>
	<path class="st5" d="M216,267.7c1.9-1,3.8-2.1,5.7-3c1.8-0.8,3.6-1.6,5.5-2.2c0.5-0.2,1.4,0.3,1.8,0.7c1.9,2.1,2.9,4.6,3.2,7.3
		c0.2,1.8-0.2,2.1-1.9,2.1c-2.6,0-5.2-0.1-7.8,0c-1,0-1.9,0.5-2.9,0.7c0,0.2,0,0.4-0.1,0.6c1.1,0.5,2.2,1,3.3,1.4
		c2.9,1.1,5.8,2,8.6,3.1c2.4,0.9,2.7,2.3,1,4.1c-1.7,1.9-3.6,3.6-5.8,5.6c-1.8-2.1-3.5-4-5.1-5.9c-1-1.1-1.9-2.4-3-3.4
		c-0.9-1-1.8-0.8-2,0.6c-0.2,1.6,0,3.2-0.3,5c-5.3-3.9-8.6-9.4-12.1-15c1.1,0.1,2.1,0.2,3.2,0.3c1.9,0.2,2.8-0.6,2.5-2.5
		c-0.2-1.7-0.5-3.4-0.6-5.1c0-0.4,0.1-0.9,0.4-1.2c1.6-1.9,3.3-3.9,5-5.8c0.9-1,3.8-1.4,4.8-0.5c0.2,0.2,0.2,0.8,0.1,1.2
		c-1.1,2.9-2.2,5.7-3.3,8.6c-0.3,0.9-0.5,1.9-0.8,2.8C215.6,267.4,215.8,267.6,216,267.7z"/>
	<path class="st3" d="M288.5,219.7c1.9,2.8,3.5,5.2,5.2,7.5c1,1.5-0.1,2.5-1,3.2c-1.8,1.5-3.6,3-5.7,3.9c-3.1,1.4-6.4,2.4-9.7,3.5
		c-3.8,1.3-7.5,2.6-11.3,3.7c-3.3,1-6.6,1.7-9.9,2.6c-0.6,0.2-1.1,0.4-1.7,0.6c0,0.2,0.1,0.3,0.1,0.5c1.5-0.3,3-0.4,4.5-0.9
		c1.5-0.5,2.3,0.2,3.2,1.2c1.3,1.5,2.5,2.9,3.8,4.4c1.5,1.6,1.5,2.5-0.1,4c-1.6,1.5-3.4,2.8-5.1,4.3c-0.8,0.6-1.2,0.6-1.7-0.4
		c-1.2-2.4-2.5-4.8-3.9-7.1c-0.8-1.2-1.9-2.2-2.9-3.3c-1.3-1.4-1.2-2.1,0.6-2.9c1.8-0.8,3.7-1.6,5.2-2.8c5.5-4,11.5-7.5,16.2-12.7
		c0.6-0.7,1.2-1.4,1.8-2.1c1-1.2,2.1-2,3.9-2.2c3.1-0.3,5.6-2.3,8-4.2C288.2,220.5,288.3,220.1,288.5,219.7z"/>
	<path class="st5" d="M267.1,270.7c2-0.7,4-1.4,6.1-2.2c0,1.4,0,2.5,0,3.8c-1-1.1-1.7-1.8-2.5-2.6c-0.1,0.1-0.2,0.2-0.4,0.3
		c0.8,1.3,1.7,2.7,2.6,4c0.2,0.2,0.7,0.5,0.8,0.4c0.3-0.2,0.5-0.5,0.6-0.9c0.2-1.2,0.4-2.4,0.3-3.6c-0.2-1.9,0.6-2.8,2.4-3.2
		c1.4-0.3,2.7-0.9,4-1.3c1.7-0.5,3,0,4,1.7c-1.4,2-4.3,2.8-5.3,5.9c2-0.5,3.7-0.8,5.3-1.3c1.8-0.6,3.4-1.4,5.2-2
		c0.4-0.1,0.9,0,1.3,0.1c1.3,0.3,2.5,0.7,3.9,1.1c-0.4,0.2-0.6,0.5-0.8,0.5c-4.4,0.5-7.7,3.1-11,5.6c-1,0.8-1.9,1.2-3,0.6
		c-0.1-0.1-0.2-0.1-0.3-0.1c-3.7-1.3-4.6-0.7-4.4,3.3c0.1,1.2-0.2,2.1-1.3,2.6c-2.6,1.3-5.2,2.7-8.2,4.3c0.3-0.8,0.4-1.1,0.6-1.4
		c0.4-0.6,0.9-1.2,1.2-1.9c0.3-0.8,0.5-1.8,0.7-2.6c-0.9,0.1-1.7,0.2-2.6,0.4c-3.7,0.7-7.5,1.4-11.2,2c-1,0.2-1.8-0.6-1.7-1.8
		c0.1-2,0.2-4,0.3-6c0.1-1.2,0.8-1.2,1.8-1c3.4,0.8,6.8,1.6,10.2,2.4c1.1,0.2,2.2,0.3,3.3,0.4c0.1-0.2,0.1-0.4,0.2-0.6
		c-1.8-1.1-3.6-2.2-5.4-3.3c-0.8-0.5-1.7-0.9-2.5-1.4c-0.3-0.2-0.7-0.7-0.7-1c0.1-2.6,0.3-5.2,0.5-7.8c1.7,0,3.4,0.1,5.1,0
		c1.7-0.1,3.3-0.5,5.4-0.8c-0.1,1.6,0.2,3.4-0.5,4.6c-0.7,1.1-2.6,1.5-4,2.2C267,270.4,267,270.6,267.1,270.7z"/>
	<path class="st5" d="M248.8,243.2c0.6,2.1,2.6,3.6,1.8,6.4c-0.7,2.3-0.2,4.9-0.2,7.4c0,1.4-0.1,2.7-0.2,4.1
		c-0.1,1.6-1.1,2.1-2.5,2.1c-3.6-0.1-6.7-1.4-9.5-3.7c-0.9-0.7-0.8-1.5-0.3-2.2c1.6-2.7,3.2-5.3,4.8-8c0.3-0.5,0.5-1.1,0.9-2.1
		c-3.1,1.2-5.6,2.3-8.2,3.3c-0.6,0.2-1.1,0.5-1.7,0.7c-2.8,0.9-3.2,0.7-3.8-2.2c-0.4-1.7-0.4-3.4-0.5-5.1c-0.1-1.2,0.5-1.6,1.7-1.4
		c2.1,0.2,4.2,0.4,6.3,0.4c0.8,0,1.6-0.6,2.4-1c-0.4-0.7-0.6-1.4-1.1-2c-1.6-1.6-3.2-3.2-4.9-4.8c-1.6-1.5-1.6-2.1-0.3-3.9
		c0.4-0.6,0.9-1.1,1.2-1.5c1.9,3.1,3.7,6.1,5.8,9c1.5,2,3.3,3.8,5.2,5.4C247.5,245.8,247.9,245.6,248.8,243.2z"/>
	<path class="st5" d="M315.6,234.4c0.3-0.6,0.7-1.2,0.8-1.8c0.5-3.5,0.9-7,1.4-10.4c0-0.2,0.1-0.4,0.2-0.7c0.7,0.1,1.3,0.1,2.2,0.2
		c-1.2,7.4-2.5,14.8,0,22.6c-1.7-1.1-3-2.1-4.4-2.8c-4.8-2.7-10.1-4-15.4-5.1c-0.9-0.2-1.2-0.5-1.2-1.4c-0.1-1.4-0.3-2.8-0.5-4.7
		c3.1,1.6,5.7,2.9,8.3,4.2c0.6,0.3,1.2,0.7,1.8,0.9c0.4,0.1,1.2,0.2,1.3-0.1c0.2-0.3,0.2-1,0-1.4c-0.8-1.4-1.8-2.6-2.7-3.9
		c-1.1-1.7-2.3-3.4-3.4-5.1c-0.6-1-0.5-1.7,0.7-2.1c2.5-0.8,4.9-1.6,7.6-2.5c0.9,5,1.7,9.5,2.5,14.1
		C315.2,234.3,315.4,234.4,315.6,234.4z"/>
	<path class="st6" d="M261.6,177.4c-1-0.6-1.9-1.2-2.9-1.6c-1.5-0.7-2.9-0.3-4,0.9c-2.5,2.6-2.5,6.9,0,10.5c0.2,0.3,0.4,0.6,0.6,1
		c-4.3,0.4-6.6-2-8.3-5.4c-1.4-2.8-2.7-5.6-2.6-8.7c0-1.7,0.1-3.6,0.7-5.1c2-5.2,6.6-4.8,9.9-2.5c3.7,2.5,5.7,6.3,6.8,10.6
		C261.8,177.1,261.6,177.3,261.6,177.4z"/>
	<path class="st7" d="M265.8,187.8c0.1-2.1,2.5-4.2,5.4-5.9c2.5-1.4,5.2-1.9,8-1.7c3.1,0.3,6.2,1.8,7.5,4.7c1.1,2.6,0.2,6.1-2.2,8.2
		c-4.1,3.8-8.8,4.6-14,2.9C267.5,195,265.7,192.4,265.8,187.8z M278,181.3c-2.7-0.1-5.8,0.8-7.8,3c-0.8,0.8-1.3,2.3-1.2,3.4
		c0.2,1.4,1.7,1.9,3.2,2.1c3.1,0.4,5.9-0.3,8.6-1.9c1.3-0.8,2.4-2,2.2-3.6c-0.1-1.5-1.2-2.4-2.7-2.5
		C279.5,181.7,278.7,181.4,278,181.3z"/>
	<path class="st2" d="M272,132.8c1.1,0.1,2.3,0.2,3.4,0.4c0.6-2.1-0.8-4.1-3.4-4.7c-2.2-0.5-4.3-0.1-6.5,1.4
		c0.5-2.9,0.5-5.3-0.9-7.5c-0.2-0.4-0.3-0.9-0.3-1.3c0-1-0.2-2.6,0.3-3c0.8-0.5,2.3-0.4,3.2,0c4,1.6,7.8,3.6,10.4,7.3
		c1.2,1.7,2.6,3.3,3.7,5c0.6,1,0.9,2.2,1,3.3c0,0.6-0.8,1.8-1.2,1.8c-0.9,0-2.1-0.1-1.9-1.9c0.1-1-0.4-2.5-1.2-3.2
		c-3.5-3-7.2-5.9-11.1-8.6c0.3,0.4,0.6,0.9,1,1.3c2.6,2.1,5.3,4.1,7.7,6.3c1,0.9,1.8,2.2,2.3,3.4c0.4,1.1-0.1,1.9-1.5,2.1
		c-2,0.2-3.7-0.2-5.1-1.5C271.9,133.2,272,133,272,132.8z"/>
	<path class="st3" d="M233.6,214.5c3.6,0.8,7,1.5,10.5,2.3c-4.9,7.1-4.5,15.7-1.9,18.2c0.4-0.4,0.7-0.8,1.1-1.3
		c0.7,2.7,1.5,5.3,2.2,7.9C238,234.3,233.4,225.6,233.6,214.5z"/>
	<path class="st5" d="M305.3,205.1c0,2.9,0,5.8,0,8.8c0,1.2-0.3,2.4-0.5,3.5c-0.2,1.3-1,1.7-2.1,1.3c-1.2-0.4-2.4-1-3.6-1.5
		c-2-0.9-4-1.7-6.5-2.8c3.5-3.8,8.1-6.3,12-9.5C304.9,205,305.1,205,305.3,205.1z"/>
	<path class="st3" d="M329.9,230.2c-2.8,5-5.5,9.8-8.1,14.5c-0.2-0.1-0.4-0.1-0.6-0.2c-0.8-3.1-1.6-6.3-1.5-9.6
		c0-1.3,0.1-2.6,0.4-3.9c0.1-0.4,0.7-1.1,1.1-1.1c2.6-0.1,5.2-0.1,7.8-0.1C329.1,229.8,329.3,230,329.9,230.2z"/>
	<path class="st2" d="M305.5,168.6c-1-1.5-0.6-2.2,0.7-3c1.8-1.1,3.3-2.7,4.8-4.2c0.3-0.3,0.4-0.9,0.6-1.4c0.2,0.2,0.5,0.4,0.7,0.6
		c-0.3,0.8-0.6,1.6-1.1,2.8c3.6-1.1,6.9-2.4,10.3-1.4c0,0.2,0.1,0.5,0.1,0.7c-2,0.3-4,0.6-6,0.9c0,0.2,0,0.3,0.1,0.5
		c1.8,0.3,3.5,0.6,5.3,0.9c3.2,0.6,5.7,2.4,7.9,4.7c0.3,0.3,0.1,0.9,0.1,1.4c-0.6,0-1.4,0.2-1.7-0.1c-5.4-5.7-12-5.5-18.9-3.9
		c-0.5,0.1-1,0.5-1.5,0.7C306.5,168.2,306,168.4,305.5,168.6z"/>
	<path class="st5" d="M215.9,197.9c0.3,2.1,1.3,3.2,2.8,4.3c1.4,1.1,2.1,3.1,3,4.8c0.1,0.1-0.1,0.5-0.3,0.7c-1,0.9-2,1.8-3.1,2.6
		c-0.3,0.2-1.2,0.2-1.5-0.1c-2.6-2.1-4.6-4.6-5.7-7.8c-0.3-1-0.2-1.6,0.7-2.1C213.1,199.6,214.4,198.8,215.9,197.9z"/>
	<path class="st5" d="M222.9,183.3c-0.9,0.7-1.7,1.2-2.4,1.8c-1.4,1.3-1.2,1.9,0.6,2.5c-1.1,2.4-2.6,3.2-5,2.7
		c-0.3-0.1-0.6-0.1-0.8-0.2c-4.4-1-3.6-1.5-2.5-5.4c0.4-1.4,1.6-2.5,2.3-3.7c0.7-1.2,1.6-1.1,2.6-0.6
		C219.3,181.3,221,182.3,222.9,183.3z"/>
	<path class="st5" d="M308.6,202.1c1.1-0.7,2.1-1.6,3.3-2.2c0.5-0.3,1.4-0.3,1.9-0.1c1.6,0.6,3.1,1.4,4.7,1.9
		c1.2,0.4,1.6,1.2,1.3,2.2c-0.7,2-1.7,3.8-2.7,5.7c-0.1,0.2-1,0.3-1.2,0.2C313.5,207.2,311.1,204.7,308.6,202.1z"/>
	<path class="st8" d="M280.3,215.9c0.3-0.8,0.5-1.6,0.8-2.5c0.4-1.6,1.4-2.8,3-3.2c0.7-0.2,1.6,0.1,2.3,0.5c0.2,0.1,0,1.2-0.2,1.8
		c-2.4,4.8-5.6,6.3-10.1,5.6c-0.9-0.2-2.6-1-2.5-1.4c0.1-1.2,0.6-2.7,1.5-3.5c1-0.9,2.7-1.3,3.9,0c0.6,0.6,0.7,1.7,1,2.6
		C280,215.8,280.1,215.8,280.3,215.9z"/>
	<path class="st3" d="M297,272.1c0.1,2.8-1.6,4.8-3.1,7.1c-1.6-1.5-3.1-2.8-4.7-4.3C291.4,272.8,294,272.1,297,272.1z"/>
	<path class="st6" d="M289.8,200.3c1.9-1.7,3.6-3.2,5.4-4.6c0.5-0.4,1.2-0.5,1.8-0.7c0.4,0.9,1.3,2.4,1,2.8
		c-1.2,1.5-2.7,2.9-4.3,3.9C292.2,202.5,291.1,201.2,289.8,200.3z"/>
	<path class="st6" d="M259.8,204.2c3.1,0.8,6,1.6,9,2.4c-0.5,3-0.8,3.1-4.1,2.4c-0.5-0.1-1-0.2-1.5-0.2
		C260.3,208.4,259.6,207.5,259.8,204.2z"/>
	<path class="st3" d="M202.4,267.8c2.1-2,3.8-3.6,5.7-5.4c0.2,1.9,0.5,3.4,0.6,5c0,0.4-0.6,1.1-0.8,1.1
		C206.2,268.3,204.5,268,202.4,267.8z"/>
	<path class="st2" d="M279.1,174.5c0.2,0.4,0.4,0.9,0.6,1.7c-4.5-0.9-8,0.5-11.8,3.3c0.2-0.8,0.1-1.3,0.3-1.7
		c1.8-2.7,4.5-3.6,7.7-3.4C276.8,174.5,277.8,174.5,279.1,174.5z"/>
	<path class="st5" d="M267.5,242.6c2.4-0.8,4.4-1.4,6.8-2.2c-0.6,2.2-1,3.8-1.5,5.8C271,245,269.5,244,267.5,242.6z"/>
	<path class="st2" d="M301.9,155.8c2.3,2.3,3.6,5.1,4.2,8.1c0.1,0.4-0.8,1.1-1.5,1.9C303.7,162.2,302.8,159,301.9,155.8z"/>
	<path class="st2" d="M268.5,181c1.6-2.2,3.9-3.5,6.6-3.6c1.8-0.1,3.9-0.5,5.5,0.8C276.4,178.1,272.3,178.9,268.5,181z"/>
	<path class="st2" d="M192.9,191.7c-3.3-0.3-3.9-3-5.5-5.1C189.6,186.8,192.8,189.8,192.9,191.7z"/>
	<path class="st3" d="M282.4,271c1.1-0.9,2.1-2.1,3.4-2.7c0.8-0.4,2,0.2,3,0.4c0,0.2,0,0.5,0.1,0.7c-2.1,0.7-4.1,1.3-6.2,2
		C282.5,271.3,282.4,271.1,282.4,271z"/>
	<path class="st5" d="M307.5,209.5c0.8,1,1.6,1.9,2.6,3.2c-1.1,0.6-2.1,1.1-3.4,1.7c0.1-1.9,0.2-3.4,0.3-4.8
		C307.1,209.6,307.3,209.5,307.5,209.5z"/>
	<path class="st3" d="M330.3,207.1c-1-0.3-2.1-0.6-3.1-0.9c-0.1-0.2-0.2-0.3-0.3-0.5c0.8-0.7,1.6-1.4,2.4-2.1c0.5,1,1,2,1.5,3
		C330.7,206.8,330.5,207,330.3,207.1z"/>
	<path class="st3" d="M277.4,277.6c1.2,0.6,2.1,0.9,3.3,1.5c-1.2,0.9-2.3,1.8-3.3,2.6c-0.1-0.1-0.3-0.2-0.4-0.3
		C277.2,280.2,277.3,279,277.4,277.6z"/>
	<path class="st3" d="M278.2,262.2c0.2,0.3,0.3,0.6,0.5,0.9c1.1,1.8,1.1,1.8-1.1,2.5C276.9,264.2,277.6,263.2,278.2,262.2
		C278.2,262.2,278.2,262.2,278.2,262.2z"/>
	<path class="st5" d="M228.9,181.5c-0.7,0.2-1.5,0.3-2.3,0.5c-0.3-0.5-0.7-1.1-1-1.6c0.1-0.1,0.1-0.2,0.2-0.4c1.1,0.3,2.2,0.6,3.3,1
		C229,181.2,228.9,181.3,228.9,181.5z"/>
	<path d="M243.7,166.2c-0.4-2.6,1.1-4.8,3.7-5.2c1-0.1,2.5-0.9,3,1c-1.5,0.3-3.1,0.2-4.1,0.9C245.2,163.5,244.6,165,243.7,166.2z"/>
	<path d="M364.1,220.9c2.3,0.8,3.7,7.4,1.6,10.1c0-1.8,0.2-3.6-0.1-5.3C365.4,223.9,364.6,222.3,364.1,220.9z"/>
	<path d="M251.7,142.6c-2-0.9-2.4-2.8-2.1-4.5c0.6-3.3,1.7-6.4,2.5-9.6c0.4-1.4,1.4-2.8,0.6-4.4c-0.1-0.2,0.2-0.5,0.4-0.8
		c0.4,0.3,1.1,0.5,1.1,0.8c0.1,0.8,0,1.7-0.3,2.5c-0.6,2-1.5,4-2.1,6.1c-0.5,2.1-1,4.2-1.1,6.3C250.6,140.2,251.3,141.4,251.7,142.6
		z"/>
	<path d="M291.6,180.1c-1.2-0.6-2-1.3-2.8-1.4c-3.5-0.5-5.2-3.1-6.3-5.9c-1.9-4.6-3.1-9.5-1.6-14.6c0.9-2.8,2.2-5.4,5.3-6.3
		c3.3-1,5.9,0.4,8.2,2.7c2.5,2.5,3.4,5.6,4.1,8.9c0.7,3.1,0.7,6.2-0.3,9.6c1.8-0.3,3.3-0.5,4.9-0.8c0.1,0.2,0.1,0.3,0.2,0.5
		C299.2,175.1,294.5,176.3,291.6,180.1z M295.4,174.8c0.5-0.5,1.5-1,1.8-1.8c2.1-6.4,1.2-12.4-3.3-17.5c-3.7-4.3-9.6-4.2-11.7,1.8
		c-0.9,2.7-1.1,5.8-1,8.7c0.1,2.1,1.1,4.2,1.8,6.3c0.2-0.1,0.4-0.1,0.6-0.2c0-0.3,0-0.6,0-0.8c0.1-2.7,1.6-4.9,3.8-5.5
		c1.9-0.5,4.3,0.6,5.6,2.9C293.9,170.5,294.5,172.5,295.4,174.8z"/>
	<path d="M293.3,151.9c-2-1.5-4.2-2-6.7-1.4c0.1-1.8,1.4-1.8,2.3-1.8C291.1,148.4,292.7,149.6,293.3,151.9z"/>
	<path d="M278,181.3c0.8,0.1,1.5,0.4,2.3,0.4c1.6,0.2,2.6,1.1,2.7,2.5c0.1,1.6-0.9,2.8-2.2,3.6c-2.6,1.5-5.5,2.3-8.6,1.9
		c-1.4-0.2-2.9-0.7-3.2-2.1c-0.2-1.1,0.4-2.6,1.2-3.4C272.2,182.1,275.3,181.2,278,181.3z M277.3,182.5c-2.7,0.3-5.3,0.7-7,3.1
		c-0.9,1.3-0.6,2.4,0.8,3c3.5,1.4,6.7,0.3,9.6-1.7c0.7-0.5,1.4-1.8,1.2-2.6c-0.2-0.8-1.4-1.4-2.3-1.8
		C279,182.1,278.1,182.4,277.3,182.5z"/>
	<path class="st6" d="M295.4,174.8c-0.9-2.3-1.5-4.4-2.5-6.2c-1.3-2.3-3.7-3.4-5.6-2.9c-2.1,0.6-3.7,2.9-3.8,5.5c0,0.3,0,0.6,0,0.8
		c-0.2,0.1-0.4,0.1-0.6,0.2c-0.6-2.1-1.7-4.2-1.8-6.3c-0.1-2.9,0.1-6,1-8.7c2-6,8-6,11.7-1.8c4.5,5.2,5.3,11.1,3.3,17.5
		C296.9,173.8,295.9,174.3,295.4,174.8z"/>
	<path class="st6" d="M277.3,182.5c0.8,0,1.7-0.3,2.3-0.1c0.9,0.4,2.1,1,2.3,1.8c0.2,0.7-0.5,2.1-1.2,2.6c-2.9,2.1-6.1,3.1-9.6,1.7
		c-1.4-0.5-1.7-1.7-0.8-3C272,183.1,274.7,182.8,277.3,182.5z"/>
</g>
</svg>
