<?xml version="1.0" encoding="utf-8"?>
<!-- Generator: Adobe Illustrator 21.0.2, SVG Export Plug-In . SVG Version: 6.00 Build 0)  -->
<svg version="1.1" id="Слой_1" xmlns="http://www.w3.org/2000/svg" xmlns:xlink="http://www.w3.org/1999/xlink" x="0px" y="0px"
	 viewBox="0 0 500 500" style="enable-background:new 0 0 500 500;" xml:space="preserve">
<style type="text/css">
	.st0{fill:url(#SVGID_1_);}
	.st1{fill:none;}
	.st2{enable-background:new    ;}
	.st3{fill:#FCFCFC;}
</style>
<linearGradient id="SVGID_1_" gradientUnits="userSpaceOnUse" x1="253.425" y1="-122.4221" x2="246.4462" y2="228.91" gradientTransform="matrix(1 0 0 1 0 200)">
	<stop  offset="0" style="stop-color:#FF0E00"/>
	<stop  offset="1" style="stop-color:#E900CA"/>
</linearGradient>
<circle class="st0" cx="250" cy="250" r="175.7"/>
<rect x="104.2" y="181.1" class="st1" width="355.9" height="137.8"/>
<g class="st2">
	<path class="st3" d="M151.7,244l-31.2-3.3c1.2-5.4,2.9-9.7,5.1-12.9c2.2-3.1,5.4-5.8,9.6-8.1c3-1.7,7.1-2.9,12.3-3.8
		c5.2-0.9,10.9-1.4,17-1.4c9.8,0,17.6,0.5,23.5,1.6c5.9,1.1,10.9,3.4,14.8,6.8c2.8,2.4,5,5.8,6.6,10.2s2.4,8.6,2.4,12.6v37.6
		c0,4,0.3,7.1,0.8,9.4c0.5,2.3,1.6,5.2,3.3,8.7h-30.6c-1.2-2.2-2-3.9-2.4-5c-0.4-1.1-0.7-2.9-1.1-5.4c-4.3,4.1-8.5,7-12.7,8.8
		c-5.8,2.3-12.5,3.5-20.1,3.5c-10.1,0-17.8-2.3-23.1-7c-5.3-4.7-7.9-10.5-7.9-17.4c0-6.5,1.9-11.8,5.7-15.9c3.8-4.2,10.8-7.3,21-9.3
		c12.2-2.5,20.2-4.2,23.8-5.2c3.6-1,7.5-2.3,11.5-3.9c0-4-0.8-6.8-2.5-8.4c-1.7-1.6-4.6-2.4-8.7-2.4c-5.3,0-9.3,0.9-12,2.6
		C154.7,237.8,153,240.4,151.7,244z M180,261.2c-4.5,1.6-9.2,3-14,4.2c-6.6,1.8-10.8,3.5-12.6,5.2c-1.8,1.8-2.7,3.8-2.7,6
		c0,2.6,0.9,4.7,2.7,6.3c1.8,1.6,4.4,2.4,7.9,2.4c3.6,0,7-0.9,10.1-2.6s5.3-3.9,6.6-6.4c1.3-2.5,2-5.8,2-9.9V261.2z"/>
	<path class="st3" d="M231.7,216.5h30.5v13.9c2.9-6,6-10.2,9.1-12.5c3.1-2.3,7-3.4,11.6-3.4c4.8,0,10.1,1.5,15.8,4.5l-10.1,23.2
		c-3.8-1.6-6.9-2.4-9.1-2.4c-4.3,0-7.6,1.8-9.9,5.3c-3.4,5-5,14.3-5,27.9v28.5h-32.8V216.5z"/>
	<path class="st3" d="M351.7,184.1v32.4h17.9v23.9h-17.9v30.1c0,3.6,0.3,6,1,7.2c1.1,1.8,2.9,2.7,5.6,2.7c2.4,0,5.8-0.7,10.1-2.1
		l2.4,22.5c-8.1,1.8-15.6,2.6-22.6,2.6c-8.1,0-14.1-1-17.9-3.1c-3.8-2.1-6.7-5.2-8.5-9.5s-2.8-11.1-2.8-20.6v-29.9h-12v-23.9h12
		v-15.6L351.7,184.1z"/>
</g>
</svg>
