<?xml version="1.0" encoding="utf-8"?>
<!-- Generator: Adobe Illustrator 21.0.2, SVG Export Plug-In . SVG Version: 6.00 Build 0)  -->
<svg version="1.1" id="Слой_1" xmlns="http://www.w3.org/2000/svg" xmlns:xlink="http://www.w3.org/1999/xlink" x="0px" y="0px"
	 viewBox="0 0 500 500" style="enable-background:new 0 0 500 500;" xml:space="preserve">
<style type="text/css">
	.st0{fill:url(#SVGID_1_);}
	.st1{fill:#FFFFFF;}
	.st2{fill:#FC7A8C;}
	.st3{fill:#31B4D3;}
	.st4{fill:#F23C11;}
	.st5{fill:#67FC5B;}
	.st6{fill:#F9E708;}
</style>
<linearGradient id="SVGID_1_" gradientUnits="userSpaceOnUse" x1="424.0321" y1="257.1566" x2="72.9232" y2="242.7181" gradientTransform="matrix(1 0 0 -1 0 500)">
	<stop  offset="0" style="stop-color:#E900DD"/>
	<stop  offset="1" style="stop-color:#E90054"/>
</linearGradient>
<circle class="st0" cx="250" cy="250" r="175.7"/>
<path d="M293.3,119.6c2.8-1.6,5.7-3.4,8.7-5c6.1-3.2,12.6-5.2,19.5-6c5.3-0.6,9.3,1.3,12.3,5.8c4.2,6.4,5.5,13.7,6.5,21.1
	c0.1,0.4,0.1,0.7,0.1,1.1c0,3.2,0.7,5.5,4.3,6.8c3.6,1.3,5.6,4.7,6.1,8.6c1.3,10.4-1.4,19.8-7.1,28.4c-0.8,1.3-1,2.2-0.4,3.7
	c2.6,5.9,3.4,12.3,4.1,18.6c0.3,2.3,1.2,3.3,3.6,3.2c3.8,0,7.7,0,11.5,0.3c2.1,0.2,4.2,0.7,6,1.5c0.9,0.4,1.3,1.8,1.9,2.7
	c-1,0.6-1.9,1.6-2.9,1.6c-3.7,0.1-7.4,0-11-0.3c-7.6-0.6-8.6,0.2-9,7.7c-0.1,2.1-0.3,4.2-0.6,6.3c-0.4,2.9-0.2,3.1,2.8,3.7
	c3.5,0.7,6.9,1.3,10.4,2.1c1.1,0.3,2.3,0.8,3.2,1.6c0.5,0.5,0.8,1.6,0.7,2.4c0,0.4-1.2,0.9-1.8,0.9c-4.5-0.2-9-0.4-13.5-0.7
	c-3.2-0.2-3.5,0-4.6,2.9c-1.2,3.2-2.5,6.4-3.9,9.6c-0.7,1.6-0.3,2.5,1.1,3.3c4.4,2.4,8.9,4.6,13.2,7.2c1.1,0.6,1.8,2.3,2.1,3.6
	c0.3,1.5-0.8,2.4-2.4,2.1c-1.6-0.4-3.2-0.8-4.7-1.5c-3.4-1.5-6.8-3.2-10.2-4.7c-3.1-1.4-3.9-1.2-6.1,1.3c-8.5,9.7-19,16.2-31.4,20.5
	c0.6,0.4,1,0.6,1.4,0.9c5.7,3.9,11.5,7.6,17.1,11.7c1.9,1.4,3.7,2.2,6,2.5c6,0.7,10.7,3.3,12.8,9.4c1.2,3.5,0.6,7-0.3,10.4
	c-0.2,0.9-0.5,1.9-0.3,2.8c2.2,10.3-2.5,21-11.9,25.8c-3.1,1.6-6.6,2.3-9.7,3.4c0.3,5.3,0.8,10.9,0.8,16.5c0,6.5-1.8,12.7-4.6,18.7
	c-4.6,9.6-12.7,14.3-22.6,16.6c-10.9,2.5-21.9,2.2-32.9,0.7c-2.6-0.4-5.2-1-7.8-1.4c-1.2-0.2-2.4-0.1-3.6,0.1
	c-13.1,2.4-26.3,3.3-39.4,0.6c-15.7-3.2-25.1-12.6-27.8-27.8c-1.4-8-0.6-16,0.9-24c0.2-0.8,0.2-1.6,0.3-1.9c-4.1-2.7-8.1-5-11.6-7.8
	c-11.1-8.8-13.4-26-4.1-37.1c1-1.2,1.7-2.5,2.6-3.7c0.3,0.2,0.5,0.4,0.8,0.6c-0.7-0.8-1.5-1.6-2.2-2.5c-5.6-6.9-4-17.1,3.6-21.8
	c1.4-0.9,3.2-1.1,4.8-1.7c0.6-0.2,1.4-0.7,1.4-1c0-0.7-0.3-1.6-0.8-2.1c-2.7-2.3-5.6-4.3-8.3-6.6c-1.3-1.1-2.6-1.1-4-0.3
	c-4.8,2.9-9.7,5.8-14.5,8.7c-1.6,1-3.5,2.3-5,0.4c-1.4-1.9,0-3.7,1.5-4.8c3.3-2.5,6.7-4.7,10.1-7.1c0.6-0.4,1.3-0.8,1.9-1.2
	c3-2,3.1-2.4,1.2-5.5c-1.5-2.4-2.9-4.9-4.3-7.4c-1.5-2.6-2.6-3.2-5.5-2.6c-2.5,0.5-4.9,1.3-7.4,2c-0.7,0.2-1.4,0.5-2,0.3
	c-1.2-0.3-2.3-1-3.5-1.5c0.6-1,0.9-2.6,1.8-3c2.9-1.4,5.9-2.5,9-3.5c3-1,3.3-1.5,2.6-4.5c-0.9-3.6-1.7-7.2-2.4-10.8
	c-0.4-2.1-1.5-3-3.6-2.8c-4.3,0.4-8.5,0.8-12.8,1.2c-1,0.1-2.1,0.4-3.1,0.2c-1-0.2-2-0.9-3-1.4c0.6-1.2,0.9-2.9,1.9-3.4
	c2-1,4.2-1.5,6.4-1.8c3.8-0.6,7.6-1,11.4-1.3c1.3-0.1,1.7-0.6,1.7-1.8c0-14.4,3.8-27.7,10.6-40.3c0.5-0.9,0.4-2.2,0.2-3.2
	c-1.6-6.7-3.5-13.4-3.2-20.4c0.4-9.8,2.8-19,8.5-27.1c2.4-3.5,5.7-4.9,9.8-5.1c5.9-0.3,11.5,1.4,16.9,3.3c6.3,2.2,12.3,5.2,18.5,7.6
	c1.7,0.7,3.7,1.1,5.4,0.8c13-2.8,26.3-2.9,39.5-2.6c1.7,0,2.7-0.4,3.7-1.8c3.3-4.7,6.9-9.1,12.4-11.5c7.6-3.3,14.3-1.4,20.1,4
	C289.6,115,291.3,117.4,293.3,119.6z M248.4,131.4c-3.3,0-6.9-0.1-10.5,0c-8.8,0.4-17.7,0.3-26.4,2.7c-2.9,0.8-5.5,0.1-8.2-1.4
	c-4.4-2.5-8.8-4.9-13.5-6.6c-5.2-1.9-10.6-3.1-16-4.2c-2.6-0.5-5.4,0-7.1,2.5c-6.8,9.9-8.7,20.7-5.3,32.4c0.5,1.9,1.3,2.7,3.3,1.4
	c0.7-0.5,2.4-0.3,3,0.2c0.7,0.6,1,2,0.9,3c-0.2,1.1-0.9,2.2-1.6,3.2c-9.2,13.3-14.1,28.1-14.5,44.3c-0.1,2,0.6,3,2.7,3.2
	c2.8,0.2,5.5,0.8,8.2,1.3c1.5,0.3,3.1,1,2.8,2.9c-0.2,1.9-1.8,2.2-3.4,2.2c-2.2-0.1-4.3-0.2-6.5-0.2c-2.6-0.1-3.2,0.4-2.8,3
	c0.6,3.5,1.6,7,2.5,10.5c0.4,1.6,1.4,2.1,3,2c2-0.2,4.1-0.5,6.1-0.3c0.8,0.1,2,1,2.1,1.7c0.1,0.7-0.7,1.9-1.5,2.3
	c-1.4,0.7-2.9,1.1-4.4,1.6c-1.6,0.6-2.2,1.6-1.2,3.1c1.6,2.6,3.3,5.2,5,7.8c1.2,1.8,2.9,2.2,4.9,1.4c1.3-0.5,2.5-1.1,3.8-1.5
	c1.8-0.5,4-1.3,5,1c1,2.4-1.2,3.2-2.8,4.2c-1.1,0.7-2.1,1.4-3.5,2.3c2.3,1.8,4.2,3.2,6.1,4.7c3.8-3.5,7.6-6.8,13.1-6.1
	c5.5,0.7,8.7,4.6,10.8,9.3c11.1-4,18.1,0.6,20.5,13.7c10.7,0.4,21.6,1.1,32.5,1.1c14.4,0,28.7-1.7,42.4-6.1
	c9.9-3.2,19-7.9,26.3-15.5c3-3.1,2.9-3.1-0.6-5.6c-0.1,0-0.2-0.1-0.2-0.1c-0.5-1.2-1.5-2.5-1.2-3.5c0.2-0.7,2-1.4,3.1-1.5
	c1.1-0.1,2.3,0.4,3.5,0.7c1.6,0.4,2.8,0,3.5-1.6c1.3-3,2.9-6,4-9c1.1-2.7,0.8-3-2.1-3.9c-0.6-0.2-1.4-0.3-1.9-0.7
	c-0.7-0.6-1.9-1.8-1.7-2.2c0.4-0.9,1.4-1.9,2.4-2.2c1.2-0.4,2.7-0.1,4-0.1c1.3,0.1,2.2-0.4,2.3-1.8c0.3-3.4,0.8-6.9,1-10.3
	c0.2-2.7-0.4-3-3-2.7c-2.4,0.3-4.7,0.8-7.1,1.1c-1.7,0.2-3-0.5-3.4-2.2c-0.4-1.6,0.7-2.5,2.1-3c0.6-0.2,1.3-0.4,1.9-0.6
	c2.4-0.5,4.7-0.9,7.1-1.4c1.5-0.3,2.7-0.9,2.4-2.7c-0.9-5.3-1.9-10.5-3-16.3c-6.3,5.3-12.7,7.7-20,4.6c-7-2.9-10.9-8.7-13.5-15.5
	c-9.3,2-16.6-1.2-22.1-8.6c-5.3,2.5-10.8,3.7-16.5,3.9c-8.6,0.3-16-4.1-18.6-11.8c-1.2-3.6-2-7.7-1.6-11.4
	C245.6,143.6,247.2,137.6,248.4,131.4z M244.1,357.8c0.2-1.6,0.3-3,0.5-4.3c0.3-1.7,1.3-2.7,3.1-2.8c1.7,0,2.7,1.1,3.1,2.7
	c0.3,1.5,0.1,3.5,1,4.3c1,0.9,3,0.5,4.6,0.7c0.7,0.1,1.5,0.1,2.2,0.2c16.3,0.7,32.2-1.6,48-5c3.6-0.8,3.9-1,3-4.7
	c-1.9-8.3-3.7-16.7-6.1-24.9c-3.9-13.4-9.1-26.2-15.4-38.7c-0.8-1.6-1.7-2.4-3.6-1.8c-2,0.6-4.1,0.9-6.2,1.1
	c-2.1,0.1-3.3,0.8-3.3,3.2c0,1.4-0.5,2.8-0.8,4.2c-4.5,18.1-22.8,26.4-39,17.4c-8.5-4.7-12.2-12.7-13.7-21.9
	c-0.1-0.8-0.3-1.6-0.4-2.3c-0.2-0.1-0.4-0.2-0.6-0.3c-1.2,1.4-2.3,2.7-3.5,4.1c3,4,4.3,8.4,3,13.2c-1.2,4.7-4.2,8.2-9,10.6
	c4.5,6.5,8.7,12.8,13.1,18.9c2,2.8,2.3,5.5,0.8,8.4c-1.5,3-4.1,4.6-7.5,4.5c-3.6-0.1-6.6-1.6-8.7-4.5c-2.3-3.1-4.4-6.3-6.6-9.4
	c-0.3-0.4-0.7-0.9-1.2-1.5c-0.3,1.6-0.5,2.9-0.7,4.1c-1,5.5-4.1,9.3-9.3,10.8c-2.8,0.8-3.9,2.2-4.2,4.8c0,0.4-0.2,0.9-0.3,1.3
	c-0.6,2.9-0.5,2.9,2.4,3.5c13,2.8,26.2,3.6,39.4,3.9C233.6,357.9,238.7,357.8,244.1,357.8z M185.6,360.6c0,2.2-0.2,4.5,0,6.7
	c1,10,5.2,18,15.3,21.6c12.4,4.5,25.2,5,38.2,2.8c4.5-0.7,5.6-2.5,5.5-7c-0.2-6-0.3-12-0.4-18c0-0.8-0.1-1.6-0.1-2
	c-9.9-0.3-19.6-0.4-29.2-1C205.1,363.1,195.5,361.7,185.6,360.6z M310.6,360.5c-10,1.4-19.7,3-29.5,4.1c-9.9,1.2-19.9,1.2-30.1-0.3
	c0,0.9,0,1.6,0,2.4c0.1,6.2,0.1,12.5,0.2,18.7c0,4.1,1.3,5.7,5.4,6.3c3,0.5,6.1,1,9.2,1.2c9.6,0.7,19.1,0.4,28.2-2.9
	C305.5,385.6,312.9,372.5,310.6,360.5z M196.8,301.7c2.9,4.3,6.3,7.3,11.5,5.9c4.2-1.1,6.4-4.3,6.9-8.4c0.6-5.5-2.8-8.8-7-10.5
	c2.3-2,5.1-3.7,7-6.1c2.2-2.7,2.7-6,0.8-9.3c-1.7-3.1-4.4-4.5-7.8-4.3c-3,0.2-5.4,1.8-7.5,3.7c-0.4,0.4-0.9,0.8-1.1,1
	c-0.7-2.5-1.1-5-2.2-7.3c-1.6-3.2-4.1-5.5-8-5.2c-3.3,0.2-7.4,3.9-8,7.3c-0.4,2.6-0.1,5.4-0.1,8.2c-4.5-0.9-9.1-0.9-12.1,3.9
	c-1.9,3-2.1,6.2,0,9.3c2.8,4.4,7,4.9,11.7,4c-4.2,8.7-3.7,14,1.6,16.7C187.9,313.4,192.3,310.6,196.8,301.7z M250.2,150.5
	c0.1,1.3,0.1,2.3,0.2,3.4c0.7,8,5.2,12.9,13.2,13.2c4.2,0.1,8.6-1.1,12.8-1.9c0.8-0.2,2.2-1.4,2.1-2c-0.2-1.7,0.3-3.7-2.2-4.7
	c-2-0.8-4-2.1-5.5-3.7c-4.2-4.6-3.9-12,0.2-16.7c3.9-4.4,10.5-5.6,15-2c2.4,1.8,4,1.4,6.2,0.4c1.2-0.5,1.6-1,1.2-2.4
	c-1.7-5.1-3.7-10-7.2-14.2c-3-3.6-6.5-6.7-11.7-6.7c-4.4,0-7.8,2-10.7,5C255.2,127.3,251.5,138.5,250.2,150.5z M331.3,146.1
	c-3.4,0.7-7.3,1.3-11.2,2.2c-0.7,0.2-1.6,1-1.7,1.7c-0.4,2.4,1.2,4.3,3.5,5c1.1,0.3,2.1,0.8,3.1,1.4c4.8,3.2,6.2,9.9,3.2,15
	c-3.2,5.3-8.8,6.6-14.4,3.4c-1.4-0.8-2.6-0.7-3.3,0.5c-0.5,0.7-0.7,2.2-0.3,2.9c1.1,2.1,2.3,4.2,3.9,6c5.7,6.1,12.9,6.6,18.8,0.8
	c3.4-3.3,6.3-7.3,8.6-11.4c3.5-6.2,4.9-13,3.9-20.2c-0.4-3-2.2-4.9-5.1-5.6C337.5,147,334.7,146.6,331.3,146.1z M298.5,172.5
	c8.3,0.1,14.8-6.6,14.8-15.2c0-8.7-6.4-15.5-14.8-15.6c-8.2,0-14.7,6.9-14.7,15.9C283.8,165.7,290.5,172.5,298.5,172.5z
	 M316.4,299.1c-2.4,2.7-4.4,5.3-6.8,7.5c-2.3,2.1-2.3,3.9-1.4,6.8c2.5,7.4,4.4,15.1,6.6,22.7c0.2,0.8,1,1.8,1.6,1.9
	c9.3,1.2,18.5-9.6,15.5-18.5c-0.8-2.4-0.8-4.5-0.1-6.9c2-6.2-0.1-9.4-6.7-10.3c-0.5-0.1-1.1,0-1.6-0.1c-1.7-0.5-3.3-1-5-1.7
	C317.9,300.2,317.2,299.7,316.4,299.1z M297,126.9c0.7,2.8,1.2,5.3,1.9,7.7c0.2,0.6,1,1.3,1.7,1.5c1.9,0.7,4.1,0.7,5.8,1.7
	c3.1,1.8,6,4.1,9.2,6.4c5-2.9,11.1-3.6,17.6-3.5c-0.2-1.6-0.3-3-0.6-4.4c-1.3-5.1-2.3-10.3-4.1-15.2c-1.4-3.9-3.7-4.7-7.8-4
	C312.1,118.5,304.6,122.8,297,126.9z M228.1,286.3c1.4,11.9,8.8,20.8,22.7,20.1c11.2-0.6,17.5-9.9,18-20.1
	C255.2,286.3,241.7,286.3,228.1,286.3z M172.5,302.3c-1.3,1.1-2.5,1.7-3,2.6c-1.4,2.5-3.1,5.1-3.7,7.9C163,326,174.6,336.2,184,338
	c4.6,0.9,8.7-1.3,9.6-4.8c0.6-2.4,1-4.9,1.1-7.3c0-1.9-0.3-3.9-1-5.7c-1-2.5-2.8-3.3-5.5-3c-4,0.5-7.6-0.6-10.7-3.3
	C174.1,311.1,172.4,307.4,172.5,302.3z M198.1,311.3c0.1,0.3,0.3,0.7,0.4,1.1c4.2,9.1,9.8,17.3,16,25.2c0.4,0.5,0.8,0.9,1.3,1.2
	c1.4,0.8,2.7,0.8,3.9-0.4c1.1-1.2,0.2-2.2-0.5-3.2c-4.4-6.7-8.7-13.5-13.1-20.2c-0.3-0.5-0.7-1.1-1.2-1.3
	C202.7,312.8,200.4,312.1,198.1,311.3z M296.2,285.5c2.6,5.8,5,11.2,7.5,16.8c2.5-2.7,4.7-5.1,7-7.6
	C306.6,290.6,301.9,287.8,296.2,285.5z M273.4,147c1,1.6,1.9,3.3,3.1,4.7c1,1.2,1.8,0.7,2.4-0.7c1.1-2.5,2.4-5,3.7-7.4
	c0.9-1.6,0.7-2.4-1.1-3C277.7,139.4,273.9,142.5,273.4,147z M323.8,164.7c-0.3-0.6-0.8-1.9-1.7-2.7c-1.6-1.6-2.8-1.2-3.5,1
	c-0.5,1.4-1,2.8-1.6,4.2c-0.8,1.7,0,2.5,1.5,3C321.1,170.8,323.9,168.3,323.8,164.7z"/>
<path class="st1" d="M248.4,131.4c-1.2,6.2-2.8,12.2-3.4,18.4c-0.3,3.8,0.4,7.8,1.6,11.4c2.6,7.7,10,12.1,18.6,11.8
	c5.7-0.2,11.1-1.5,16.5-3.9c5.5,7.4,12.7,10.6,22.1,8.6c2.7,6.8,6.6,12.6,13.5,15.5c7.3,3,13.6,0.6,20-4.6c1.1,5.8,2.1,11.1,3,16.3
	c0.3,1.8-0.9,2.4-2.4,2.7c-2.4,0.5-4.7,0.9-7.1,1.4c-0.7,0.1-1.3,0.3-1.9,0.6c-1.4,0.5-2.5,1.4-2.1,3c0.4,1.7,1.7,2.4,3.4,2.2
	c2.4-0.3,4.7-0.7,7.1-1.1c2.6-0.4,3.2,0,3,2.7c-0.2,3.4-0.7,6.9-1,10.3c-0.1,1.4-1,1.9-2.3,1.8c-1.3-0.1-2.8-0.3-4,0.1
	c-1,0.3-2,1.3-2.4,2.2c-0.2,0.5,1,1.6,1.7,2.2c0.5,0.4,1.2,0.6,1.9,0.7c2.9,0.8,3.2,1.1,2.1,3.9c-1.2,3.1-2.7,6-4,9
	c-0.7,1.6-1.9,2-3.5,1.6c-1.2-0.3-2.4-0.8-3.5-0.7c-1.1,0.1-2.9,0.8-3.1,1.5c-0.3,1,0.7,2.3,1.2,3.5c0,0.1,0.1,0.1,0.2,0.1
	c3.5,2.4,3.6,2.5,0.6,5.6c-7.3,7.6-16.4,12.3-26.3,15.5c-13.8,4.4-28,6.1-42.4,6.1c-10.9,0-21.7-0.7-32.5-1.1
	c-2.4-13.1-9.4-17.8-20.5-13.7c-2.2-4.7-5.3-8.6-10.8-9.3c-5.5-0.7-9.3,2.6-13.1,6.1c-1.9-1.4-3.8-2.9-6.1-4.7
	c1.4-0.9,2.5-1.6,3.5-2.3c1.5-1,3.8-1.8,2.8-4.2c-1-2.3-3.2-1.5-5-1c-1.3,0.4-2.5,1-3.8,1.5c-2,0.8-3.7,0.4-4.9-1.4
	c-1.7-2.6-3.4-5.2-5-7.8c-0.9-1.5-0.4-2.6,1.2-3.1c1.5-0.5,3.1-0.8,4.4-1.6c0.7-0.4,1.6-1.6,1.5-2.3c-0.1-0.7-1.4-1.7-2.1-1.7
	c-2-0.1-4,0.1-6.1,0.3c-1.6,0.2-2.6-0.4-3-2c-0.8-3.5-1.9-6.9-2.5-10.5c-0.4-2.6,0.2-3.1,2.8-3c2.2,0,4.3,0.2,6.5,0.2
	c1.6,0.1,3.2-0.3,3.4-2.2c0.2-1.9-1.3-2.6-2.8-2.9c-2.7-0.5-5.5-1.1-8.2-1.3c-2.2-0.2-2.8-1.1-2.7-3.2c0.4-16.2,5.3-31,14.5-44.3
	c0.7-1,1.4-2,1.6-3.2c0.2-1-0.2-2.4-0.9-3c-0.7-0.5-2.3-0.7-3-0.2c-2,1.3-2.8,0.5-3.3-1.4c-3.3-11.6-1.5-22.4,5.3-32.4
	c1.7-2.5,4.5-3,7.1-2.5c5.4,1.1,10.9,2.3,16,4.2c4.7,1.7,9.2,4.2,13.5,6.6c2.7,1.5,5.3,2.2,8.2,1.4c8.6-2.4,17.5-2.2,26.4-2.7
	C241.5,131.2,245.1,131.4,248.4,131.4z M188.4,224.7c0.4,2,0.6,3.7,1.1,5.3c0.8,2.8,3.1,4.1,5.7,4.3c2.6,0.3,4.8-0.8,6.2-3.3
	c2-3.9,2.2-7.9,0.8-12c-0.9-2.7-3-4.1-5.7-4.3c-3-0.3-5.4,1.1-6.5,3.9C189.2,220.7,188.8,222.8,188.4,224.7z M303.9,224.4
	c-0.4-1.7-0.6-3.2-1-4.5c-0.9-2.8-2.7-4.7-5.8-4.8c-3.2-0.1-5.4,1.2-6.8,4.2c-1.6,3.4-1.6,7-0.4,10.6c0.8,2.6,3.7,4.8,6.3,4.7
	c2.9,0,5.1-1.5,6.1-4.2C303,228.4,303.4,226.3,303.9,224.4z M247.2,232.4c-2.2,0.6-4.6,0.9-6.6,1.8c-3,1.4-4.5,4.1-4.7,7.4
	c-0.2,3,1,5.4,3.6,6.8c4.7,2.5,9.7,3.1,14.7,0.7c5-2.4,6-8.9,2.1-12.9C253.8,233.6,250.7,232.9,247.2,232.4z"/>
<path class="st2" d="M244.1,357.8c-5.4,0-10.6,0.1-15.7,0c-13.2-0.4-26.4-1.2-39.4-3.9c-2.9-0.6-3-0.7-2.4-3.5
	c0.1-0.4,0.2-0.9,0.3-1.3c0.3-2.6,1.3-4,4.2-4.8c5.2-1.5,8.4-5.4,9.3-10.8c0.2-1.2,0.4-2.5,0.7-4.1c0.5,0.7,0.9,1.1,1.2,1.5
	c2.2,3.1,4.3,6.3,6.6,9.4c2.1,2.9,5.1,4.4,8.7,4.5c3.4,0.1,6-1.5,7.5-4.5c1.5-2.9,1.2-5.7-0.8-8.4c-4.4-6.2-8.6-12.4-13.1-18.9
	c4.8-2.4,7.7-5.9,9-10.6c1.3-4.8,0-9.2-3-13.2c1.2-1.4,2.3-2.7,3.5-4.1c0.2,0.1,0.4,0.2,0.6,0.3c0.1,0.8,0.3,1.6,0.4,2.3
	c1.5,9.2,5.2,17.2,13.7,21.9c16.2,9,34.5,0.7,39-17.4c0.3-1.4,0.8-2.8,0.8-4.2c0-2.4,1.2-3,3.3-3.2c2.1-0.1,4.2-0.5,6.2-1.1
	c2-0.6,2.8,0.2,3.6,1.8c6.3,12.4,11.5,25.3,15.4,38.7c2.4,8.2,4.2,16.6,6.1,24.9c0.8,3.7,0.5,3.9-3,4.7c-15.8,3.5-31.8,5.8-48,5
	c-0.7,0-1.5-0.1-2.2-0.2c-1.6-0.2-3.6,0.1-4.6-0.7c-0.9-0.8-0.7-2.9-1-4.3c-0.4-1.6-1.4-2.7-3.1-2.7c-1.7,0-2.8,1.1-3.1,2.8
	C244.5,354.8,244.3,356.2,244.1,357.8z"/>
<path class="st1" d="M185.6,360.6c9.9,1.1,19.6,2.4,29.3,3.1c9.6,0.7,19.3,0.7,29.2,1c0,0.4,0.1,1.2,0.1,2c0.1,6,0.2,12,0.4,18
	c0.1,4.5-1.1,6.2-5.5,7c-12.9,2.2-25.7,1.7-38.2-2.8c-10.1-3.6-14.2-11.6-15.3-21.6C185.4,365.1,185.6,362.9,185.6,360.6z"/>
<path class="st1" d="M310.6,360.5c2.2,12-5.1,25.2-16.7,29.4c-9.1,3.4-18.7,3.6-28.2,2.9c-3.1-0.2-6.1-0.7-9.2-1.2
	c-4.1-0.7-5.4-2.3-5.4-6.3c-0.1-6.2-0.1-12.5-0.2-18.7c0-0.7,0-1.5,0-2.4c10.2,1.5,20.2,1.5,30.1,0.3
	C290.9,363.4,300.7,361.9,310.6,360.5z"/>
<path class="st3" d="M196.8,301.7c-4.5,8.9-8.9,11.6-14.3,8.9c-5.3-2.7-5.8-7.9-1.6-16.7c-4.7,1-8.8,0.4-11.7-4
	c-2-3.1-1.8-6.3,0-9.3c3-4.7,7.6-4.7,12.1-3.9c0-2.8-0.3-5.5,0.1-8.2c0.6-3.5,4.6-7.1,8-7.3c3.9-0.3,6.4,2,8,5.2
	c1.1,2.2,1.5,4.8,2.2,7.3c0.2-0.1,0.6-0.6,1.1-1c2.1-2,4.5-3.6,7.5-3.7c3.4-0.2,6.1,1.2,7.8,4.3c1.9,3.3,1.3,6.6-0.8,9.3
	c-2,2.4-4.7,4.2-7,6.1c4.2,1.7,7.6,5,7,10.5c-0.4,4-2.7,7.3-6.9,8.4C203,309,199.6,306.1,196.8,301.7z M186.9,287.5
	c-0.1,3.8,2.8,6.8,6.5,6.9c3.5,0.1,6.8-3.2,6.8-7c0-3.6-3.1-6.7-6.7-6.8C189.5,280.6,187,283.2,186.9,287.5z"/>
<path class="st4" d="M250.2,150.5c1.3-12,5-23.2,13.8-32.3c2.9-3,6.3-5.1,10.7-5c5.2,0,8.6,3.1,11.7,6.7c3.5,4.1,5.5,9.1,7.2,14.2
	c0.4,1.3,0,1.8-1.2,2.4c-2.2,1-3.9,1.4-6.2-0.4c-4.6-3.6-11.1-2.4-15,2c-4.2,4.7-4.4,12.1-0.2,16.7c1.5,1.6,3.5,2.9,5.5,3.7
	c2.5,1,2,3,2.2,4.7c0.1,0.6-1.3,1.8-2.1,2c-4.2,0.8-8.5,2.1-12.8,1.9c-8-0.3-12.5-5.2-13.2-13.2
	C250.3,152.9,250.3,151.8,250.2,150.5z"/>
<path class="st4" d="M331.3,146.1c3.4,0.6,6.2,0.9,9,1.5c2.9,0.7,4.7,2.6,5.1,5.6c1,7.2-0.5,14-3.9,20.2c-2.3,4.1-5.2,8.1-8.6,11.4
	c-6,5.8-13.2,5.3-18.8-0.8c-1.6-1.7-2.8-3.9-3.9-6c-0.4-0.7-0.1-2.1,0.3-2.9c0.8-1.2,2-1.3,3.3-0.5c5.6,3.2,11.2,1.8,14.4-3.4
	c3.1-5.1,1.7-11.8-3.2-15c-0.9-0.6-2-1.1-3.1-1.4c-2.3-0.7-3.9-2.6-3.5-5c0.1-0.7,1-1.5,1.7-1.7C324,147.4,327.9,146.7,331.3,146.1z
	"/>
<path class="st4" d="M298.5,172.5c-8.1-0.1-14.7-6.8-14.7-14.9c0-9,6.5-15.9,14.7-15.9c8.3,0,14.8,6.8,14.8,15.6
	C313.3,165.9,306.8,172.6,298.5,172.5z"/>
<path class="st1" d="M316.4,299.1c0.9,0.5,1.5,1.1,2.2,1.4c1.6,0.6,3.3,1.2,5,1.7c0.5,0.1,1,0.1,1.6,0.1c6.5,0.9,8.7,4,6.7,10.3
	c-0.8,2.4-0.8,4.4,0.1,6.9c3,8.9-6.2,19.7-15.5,18.5c-0.6-0.1-1.4-1.2-1.6-1.9c-2.2-7.5-4.1-15.2-6.6-22.7c-1-2.9-0.9-4.7,1.4-6.8
	C312,304.5,314,301.8,316.4,299.1z"/>
<path class="st1" d="M297,126.9c7.6-4.1,15.1-8.4,23.8-9.7c4.1-0.6,6.4,0.2,7.8,4c1.8,4.9,2.8,10.1,4.1,15.2
	c0.3,1.3,0.4,2.8,0.6,4.4c-6.5-0.1-12.6,0.6-17.6,3.5c-3.2-2.3-6.1-4.6-9.2-6.4c-1.7-1-3.9-1-5.8-1.7c-0.7-0.2-1.5-0.9-1.7-1.5
	C298.2,132.2,297.7,129.7,297,126.9z"/>
<path class="st1" d="M228.1,286.3c13.7,0,27.2,0,40.6,0c-0.5,10.2-6.8,19.4-18,20.1C236.9,307.1,229.5,298.2,228.1,286.3z"/>
<path class="st1" d="M172.5,302.3c-0.1,5.1,1.6,8.8,5,11.6c3.1,2.6,6.6,3.7,10.7,3.3c2.7-0.3,4.6,0.5,5.5,3c0.7,1.8,1,3.8,1,5.7
	c-0.1,2.5-0.5,4.9-1.1,7.3c-0.9,3.5-4.9,5.7-9.6,4.8c-9.4-1.8-21.1-12-18.2-25.2c0.6-2.8,2.3-5.3,3.7-7.9
	C170,304,171.2,303.4,172.5,302.3z"/>
<path class="st5" d="M198.1,311.3c2.4,0.8,4.7,1.6,6.9,2.5c0.5,0.2,0.9,0.8,1.2,1.3c4.4,6.7,8.7,13.5,13.1,20.2c0.7,1,1.6,2,0.5,3.2
	c-1.1,1.2-2.5,1.2-3.9,0.4c-0.5-0.3-1-0.7-1.3-1.2c-6.2-7.9-11.8-16.1-16-25.2C198.3,312,198.2,311.6,198.1,311.3z"/>
<path class="st2" d="M296.2,285.5c5.7,2.3,10.3,5.2,14.5,9.2c-2.3,2.5-4.6,4.9-7,7.6C301.2,296.6,298.8,291.3,296.2,285.5z"/>
<path class="st4" d="M273.4,147c0.5-4.5,4.4-7.5,8.1-6.4c1.8,0.6,2,1.4,1.1,3c-1.3,2.4-2.6,4.9-3.7,7.4c-0.6,1.4-1.4,1.9-2.4,0.7
	C275.2,150.2,274.4,148.5,273.4,147z"/>
<path class="st4" d="M323.8,164.7c0.1,3.6-2.7,6.1-5.3,5.4c-1.6-0.4-2.3-1.3-1.5-3c0.6-1.4,1.1-2.8,1.6-4.2c0.7-2.1,1.9-2.6,3.5-1
	C323,162.8,323.5,164.1,323.8,164.7z"/>
<path d="M188.4,224.7c0.5-1.9,0.8-4.1,1.6-6.1c1.1-2.7,3.5-4.1,6.5-3.9c2.8,0.2,4.8,1.6,5.7,4.3c1.4,4.1,1.2,8.1-0.8,12
	c-1.3,2.5-3.5,3.5-6.2,3.3c-2.7-0.3-4.9-1.5-5.7-4.3C188.9,228.4,188.7,226.7,188.4,224.7z"/>
<path d="M303.9,224.4c-0.5,1.9-0.9,4-1.6,6c-1,2.7-3.2,4.1-6.1,4.2c-2.6,0-5.4-2.1-6.3-4.7c-1.1-3.5-1.1-7.1,0.4-10.6
	c1.4-3,3.6-4.3,6.8-4.2c3.2,0.1,4.9,2,5.8,4.8C303.3,221.3,303.5,222.7,303.9,224.4z"/>
<path d="M247.2,232.4c3.5,0.5,6.6,1.3,9.1,3.8c3.9,4,2.9,10.5-2.1,12.9c-5,2.4-10,1.8-14.7-0.7c-2.6-1.4-3.8-3.8-3.6-6.8
	c0.2-3.3,1.7-6,4.7-7.4C242.7,233.2,245,232.9,247.2,232.4z M247.2,236.5c-3,0.4-5,1.2-6.3,2.8c-1.7,2.1-1.4,4.7,0.9,6
	c3.3,1.8,6.9,2.2,10.4,0.4c2.9-1.5,3.3-4.9,0.7-6.8C251.2,237.7,249.1,237.3,247.2,236.5z"/>
<path d="M186.9,287.5c0.1-4.3,2.6-6.9,6.6-6.9c3.7,0,6.8,3.2,6.7,6.8c0,3.7-3.3,7.1-6.8,7C189.7,294.3,186.8,291.3,186.9,287.5z
	 M189.1,287.5c0,2.5,2,4.6,4.5,4.6c2.3,0,4.5-2.3,4.5-4.7c0-2.3-2.1-4.4-4.5-4.4C190.8,282.9,189.1,284.6,189.1,287.5z"/>
<path class="st6" d="M247.2,236.5c1.9,0.8,4,1.3,5.7,2.4c2.7,1.9,2.2,5.3-0.7,6.8c-3.5,1.8-7,1.4-10.4-0.4c-2.3-1.2-2.6-3.9-0.9-6
	C242.3,237.7,244.2,236.9,247.2,236.5z"/>
<path class="st4" d="M189.1,287.5c0-2.9,1.7-4.6,4.4-4.5c2.4,0,4.5,2.1,4.5,4.4c0,2.4-2.2,4.8-4.5,4.7
	C191.1,292.1,189.1,290,189.1,287.5z"/>
</svg>
