<?xml version="1.0" encoding="utf-8"?>
<!-- Generator: Adobe Illustrator 21.0.2, SVG Export Plug-In . SVG Version: 6.00 Build 0)  -->
<svg version="1.1" id="Слой_1" xmlns="http://www.w3.org/2000/svg" xmlns:xlink="http://www.w3.org/1999/xlink" x="0px" y="0px"
	 viewBox="0 0 500 500" style="enable-background:new 0 0 500 500;" xml:space="preserve">
<style type="text/css">
	.st0{fill:url(#SVGID_1_);}
	.st1{fill:none;}
	.st2{enable-background:new    ;}
	.st3{fill:#FCFCFC;}
</style>
<linearGradient id="SVGID_1_" gradientUnits="userSpaceOnUse" x1="253.425" y1="-122.4221" x2="246.4462" y2="228.91" gradientTransform="matrix(1 0 0 1 0 200)">
	<stop  offset="0" style="stop-color:#1700E9"/>
	<stop  offset="1" style="stop-color:#E900CA"/>
</linearGradient>
<circle class="st0" cx="250" cy="250" r="175.7"/>
<rect x="87" y="206.1" class="st1" width="355.9" height="137.8"/>
<g class="st2">
	<path class="st3" d="M91.7,266.8l21.3-2c0.9,2.5,2.1,4.3,3.7,5.4c1.6,1.1,3.7,1.6,6.3,1.6c2.9,0,5.1-0.6,6.7-1.8
		c1.2-0.9,1.8-2.1,1.8-3.4c0-1.5-0.8-2.7-2.4-3.6c-1.2-0.6-4.2-1.3-9.2-2.2c-7.5-1.3-12.6-2.5-15.5-3.6c-2.9-1.1-5.3-3-7.3-5.6
		c-2-2.6-3-5.6-3-9c0-3.7,1.1-6.9,3.2-9.5c2.1-2.7,5.1-4.7,8.9-6c3.8-1.3,8.8-2,15.1-2c6.7,0,11.6,0.5,14.8,1.5c3.2,1,5.8,2.6,8,4.7
		c2.1,2.1,3.9,5,5.3,8.7l-20.4,2c-0.5-1.8-1.4-3.1-2.6-4c-1.7-1.1-3.7-1.7-6.1-1.7c-2.4,0-4.2,0.4-5.3,1.3s-1.7,1.9-1.7,3.1
		c0,1.4,0.7,2.4,2.1,3.1c1.4,0.7,4.5,1.3,9.2,1.9c7.1,0.8,12.4,1.9,15.9,3.4c3.5,1.4,6.1,3.5,8,6.2s2.8,5.6,2.8,8.8
		c0,3.2-1,6.4-2.9,9.4s-5,5.5-9.2,7.3c-4.2,1.8-9.9,2.7-17.2,2.7c-10.2,0-17.5-1.5-21.9-4.4C95.7,276.4,92.9,272.2,91.7,266.8z"/>
	<path class="st3" d="M187.3,205.1v21.3h11.8v15.7h-11.8v19.8c0,2.4,0.2,4,0.7,4.7c0.7,1.2,1.9,1.8,3.7,1.8c1.6,0,3.8-0.5,6.6-1.4
		l1.6,14.8c-5.3,1.2-10.3,1.7-14.9,1.7c-5.3,0-9.3-0.7-11.8-2.1c-2.5-1.4-4.4-3.4-5.6-6.2s-1.8-7.3-1.8-13.6v-19.7h-7.9v-15.7h7.9
		v-10.3L187.3,205.1z"/>
	<path class="st3" d="M268.4,282.4h-20v-9.1c-3,3.7-6,6.4-9,8c-3,1.6-6.8,2.4-11.2,2.4c-5.9,0-10.5-1.8-13.9-5.3
		c-3.4-3.5-5-9-5-16.3v-35.6h21.6v30.8c0,3.5,0.6,6,2,7.5c1.3,1.5,3.1,2.2,5.5,2.2c2.6,0,4.7-1,6.3-3c1.6-2,2.5-5.5,2.5-10.6v-26.9
		h21.5V282.4z"/>
	<path class="st3" d="M340.4,205.1v77.3h-20.1v-8.3c-2.8,3.5-5.4,5.9-7.7,7.1c-3.1,1.6-6.5,2.4-10.3,2.4c-7.6,0-13.5-2.9-17.5-8.7
		c-4-5.8-6-12.8-6-21.1c0-9.3,2.2-16.4,6.7-21.3c4.4-4.9,10.1-7.4,17-7.4c3.3,0,6.4,0.6,9.1,1.7c2.7,1.1,5.1,2.8,7.3,5.1v-26.8
		H340.4z M318.8,254.2c0-4.4-0.9-7.7-2.8-9.8c-1.9-2.2-4.2-3.2-7.1-3.2c-2.5,0-4.6,1-6.3,3.1c-1.7,2.1-2.5,5.6-2.5,10.4
		c0,4.6,0.9,7.9,2.6,10c1.7,2.1,3.9,3.2,6.5,3.2c2.7,0,5-1.1,6.9-3.2C317.9,262.6,318.8,259.1,318.8,254.2z"/>
	<path class="st3" d="M347.3,226.4h22.6l11.6,37.3l10.7-37.3h21.1l-22.2,59.8c-2.5,6.8-5.1,11.4-7.7,13.8c-3.7,3.4-9.4,5.1-17,5.1
		c-3.1,0-7.9-0.4-14.3-1.3l-1.7-15c3.1,1,6.5,1.5,10.3,1.5c2.5,0,4.6-0.6,6.1-1.7c1.6-1.2,2.9-3.2,4-6.2L347.3,226.4z"/>
</g>
</svg>
