<?xml version="1.0" encoding="utf-8"?>
<!-- Generator: Adobe Illustrator 21.0.2, SVG Export Plug-In . SVG Version: 6.00 Build 0)  -->
<svg version="1.1" id="Слой_1" xmlns="http://www.w3.org/2000/svg" xmlns:xlink="http://www.w3.org/1999/xlink" x="0px" y="0px"
	 viewBox="0 0 500 500" style="enable-background:new 0 0 500 500;" xml:space="preserve">
<style type="text/css">
	.st0{fill:url(#SVGID_1_);}
	.st1{fill:none;}
	.st2{enable-background:new    ;}
	.st3{fill:#FCFCFC;}
</style>
<linearGradient id="SVGID_1_" gradientUnits="userSpaceOnUse" x1="418.9209" y1="93.8708" x2="78.7215" y2="5.5169" gradientTransform="matrix(1 0 0 1 0 200)">
	<stop  offset="0" style="stop-color:#FF00C7"/>
	<stop  offset="1" style="stop-color:#00D9E9"/>
</linearGradient>
<circle class="st0" cx="250" cy="250" r="175.7"/>
<rect x="100.1" y="198.7" class="st1" width="312.4" height="115.3"/>
<g class="st2">
	<path class="st3" d="M106.8,222.9h20.7v9.5c3.1-3.9,6.2-6.6,9.4-8.3c3.2-1.7,7-2.5,11.6-2.5c6.2,0,11,1.8,14.5,5.5
		c3.5,3.7,5.2,9.3,5.2,17v36.9h-22.4V249c0-3.6-0.7-6.2-2-7.7c-1.3-1.5-3.2-2.3-5.7-2.3c-2.7,0-4.9,1-6.6,3.1c-1.7,2-2.5,5.7-2.5,11
		v27.9h-22.3V222.9z"/>
	<path class="st3" d="M246,257.4h-44.6c0.4,3.6,1.4,6.2,2.9,8c2.2,2.5,5,3.8,8.4,3.8c2.2,0,4.3-0.5,6.2-1.6c1.2-0.7,2.5-1.9,3.9-3.7
		l21.9,2c-3.4,5.8-7.4,10-12.1,12.6c-4.7,2.5-11.5,3.8-20.4,3.8c-7.7,0-13.7-1.1-18.2-3.3c-4.4-2.2-8.1-5.6-11-10.3
		c-2.9-4.7-4.3-10.3-4.3-16.7c0-9.1,2.9-16.4,8.7-22c5.8-5.6,13.8-8.4,24.1-8.4c8.3,0,14.9,1.3,19.7,3.8s8.5,6.2,11,10.9
		c2.5,4.8,3.8,11,3.8,18.6V257.4z M223.4,246.8c-0.4-4.3-1.6-7.4-3.5-9.2c-1.9-1.9-4.3-2.8-7.4-2.8c-3.5,0-6.4,1.4-8.5,4.2
		c-1.3,1.8-2.2,4.4-2.6,7.8H223.4z"/>
	<path class="st3" d="M253.5,252.1c0-8.9,3-16.2,9-21.9c6-5.7,14.1-8.6,24.2-8.6c11.6,0,20.4,3.4,26.4,10.1
		c4.8,5.4,7.2,12.1,7.2,20.1c0,8.9-3,16.3-8.9,22c-5.9,5.7-14.1,8.6-24.6,8.6c-9.3,0-16.9-2.4-22.6-7.1
		C257,269.3,253.5,261.6,253.5,252.1z M275.8,252c0,5.2,1,9,3.1,11.5c2.1,2.5,4.7,3.7,7.9,3.7c3.2,0,5.8-1.2,7.9-3.7
		c2.1-2.4,3.1-6.4,3.1-11.8c0-5-1-8.8-3.1-11.2s-4.6-3.7-7.7-3.7c-3.2,0-5.9,1.2-8,3.7C276.9,243.1,275.8,246.9,275.8,252z"/>
	<path class="st3" d="M330.9,222.9h20.7v9.5c3.1-3.9,6.2-6.6,9.4-8.3c3.2-1.7,7-2.5,11.6-2.5c6.2,0,11,1.8,14.5,5.5
		c3.5,3.7,5.2,9.3,5.2,17v36.9H370V249c0-3.6-0.7-6.2-2-7.7c-1.3-1.5-3.2-2.3-5.7-2.3c-2.7,0-4.9,1-6.6,3.1c-1.7,2-2.5,5.7-2.5,11
		v27.9h-22.3V222.9z"/>
</g>
</svg>
