<?xml version="1.0" encoding="utf-8"?>
<!-- Generator: Adobe Illustrator 21.0.2, SVG Export Plug-In . SVG Version: 6.00 Build 0)  -->
<svg version="1.1" id="Слой_1" xmlns="http://www.w3.org/2000/svg" xmlns:xlink="http://www.w3.org/1999/xlink" x="0px" y="0px"
	 viewBox="0 0 500 500" style="enable-background:new 0 0 500 500;" xml:space="preserve">
<style type="text/css">
	.st0{fill:url(#SVGID_1_);}
	.st1{fill:none;}
	.st2{enable-background:new    ;}
	.st3{fill:#FCFCFC;}
</style>
<linearGradient id="SVGID_1_" gradientUnits="userSpaceOnUse" x1="168.1853" y1="-103.4107" x2="333.5758" y2="206.713" gradientTransform="matrix(1 0 0 1 0 200)">
	<stop  offset="0" style="stop-color:#00EDFF"/>
	<stop  offset="1" style="stop-color:#FF0031"/>
</linearGradient>
<circle class="st0" cx="250" cy="250" r="175.7"/>
<rect x="71.1" y="176.5" class="st1" width="355.9" height="245.2"/>
<g class="st2">
	<path class="st3" d="M98.6,197.8h20v8.2c2.9-3.4,5.8-5.8,8.7-7.3c2.9-1.4,6.5-2.2,10.6-2.2c4.5,0,8,0.8,10.6,2.4
		c2.6,1.6,4.7,3.9,6.4,7.1c3.4-3.7,6.4-6.1,9.2-7.5s6.2-2,10.3-2c6,0,10.7,1.8,14.1,5.4c3.4,3.6,5.1,9.1,5.1,16.7v35.2h-21.5v-31.9
		c0-2.5-0.5-4.4-1.5-5.6c-1.4-1.9-3.2-2.9-5.4-2.9c-2.5,0-4.6,0.9-6.1,2.7c-1.5,1.8-2.3,4.8-2.3,8.8v28.9h-21.5V223
		c0-2.5-0.1-4.1-0.4-5c-0.5-1.4-1.3-2.5-2.4-3.4c-1.1-0.9-2.5-1.3-4-1.3c-2.5,0-4.5,0.9-6.1,2.8c-1.6,1.9-2.4,4.9-2.4,9.2v28.6H98.6
		V197.8z"/>
	<path class="st3" d="M203.8,226c0-8.5,2.9-15.6,8.6-21.1c5.8-5.5,13.6-8.3,23.4-8.3c11.2,0,19.7,3.3,25.4,9.8
		c4.6,5.2,6.9,11.7,6.9,19.4c0,8.6-2.9,15.7-8.6,21.2c-5.7,5.5-13.6,8.3-23.7,8.3c-9,0-16.3-2.3-21.8-6.9
		C207.2,242.6,203.8,235.2,203.8,226z M225.3,225.9c0,5,1,8.7,3,11.1c2,2.4,4.6,3.6,7.6,3.6c3.1,0,5.6-1.2,7.6-3.5
		c2-2.4,3-6.1,3-11.3c0-4.9-1-8.5-3-10.8s-4.5-3.6-7.4-3.6c-3.1,0-5.7,1.2-7.8,3.6C226.4,217.4,225.3,221,225.3,225.9z"/>
	<path class="st3" d="M268.5,197.8h22.3l10.9,35.5l11.3-35.5h21.7l-23.8,56h-19L268.5,197.8z"/>
	<path class="st3" d="M400.2,231.2h-43c0.4,3.4,1.3,6,2.8,7.7c2.1,2.4,4.8,3.6,8.1,3.6c2.1,0,4.1-0.5,6-1.6c1.2-0.7,2.4-1.8,3.7-3.5
		l21.1,2c-3.2,5.6-7.1,9.7-11.7,12.1c-4.6,2.4-11.1,3.7-19.7,3.7c-7.4,0-13.3-1-17.5-3.1c-4.3-2.1-7.8-5.4-10.6-10
		c-2.8-4.6-4.2-9.9-4.2-16.1c0-8.8,2.8-15.8,8.4-21.3c5.6-5.4,13.3-8.1,23.2-8.1c8,0,14.3,1.2,19,3.6s8.2,5.9,10.6,10.5
		c2.4,4.6,3.6,10.6,3.6,18V231.2z M378.3,220.9c-0.4-4.1-1.5-7.1-3.3-8.9c-1.8-1.8-4.2-2.7-7.1-2.7c-3.4,0-6.1,1.4-8.2,4.1
		c-1.3,1.7-2.1,4.2-2.5,7.5H378.3z"/>
</g>
<g class="st2">
	<path class="st3" d="M182.8,314c0-8.5,2.9-15.6,8.6-21.1c5.8-5.5,13.6-8.3,23.4-8.3c11.2,0,19.7,3.3,25.4,9.8
		c4.6,5.2,6.9,11.7,6.9,19.4c0,8.6-2.9,15.7-8.6,21.2c-5.7,5.5-13.6,8.3-23.7,8.3c-9,0-16.3-2.3-21.8-6.9
		C186.2,330.6,182.8,323.2,182.8,314z M204.3,313.9c0,5,1,8.7,3,11.1c2,2.4,4.6,3.6,7.6,3.6c3.1,0,5.6-1.2,7.6-3.5
		c2-2.4,3-6.1,3-11.3c0-4.9-1-8.5-3-10.8s-4.5-3.6-7.4-3.6c-3.1,0-5.7,1.2-7.8,3.6C205.4,305.4,204.3,309,204.3,313.9z"/>
	<path class="st3" d="M257.5,285.8h20v9.1c3-3.7,6-6.4,9.1-8c3.1-1.6,6.8-2.4,11.2-2.4c5.9,0,10.6,1.8,13.9,5.3s5,9,5,16.4v35.6
		h-21.6V311c0-3.5-0.7-6-2-7.5c-1.3-1.5-3.1-2.2-5.5-2.2c-2.6,0-4.7,1-6.3,3c-1.6,2-2.4,5.5-2.4,10.6v26.9h-21.5V285.8z"/>
</g>
</svg>
