<?xml version="1.0" encoding="utf-8"?>
<!-- Generator: Adobe Illustrator 21.0.2, SVG Export Plug-In . SVG Version: 6.00 Build 0)  -->
<svg version="1.1" id="Слой_1" xmlns="http://www.w3.org/2000/svg" xmlns:xlink="http://www.w3.org/1999/xlink" x="0px" y="0px"
	 viewBox="0 0 500 500" style="enable-background:new 0 0 500 500;" xml:space="preserve">
<style type="text/css">
	.st0{fill:url(#SVGID_1_);}
	.st1{fill:none;}
	.st2{enable-background:new    ;}
	.st3{fill:#FCFCFC;}
</style>
<linearGradient id="SVGID_1_" gradientUnits="userSpaceOnUse" x1="418.9209" y1="93.8708" x2="78.7215" y2="5.5169" gradientTransform="matrix(1 0 0 1 0 200)">
	<stop  offset="0" style="stop-color:#00E9D9"/>
	<stop  offset="1" style="stop-color:#2AFF2C"/>
</linearGradient>
<circle class="st0" cx="250" cy="250" r="175.7"/>
<rect x="98.1" y="214.7" class="st1" width="312.4" height="115.3"/>
<g class="st2">
	<path class="st3" d="M149,214.8v60.1h-15.6v-6.4c-2.2,2.7-4.2,4.6-6,5.5c-2.4,1.3-5.1,1.9-8,1.9c-5.9,0-10.5-2.3-13.6-6.8
		c-3.1-4.5-4.7-10-4.7-16.4c0-7.2,1.7-12.7,5.2-16.6c3.5-3.8,7.9-5.7,13.2-5.7c2.6,0,5,0.4,7.1,1.3c2.1,0.9,4,2.2,5.6,3.9v-20.8H149
		z M132.3,253c0-3.4-0.7-6-2.2-7.6c-1.4-1.7-3.3-2.5-5.5-2.5c-1.9,0-3.6,0.8-4.9,2.4s-2,4.3-2,8.1c0,3.6,0.7,6.2,2,7.8s3,2.5,5,2.5
		c2.1,0,3.9-0.8,5.3-2.5C131.6,259.5,132.3,256.8,132.3,253z"/>
	<path class="st3" d="M207.5,257.2h-33.5c0.3,2.7,1,4.7,2.2,6c1.6,1.9,3.7,2.8,6.3,2.8c1.6,0,3.2-0.4,4.7-1.2
		c0.9-0.5,1.9-1.4,2.9-2.7l16.4,1.5c-2.5,4.4-5.6,7.5-9.1,9.4c-3.6,1.9-8.7,2.9-15.3,2.9c-5.8,0-10.3-0.8-13.6-2.4
		c-3.3-1.6-6-4.2-8.2-7.8s-3.3-7.7-3.3-12.5c0-6.8,2.2-12.3,6.5-16.5c4.4-4.2,10.4-6.3,18.1-6.3c6.2,0,11.2,0.9,14.8,2.8
		s6.4,4.6,8.2,8.2s2.8,8.2,2.8,14V257.2z M190.6,249.3c-0.3-3.2-1.2-5.5-2.6-6.9c-1.4-1.4-3.3-2.1-5.6-2.1c-2.7,0-4.8,1.1-6.4,3.2
		c-1,1.3-1.7,3.3-1.9,5.9H190.6z"/>
	<path class="st3" d="M212.3,262.8l16.6-1.6c0.7,2,1.6,3.4,2.9,4.2s2.9,1.3,4.9,1.3c2.2,0,4-0.5,5.2-1.4c1-0.7,1.4-1.6,1.4-2.7
		c0-1.2-0.6-2.1-1.9-2.8c-0.9-0.5-3.3-1-7.2-1.7c-5.8-1-9.8-1.9-12.1-2.8c-2.3-0.9-4.2-2.3-5.7-4.4c-1.5-2-2.3-4.4-2.3-7
		c0-2.9,0.8-5.3,2.5-7.4c1.7-2.1,4-3.6,6.9-4.6c2.9-1,6.8-1.5,11.8-1.5c5.2,0,9,0.4,11.5,1.2c2.5,0.8,4.5,2,6.2,3.7s3,3.9,4.1,6.8
		l-15.8,1.6c-0.4-1.4-1.1-2.4-2.1-3.1c-1.3-0.9-2.9-1.3-4.8-1.3c-1.9,0-3.3,0.3-4.1,1s-1.3,1.5-1.3,2.4c0,1.1,0.5,1.9,1.6,2.4
		c1.1,0.5,3.5,1,7.1,1.5c5.6,0.6,9.7,1.5,12.4,2.6c2.7,1.1,4.8,2.7,6.2,4.8s2.2,4.4,2.2,6.8c0,2.5-0.8,5-2.3,7.3
		c-1.5,2.4-3.9,4.3-7.2,5.7c-3.3,1.4-7.7,2.1-13.4,2.1c-8,0-13.6-1.1-17-3.4C215.4,270.2,213.2,267,212.3,262.8z"/>
	<path class="st3" d="M267.1,214.8h16.7v11.4h-16.7V214.8z M267.1,231.3h16.7v43.6h-16.7V231.3z"/>
	<path class="st3" d="M324.8,231.3h15.6v41.1l0,1.9c0,2.7-0.6,5.3-1.7,7.8s-2.7,4.5-4.6,6s-4.4,2.6-7.3,3.3s-6.4,1-10.2,1
		c-8.8,0-14.8-1.3-18-3.9s-4.9-6.1-4.9-10.5c0-0.5,0-1.3,0.1-2.2l16.2,1.8c0.4,1.5,1,2.5,1.9,3.1c1.2,0.8,2.8,1.3,4.6,1.3
		c2.4,0,4.2-0.6,5.4-1.9s1.8-3.5,1.8-6.7v-6.6c-1.6,1.9-3.3,3.3-4.9,4.2c-2.6,1.4-5.3,2.1-8.3,2.1c-5.8,0-10.5-2.5-14.1-7.6
		c-2.5-3.6-3.8-8.4-3.8-14.3c0-6.8,1.6-11.9,4.9-15.5s7.6-5.3,12.9-5.3c3.4,0,6.2,0.6,8.4,1.7s4.3,3,6.2,5.7V231.3z M309.1,252.5
		c0,3.1,0.7,5.5,2,7s3.1,2.3,5.3,2.3c2.1,0,3.8-0.8,5.2-2.4s2.1-3.9,2.1-7.1s-0.7-5.6-2.2-7.3s-3.3-2.5-5.4-2.5s-3.8,0.8-5.1,2.3
		S309.1,248.9,309.1,252.5z"/>
	<path class="st3" d="M350.5,231.3h15.5v7.1c2.3-2.9,4.7-5,7.1-6.2s5.3-1.9,8.7-1.9c4.6,0,8.2,1.4,10.8,4.1s3.9,7,3.9,12.7v27.7
		h-16.8v-24c0-2.7-0.5-4.7-1.5-5.8s-2.4-1.7-4.3-1.7c-2,0-3.7,0.8-4.9,2.3s-1.9,4.3-1.9,8.2v20.9h-16.7V231.3z"/>
</g>
</svg>
